<?xml version="1.0" encoding="utf-8" standalone="no"?>
<!DOCTYPE svg PUBLIC "-//W3C//DTD SVG 1.1//EN"
  "http://www.w3.org/Graphics/SVG/1.1/DTD/svg11.dtd">
<svg xmlns:xlink="http://www.w3.org/1999/xlink" width="1008pt" height="561.6pt" viewBox="0 0 1008 561.6" xmlns="http://www.w3.org/2000/svg" version="1.1">
 <metadata>
  <rdf:RDF xmlns:dc="http://purl.org/dc/elements/1.1/" xmlns:cc="http://creativecommons.org/ns#" xmlns:rdf="http://www.w3.org/1999/02/22-rdf-syntax-ns#">
   <cc:Work>
    <dc:type rdf:resource="http://purl.org/dc/dcmitype/StillImage"/>
    <dc:date>2026-09-26T12:17:10.738116</dc:date>
    <dc:format>image/svg+xml</dc:format>
    <dc:creator>
     <cc:Agent>
      <dc:title>Matplotlib v3.10.6, https://matplotlib.org/</dc:title>
     </cc:Agent>
    </dc:creator>
   </cc:Work>
  </rdf:RDF>
 </metadata>
 <defs>
  <style type="text/css">*{stroke-linejoin: round; stroke-linecap: butt}</style>
 </defs>
 <g id="figure_1">
  <g id="patch_1">
   <path d="M 0 561.6 
L 1008 561.6 
L 1008 0 
L 0 0 
z
" style="fill: #ffffff"/>
  </g>
  <g id="axes_1">
   <g id="patch_2">
    <path d="M 79.7832 417.089088 
L 439.8408 417.089088 
Q 454.2048 417.089088 454.2048 409.002048 
L 454.2048 120.025152 
Q 454.2048 111.938112 439.8408 111.938112 
L 79.7832 111.938112 
Q 65.4192 111.938112 65.4192 120.025152 
L 65.4192 409.002048 
Q 65.4192 417.089088 79.7832 417.089088 
z
" clip-path="url(#p4d3f70077a)" style="fill: #edf4fc; stroke: #bccddc; stroke-width: 1.5; stroke-linejoin: miter"/>
   </g>
   <g id="patch_3">
    <path d="M 568.1592 417.089088 
L 928.2168 417.089088 
Q 942.5808 417.089088 942.5808 409.002048 
L 942.5808 120.025152 
Q 942.5808 111.938112 928.2168 111.938112 
L 568.1592 111.938112 
Q 553.7952 111.938112 553.7952 120.025152 
L 553.7952 409.002048 
Q 553.7952 417.089088 568.1592 417.089088 
z
" clip-path="url(#p4d3f70077a)" style="fill: #eaf5ef; stroke: #bccddc; stroke-width: 1.5; stroke-linejoin: miter"/>
   </g>
   <g id="patch_4">
    <path d="M 462.909527 261.81792 
Q 504.00012 261.81792 542.854646 261.81792 
" clip-path="url(#p4d3f70077a)" style="fill: none; stroke: #276fbf; stroke-width: 2; stroke-linecap: round"/>
    <path d="M 534.854646 257.81792 
L 542.854646 261.81792 
L 534.854646 265.81792 
z
" clip-path="url(#p4d3f70077a)" style="fill: #276fbf; stroke: #276fbf; stroke-width: 2; stroke-linecap: round"/>
   </g>
   <g id="text_1">
    <!-- 同一个资源名称，要先辨认编辑范围 -->
    <g style="fill: #20344b" transform="translate(304 47.656926) scale(0.25 -0.25)">
     <defs>
      <path id="MicrosoftYaHei-540c" d="M 1013 -772 
L 531 -772 
L 531 4959 
L 5856 4959 
L 5856 -47 
Q 5856 -741 5125 -741 
Q 4669 -741 4088 -716 
Q 4056 -497 4000 -216 
Q 4619 -272 5025 -272 
Q 5375 -272 5375 78 
L 5375 4497 
L 1013 4497 
L 1013 -772 
z
M 1875 2566 
L 4506 2566 
L 4506 597 
L 2338 597 
L 2338 272 
L 1875 272 
L 1875 2566 
z
M 4044 2116 
L 2338 2116 
L 2338 1047 
L 4044 1047 
L 4044 2116 
z
M 1363 3734 
L 5025 3734 
L 5025 3284 
L 1363 3284 
L 1363 3734 
z
" transform="scale(0.015625)"/>
      <path id="MicrosoftYaHei-4e00" d="M 100 2703 
L 6313 2703 
L 6313 2153 
L 100 2153 
L 100 2703 
z
" transform="scale(0.015625)"/>
      <path id="MicrosoftYaHei-4e2a" d="M 2913 3028 
L 3481 3028 
L 3481 -841 
L 2913 -841 
L 2913 3028 
z
M 3600 5178 
L 3506 5034 
Q 4519 3366 6319 2647 
Q 6125 2341 5988 2084 
Q 4150 3047 3206 4566 
Q 2281 3122 400 1997 
Q 263 2222 81 2491 
Q 2031 3572 2981 5178 
L 3600 5178 
z
" transform="scale(0.015625)"/>
      <path id="MicrosoftYaHei-8d44" d="M 1831 2716 
Q 3706 3197 3863 4341 
L 2863 4341 
Q 2638 3878 2363 3509 
Q 2163 3647 1944 3778 
Q 2531 4472 2775 5384 
L 3244 5272 
Q 3150 4997 3050 4753 
L 6013 4753 
L 6013 4359 
L 5588 3509 
Q 5375 3609 5131 3703 
L 5463 4341 
L 4350 4341 
Q 4300 4141 4238 3953 
Q 4775 3066 6256 2722 
Q 6081 2484 5944 2266 
Q 4613 2691 4044 3516 
Q 3613 2766 2150 2303 
Q 2025 2491 1831 2716 
z
M 1025 2278 
L 5369 2278 
L 5369 241 
L 4881 241 
L 4881 1841 
L 1513 1841 
L 1513 241 
L 1025 241 
L 1025 2278 
z
M 1744 3922 
Q 1856 3678 1988 3478 
Q 1244 2922 438 2272 
L 113 2697 
Q 994 3303 1744 3922 
z
M 631 5278 
Q 1169 4941 1675 4578 
L 1356 4191 
Q 906 4547 356 4934 
L 631 5278 
z
M 3444 1603 
Q 3438 928 3350 566 
Q 4775 103 6069 -397 
L 5806 -853 
Q 4625 -366 3175 153 
Q 2756 -591 506 -878 
Q 394 -641 238 -391 
Q 2306 -209 2738 384 
Q 2969 697 2956 1603 
L 3444 1603 
z
" transform="scale(0.015625)"/>
      <path id="MicrosoftYaHei-6e90" d="M 2931 3741 
L 3744 3741 
Q 3878 4094 4006 4478 
L 2425 4478 
L 2425 2678 
Q 2425 222 1463 -841 
Q 1313 -647 1100 -453 
Q 1963 509 1963 2672 
L 1963 4903 
L 6300 4903 
L 6300 4478 
L 4547 4478 
Q 4375 4103 4194 3741 
L 5844 3741 
L 5844 1178 
L 5394 1178 
L 5394 1341 
L 4588 1341 
L 4588 -128 
Q 4588 -797 3938 -797 
Q 3725 -797 3394 -791 
Q 3363 -603 3306 -359 
Q 3619 -384 3850 -384 
Q 4138 -384 4138 -84 
L 4138 1341 
L 3381 1341 
L 3381 1178 
L 2931 1178 
L 2931 3741 
z
M 831 1878 
Q 1056 1734 1275 1666 
Q 1019 603 700 -766 
L 219 -603 
Q 581 678 831 1878 
z
M 3381 1753 
L 5394 1753 
L 5394 2347 
L 3381 2347 
L 3381 1753 
z
M 5394 3328 
L 3381 3328 
L 3381 2747 
L 5394 2747 
L 5394 3328 
z
M 6288 -241 
L 5894 -541 
Q 5450 128 4931 759 
L 5294 1016 
Q 5863 353 6288 -241 
z
M 2363 -297 
Q 2894 272 3306 984 
L 3706 741 
Q 3231 -16 2731 -584 
L 2363 -297 
z
M 400 3622 
Q 888 3272 1500 2784 
Q 1281 2522 1144 2378 
Q 544 2909 88 3266 
L 400 3622 
z
M 669 5228 
Q 1163 4859 1688 4384 
Q 1469 4172 1313 4003 
Q 769 4541 350 4884 
L 669 5228 
z
" transform="scale(0.015625)"/>
      <path id="MicrosoftYaHei-540d" d="M 2406 5328 
L 2894 5128 
Q 2688 4853 2475 4603 
L 5669 4603 
L 5669 4159 
Q 4506 2828 2600 1978 
L 5656 1978 
L 5656 -866 
L 5156 -866 
L 5156 -459 
L 1863 -459 
L 1863 -866 
L 1363 -866 
L 1363 1478 
Q 875 1297 350 1122 
Q 213 1359 63 1584 
Q 1463 1966 2588 2516 
Q 2200 2909 1750 3322 
L 2125 3647 
Q 2650 3178 3088 2778 
Q 4188 3384 5000 4172 
L 2094 4172 
Q 1388 3403 481 2753 
Q 306 2984 156 3159 
Q 1394 3966 2406 5328 
z
M 5156 1528 
L 1863 1528 
L 1863 -22 
L 5156 -22 
L 5156 1528 
z
" transform="scale(0.015625)"/>
      <path id="MicrosoftYaHei-79f0" d="M 81 847 
Q 769 1847 1138 3003 
L 113 3003 
L 113 3428 
L 1150 3428 
L 1150 4372 
Q 725 4322 263 4278 
Q 219 4491 150 4728 
Q 1644 4872 2525 5028 
L 2644 4572 
Q 2156 4497 1594 4428 
L 1594 3428 
L 2406 3428 
L 2406 3278 
Q 2975 4122 3456 5341 
L 3931 5184 
Q 3744 4753 3563 4378 
L 6131 4378 
L 6131 3934 
Q 6000 3603 5644 2884 
Q 5456 2984 5181 3072 
Q 5444 3622 5569 3934 
L 3338 3934 
Q 3006 3291 2694 2841 
Q 2531 3016 2406 3134 
L 2406 3003 
L 1594 3003 
L 1594 2341 
L 1813 2541 
Q 2294 2091 2569 1766 
L 2244 1453 
Q 1906 1859 1594 2178 
L 1594 -853 
L 1150 -853 
L 1150 1897 
Q 794 1003 325 341 
Q 219 603 81 847 
z
M 4006 3628 
L 4481 3628 
L 4481 -34 
Q 4481 -753 3769 -753 
Q 3481 -753 3069 -734 
Q 3038 -503 2994 -228 
Q 3331 -278 3719 -278 
Q 4006 -278 4006 41 
L 4006 3628 
z
M 4806 2434 
L 5238 2628 
Q 5744 1753 6325 416 
L 5838 178 
Q 5325 1416 4806 2434 
z
M 3100 2616 
L 3569 2447 
Q 3150 1172 2656 147 
Q 2456 247 2188 347 
Q 2669 1334 3100 2616 
z
" transform="scale(0.015625)"/>
      <path id="MicrosoftYaHei-ff0c" d="M 1931 775 
L 1403 -891 
L 966 -891 
L 1350 775 
L 1931 775 
z
" transform="scale(0.015625)"/>
      <path id="MicrosoftYaHei-8981" d="M 613 3978 
L 2181 3978 
L 2181 4659 
L 313 4659 
L 313 5084 
L 6088 5084 
L 6088 4659 
L 4213 4659 
L 4213 3978 
L 5781 3978 
L 5781 2116 
L 5319 2116 
L 5319 2353 
L 1075 2353 
L 1075 2116 
L 613 2116 
L 613 3978 
z
M 94 1741 
L 1959 1741 
Q 2150 2038 2319 2341 
L 2800 2147 
Q 2663 1941 2528 1741 
L 6300 1741 
L 6300 1316 
L 4856 1316 
Q 4497 681 3925 247 
Q 4853 -31 5875 -347 
L 5600 -834 
Q 4550 -469 3394 -81 
Q 2300 -650 531 -872 
Q 419 -641 288 -391 
Q 1809 -253 2750 134 
Q 1991 388 1188 653 
Q 1447 981 1675 1316 
L 94 1316 
L 94 1741 
z
M 1900 853 
Q 2584 650 3328 428 
Q 3938 797 4269 1316 
L 2231 1316 
Q 2066 1078 1900 853 
z
M 2644 2753 
L 3750 2753 
L 3750 3578 
L 2644 3578 
L 2644 2753 
z
M 5319 3578 
L 4213 3578 
L 4213 2753 
L 5319 2753 
L 5319 3578 
z
M 1075 2753 
L 2181 2753 
L 2181 3578 
L 1075 3578 
L 1075 2753 
z
M 2644 3978 
L 3750 3978 
L 3750 4659 
L 2644 4659 
L 2644 3978 
z
" transform="scale(0.015625)"/>
      <path id="MicrosoftYaHei-5148" d="M 225 2453 
L 2956 2453 
L 2956 3784 
L 1459 3784 
Q 1153 3166 800 2709 
Q 569 2891 394 2997 
Q 1094 3903 1481 5166 
L 1969 5028 
Q 1828 4613 1672 4247 
L 2956 4247 
L 2956 5309 
L 3469 5309 
L 3469 4247 
L 5788 4247 
L 5788 3784 
L 3469 3784 
L 3469 2453 
L 6219 2453 
L 6219 1991 
L 4206 1991 
L 4206 222 
Q 4169 -259 4638 -216 
L 5275 -216 
Q 5706 -216 5750 109 
Q 5794 428 5819 1022 
Q 6056 922 6344 834 
Q 6313 372 6231 -122 
Q 6169 -434 5956 -559 
Q 5769 -678 5281 -678 
L 4538 -678 
Q 3663 -716 3700 141 
L 3700 1991 
L 2478 1991 
Q 2428 909 2044 328 
Q 1581 -397 369 -847 
Q 244 -647 50 -397 
Q 1163 -16 1581 584 
Q 1925 1047 1978 1991 
L 225 1991 
L 225 2453 
z
" transform="scale(0.015625)"/>
      <path id="MicrosoftYaHei-8fa8" d="M 3813 1366 
L 4775 1366 
L 4775 2309 
L 3756 2309 
L 3756 2716 
L 5053 2716 
Q 5334 3281 5606 3941 
L 6050 3722 
Q 5778 3209 5494 2716 
L 6269 2716 
L 6269 2309 
L 5225 2309 
L 5225 1366 
L 6225 1366 
L 6225 959 
L 5225 959 
L 5225 -841 
L 4775 -841 
L 4775 959 
L 3813 959 
L 3813 1366 
z
M 150 1372 
L 1028 1372 
Q 1050 1578 1050 2328 
L 119 2328 
L 119 2734 
L 1328 2734 
Q 1547 3184 1819 3909 
L 2256 3709 
Q 1947 3094 1753 2734 
L 2300 2734 
L 2300 2328 
L 1500 2328 
Q 1500 1791 1481 1372 
L 2319 1372 
L 2319 966 
L 1431 966 
Q 1228 -181 425 -847 
Q 219 -591 94 -484 
Q 763 66 963 966 
L 150 966 
L 150 1372 
z
M 3188 5241 
L 3606 5241 
L 3606 2253 
Q 3606 191 2256 -841 
Q 2113 -678 1919 -503 
Q 3188 422 3188 2297 
L 3188 5241 
z
M 3788 4466 
L 4916 4466 
Q 4772 4778 4538 5166 
L 4931 5353 
Q 5156 5009 5356 4628 
L 5025 4466 
L 6163 4466 
L 6163 4059 
L 3788 4059 
L 3788 4466 
z
M 150 4453 
L 1219 4453 
Q 1050 4828 844 5141 
L 1238 5341 
Q 1525 4903 1663 4616 
L 1328 4453 
L 2350 4453 
L 2350 4047 
L 150 4047 
L 150 4453 
z
M 2519 3709 
L 2919 3678 
Q 2844 2641 2719 1691 
Q 2481 1734 2313 1759 
Q 2481 2678 2519 3709 
z
M 3944 3722 
L 4319 3916 
Q 4594 3484 4806 3053 
L 4400 2828 
Q 4194 3316 3944 3722 
z
M 244 3716 
L 606 3891 
Q 906 3378 1069 3009 
L 681 2797 
Q 494 3259 244 3716 
z
" transform="scale(0.015625)"/>
      <path id="MicrosoftYaHei-8ba4" d="M 3788 5253 
L 4294 5253 
Q 4288 4431 4272 3644 
Q 4616 791 6325 -222 
Q 6100 -472 5919 -703 
Q 4584 234 4103 2297 
Q 3759 409 2181 -816 
Q 2038 -641 1819 -416 
Q 3756 978 3769 3678 
Q 3788 4378 3788 5253 
z
M 2525 1634 
Q 2563 1359 2625 1128 
Q 1975 628 1381 97 
Q 1213 -59 1094 -228 
L 725 159 
Q 925 366 925 709 
L 925 2816 
L 88 2816 
L 88 3266 
L 1413 3266 
L 1413 716 
Q 1875 1084 2525 1634 
z
M 1025 5203 
Q 1625 4597 2081 4097 
L 1650 3741 
Q 1213 4291 656 4891 
L 1025 5203 
z
" transform="scale(0.015625)"/>
      <path id="MicrosoftYaHei-7f16" d="M 3144 -797 
L 2744 -797 
L 2744 2534 
L 6050 2534 
L 6050 -228 
Q 6050 -772 5563 -772 
Q 5219 -784 5019 -784 
Q 4994 -609 4953 -459 
L 4663 -459 
L 4663 803 
L 4094 803 
L 4094 -484 
L 3713 -484 
L 3713 803 
L 3144 803 
L 3144 -797 
z
M 75 353 
Q 838 456 1875 616 
Q 2125 1444 2125 2659 
L 2125 4684 
L 3884 4684 
Q 3738 4947 3606 5147 
L 4081 5366 
Q 4259 5081 4481 4684 
L 5956 4684 
L 5956 2972 
L 5531 2972 
L 5531 3172 
L 2550 3172 
L 2550 2653 
Q 2550 241 1631 -834 
Q 1500 -641 1325 -447 
Q 1556 -175 1719 197 
Q 759 3 188 -122 
L 75 353 
z
M 813 1634 
Q 1106 1647 1894 1722 
Q 1863 1459 1844 1316 
Q 619 1209 288 1159 
L 200 1553 
Q 519 1872 1031 2831 
Q 553 2794 200 2759 
L 81 3153 
Q 681 4109 1138 5303 
L 1625 5128 
Q 1100 4009 613 3191 
Q 816 3191 1222 3200 
Q 1388 3522 1569 3903 
L 2019 3703 
Q 1219 2259 813 1634 
z
M 5531 4284 
L 2550 4284 
L 2550 3572 
L 5531 3572 
L 5531 4284 
z
M 5388 -378 
Q 5631 -378 5631 -109 
L 5631 803 
L 5044 803 
L 5044 -369 
Q 5203 -378 5388 -378 
z
M 5631 2134 
L 5044 2134 
L 5044 1184 
L 5631 1184 
L 5631 2134 
z
M 4094 1184 
L 4663 1184 
L 4663 2134 
L 4094 2134 
L 4094 1184 
z
M 3144 1184 
L 3713 1184 
L 3713 2134 
L 3144 2134 
L 3144 1184 
z
" transform="scale(0.015625)"/>
      <path id="MicrosoftYaHei-8f91" d="M 2281 228 
Q 2559 241 2850 250 
L 2850 2759 
L 2469 2759 
L 2469 3147 
L 6231 3147 
L 6231 2759 
L 5819 2759 
L 5819 400 
Q 6066 413 6319 428 
Q 6288 184 6275 16 
Q 6050 6 5819 0 
L 5819 -841 
L 5381 -841 
L 5381 -19 
Q 3991 -81 2313 -184 
L 2281 228 
z
M 681 2241 
L 1350 2241 
L 1350 3622 
L 1763 3622 
L 1763 2241 
L 2494 2241 
L 2494 1828 
L 1763 1828 
L 1763 969 
Q 2188 1019 2606 1078 
Q 2575 841 2563 647 
Q 2181 603 1763 550 
L 1763 -841 
L 1350 -841 
L 1350 497 
Q 772 422 131 334 
L 81 791 
Q 722 850 1350 919 
L 1350 1828 
L 225 1828 
L 225 2222 
Q 572 3181 809 3941 
L 156 3941 
L 156 4347 
L 934 4347 
Q 1100 4913 1194 5347 
L 1675 5247 
Q 1572 4891 1394 4347 
L 2544 4347 
L 2544 3941 
L 1263 3941 
Q 1025 3222 681 2241 
z
M 2794 5041 
L 5875 5041 
L 5875 3422 
L 5444 3422 
L 5444 3647 
L 3231 3647 
L 3231 3422 
L 2794 3422 
L 2794 5041 
z
M 5444 4672 
L 3231 4672 
L 3231 4016 
L 5444 4016 
L 5444 4672 
z
M 5381 375 
L 5381 903 
L 3288 903 
L 3288 272 
Q 4266 319 5381 375 
z
M 3288 1266 
L 5381 1266 
L 5381 1834 
L 3288 1834 
L 3288 1266 
z
M 3288 2197 
L 5381 2197 
L 5381 2759 
L 3288 2759 
L 3288 2197 
z
" transform="scale(0.015625)"/>
      <path id="MicrosoftYaHei-8303" d="M 2600 3341 
L 5575 3341 
Q 5525 2416 5481 1828 
Q 5400 941 4550 941 
Q 4188 941 3713 959 
Q 3675 1209 3613 1503 
Q 4163 1428 4538 1428 
Q 4931 1428 4988 1822 
Q 5031 2241 5056 2903 
L 3094 2903 
L 3094 197 
Q 3094 -191 3488 -191 
L 5125 -191 
Q 5625 -209 5694 191 
Q 5781 672 5806 1134 
Q 6069 1028 6313 947 
Q 6263 522 6169 22 
Q 6056 -678 5169 -641 
L 3344 -641 
Q 2600 -628 2600 109 
L 2600 3341 
z
M 150 4653 
L 1863 4653 
L 1863 5328 
L 2363 5328 
L 2363 4653 
L 4050 4653 
L 4050 5328 
L 4550 5328 
L 4550 4653 
L 6269 4653 
L 6269 4209 
L 4550 4209 
L 4550 3659 
L 4050 3659 
L 4050 4209 
L 2363 4209 
L 2363 3659 
L 1863 3659 
L 1863 4209 
L 150 4209 
L 150 4653 
z
M 1525 1559 
Q 1700 1422 1975 1253 
Q 1213 -97 813 -734 
L 344 -422 
Q 988 484 1525 1559 
z
M 1119 3784 
Q 1788 3316 2156 3016 
L 1819 2622 
Q 1275 3109 819 3428 
L 1119 3784 
z
M 431 2747 
Q 1025 2341 1438 1984 
L 1125 1591 
Q 494 2141 131 2378 
L 431 2747 
z
" transform="scale(0.015625)"/>
      <path id="MicrosoftYaHei-56f4" d="M 469 4997 
L 5938 4997 
L 5938 -834 
L 5469 -834 
L 5469 -528 
L 938 -528 
L 938 -841 
L 469 -841 
L 469 4997 
z
M 5469 4553 
L 938 4553 
L 938 -84 
L 5469 -84 
L 5469 4553 
z
M 1200 2016 
L 2794 2016 
L 2794 2541 
L 1481 2541 
L 1481 2953 
L 2794 2953 
L 2794 3472 
L 1325 3472 
L 1325 3884 
L 2794 3884 
L 2794 4409 
L 3250 4409 
L 3250 3884 
L 4963 3884 
L 4963 3472 
L 3250 3472 
L 3250 2953 
L 4756 2953 
L 4756 2541 
L 3250 2541 
L 3250 2016 
L 4925 2016 
Q 4906 1634 4869 1191 
Q 4819 478 4169 478 
Q 3888 478 3569 497 
Q 3538 728 3475 984 
Q 3806 934 4063 928 
Q 4394 909 4419 1234 
Q 4438 1409 4444 1603 
L 3250 1603 
L 3250 72 
L 2794 72 
L 2794 1603 
L 1200 1603 
L 1200 2016 
z
" transform="scale(0.015625)"/>
     </defs>
     <use xlink:href="#MicrosoftYaHei-540c"/>
     <use xlink:href="#MicrosoftYaHei-4e00" transform="translate(100 0)"/>
     <use xlink:href="#MicrosoftYaHei-4e2a" transform="translate(200 0)"/>
     <use xlink:href="#MicrosoftYaHei-8d44" transform="translate(300 0)"/>
     <use xlink:href="#MicrosoftYaHei-6e90" transform="translate(400 0)"/>
     <use xlink:href="#MicrosoftYaHei-540d" transform="translate(500 0)"/>
     <use xlink:href="#MicrosoftYaHei-79f0" transform="translate(600 0)"/>
     <use xlink:href="#MicrosoftYaHei-ff0c" transform="translate(700 0)"/>
     <use xlink:href="#MicrosoftYaHei-8981" transform="translate(800 0)"/>
     <use xlink:href="#MicrosoftYaHei-5148" transform="translate(900 0)"/>
     <use xlink:href="#MicrosoftYaHei-8fa8" transform="translate(1000 0)"/>
     <use xlink:href="#MicrosoftYaHei-8ba4" transform="translate(1100 0)"/>
     <use xlink:href="#MicrosoftYaHei-7f16" transform="translate(1200 0)"/>
     <use xlink:href="#MicrosoftYaHei-8f91" transform="translate(1300 0)"/>
     <use xlink:href="#MicrosoftYaHei-8303" transform="translate(1400 0)"/>
     <use xlink:href="#MicrosoftYaHei-56f4" transform="translate(1500 0)"/>
    </g>
   </g>
   <g id="text_2">
    <!-- 教学示意，依据正文合同绘制；不是系统截图或已执行的青禾 Run。 -->
    <g style="fill: #546779" transform="translate(322.9125 528.220976) scale(0.12 -0.12)">
     <defs>
      <path id="MicrosoftYaHei-6559" d="M 2975 2153 
Q 3681 3453 4106 5216 
L 4563 5103 
Q 4438 4591 4275 4084 
L 6225 4084 
L 6225 3634 
L 5613 3634 
Q 5569 2022 4825 859 
Q 5394 78 6319 -359 
Q 6144 -616 6025 -822 
Q 5113 -297 4538 459 
Q 3906 -328 2900 -884 
Q 2788 -722 2594 -472 
Q 3638 59 4263 872 
Q 3825 1603 3669 2522 
Q 3525 2216 3375 1916 
Q 3175 2047 2975 2153 
z
M 3163 4678 
L 3538 4434 
Q 3156 3866 2688 3309 
L 3150 3309 
L 3150 2897 
L 2331 2897 
Q 2081 2616 1819 2353 
L 2844 2353 
L 2844 1978 
L 2038 1184 
L 2038 1072 
Q 2544 1159 3156 1272 
Q 3138 1034 3131 841 
Q 2619 753 2038 647 
L 2038 -34 
Q 2081 -809 1313 -778 
Q 1044 -778 619 -766 
Q 594 -566 556 -297 
Q 850 -328 1225 -334 
Q 1619 -372 1588 16 
L 1588 566 
Q 981 453 313 322 
L 238 778 
Q 756 853 1588 991 
L 1588 1303 
L 2244 1953 
L 1406 1953 
Q 888 1478 369 1078 
Q 244 1253 75 1434 
Q 438 1691 750 1953 
L 231 1953 
L 231 2353 
L 1200 2353 
Q 1494 2616 1769 2897 
L 150 2897 
L 150 3309 
L 1381 3309 
L 1381 3947 
L 400 3947 
L 400 4359 
L 1381 4359 
L 1381 5209 
L 1831 5209 
L 1831 4359 
L 2600 4359 
L 2600 3947 
L 1831 3947 
L 1831 3309 
L 2138 3309 
Q 2700 3941 3163 4678 
z
M 3981 3272 
Q 4106 2134 4550 1303 
Q 5119 2291 5156 3634 
L 4119 3634 
Q 4056 3453 3981 3272 
z
" transform="scale(0.015625)"/>
      <path id="MicrosoftYaHei-5b66" d="M 144 1359 
L 3069 1359 
L 3069 1709 
L 4263 2384 
L 1325 2384 
L 1325 2841 
L 4994 2841 
L 4994 2316 
L 3575 1497 
L 3575 1359 
L 6263 1359 
L 6263 903 
L 3575 903 
L 3575 -41 
Q 3575 -778 2831 -778 
Q 2419 -778 1863 -766 
Q 1844 -553 1788 -234 
Q 2288 -284 2744 -291 
Q 3069 -297 3069 53 
L 3069 903 
L 144 903 
L 144 1359 
z
M 356 3909 
L 6056 3909 
L 6056 2647 
L 5563 2647 
L 5563 3453 
L 850 3453 
L 850 2647 
L 356 2647 
L 356 3909 
z
M 4313 4272 
Q 4731 4722 5100 5241 
L 5550 4909 
Q 5144 4447 4681 3941 
L 4313 4272 
z
M 2538 5116 
L 2944 5353 
Q 3325 4853 3650 4334 
L 3200 4078 
Q 2925 4566 2538 5116 
z
M 850 4928 
L 1219 5197 
Q 1600 4778 1969 4291 
L 1544 3991 
Q 1194 4522 850 4928 
z
" transform="scale(0.015625)"/>
      <path id="MicrosoftYaHei-793a" d="M 100 3072 
L 6300 3072 
L 6300 2603 
L 3619 2603 
L 3619 78 
Q 3619 -703 2800 -709 
Q 2366 -709 1825 -703 
Q 1788 -447 1731 -128 
Q 2225 -178 2663 -178 
Q 3088 -178 3088 241 
L 3088 2603 
L 100 2603 
L 100 3072 
z
M 675 4916 
L 5744 4916 
L 5744 4447 
L 675 4447 
L 675 4916 
z
M 4413 1847 
L 4831 2128 
Q 5600 1184 6319 159 
L 5863 -141 
Q 5088 991 4413 1847 
z
M 1481 2141 
L 1938 1884 
Q 1281 747 538 -278 
Q 344 -134 125 16 
Q 825 922 1481 2141 
z
" transform="scale(0.015625)"/>
      <path id="MicrosoftYaHei-610f" d="M 2706 759 
L 3022 1028 
L 1419 1028 
L 1419 834 
L 956 834 
L 956 2997 
L 5406 2997 
L 5406 834 
L 4944 834 
L 4944 1028 
L 3038 1028 
Q 3447 681 3756 353 
L 3388 47 
Q 3125 353 2706 759 
z
M 150 3722 
L 1906 3722 
Q 1659 3956 1406 4172 
L 1594 4347 
L 538 4347 
L 538 4722 
L 3028 4722 
Q 2900 4984 2763 5216 
L 3188 5397 
Q 3391 5044 3538 4722 
L 5863 4722 
L 5863 4347 
L 4772 4347 
L 4988 4184 
Q 4738 3953 4472 3722 
L 6250 3722 
L 6250 3347 
L 150 3347 
L 150 3722 
z
M 1650 791 
L 2125 791 
L 2125 78 
Q 2125 -284 2538 -284 
L 3819 -284 
Q 4269 -284 4350 59 
Q 4413 297 4463 622 
Q 4681 528 4931 447 
Q 4856 91 4794 -128 
Q 4644 -709 3950 -709 
L 2438 -709 
Q 1650 -709 1650 34 
L 1650 791 
z
M 1419 1391 
L 4944 1391 
L 4944 1841 
L 1419 1841 
L 1419 1391 
z
M 4944 2634 
L 1419 2634 
L 1419 2191 
L 4944 2191 
L 4944 2634 
z
M 3925 3834 
Q 4178 4047 4481 4347 
L 1838 4347 
Q 2116 4141 2381 3909 
L 2191 3722 
L 4038 3722 
L 3925 3834 
z
M 656 759 
L 1094 591 
Q 869 22 569 -559 
Q 381 -472 131 -366 
Q 388 97 656 759 
z
M 5175 503 
L 5531 778 
Q 5975 303 6325 -116 
L 5931 -428 
Q 5550 72 5175 503 
z
" transform="scale(0.015625)"/>
      <path id="MicrosoftYaHei-4f9d" d="M 5681 3141 
L 6038 2753 
Q 5388 2222 4644 1688 
Q 5250 531 6331 -3 
Q 6106 -253 5938 -478 
Q 4159 622 3675 3138 
Q 3413 2719 3100 2322 
L 3100 22 
Q 3631 322 4194 666 
Q 4238 366 4294 159 
Q 3650 -197 3094 -559 
Q 2906 -691 2731 -853 
L 2394 -422 
Q 2613 -216 2613 141 
L 2613 1759 
Q 2153 1266 1600 816 
Q 1494 1034 1344 1297 
Q 2784 2416 3497 3847 
L 1738 3847 
L 1738 4272 
L 6263 4272 
L 6263 3847 
L 4066 3847 
Q 4038 3791 4009 3731 
Q 4153 2831 4441 2125 
Q 5100 2613 5681 3141 
z
M 69 2272 
Q 906 3522 1369 5303 
L 1831 5166 
Q 1578 4341 1275 3625 
L 1275 -841 
L 825 -841 
L 825 2681 
Q 559 2188 263 1759 
Q 175 2022 69 2272 
z
M 3338 5116 
L 3750 5372 
Q 4075 4966 4338 4591 
L 3900 4303 
Q 3638 4741 3338 5116 
z
" transform="scale(0.015625)"/>
      <path id="MicrosoftYaHei-636e" d="M 2900 1334 
L 4188 1334 
L 4188 2128 
L 2731 2128 
Q 2663 206 1844 -841 
Q 1694 -647 1506 -447 
Q 2288 516 2288 2509 
L 2288 4947 
L 5975 4947 
L 5975 3134 
L 5525 3134 
L 5525 3328 
L 2738 3328 
L 2738 2553 
L 4188 2553 
L 4188 3209 
L 4638 3209 
L 4638 2553 
L 6288 2553 
L 6288 2128 
L 4638 2128 
L 4638 1334 
L 5938 1334 
L 5938 -778 
L 5488 -778 
L 5488 -416 
L 3350 -416 
L 3350 -778 
L 2900 -778 
L 2900 1334 
z
M 100 1966 
Q 544 2088 963 2213 
L 963 3641 
L 175 3641 
L 175 4091 
L 963 4091 
L 963 5284 
L 1425 5284 
L 1425 4091 
L 2106 4091 
L 2106 3641 
L 1425 3641 
L 1425 2356 
Q 1722 2450 2006 2547 
Q 2013 2266 2044 2059 
Q 1722 1956 1425 1856 
L 1425 -34 
Q 1425 -741 806 -753 
Q 613 -759 231 -747 
Q 206 -497 156 -228 
Q 500 -266 681 -266 
Q 963 -266 963 53 
L 963 1703 
Q 534 1559 163 1428 
L 100 1966 
z
M 5525 4534 
L 2738 4534 
L 2738 3741 
L 5525 3741 
L 5525 4534 
z
M 5488 922 
L 3350 922 
L 3350 -9 
L 5488 -9 
L 5488 922 
z
" transform="scale(0.015625)"/>
      <path id="MicrosoftYaHei-6b63" d="M 88 66 
L 1106 66 
L 1106 3416 
L 1644 3416 
L 1644 66 
L 3231 66 
L 3231 4309 
L 375 4309 
L 375 4797 
L 6063 4797 
L 6063 4309 
L 3769 4309 
L 3769 2672 
L 5850 2672 
L 5850 2191 
L 3769 2191 
L 3769 66 
L 6313 66 
L 6313 -422 
L 88 -422 
L 88 66 
z
" transform="scale(0.015625)"/>
      <path id="MicrosoftYaHei-6587" d="M 194 4241 
L 3194 4241 
Q 2878 4841 2700 5116 
L 3181 5341 
Q 3356 5072 3706 4466 
L 3256 4241 
L 6194 4241 
L 6194 3778 
L 5041 3778 
Q 4706 1994 3603 909 
Q 4434 303 6244 -178 
Q 5956 -503 5806 -722 
Q 4044 -113 3203 553 
Q 2359 -103 506 -772 
Q 344 -553 131 -284 
Q 1919 253 2822 913 
Q 1681 2131 1372 3778 
L 194 3778 
L 194 4241 
z
M 4506 3778 
L 1872 3778 
Q 2153 2241 3216 1238 
Q 4231 2181 4506 3778 
z
" transform="scale(0.015625)"/>
      <path id="MicrosoftYaHei-5408" d="M 1025 1909 
L 5381 1909 
L 5381 -866 
L 4881 -866 
L 4881 -447 
L 1525 -447 
L 1525 -878 
L 1025 -878 
L 1025 1909 
z
M 3700 5234 
L 3550 5053 
Q 4594 3697 6319 3009 
Q 6125 2734 5988 2509 
Q 5481 2753 5025 3059 
L 5025 2703 
L 1369 2703 
L 1369 3016 
Q 913 2716 394 2428 
Q 269 2641 81 2897 
Q 2013 3866 3000 5234 
L 3700 5234 
z
M 4881 1453 
L 1525 1453 
L 1525 -3 
L 4881 -3 
L 4881 1453 
z
M 3219 4691 
Q 2581 3872 1550 3147 
L 4894 3147 
Q 3944 3797 3219 4691 
z
" transform="scale(0.015625)"/>
      <path id="MicrosoftYaHei-7ed8" d="M 2294 1784 
L 5900 1784 
L 5900 1359 
L 3956 1359 
Q 3431 522 2975 -109 
Q 3875 -84 5031 -34 
Q 4738 403 4419 847 
L 4800 1066 
Q 5463 209 5988 -616 
L 5556 -872 
Q 5419 -647 5281 -422 
Q 3656 -509 2994 -559 
Q 2800 -578 2350 -653 
L 2138 -203 
Q 2381 -128 2575 103 
Q 2988 628 3369 1359 
L 2294 1359 
L 2294 1784 
z
M 856 1672 
Q 1481 1734 2075 1816 
Q 2050 1547 2025 1391 
Q 1400 1316 294 1159 
L 194 1616 
Q 531 1834 1156 2903 
Q 575 2866 213 2834 
L 88 3247 
Q 681 4166 1106 5278 
L 1594 5103 
Q 1156 4172 619 3284 
Q 856 3284 1375 3297 
Q 1594 3691 1844 4178 
L 2288 3972 
Q 1569 2722 856 1672 
z
M 4394 5266 
L 4281 5072 
Q 5100 3666 6313 3047 
Q 6088 2797 5950 2609 
Q 4750 3397 4038 4603 
Q 3419 3484 2325 2534 
Q 2206 2697 1950 2884 
Q 3219 3922 3850 5266 
L 4394 5266 
z
M 2850 2997 
L 5294 2997 
L 5294 2578 
L 2850 2578 
L 2850 2997 
z
M 94 97 
Q 763 216 2163 534 
Q 2144 291 2150 53 
Q 1319 -116 219 -378 
L 94 97 
z
" transform="scale(0.015625)"/>
      <path id="MicrosoftYaHei-5236" d="M 1906 5266 
L 2394 5266 
L 2394 4309 
L 3750 4309 
L 3750 3872 
L 2394 3872 
L 2394 3034 
L 4025 3034 
L 4025 2597 
L 2394 2597 
L 2394 1897 
L 3763 1897 
L 3763 409 
Q 3763 -266 3150 -272 
Q 2956 -278 2631 -272 
Q 2600 -72 2538 178 
Q 2844 159 3038 159 
Q 3300 159 3300 472 
L 3300 1472 
L 2394 1472 
L 2394 -847 
L 1906 -847 
L 1906 1472 
L 1044 1472 
L 1044 -378 
L 581 -378 
L 581 1897 
L 1906 1897 
L 1906 2597 
L 113 2597 
L 113 3034 
L 1906 3034 
L 1906 3872 
L 981 3872 
Q 822 3513 619 3191 
Q 413 3309 194 3428 
Q 688 4172 881 5041 
L 1344 4922 
Q 1263 4603 1159 4309 
L 1906 4309 
L 1906 5266 
z
M 5469 5272 
L 5969 5272 
L 5969 122 
Q 5969 -722 5225 -722 
Q 4981 -722 4388 -716 
Q 4350 -472 4288 -172 
Q 4813 -222 5075 -222 
Q 5469 -222 5469 222 
L 5469 5272 
z
M 4750 822 
L 4269 822 
L 4269 4672 
L 4750 4672 
L 4750 822 
z
" transform="scale(0.015625)"/>
      <path id="MicrosoftYaHei-ff1b" d="M 1606 3531 
Q 1772 3531 1890 3415 
Q 2009 3300 2009 3138 
Q 2009 2975 1893 2858 
Q 1778 2741 1606 2741 
Q 1434 2741 1318 2858 
Q 1203 2975 1203 3138 
Q 1203 3300 1322 3415 
Q 1441 3531 1606 3531 
z
M 1931 775 
L 1403 -891 
L 966 -891 
L 1350 775 
L 1931 775 
z
" transform="scale(0.015625)"/>
      <path id="MicrosoftYaHei-4e0d" d="M 225 4772 
L 6181 4772 
L 6181 4284 
L 3881 4284 
Q 3581 3766 3081 3053 
L 3444 3053 
L 3444 -866 
L 2906 -866 
L 2906 2859 
Q 1838 1541 388 609 
Q 231 834 38 1059 
Q 2006 2291 3213 4284 
L 225 4284 
L 225 4772 
z
M 4069 2859 
Q 5238 2147 6325 1409 
L 5969 916 
Q 4681 1872 3763 2434 
L 4069 2859 
z
" transform="scale(0.015625)"/>
      <path id="MicrosoftYaHei-662f" d="M 1088 5078 
L 5338 5078 
L 5338 2472 
L 4863 2472 
L 4863 2722 
L 1563 2722 
L 1563 2472 
L 1088 2472 
L 1088 5078 
z
M 1400 1553 
L 1875 1409 
Q 1775 1081 1647 788 
Q 2122 19 3063 -134 
L 3063 1747 
L 213 1747 
L 213 2184 
L 6225 2184 
L 6225 1747 
L 3563 1747 
L 3563 1122 
L 5788 1122 
L 5788 697 
L 3563 697 
L 3563 -172 
Q 4763 -197 6344 -147 
Q 6244 -416 6169 -641 
Q 4331 -647 3344 -622 
Q 2022 -606 1434 359 
Q 1006 -413 350 -891 
Q 225 -703 44 -484 
Q 1050 191 1400 1553 
z
M 1563 3147 
L 4863 3147 
L 4863 3697 
L 1563 3697 
L 1563 3147 
z
M 4863 4653 
L 1563 4653 
L 1563 4109 
L 4863 4109 
L 4863 4653 
z
" transform="scale(0.015625)"/>
      <path id="MicrosoftYaHei-7cfb" d="M 4494 2747 
Q 5294 2103 6131 1334 
Q 5925 1134 5750 953 
Q 5491 1209 5225 1459 
Q 4391 1425 3519 1378 
L 3519 -28 
Q 3519 -741 2769 -741 
Q 2463 -741 1963 -728 
Q 1931 -497 1881 -216 
Q 2406 -272 2688 -272 
Q 3031 -272 3031 66 
L 3031 1353 
Q 2272 1313 1488 1266 
Q 1131 1247 781 1184 
L 575 1722 
Q 988 1797 1356 1966 
Q 2313 2434 3131 2909 
Q 2044 2825 1306 2759 
Q 981 2728 813 2691 
L 613 3216 
Q 913 3291 1175 3434 
Q 1959 3872 2747 4469 
Q 1675 4403 575 4353 
Q 531 4572 463 4791 
Q 3444 4903 5756 5134 
L 5850 4691 
Q 4494 4578 3097 4488 
L 3350 4309 
Q 2369 3653 1538 3203 
Q 2938 3281 3856 3353 
Q 4481 3753 5013 4159 
L 5419 3828 
Q 3850 2709 1775 1734 
Q 3019 1778 4791 1866 
Q 4478 2153 4163 2428 
L 4494 2747 
z
M 4125 697 
L 4444 1034 
Q 5231 509 6175 -222 
L 5806 -628 
Q 4931 97 4125 697 
z
M 1681 1028 
L 2088 709 
Q 1288 -9 406 -678 
Q 256 -497 63 -297 
Q 875 259 1681 1028 
z
" transform="scale(0.015625)"/>
      <path id="MicrosoftYaHei-7edf" d="M 5100 3641 
Q 5625 2934 6175 2047 
Q 5956 1922 5713 1766 
Q 5556 2031 5413 2275 
Q 5122 2256 4813 2241 
L 4813 122 
Q 4813 -259 5094 -259 
L 5400 -259 
Q 5706 -259 5750 53 
Q 5800 428 5813 866 
Q 6019 778 6313 684 
Q 6263 141 6206 -159 
Q 6119 -703 5550 -703 
L 5013 -703 
Q 4331 -703 4331 78 
L 4331 2213 
Q 3981 2194 3606 2169 
Q 3556 809 3256 272 
Q 2900 -416 1925 -866 
Q 1788 -672 1606 -447 
Q 2513 -78 2819 522 
Q 3100 1000 3122 2138 
Q 2994 2128 2863 2122 
Q 2594 2097 2363 2041 
L 2150 2528 
Q 2419 2641 2581 2828 
Q 3050 3388 3463 4047 
L 2100 4047 
L 2100 4491 
L 4094 4491 
Q 3859 4850 3650 5128 
L 4063 5384 
Q 4300 5091 4594 4684 
L 4297 4491 
L 6200 4491 
L 6200 4047 
L 3663 4047 
L 4006 3897 
Q 3488 3197 2988 2609 
Q 4166 2650 5153 2694 
Q 4916 3075 4700 3391 
L 5100 3641 
z
M 894 1534 
Q 1394 1603 2175 1722 
Q 2138 1472 2113 1259 
Q 1331 1153 325 991 
L 225 1441 
Q 616 1841 1153 2744 
Q 503 2700 219 2678 
L 100 3103 
Q 650 3828 1288 5316 
L 1763 5128 
Q 1156 3941 656 3141 
Q 1066 3147 1394 3159 
Q 1581 3494 1788 3884 
L 2256 3678 
Q 1544 2434 894 1534 
z
M 81 222 
Q 1119 422 2225 672 
Q 2200 347 2200 222 
Q 1069 -28 225 -253 
L 81 222 
z
" transform="scale(0.015625)"/>
      <path id="MicrosoftYaHei-622a" d="M 3625 191 
Q 4038 478 4378 838 
Q 4106 1816 4041 3291 
L 163 3291 
L 163 3703 
L 1856 3703 
L 1856 4284 
L 531 4284 
L 531 4684 
L 1856 4684 
L 1856 5278 
L 2294 5278 
L 2294 4684 
L 3519 4684 
L 3519 4284 
L 2294 4284 
L 2294 3703 
L 4022 3703 
Q 4003 4241 3981 5284 
L 4444 5284 
Q 4444 4400 4472 3703 
L 6225 3703 
L 6225 3291 
L 4491 3291 
Q 4544 2116 4747 1272 
Q 5238 1922 5544 2759 
L 5981 2572 
Q 5563 1541 4897 744 
Q 5041 328 5231 22 
Q 5394 -247 5550 -247 
Q 5681 -247 5738 -9 
Q 5813 303 5881 866 
Q 6125 753 6325 697 
Q 6231 84 6125 -291 
Q 5975 -797 5588 -797 
Q 5138 -797 4806 -197 
Q 4659 44 4538 353 
Q 4253 66 3931 -184 
Q 3800 3 3625 191 
z
M 2044 3034 
L 2338 3284 
Q 2588 3059 2881 2747 
L 2669 2572 
L 3763 2572 
L 3763 2197 
L 2631 2197 
L 2631 1684 
L 3669 1684 
L 3669 1322 
L 2631 1322 
L 2631 809 
L 3688 809 
L 3688 447 
L 2631 447 
L 2631 -66 
L 3756 -66 
L 3756 -441 
L 1213 -441 
L 1213 -791 
L 788 -791 
L 788 1763 
Q 569 1472 338 1209 
Q 200 1391 50 1559 
Q 738 2259 1169 3184 
L 1569 3009 
Q 1450 2784 1322 2572 
L 2478 2572 
Q 2259 2828 2044 3034 
z
M 4744 4741 
L 5019 5066 
Q 5569 4684 5994 4347 
L 5675 3959 
Q 5225 4372 4744 4741 
z
M 1213 809 
L 2206 809 
L 2206 1322 
L 1213 1322 
L 1213 809 
z
M 1213 1684 
L 2206 1684 
L 2206 2197 
L 1213 2197 
L 1213 1684 
z
M 1213 -66 
L 2206 -66 
L 2206 447 
L 1213 447 
L 1213 -66 
z
" transform="scale(0.015625)"/>
      <path id="MicrosoftYaHei-56fe" d="M 431 5072 
L 5944 5072 
L 5944 -809 
L 5475 -809 
L 5475 -509 
L 900 -509 
L 900 -809 
L 431 -809 
L 431 5072 
z
M 5475 4622 
L 900 4622 
L 900 -59 
L 5475 -59 
L 5475 4622 
z
M 1113 3091 
Q 1969 3709 2519 4547 
L 2931 4353 
Q 2816 4181 2681 4016 
L 4894 4016 
L 4894 3647 
Q 4434 3091 3722 2644 
Q 4381 2422 5338 2297 
Q 5194 2016 5131 1828 
Q 4022 2081 3256 2400 
Q 2491 2056 1225 1728 
Q 1138 1934 1013 2128 
Q 2109 2353 2825 2644 
Q 2384 2947 2066 3341 
Q 1769 3056 1419 2784 
Q 1294 2916 1113 3091 
z
M 1563 672 
L 1694 1103 
Q 3256 897 4700 622 
L 4531 147 
Q 3150 453 1563 672 
z
M 4275 3628 
L 2347 3628 
Q 2338 3616 2328 3606 
Q 2691 3141 3244 2841 
Q 3891 3188 4275 3628 
z
M 2219 1503 
L 2344 1922 
Q 3263 1784 4275 1609 
L 4144 1172 
Q 3119 1378 2219 1503 
z
" transform="scale(0.015625)"/>
      <path id="MicrosoftYaHei-6216" d="M 2675 -484 
Q 3456 50 4044 741 
Q 3644 1847 3569 3741 
L 200 3741 
L 200 4203 
L 3550 4203 
Q 3525 4725 3506 5291 
L 4019 5291 
Q 4022 4725 4038 4203 
L 6250 4203 
L 6250 3741 
L 4047 3741 
Q 4088 2188 4397 1197 
Q 5000 2044 5350 3097 
L 5844 2891 
Q 5334 1619 4603 659 
Q 4884 59 5275 -191 
Q 5650 -434 5738 16 
Q 5831 484 5881 978 
Q 6138 866 6363 797 
Q 6244 78 6138 -291 
Q 6006 -778 5569 -791 
Q 5206 -791 4863 -528 
Q 4513 -234 4259 244 
Q 3706 -384 3038 -853 
Q 2894 -691 2675 -484 
z
M 644 3134 
L 2894 3134 
L 2894 947 
L 2444 947 
L 2444 1234 
L 1094 1234 
L 1094 797 
L 644 797 
L 644 3134 
z
M 106 91 
Q 1300 247 3219 578 
Q 3225 309 3238 103 
Q 1831 -109 231 -409 
L 106 91 
z
M 2444 2697 
L 1094 2697 
L 1094 1672 
L 2444 1672 
L 2444 2697 
z
M 4494 4991 
L 4756 5316 
Q 5263 5022 5781 4659 
L 5481 4284 
Q 5013 4647 4494 4991 
z
" transform="scale(0.015625)"/>
      <path id="MicrosoftYaHei-5df2" d="M 738 3684 
L 1275 3684 
L 1275 2828 
L 5013 2828 
L 5013 4434 
L 506 4434 
L 506 4897 
L 5538 4897 
L 5538 1984 
L 5013 1984 
L 5013 2366 
L 1275 2366 
L 1275 547 
Q 1275 -28 1819 -28 
L 4900 -28 
Q 5438 -28 5550 359 
Q 5663 741 5719 1378 
Q 5963 1272 6256 1191 
Q 6169 541 6069 153 
Q 5881 -553 5019 -553 
L 1694 -553 
Q 738 -553 738 434 
L 738 3684 
z
" transform="scale(0.015625)"/>
      <path id="MicrosoftYaHei-6267" d="M 2225 2272 
L 2519 2647 
Q 2788 2472 3059 2294 
Q 3128 2856 3147 3622 
L 2406 3622 
L 2406 4097 
L 3156 4097 
Q 3169 4672 3175 5303 
L 3663 5303 
Q 3656 4653 3644 4097 
L 5363 4097 
Q 5350 3228 5344 2341 
Q 5319 616 5488 34 
Q 5531 -103 5618 -103 
Q 5706 -103 5744 59 
Q 5831 409 5913 1059 
Q 6156 934 6375 878 
Q 6288 253 6175 -159 
Q 6025 -691 5613 -691 
Q 5194 -691 5013 -103 
Q 4869 397 4875 1847 
Q 4869 2672 4869 3622 
L 3634 3622 
Q 3616 2709 3513 1988 
Q 3994 1663 4481 1322 
L 4163 891 
Q 3791 1172 3416 1444 
Q 3113 100 2088 -847 
Q 1931 -634 1713 -422 
Q 2725 506 2975 1756 
Q 2600 2019 2225 2272 
z
M 88 1966 
Q 525 2069 969 2181 
L 969 3647 
L 144 3647 
L 144 4097 
L 969 4097 
L 969 5303 
L 1431 5303 
L 1431 4097 
L 2163 4097 
L 2163 3647 
L 1431 3647 
L 1431 2303 
Q 1772 2394 2113 2491 
Q 2125 2216 2156 2016 
L 1431 1813 
L 1431 -78 
Q 1431 -759 875 -759 
Q 606 -759 219 -747 
Q 194 -516 138 -247 
Q 538 -291 694 -291 
Q 969 -291 969 3 
L 969 1678 
Q 559 1559 150 1441 
L 88 1966 
z
" transform="scale(0.015625)"/>
      <path id="MicrosoftYaHei-884c" d="M 2363 2978 
L 6319 2978 
L 6319 2509 
L 5106 2509 
L 5106 66 
Q 5106 -709 4325 -709 
Q 3800 -709 3256 -703 
Q 3219 -453 3163 -141 
Q 3650 -191 4144 -191 
Q 4575 -191 4575 234 
L 4575 2509 
L 2363 2509 
L 2363 2978 
z
M 100 1578 
Q 1069 2372 1863 3809 
L 2300 3541 
Q 1978 2984 1619 2500 
L 1619 -809 
L 1100 -809 
L 1100 1856 
Q 725 1431 319 1072 
Q 219 1334 100 1578 
z
M 2725 4866 
L 5969 4866 
L 5969 4397 
L 2725 4397 
L 2725 4866 
z
M 131 3559 
Q 1125 4328 1731 5347 
L 2181 5072 
Q 1456 3959 381 3078 
Q 269 3316 131 3559 
z
" transform="scale(0.015625)"/>
      <path id="MicrosoftYaHei-7684" d="M 356 4284 
L 988 4284 
Q 1219 4853 1369 5322 
L 1894 5172 
Q 1697 4694 1513 4284 
L 2763 4284 
L 2763 -691 
L 2263 -691 
L 2263 -203 
L 856 -203 
L 856 -734 
L 356 -734 
L 356 4284 
z
M 2856 3003 
Q 3444 3934 3850 5322 
L 4375 5191 
Q 4216 4719 4050 4303 
L 6063 4303 
Q 5988 1091 5938 259 
Q 5894 -722 4906 -722 
Q 4338 -722 3750 -684 
Q 3713 -372 3650 -128 
L 3669 -128 
Q 4294 -216 4813 -216 
Q 5381 -216 5425 384 
Q 5494 1316 5525 3834 
L 3850 3834 
Q 3578 3231 3288 2772 
Q 3119 2891 2856 3003 
z
M 856 266 
L 2263 266 
L 2263 1847 
L 856 1847 
L 856 266 
z
M 2263 3816 
L 856 3816 
L 856 2297 
L 2263 2297 
L 2263 3816 
z
M 3406 2578 
L 3788 2859 
Q 4481 2041 4894 1441 
L 4431 1116 
Q 3988 1841 3406 2578 
z
" transform="scale(0.015625)"/>
      <path id="MicrosoftYaHei-9752" d="M 1469 -784 
L 975 -784 
L 975 2384 
L 5431 2384 
L 5431 -91 
Q 5431 -747 4656 -741 
Q 4200 -741 3713 -734 
Q 3688 -534 3619 -253 
Q 4119 -291 4588 -291 
Q 4931 -291 4931 -3 
L 4931 347 
L 1469 347 
L 1469 -784 
z
M 200 3166 
L 2963 3166 
L 2963 3591 
L 650 3591 
L 650 3984 
L 2963 3984 
L 2963 4403 
L 325 4403 
L 325 4803 
L 2963 4803 
L 2963 5359 
L 3463 5359 
L 3463 4803 
L 6075 4803 
L 6075 4403 
L 3463 4403 
L 3463 3984 
L 5625 3984 
L 5625 3591 
L 3463 3591 
L 3463 3166 
L 6200 3166 
L 6200 2766 
L 200 2766 
L 200 3166 
z
M 4931 1984 
L 1469 1984 
L 1469 1553 
L 4931 1553 
L 4931 1984 
z
M 1469 734 
L 4931 734 
L 4931 1166 
L 1469 1166 
L 1469 734 
z
" transform="scale(0.015625)"/>
      <path id="MicrosoftYaHei-79be" d="M 325 3128 
L 2938 3128 
L 2938 4328 
Q 1875 4272 656 4228 
Q 631 4466 556 4716 
Q 3569 4809 5713 5009 
L 5788 4522 
Q 4744 4434 3450 4359 
L 3450 3128 
L 6075 3128 
L 6075 2653 
L 3831 2653 
Q 4613 922 6319 284 
Q 6144 97 5931 -216 
Q 4213 578 3450 2522 
L 3450 -897 
L 2938 -897 
L 2938 2497 
Q 2231 828 419 -291 
Q 288 -97 31 184 
Q 1700 1072 2544 2653 
L 325 2653 
L 325 3128 
z
" transform="scale(0.015625)"/>
      <path id="MicrosoftYaHei-20" transform="scale(0.015625)"/>
      <path id="MicrosoftYaHei-52" d="M 4159 0 
L 3422 0 
L 2619 1344 
Q 2378 1747 2178 1892 
Q 1978 2038 1700 2038 
L 1250 2038 
L 1250 0 
L 625 0 
L 625 4841 
L 2100 4841 
Q 2806 4841 3206 4500 
Q 3606 4159 3606 3547 
Q 3606 2541 2531 2241 
L 2531 2225 
Q 2731 2141 2876 1984 
Q 3022 1828 3253 1450 
L 4159 0 
z
M 1250 4294 
L 1250 2584 
L 1988 2584 
Q 2416 2584 2683 2834 
Q 2950 3084 2950 3491 
Q 2950 3869 2706 4081 
Q 2463 4294 1997 4294 
L 1250 4294 
z
" transform="scale(0.015625)"/>
      <path id="MicrosoftYaHei-75" d="M 3400 0 
L 2784 0 
L 2784 544 
L 2772 544 
Q 2425 -81 1706 -81 
Q 478 -81 478 1388 
L 478 3456 
L 1084 3456 
L 1084 1478 
Q 1084 425 1891 425 
Q 2291 425 2537 720 
Q 2784 1016 2784 1466 
L 2784 3456 
L 3400 3456 
L 3400 0 
z
" transform="scale(0.015625)"/>
      <path id="MicrosoftYaHei-6e" d="M 3469 0 
L 2859 0 
L 2859 1966 
Q 2859 3031 2081 3031 
Q 1678 3031 1418 2731 
Q 1159 2431 1159 1972 
L 1159 0 
L 547 0 
L 547 3456 
L 1159 3456 
L 1159 2884 
L 1172 2884 
Q 1563 3538 2306 3538 
Q 2875 3538 3172 3173 
Q 3469 2809 3469 2113 
L 3469 0 
z
" transform="scale(0.015625)"/>
      <path id="MicrosoftYaHei-3002" d="M 1219 863 
Q 1525 863 1750 625 
Q 1975 388 1975 72 
Q 1975 -284 1747 -507 
Q 1519 -731 1197 -731 
Q 875 -731 642 -503 
Q 409 -275 409 66 
Q 409 413 656 638 
Q 903 863 1219 863 
z
M 1209 -275 
Q 1328 -275 1431 -184 
Q 1534 -94 1534 50 
Q 1534 209 1434 304 
Q 1334 400 1191 400 
Q 1056 400 959 304 
Q 863 209 863 53 
Q 863 -100 977 -187 
Q 1091 -275 1209 -275 
z
" transform="scale(0.015625)"/>
     </defs>
     <use xlink:href="#MicrosoftYaHei-6559"/>
     <use xlink:href="#MicrosoftYaHei-5b66" transform="translate(100 0)"/>
     <use xlink:href="#MicrosoftYaHei-793a" transform="translate(200 0)"/>
     <use xlink:href="#MicrosoftYaHei-610f" transform="translate(300 0)"/>
     <use xlink:href="#MicrosoftYaHei-ff0c" transform="translate(400 0)"/>
     <use xlink:href="#MicrosoftYaHei-4f9d" transform="translate(500 0)"/>
     <use xlink:href="#MicrosoftYaHei-636e" transform="translate(600 0)"/>
     <use xlink:href="#MicrosoftYaHei-6b63" transform="translate(700 0)"/>
     <use xlink:href="#MicrosoftYaHei-6587" transform="translate(800 0)"/>
     <use xlink:href="#MicrosoftYaHei-5408" transform="translate(900 0)"/>
     <use xlink:href="#MicrosoftYaHei-540c" transform="translate(1000 0)"/>
     <use xlink:href="#MicrosoftYaHei-7ed8" transform="translate(1100 0)"/>
     <use xlink:href="#MicrosoftYaHei-5236" transform="translate(1200 0)"/>
     <use xlink:href="#MicrosoftYaHei-ff1b" transform="translate(1300 0)"/>
     <use xlink:href="#MicrosoftYaHei-4e0d" transform="translate(1400 0)"/>
     <use xlink:href="#MicrosoftYaHei-662f" transform="translate(1500 0)"/>
     <use xlink:href="#MicrosoftYaHei-7cfb" transform="translate(1600 0)"/>
     <use xlink:href="#MicrosoftYaHei-7edf" transform="translate(1700 0)"/>
     <use xlink:href="#MicrosoftYaHei-622a" transform="translate(1800 0)"/>
     <use xlink:href="#MicrosoftYaHei-56fe" transform="translate(1900 0)"/>
     <use xlink:href="#MicrosoftYaHei-6216" transform="translate(2000 0)"/>
     <use xlink:href="#MicrosoftYaHei-5df2" transform="translate(2100 0)"/>
     <use xlink:href="#MicrosoftYaHei-6267" transform="translate(2200 0)"/>
     <use xlink:href="#MicrosoftYaHei-884c" transform="translate(2300 0)"/>
     <use xlink:href="#MicrosoftYaHei-7684" transform="translate(2400 0)"/>
     <use xlink:href="#MicrosoftYaHei-9752" transform="translate(2500 0)"/>
     <use xlink:href="#MicrosoftYaHei-79be" transform="translate(2600 0)"/>
     <use xlink:href="#MicrosoftYaHei-20" transform="translate(2700 0)"/>
     <use xlink:href="#MicrosoftYaHei-52" transform="translate(2729.589844 0)"/>
     <use xlink:href="#MicrosoftYaHei-75" transform="translate(2794.873047 0)"/>
     <use xlink:href="#MicrosoftYaHei-6e" transform="translate(2856.494141 0)"/>
     <use xlink:href="#MicrosoftYaHei-3002" transform="translate(2918.115234 0)"/>
    </g>
   </g>
   <g id="text_3">
    <!-- 基础配置 -->
    <g style="fill: #276fbf" transform="translate(213.812 160.324704) scale(0.23 -0.23)">
     <defs>
      <path id="MicrosoftYaHei-57fa" d="M 6319 697 
Q 6113 441 5981 247 
Q 5406 519 4925 897 
L 4925 553 
L 3431 553 
L 3431 -97 
L 5875 -97 
L 5875 -503 
L 519 -503 
L 519 -97 
L 2963 -97 
L 2963 553 
L 1450 553 
L 1450 894 
Q 953 478 413 172 
Q 294 341 88 566 
Q 1050 1034 1753 1753 
L 156 1753 
L 156 2159 
L 1400 2159 
L 1400 4253 
L 350 4253 
L 350 4659 
L 1400 4659 
L 1400 5334 
L 1869 5334 
L 1869 4659 
L 4550 4659 
L 4550 5334 
L 5019 5334 
L 5019 4659 
L 6069 4659 
L 6069 4253 
L 5019 4253 
L 5019 2159 
L 6244 2159 
L 6244 1753 
L 4600 1753 
Q 5303 1053 6319 697 
z
M 2963 1553 
L 3431 1553 
L 3431 947 
L 4863 947 
Q 4416 1306 4047 1753 
L 2325 1753 
Q 1934 1309 1513 947 
L 2963 947 
L 2963 1553 
z
M 1869 2159 
L 4550 2159 
L 4550 2603 
L 1869 2603 
L 1869 2159 
z
M 1869 2991 
L 4550 2991 
L 4550 3428 
L 1869 3428 
L 1869 2991 
z
M 1869 3816 
L 4550 3816 
L 4550 4253 
L 1869 4253 
L 1869 3816 
z
" transform="scale(0.015625)"/>
      <path id="MicrosoftYaHei-7840" d="M 5500 2222 
L 5500 2516 
L 4594 2516 
L 4594 3 
L 5613 3 
L 5613 1803 
L 6075 1803 
L 6075 -728 
L 5613 -728 
L 5613 -447 
L 2663 -447 
L 2663 1803 
L 3125 1803 
L 3125 3 
L 4131 3 
L 4131 2516 
L 2775 2516 
L 2775 4622 
L 3238 4622 
L 3238 2966 
L 4131 2966 
L 4131 5272 
L 4594 5272 
L 4594 2966 
L 5500 2966 
L 5500 4616 
L 5963 4616 
L 5963 2222 
L 5500 2222 
z
M 19 1784 
Q 725 2956 1038 4366 
L 225 4366 
L 225 4778 
L 2444 4778 
L 2444 4366 
L 1453 4366 
Q 1294 3641 1059 2991 
L 2200 2991 
L 2200 -197 
L 1788 -197 
L 1788 222 
L 1100 222 
L 1100 -372 
L 688 -372 
L 688 2106 
Q 522 1763 331 1447 
Q 200 1616 19 1784 
z
M 1788 2591 
L 1100 2591 
L 1100 622 
L 1788 622 
L 1788 2591 
z
" transform="scale(0.015625)"/>
      <path id="MicrosoftYaHei-914d" d="M 388 3697 
L 1244 3697 
L 1244 4516 
L 194 4516 
L 194 4928 
L 3506 4928 
L 3506 4516 
L 2469 4516 
L 2469 3697 
L 3375 3697 
L 3375 -766 
L 2956 -766 
L 2956 -366 
L 806 -366 
L 806 -772 
L 388 -772 
L 388 3697 
z
M 3831 2916 
L 5488 2916 
L 5488 4541 
L 3725 4541 
L 3725 4978 
L 5938 4978 
L 5938 2234 
L 5488 2234 
L 5488 2478 
L 4281 2478 
L 4281 316 
Q 4281 -178 4706 -178 
L 5300 -178 
Q 5669 -178 5719 191 
Q 5800 609 5831 1203 
Q 6006 1116 6300 997 
Q 6256 491 6169 34 
Q 6063 -628 5381 -628 
L 4575 -628 
Q 3831 -628 3831 253 
L 3831 2916 
z
M 2069 2291 
L 2069 3297 
L 1644 3297 
L 1644 3047 
Q 1644 2047 1125 1391 
Q 975 1538 806 1697 
L 806 1178 
L 2956 1178 
L 2956 1778 
L 2513 1778 
Q 2069 1778 2069 2291 
z
M 806 34 
L 2956 34 
L 2956 784 
L 806 784 
L 806 34 
z
M 2956 3297 
L 2469 3297 
L 2469 2428 
Q 2456 2147 2700 2166 
L 2956 2166 
L 2956 3297 
z
M 806 1738 
Q 1244 2234 1244 3078 
L 1244 3297 
L 806 3297 
L 806 1738 
z
M 1644 3697 
L 2069 3697 
L 2069 4516 
L 1644 4516 
L 1644 3697 
z
" transform="scale(0.015625)"/>
      <path id="MicrosoftYaHei-7f6e" d="M 94 -284 
L 1025 -284 
L 1025 2609 
L 2938 2609 
L 2938 3016 
L 244 3016 
L 244 3366 
L 2938 3366 
L 2938 3697 
L 3388 3697 
L 3388 3366 
L 6150 3366 
L 6150 3016 
L 3388 3016 
L 3388 2609 
L 5431 2609 
L 5431 -284 
L 6294 -284 
L 6294 -647 
L 94 -647 
L 94 -284 
z
M 638 5034 
L 5756 5034 
L 5756 3641 
L 5331 3641 
L 5331 3784 
L 1069 3784 
L 1069 3641 
L 638 3641 
L 638 5034 
z
M 1463 -284 
L 4994 -284 
L 4994 116 
L 1463 116 
L 1463 -284 
z
M 1463 441 
L 4994 441 
L 4994 834 
L 1463 834 
L 1463 441 
z
M 1463 1159 
L 4994 1159 
L 4994 1553 
L 1463 1553 
L 1463 1159 
z
M 4994 2272 
L 1463 2272 
L 1463 1878 
L 4994 1878 
L 4994 2272 
z
M 5331 4697 
L 4181 4697 
L 4181 4122 
L 5331 4122 
L 5331 4697 
z
M 2625 4122 
L 3769 4122 
L 3769 4697 
L 2625 4697 
L 2625 4122 
z
M 1069 4122 
L 2213 4122 
L 2213 4697 
L 1069 4697 
L 1069 4122 
z
" transform="scale(0.015625)"/>
     </defs>
     <use xlink:href="#MicrosoftYaHei-57fa"/>
     <use xlink:href="#MicrosoftYaHei-7840" transform="translate(100 0)"/>
     <use xlink:href="#MicrosoftYaHei-914d" transform="translate(200 0)"/>
     <use xlink:href="#MicrosoftYaHei-7f6e" transform="translate(300 0)"/>
    </g>
   </g>
   <g id="text_4">
    <!-- 公共作者资源 -->
    <g style="fill: #276fbf" transform="translate(205.812 207.469991) scale(0.18 -0.18)">
     <defs>
      <path id="MicrosoftYaHei-516c" d="M 4144 1591 
Q 5044 422 5663 -534 
L 5188 -847 
Q 5013 -559 4816 -250 
Q 2753 -350 1463 -453 
Q 1225 -478 888 -559 
L 613 -28 
Q 894 84 1131 316 
Q 1863 1159 2719 2809 
L 3256 2566 
Q 2481 1234 1600 78 
Q 2891 119 4522 194 
Q 4166 734 3738 1334 
L 4144 1591 
z
M 3606 4953 
L 4069 5134 
Q 4675 3503 6325 2547 
Q 6156 2372 5938 2059 
Q 4213 3247 3606 4953 
z
M 75 2366 
Q 1469 3503 2156 5047 
L 2650 4841 
Q 1806 3084 475 1966 
Q 313 2172 75 2366 
z
" transform="scale(0.015625)"/>
      <path id="MicrosoftYaHei-5171" d="M 125 1847 
L 1738 1847 
L 1738 3572 
L 375 3572 
L 375 4047 
L 1738 4047 
L 1738 5247 
L 2250 5247 
L 2250 4047 
L 4144 4047 
L 4144 5253 
L 4656 5253 
L 4656 4047 
L 6025 4047 
L 6025 3572 
L 4656 3572 
L 4656 1847 
L 6275 1847 
L 6275 1372 
L 125 1372 
L 125 1847 
z
M 2250 1847 
L 4144 1847 
L 4144 3572 
L 2250 3572 
L 2250 1847 
z
M 2219 1053 
L 2606 653 
Q 1569 -103 444 -747 
Q 306 -547 113 -316 
Q 1206 266 2219 1053 
z
M 3744 622 
L 4063 1016 
Q 5138 378 6131 -303 
L 5769 -759 
Q 4781 -16 3744 622 
z
" transform="scale(0.015625)"/>
      <path id="MicrosoftYaHei-4f5c" d="M 1806 2784 
Q 2638 3922 3031 5322 
L 3544 5228 
Q 3397 4747 3213 4297 
L 6294 4297 
L 6294 3859 
L 4019 3859 
L 4019 2766 
L 6044 2766 
L 6044 2328 
L 4019 2328 
L 4019 1191 
L 6125 1191 
L 6125 753 
L 4019 753 
L 4019 -822 
L 3531 -822 
L 3531 3859 
L 3022 3859 
Q 2669 3097 2200 2428 
Q 2025 2597 1806 2784 
z
M 69 2209 
Q 950 3516 1463 5303 
L 1975 5153 
Q 1734 4416 1463 3769 
L 1463 -822 
L 975 -822 
L 975 2750 
Q 659 2159 306 1672 
Q 213 1909 69 2209 
z
" transform="scale(0.015625)"/>
      <path id="MicrosoftYaHei-8005" d="M 194 3303 
L 2569 3303 
L 2569 4091 
L 813 4091 
L 813 4516 
L 2569 4516 
L 2569 5309 
L 3069 5309 
L 3069 4516 
L 4600 4516 
L 4600 4091 
L 3069 4091 
L 3069 3303 
L 3681 3303 
Q 4706 4028 5363 4891 
L 5806 4591 
Q 5241 3913 4466 3303 
L 6256 3303 
L 6256 2878 
L 3888 2878 
Q 3372 2522 2778 2191 
L 5256 2191 
L 5256 -822 
L 4769 -822 
L 4769 -453 
L 1875 -453 
L 1875 -822 
L 1388 -822 
L 1388 1497 
Q 875 1269 319 1053 
Q 213 1247 38 1509 
Q 1766 2109 3031 2878 
L 194 2878 
L 194 3303 
z
M 1875 -41 
L 4769 -41 
L 4769 678 
L 1875 678 
L 1875 -41 
z
M 1875 1722 
L 1875 1066 
L 4769 1066 
L 4769 1778 
L 1988 1778 
Q 1931 1750 1875 1722 
z
" transform="scale(0.015625)"/>
     </defs>
     <use xlink:href="#MicrosoftYaHei-516c"/>
     <use xlink:href="#MicrosoftYaHei-5171" transform="translate(100 0)"/>
     <use xlink:href="#MicrosoftYaHei-4f5c" transform="translate(200 0)"/>
     <use xlink:href="#MicrosoftYaHei-8005" transform="translate(300 0)"/>
     <use xlink:href="#MicrosoftYaHei-8d44" transform="translate(400 0)"/>
     <use xlink:href="#MicrosoftYaHei-6e90" transform="translate(500 0)"/>
    </g>
   </g>
   <g id="text_5">
    <!-- 地图 -->
    <g style="fill: #20344b" transform="translate(241.812 272.166311) scale(0.18 -0.18)">
     <defs>
      <path id="MicrosoftYaHei-5730" d="M 3975 5303 
L 4463 5303 
L 4463 3688 
L 5981 4147 
Q 5944 2916 5906 2134 
Q 5869 1291 5231 1284 
Q 4944 1278 4669 1284 
Q 4631 1516 4575 1803 
Q 4875 1766 5094 1766 
Q 5419 1759 5431 2241 
Q 5469 2809 5475 3534 
L 4463 3219 
L 4463 509 
L 3975 509 
L 3975 3069 
L 3031 2775 
L 3031 353 
Q 3031 -134 3563 -134 
L 5094 -134 
Q 5669 -134 5731 328 
Q 5806 728 5856 1259 
Q 6106 1159 6375 1078 
Q 6288 478 6206 103 
Q 6056 -609 5225 -609 
L 3444 -609 
Q 2544 -609 2544 272 
L 2544 2622 
L 2075 2478 
L 1994 2941 
L 2544 3106 
L 2544 4566 
L 3031 4566 
L 3031 3253 
L 3975 3538 
L 3975 5303 
z
M 44 303 
Q 491 447 944 597 
L 944 3091 
L 138 3091 
L 138 3528 
L 944 3528 
L 944 5272 
L 1406 5272 
L 1406 3528 
L 2131 3528 
L 2131 3091 
L 1406 3091 
L 1406 753 
Q 1803 891 2206 1034 
Q 2219 772 2250 572 
Q 1225 203 219 -178 
L 44 303 
z
" transform="scale(0.015625)"/>
     </defs>
     <use xlink:href="#MicrosoftYaHei-5730"/>
     <use xlink:href="#MicrosoftYaHei-56fe" transform="translate(100 0)"/>
    </g>
   </g>
   <g id="text_6">
    <!-- 智能体 → 智能体 / 人群 -->
    <g style="fill: #20344b" transform="translate(164.313562 326.079911) scale(0.18 -0.18)">
     <defs>
      <path id="MicrosoftYaHei-667a" d="M 1131 1984 
L 5319 1984 
L 5319 -853 
L 4856 -853 
L 4856 -572 
L 1594 -572 
L 1594 -853 
L 1131 -853 
L 1131 1984 
z
M 3544 4797 
L 5931 4797 
L 5931 2241 
L 5469 2241 
L 5469 2616 
L 4006 2616 
L 4006 2241 
L 3544 2241 
L 3544 4797 
z
M 200 3666 
L 1588 3666 
Q 1638 3947 1650 4328 
L 1031 4328 
Q 788 3984 456 3684 
Q 338 3859 163 4059 
Q 825 4609 1069 5353 
L 1525 5253 
Q 1425 4978 1288 4728 
L 3156 4728 
L 3156 4328 
L 2119 4328 
Q 2100 3959 2063 3666 
L 3344 3666 
L 3344 3266 
L 1981 3266 
Q 1963 3203 1944 3147 
Q 2569 2841 3300 2397 
L 3013 2028 
Q 2375 2472 1769 2784 
Q 1344 2122 350 1709 
Q 231 1903 63 2128 
Q 1181 2541 1481 3266 
L 200 3266 
L 200 3666 
z
M 4856 1584 
L 1594 1584 
L 1594 897 
L 4856 897 
L 4856 1584 
z
M 1594 -172 
L 4856 -172 
L 4856 509 
L 1594 509 
L 1594 -172 
z
M 5469 4397 
L 4006 4397 
L 4006 3016 
L 5469 3016 
L 5469 4397 
z
" transform="scale(0.015625)"/>
      <path id="MicrosoftYaHei-80fd" d="M 950 -759 
L 463 -759 
L 463 2928 
L 3000 2928 
L 3000 -28 
Q 3000 -703 2375 -703 
Q 2100 -709 1669 -709 
Q 1638 -516 1575 -234 
Q 1969 -266 2206 -266 
Q 2513 -266 2513 53 
L 2513 572 
L 950 572 
L 950 -759 
z
M 3606 2253 
L 4094 2253 
L 4094 1222 
Q 4981 1553 5950 2091 
L 6231 1659 
Q 5209 1122 4094 706 
L 4094 166 
Q 4094 -228 4400 -228 
L 5319 -228 
Q 5638 -228 5688 78 
Q 5731 353 5763 897 
Q 6000 803 6250 722 
Q 6200 172 6144 -109 
Q 6063 -659 5363 -659 
L 4319 -659 
Q 3606 -659 3606 72 
L 3606 2253 
z
M 3619 5303 
L 4106 5303 
L 4106 4231 
Q 4966 4572 5813 5053 
L 6094 4622 
Q 5119 4128 4106 3719 
L 4106 3359 
Q 4106 2941 4438 2941 
L 5231 2941 
Q 5625 2941 5675 3266 
Q 5719 3534 5750 4047 
Q 5988 3953 6238 3866 
Q 6188 3366 6131 3053 
Q 6038 2509 5288 2509 
L 4375 2509 
Q 3619 2509 3619 3259 
L 3619 5303 
z
M 2463 4772 
Q 3031 4034 3450 3353 
Q 3213 3191 3019 3066 
Q 2897 3281 2759 3506 
Q 1231 3394 313 3303 
L 113 3828 
Q 388 3978 719 4391 
Q 1063 4841 1394 5397 
L 1888 5216 
Q 1369 4466 794 3797 
Q 1731 3856 2497 3919 
Q 2300 4216 2075 4528 
L 2463 4772 
z
M 950 947 
L 2513 947 
L 2513 1553 
L 950 1553 
L 950 947 
z
M 2513 2528 
L 950 2528 
L 950 1928 
L 2513 1928 
L 2513 2528 
z
" transform="scale(0.015625)"/>
      <path id="MicrosoftYaHei-4f53" d="M 6350 778 
Q 6138 522 5981 316 
Q 4731 1278 4144 3572 
L 4144 934 
L 5063 934 
L 5063 484 
L 4144 484 
L 4144 -822 
L 3681 -822 
L 3681 484 
L 2763 484 
L 2763 934 
L 3681 934 
L 3681 3572 
L 3666 3572 
Q 3084 1413 1750 216 
Q 1606 397 1419 609 
Q 2625 1713 3225 3572 
L 1756 3572 
L 1756 4022 
L 3681 4022 
L 3681 5297 
L 4144 5297 
L 4144 4022 
L 6138 4022 
L 6138 3572 
L 4547 3572 
Q 5144 1628 6350 778 
z
M 56 2297 
Q 963 3622 1406 5316 
L 1881 5178 
Q 1638 4381 1331 3681 
L 1331 -816 
L 869 -816 
L 869 2741 
Q 588 2231 269 1784 
Q 175 2041 56 2297 
z
" transform="scale(0.015625)"/>
      <path id="MicrosoftYaHei-2192" d="M 4859 3766 
Q 5241 3344 5514 3125 
Q 5788 2906 6150 2713 
L 6150 2572 
Q 5788 2381 5517 2164 
Q 5247 1947 4859 1519 
L 4622 1519 
Q 4766 1822 4866 1983 
Q 4966 2144 5141 2369 
L 247 2369 
L 247 2916 
L 5141 2916 
Q 4972 3131 4869 3298 
Q 4766 3466 4622 3766 
L 4859 3766 
z
" transform="scale(0.015625)"/>
      <path id="MicrosoftYaHei-2f" d="M 2791 4841 
L 469 -803 
L -103 -803 
L 2219 4841 
L 2791 4841 
z
" transform="scale(0.015625)"/>
      <path id="MicrosoftYaHei-4eba" d="M 100 -303 
Q 2825 1272 2981 5222 
L 3531 5222 
Q 3497 4553 3400 3947 
Q 4175 822 6313 -166 
Q 6050 -453 5850 -709 
Q 3994 341 3203 3006 
Q 2519 431 494 -778 
Q 325 -547 100 -303 
z
" transform="scale(0.015625)"/>
      <path id="MicrosoftYaHei-7fa4" d="M 31 591 
Q 575 1331 794 2266 
L 244 2266 
L 244 2666 
L 869 2666 
Q 916 3000 944 3403 
L 88 3403 
L 88 3803 
L 966 3803 
Q 978 4138 981 4516 
L 250 4516 
L 250 4916 
L 2850 4916 
L 2850 3803 
L 3194 3803 
L 3194 3403 
L 2850 3403 
L 2850 2028 
L 2413 2028 
L 2413 2266 
L 1256 2266 
Q 1178 1909 1056 1559 
L 2931 1559 
L 2931 -697 
L 2494 -697 
L 2494 -347 
L 1256 -347 
L 1256 -741 
L 819 -741 
L 819 969 
Q 606 509 313 59 
Q 194 309 31 591 
z
M 3125 1297 
L 4463 1297 
L 4463 2391 
L 3300 2391 
L 3300 2816 
L 4463 2816 
L 4463 3784 
L 3275 3784 
L 3275 4209 
L 6219 4209 
L 6219 3784 
L 4938 3784 
L 4938 2816 
L 6144 2816 
L 6144 2391 
L 4938 2391 
L 4938 1297 
L 6313 1297 
L 6313 872 
L 4938 872 
L 4938 -822 
L 4463 -822 
L 4463 872 
L 3125 872 
L 3125 1297 
z
M 2494 1159 
L 1256 1159 
L 1256 53 
L 2494 53 
L 2494 1159 
z
M 1325 2666 
L 2413 2666 
L 2413 3403 
L 1400 3403 
Q 1375 3006 1325 2666 
z
M 2413 4516 
L 1438 4516 
Q 1434 4141 1422 3803 
L 2413 3803 
L 2413 4516 
z
M 4881 4459 
Q 5250 4884 5550 5353 
L 5944 5109 
Q 5581 4616 5225 4222 
L 4881 4459 
z
M 3463 5109 
L 3800 5359 
Q 4175 4953 4494 4528 
L 4113 4253 
Q 3825 4684 3463 5109 
z
" transform="scale(0.015625)"/>
     </defs>
     <use xlink:href="#MicrosoftYaHei-667a"/>
     <use xlink:href="#MicrosoftYaHei-80fd" transform="translate(100 0)"/>
     <use xlink:href="#MicrosoftYaHei-4f53" transform="translate(200 0)"/>
     <use xlink:href="#MicrosoftYaHei-20" transform="translate(300 0)"/>
     <use xlink:href="#MicrosoftYaHei-2192" transform="translate(329.589844 0)"/>
     <use xlink:href="#MicrosoftYaHei-20" transform="translate(429.589844 0)"/>
     <use xlink:href="#MicrosoftYaHei-667a" transform="translate(459.179688 0)"/>
     <use xlink:href="#MicrosoftYaHei-80fd" transform="translate(559.179688 0)"/>
     <use xlink:href="#MicrosoftYaHei-4f53" transform="translate(659.179688 0)"/>
     <use xlink:href="#MicrosoftYaHei-20" transform="translate(759.179688 0)"/>
     <use xlink:href="#MicrosoftYaHei-2f" transform="translate(788.769531 0)"/>
     <use xlink:href="#MicrosoftYaHei-20" transform="translate(831.494141 0)"/>
     <use xlink:href="#MicrosoftYaHei-4eba" transform="translate(861.083984 0)"/>
     <use xlink:href="#MicrosoftYaHei-7fa4" transform="translate(961.083984 0)"/>
    </g>
   </g>
   <g id="text_7">
    <!-- 技能 → 技能 / 大脑 -->
    <g style="fill: #20344b" transform="translate(182.313562 379.993511) scale(0.18 -0.18)">
     <defs>
      <path id="MicrosoftYaHei-6280" d="M 2394 2472 
L 2394 2884 
L 4000 2884 
L 4000 3841 
L 2369 3841 
L 2369 4297 
L 4000 4297 
L 4000 5303 
L 4500 5303 
L 4500 4297 
L 6200 4297 
L 6200 3841 
L 4500 3841 
L 4500 2884 
L 5831 2884 
L 5831 2509 
Q 5391 1259 4578 484 
Q 5281 -69 6319 -359 
Q 6081 -634 5919 -841 
Q 4903 -428 4197 163 
Q 3375 -456 2275 -891 
Q 2144 -691 1944 -447 
Q 3059 -84 3850 491 
Q 3156 1247 2809 2472 
L 2394 2472 
z
M 75 2009 
Q 547 2144 988 2275 
L 988 3622 
L 156 3622 
L 156 4053 
L 988 4053 
L 988 5266 
L 1469 5266 
L 1469 4053 
L 2200 4053 
L 2200 3622 
L 1469 3622 
L 1469 2425 
Q 1828 2541 2169 2653 
Q 2169 2353 2181 2166 
Q 1828 2053 1469 1938 
L 1469 -78 
Q 1469 -741 844 -747 
Q 594 -753 244 -747 
Q 206 -484 163 -216 
Q 531 -253 719 -253 
Q 988 -253 988 28 
L 988 1778 
Q 566 1638 138 1491 
L 75 2009 
z
M 5288 2472 
L 3291 2472 
Q 3572 1484 4228 803 
Q 4966 1503 5288 2472 
z
" transform="scale(0.015625)"/>
      <path id="MicrosoftYaHei-5927" d="M 88 -341 
Q 2666 806 2869 3103 
L 200 3103 
L 200 3591 
L 2891 3591 
Q 2906 4431 2906 5284 
L 3450 5284 
Q 3450 4444 3434 3591 
L 6206 3591 
L 6206 3103 
L 3425 3103 
Q 3869 606 6338 -191 
Q 6019 -497 5863 -697 
Q 3828 122 3203 2219 
Q 2716 322 475 -822 
Q 350 -653 88 -341 
z
" transform="scale(0.015625)"/>
      <path id="MicrosoftYaHei-8111" d="M 506 4941 
L 2188 4941 
L 2188 -128 
Q 2181 -741 1588 -734 
Q 1194 -734 1013 -716 
Q 994 -534 938 -247 
Q 1256 -291 1488 -291 
Q 1744 -291 1744 -3 
L 1744 1366 
L 950 1366 
Q 950 -134 431 -822 
Q 244 -609 75 -472 
Q 506 166 506 1197 
L 506 4941 
z
M 2725 3278 
L 3175 3278 
L 3175 -66 
L 5563 -66 
L 5563 3272 
L 6013 3272 
L 6013 -803 
L 5563 -803 
L 5563 -516 
L 2725 -516 
L 2725 3278 
z
M 3275 3553 
L 3631 3766 
Q 4006 3109 4375 2453 
Q 4691 3097 4963 3797 
L 5369 3634 
Q 5022 2772 4625 2000 
Q 5028 1275 5425 547 
L 5031 334 
Q 4753 875 4388 1550 
Q 4025 897 3625 316 
Q 3400 459 3244 541 
Q 3728 1225 4141 2000 
Q 3750 2713 3275 3553 
z
M 2500 4391 
L 4309 4391 
Q 4113 4784 3913 5103 
L 4344 5316 
Q 4575 4953 4769 4603 
L 4353 4391 
L 6319 4391 
L 6319 3941 
L 2500 3941 
L 2500 4391 
z
M 950 1791 
L 1744 1791 
L 1744 2941 
L 950 2941 
L 950 1791 
z
M 1744 4503 
L 950 4503 
L 950 3366 
L 1744 3366 
L 1744 4503 
z
" transform="scale(0.015625)"/>
     </defs>
     <use xlink:href="#MicrosoftYaHei-6280"/>
     <use xlink:href="#MicrosoftYaHei-80fd" transform="translate(100 0)"/>
     <use xlink:href="#MicrosoftYaHei-20" transform="translate(200 0)"/>
     <use xlink:href="#MicrosoftYaHei-2192" transform="translate(229.589844 0)"/>
     <use xlink:href="#MicrosoftYaHei-20" transform="translate(329.589844 0)"/>
     <use xlink:href="#MicrosoftYaHei-6280" transform="translate(359.179688 0)"/>
     <use xlink:href="#MicrosoftYaHei-80fd" transform="translate(459.179688 0)"/>
     <use xlink:href="#MicrosoftYaHei-20" transform="translate(559.179688 0)"/>
     <use xlink:href="#MicrosoftYaHei-2f" transform="translate(588.769531 0)"/>
     <use xlink:href="#MicrosoftYaHei-20" transform="translate(631.494141 0)"/>
     <use xlink:href="#MicrosoftYaHei-5927" transform="translate(661.083984 0)"/>
     <use xlink:href="#MicrosoftYaHei-8111" transform="translate(761.083984 0)"/>
    </g>
   </g>
   <g id="text_8">
    <!-- 当前实验 -->
    <g style="fill: #26816b" transform="translate(702.188 160.324704) scale(0.23 -0.23)">
     <defs>
      <path id="MicrosoftYaHei-5f53" d="M 344 -41 
L 5294 -41 
L 5294 1034 
L 725 1034 
L 725 1478 
L 5294 1478 
L 5294 2534 
L 525 2534 
L 525 2978 
L 2944 2978 
L 2944 5297 
L 3463 5297 
L 3463 2978 
L 5813 2978 
L 5813 -859 
L 5294 -859 
L 5294 -484 
L 344 -484 
L 344 -41 
z
M 5725 4653 
Q 5056 3897 4394 3291 
L 4019 3628 
Q 4656 4203 5300 4997 
L 5725 4653 
z
M 725 4678 
L 1075 4991 
Q 1750 4359 2331 3672 
L 1913 3316 
Q 1388 4003 725 4678 
z
" transform="scale(0.015625)"/>
      <path id="MicrosoftYaHei-524d" d="M 1038 -841 
L 563 -841 
L 563 3322 
L 3300 3322 
L 3300 -172 
Q 3300 -784 2669 -772 
Q 2406 -772 1950 -759 
Q 1913 -516 1856 -297 
Q 2238 -328 2563 -328 
Q 2825 -334 2825 -72 
L 2825 722 
L 1038 722 
L 1038 -841 
z
M 150 4372 
L 2169 4372 
Q 1963 4697 1644 5078 
L 2038 5347 
Q 2425 4916 2663 4578 
L 2353 4372 
L 4063 4372 
L 3813 4509 
Q 4144 4916 4388 5359 
L 4863 5084 
Q 4575 4691 4284 4372 
L 6263 4372 
L 6263 3934 
L 150 3934 
L 150 4372 
z
M 5331 3522 
L 5819 3522 
L 5819 28 
Q 5819 -741 5094 -747 
Q 4763 -753 4269 -741 
Q 4238 -484 4181 -216 
Q 4644 -266 4931 -266 
Q 5331 -266 5331 141 
L 5331 3522 
z
M 4044 3222 
L 4519 3222 
L 4519 409 
L 4044 409 
L 4044 3222 
z
M 2825 2897 
L 1038 2897 
L 1038 2228 
L 2825 2228 
L 2825 2897 
z
M 1038 1141 
L 2825 1141 
L 2825 1809 
L 1038 1809 
L 1038 1141 
z
" transform="scale(0.015625)"/>
      <path id="MicrosoftYaHei-5b9e" d="M 113 -397 
Q 2419 34 3081 972 
L 213 972 
L 213 1434 
L 3313 1434 
Q 3525 2084 3506 3703 
L 4031 3703 
Q 4031 2097 3856 1434 
L 6225 1434 
L 6225 972 
L 3681 972 
Q 3631 872 3563 759 
Q 4900 197 6181 -403 
L 5906 -878 
Q 4569 -197 3263 391 
Q 2413 -441 413 -891 
Q 269 -616 113 -397 
z
M 331 4422 
L 3194 4422 
Q 3038 4703 2775 5078 
L 3231 5334 
Q 3438 5059 3731 4609 
L 3388 4422 
L 6063 4422 
L 6063 3303 
L 5563 3303 
L 5563 3959 
L 831 3959 
L 831 3303 
L 331 3303 
L 331 4422 
z
M 1100 2734 
Q 1819 2409 2450 2053 
L 2181 1622 
Q 1556 2003 863 2334 
L 1100 2734 
z
M 1663 3691 
Q 2388 3341 2981 2984 
L 2700 2559 
Q 2119 2934 1419 3322 
L 1663 3691 
z
" transform="scale(0.015625)"/>
      <path id="MicrosoftYaHei-9a8c" d="M 963 4116 
L 819 2397 
L 1450 2397 
L 1613 4503 
L 194 4503 
L 194 4928 
L 2088 4928 
L 1894 2397 
L 2288 2397 
Q 2244 1078 2206 228 
Q 2188 -722 1381 -722 
Q 1044 -722 588 -703 
Q 556 -472 506 -209 
Q 956 -266 1306 -266 
Q 1744 -266 1769 266 
Q 1806 953 1831 1972 
L 331 1972 
L 531 4116 
L 963 4116 
z
M 2338 -103 
L 4594 -103 
Q 5044 1009 5394 2222 
L 5869 2072 
Q 5500 953 5088 -103 
L 6188 -103 
L 6188 -534 
L 2338 -534 
L 2338 -103 
z
M 4606 5278 
L 4488 5078 
Q 5244 3734 6363 3122 
Q 6163 2872 6031 2684 
Q 4931 3497 4238 4641 
Q 3600 3509 2456 2609 
Q 2344 2772 2144 3003 
Q 3388 3866 4050 5278 
L 4606 5278 
z
M 2975 2978 
L 5550 2978 
L 5550 2547 
L 2975 2547 
L 2975 2978 
z
M 3731 2178 
L 4175 2297 
Q 4438 1359 4606 659 
L 4150 528 
Q 3969 1391 3731 2178 
z
M 2656 1897 
L 3094 2034 
Q 3400 1147 3606 453 
L 3144 297 
Q 2938 1097 2656 1897 
z
M 38 1034 
Q 763 1178 1631 1384 
Q 1625 1134 1638 941 
Q 925 791 131 572 
L 38 1034 
z
" transform="scale(0.015625)"/>
     </defs>
     <use xlink:href="#MicrosoftYaHei-5f53"/>
     <use xlink:href="#MicrosoftYaHei-524d" transform="translate(100 0)"/>
     <use xlink:href="#MicrosoftYaHei-5b9e" transform="translate(200 0)"/>
     <use xlink:href="#MicrosoftYaHei-9a8c" transform="translate(300 0)"/>
    </g>
   </g>
   <g id="text_9">
    <!-- 实验独立副本 -->
    <g style="fill: #26816b" transform="translate(694.188 207.469991) scale(0.18 -0.18)">
     <defs>
      <path id="MicrosoftYaHei-72ec" d="M 5050 1034 
L 5463 1216 
Q 5975 266 6319 -522 
L 5844 -734 
Q 5716 -425 5591 -131 
Q 4169 -278 2206 -503 
L 2113 -3 
Q 3103 72 3938 144 
L 3938 1666 
L 2956 1666 
L 2956 1397 
L 2500 1397 
L 2500 4116 
L 3938 4116 
L 3938 5284 
L 4406 5284 
L 4406 4116 
L 5844 4116 
L 5844 1666 
L 4406 1666 
L 4406 184 
Q 4944 231 5409 275 
Q 5231 669 5050 1034 
z
M 100 1291 
Q 888 1878 1394 2641 
Q 1325 3128 1163 3478 
Q 800 3125 431 2853 
Q 325 3003 119 3197 
Q 553 3509 953 3903 
Q 669 4403 213 4859 
L 563 5116 
Q 997 4700 1284 4250 
Q 1613 4622 1919 5053 
L 2306 4803 
Q 1916 4272 1513 3838 
Q 1988 2866 1963 809 
Q 1950 -622 994 -622 
Q 694 -622 306 -597 
Q 281 -334 225 -59 
Q 619 -134 931 -134 
Q 1506 -134 1513 872 
Q 1525 1497 1475 2044 
Q 1028 1438 425 941 
Q 313 1091 100 1291 
z
M 5388 2103 
L 5388 3678 
L 4406 3678 
L 4406 2103 
L 5388 2103 
z
M 2956 2103 
L 3938 2103 
L 3938 3678 
L 2956 3678 
L 2956 2103 
z
" transform="scale(0.015625)"/>
      <path id="MicrosoftYaHei-7acb" d="M 181 34 
L 3428 34 
Q 4153 1444 4788 3391 
L 5356 3184 
Q 4713 1428 4038 34 
L 6225 34 
L 6225 -447 
L 181 -447 
L 181 34 
z
M 338 4134 
L 6075 4134 
L 6075 3653 
L 338 3653 
L 338 4134 
z
M 1081 3122 
L 1575 3322 
Q 2150 2003 2669 647 
L 2113 416 
Q 1606 1897 1081 3122 
z
M 2525 5141 
L 2981 5397 
Q 3281 4978 3606 4447 
L 3113 4159 
Q 2863 4628 2525 5141 
z
" transform="scale(0.015625)"/>
      <path id="MicrosoftYaHei-526f" d="M 400 2109 
L 3725 2109 
L 3725 -828 
L 3275 -828 
L 3275 -491 
L 850 -491 
L 850 -828 
L 400 -828 
L 400 2109 
z
M 681 4059 
L 3425 4059 
L 3425 2466 
L 2975 2466 
L 2975 2622 
L 1131 2622 
L 1131 2466 
L 681 2466 
L 681 4059 
z
M 5419 5228 
L 5919 5228 
L 5919 28 
Q 5919 -728 5206 -734 
Q 4881 -741 4281 -728 
Q 4250 -441 4181 -172 
Q 4738 -228 5050 -228 
Q 5419 -228 5419 166 
L 5419 5228 
z
M 4731 822 
L 4250 822 
L 4250 4591 
L 4731 4591 
L 4731 822 
z
M 150 4984 
L 3913 4984 
L 3913 4559 
L 150 4559 
L 150 4984 
z
M 2975 3672 
L 1131 3672 
L 1131 3009 
L 2975 3009 
L 2975 3672 
z
M 3275 1722 
L 2288 1722 
L 2288 991 
L 3275 991 
L 3275 1722 
z
M 850 991 
L 1838 991 
L 1838 1722 
L 850 1722 
L 850 991 
z
M 2288 -103 
L 3275 -103 
L 3275 616 
L 2288 616 
L 2288 -103 
z
M 850 -103 
L 1838 -103 
L 1838 616 
L 850 616 
L 850 -103 
z
" transform="scale(0.015625)"/>
      <path id="MicrosoftYaHei-672c" d="M 6281 803 
Q 6119 641 5856 366 
Q 4344 1531 3444 3353 
L 3444 878 
L 4875 878 
L 4875 441 
L 3444 441 
L 3444 -841 
L 2956 -841 
L 2956 441 
L 1475 441 
L 1475 878 
L 2956 878 
L 2956 3353 
Q 2159 1766 513 291 
Q 269 522 100 666 
Q 1878 2125 2759 3753 
L 238 3753 
L 238 4216 
L 2956 4216 
L 2956 5341 
L 3444 5341 
L 3444 4216 
L 6163 4216 
L 6163 3753 
L 3622 3753 
Q 4616 1884 6281 803 
z
" transform="scale(0.015625)"/>
     </defs>
     <use xlink:href="#MicrosoftYaHei-5b9e"/>
     <use xlink:href="#MicrosoftYaHei-9a8c" transform="translate(100 0)"/>
     <use xlink:href="#MicrosoftYaHei-72ec" transform="translate(200 0)"/>
     <use xlink:href="#MicrosoftYaHei-7acb" transform="translate(300 0)"/>
     <use xlink:href="#MicrosoftYaHei-526f" transform="translate(400 0)"/>
     <use xlink:href="#MicrosoftYaHei-672c" transform="translate(500 0)"/>
    </g>
   </g>
   <g id="text_10">
    <!-- 地图 -->
    <g style="fill: #20344b" transform="translate(730.188 272.166311) scale(0.18 -0.18)">
     <use xlink:href="#MicrosoftYaHei-5730"/>
     <use xlink:href="#MicrosoftYaHei-56fe" transform="translate(100 0)"/>
    </g>
   </g>
   <g id="text_11">
    <!-- 智能体 → 智能体 / 人群 -->
    <g style="fill: #20344b" transform="translate(652.689563 326.079911) scale(0.18 -0.18)">
     <use xlink:href="#MicrosoftYaHei-667a"/>
     <use xlink:href="#MicrosoftYaHei-80fd" transform="translate(100 0)"/>
     <use xlink:href="#MicrosoftYaHei-4f53" transform="translate(200 0)"/>
     <use xlink:href="#MicrosoftYaHei-20" transform="translate(300 0)"/>
     <use xlink:href="#MicrosoftYaHei-2192" transform="translate(329.589844 0)"/>
     <use xlink:href="#MicrosoftYaHei-20" transform="translate(429.589844 0)"/>
     <use xlink:href="#MicrosoftYaHei-667a" transform="translate(459.179688 0)"/>
     <use xlink:href="#MicrosoftYaHei-80fd" transform="translate(559.179688 0)"/>
     <use xlink:href="#MicrosoftYaHei-4f53" transform="translate(659.179688 0)"/>
     <use xlink:href="#MicrosoftYaHei-20" transform="translate(759.179688 0)"/>
     <use xlink:href="#MicrosoftYaHei-2f" transform="translate(788.769531 0)"/>
     <use xlink:href="#MicrosoftYaHei-20" transform="translate(831.494141 0)"/>
     <use xlink:href="#MicrosoftYaHei-4eba" transform="translate(861.083984 0)"/>
     <use xlink:href="#MicrosoftYaHei-7fa4" transform="translate(961.083984 0)"/>
    </g>
   </g>
   <g id="text_12">
    <!-- 技能 → 技能 / 大脑 -->
    <g style="fill: #20344b" transform="translate(670.689563 379.993511) scale(0.18 -0.18)">
     <use xlink:href="#MicrosoftYaHei-6280"/>
     <use xlink:href="#MicrosoftYaHei-80fd" transform="translate(100 0)"/>
     <use xlink:href="#MicrosoftYaHei-20" transform="translate(200 0)"/>
     <use xlink:href="#MicrosoftYaHei-2192" transform="translate(229.589844 0)"/>
     <use xlink:href="#MicrosoftYaHei-20" transform="translate(329.589844 0)"/>
     <use xlink:href="#MicrosoftYaHei-6280" transform="translate(359.179688 0)"/>
     <use xlink:href="#MicrosoftYaHei-80fd" transform="translate(459.179688 0)"/>
     <use xlink:href="#MicrosoftYaHei-20" transform="translate(559.179688 0)"/>
     <use xlink:href="#MicrosoftYaHei-2f" transform="translate(588.769531 0)"/>
     <use xlink:href="#MicrosoftYaHei-20" transform="translate(631.494141 0)"/>
     <use xlink:href="#MicrosoftYaHei-5927" transform="translate(661.083984 0)"/>
     <use xlink:href="#MicrosoftYaHei-8111" transform="translate(761.083984 0)"/>
    </g>
   </g>
   <g id="text_13">
    <!-- 选入时 -->
    <g style="fill: #20344b" transform="translate(480 206.44043) scale(0.16 -0.16)">
     <defs>
      <path id="MicrosoftYaHei-9009" d="M 1756 2753 
L 3825 2753 
L 3825 3797 
L 2772 3797 
Q 2584 3322 2381 2947 
Q 2219 3053 1944 3172 
Q 2431 4028 2669 5072 
L 3156 4966 
Q 3047 4575 2928 4228 
L 3825 4228 
L 3825 5316 
L 4313 5316 
L 4313 4228 
L 5944 4228 
L 5944 3797 
L 4313 3797 
L 4313 2753 
L 6244 2753 
L 6244 2322 
L 4769 2322 
L 4769 984 
Q 4769 653 5044 653 
L 5344 653 
Q 5631 653 5675 953 
Q 5713 1197 5744 1691 
Q 5938 1603 6219 1509 
Q 6169 1078 6113 784 
Q 6013 228 5400 228 
L 4938 228 
Q 4288 228 4288 934 
L 4288 2322 
L 3447 2322 
Q 3444 2038 3431 1816 
Q 3394 647 2119 84 
Q 1994 266 1806 503 
Q 2906 959 2950 1816 
Q 2963 2003 2972 2322 
L 1756 2322 
L 1756 2753 
z
M 2694 -197 
L 4000 -209 
L 6300 -166 
Q 6231 -372 6125 -659 
L 3947 -684 
L 2638 -666 
Q 1513 -628 1081 91 
Q 825 -147 331 -747 
L 75 -228 
Q 628 306 875 538 
L 875 2641 
L 131 2641 
L 131 3103 
L 1356 3103 
L 1356 431 
Q 1741 -184 2694 -197 
z
M 856 5203 
Q 1175 4816 1731 4022 
L 1288 3709 
Q 781 4503 456 4934 
L 856 5203 
z
" transform="scale(0.015625)"/>
      <path id="MicrosoftYaHei-5165" d="M 1831 4947 
L 2244 5241 
Q 2944 4809 3781 3028 
Q 4950 472 6319 -91 
L 5881 -641 
Q 4513 172 3350 2784 
Q 3256 2994 3166 3184 
Q 2441 700 469 -678 
Q 300 -428 88 -209 
Q 2116 1069 2819 3834 
Q 2328 4653 1831 4947 
z
" transform="scale(0.015625)"/>
      <path id="MicrosoftYaHei-65f6" d="M 344 4728 
L 2500 4728 
L 2500 -366 
L 2006 -366 
L 2006 153 
L 838 153 
L 838 -441 
L 344 -441 
L 344 4728 
z
M 2706 3941 
L 4925 3941 
L 4925 5322 
L 5425 5322 
L 5425 3941 
L 6313 3941 
L 6313 3478 
L 5425 3478 
L 5425 116 
Q 5425 -722 4625 -722 
Q 4263 -722 3563 -703 
Q 3531 -478 3463 -178 
Q 4119 -228 4488 -228 
Q 4925 -228 4925 216 
L 4925 3478 
L 2706 3478 
L 2706 3941 
z
M 838 616 
L 2006 616 
L 2006 2234 
L 838 2234 
L 838 616 
z
M 2006 4266 
L 838 4266 
L 838 2684 
L 2006 2684 
L 2006 4266 
z
M 3406 2878 
Q 3906 1966 4163 1422 
Q 4000 1347 3663 1172 
Q 3419 1766 2963 2653 
L 3406 2878 
z
" transform="scale(0.015625)"/>
     </defs>
     <use xlink:href="#MicrosoftYaHei-9009"/>
     <use xlink:href="#MicrosoftYaHei-5165" transform="translate(100 0)"/>
     <use xlink:href="#MicrosoftYaHei-65f6" transform="translate(200 0)"/>
    </g>
    <!-- 复制 -->
    <g style="fill: #20344b" transform="translate(488 228.96343) scale(0.16 -0.16)">
     <defs>
      <path id="MicrosoftYaHei-590d" d="M 81 3559 
Q 975 4259 1563 5347 
L 2113 5347 
Q 1963 5084 1803 4841 
L 6200 4841 
L 6200 4441 
L 1525 4441 
Q 1356 4209 1175 3997 
L 5575 3997 
L 5575 1697 
L 5138 1697 
L 5138 1859 
L 1463 1859 
L 1463 1634 
L 1031 1634 
L 1031 3828 
Q 716 3475 369 3166 
Q 263 3347 81 3559 
z
M 81 291 
Q 1231 853 1931 1709 
L 2488 1709 
Q 2350 1534 2206 1372 
L 5588 1372 
L 5588 1034 
Q 4981 494 4038 69 
Q 5016 -188 6319 -284 
Q 6150 -566 6025 -797 
Q 4503 -584 3416 -175 
Q 2303 -563 725 -872 
Q 606 -666 438 -447 
Q 1988 -191 2856 59 
Q 2153 397 1678 838 
Q 1084 303 388 -53 
Q 250 128 81 291 
z
M 1463 2247 
L 5138 2247 
L 5138 2747 
L 1463 2747 
L 1463 2247 
z
M 5138 3609 
L 1463 3609 
L 1463 3116 
L 5138 3116 
L 5138 3609 
z
M 4869 1009 
L 2025 1009 
Q 2572 553 3428 253 
Q 4297 591 4869 1009 
z
" transform="scale(0.015625)"/>
     </defs>
     <use xlink:href="#MicrosoftYaHei-590d"/>
     <use xlink:href="#MicrosoftYaHei-5236" transform="translate(100 0)"/>
    </g>
   </g>
   <g id="text_14">
    <!-- 先确认实验名称与范围提示，再编辑、保存、重开核对 -->
    <g style="fill: #20344b" transform="translate(264 472.197413) scale(0.2 -0.2)">
     <defs>
      <path id="MicrosoftYaHei-786e" d="M 2075 3453 
Q 2956 4334 3456 5359 
L 3931 5272 
Q 3781 4991 3619 4722 
L 5438 4722 
L 5438 4328 
L 4909 3666 
L 6063 3666 
L 6063 -53 
Q 6063 -728 5475 -728 
Q 5144 -728 4906 -716 
Q 4869 -497 4813 -259 
Q 5156 -291 5331 -291 
Q 5619 -291 5619 16 
L 5619 734 
L 4588 734 
L 4588 -659 
L 4144 -659 
L 4144 734 
L 3113 734 
Q 2944 -263 2444 -884 
Q 2288 -703 2081 -509 
Q 2756 291 2756 1841 
L 2756 3506 
Q 2597 3316 2431 3134 
Q 2281 3278 2075 3453 
z
M 31 1691 
Q 741 2834 1066 4291 
L 231 4291 
L 231 4716 
L 2469 4716 
L 2469 4291 
L 1509 4291 
Q 1356 3613 1128 2991 
L 2200 2991 
L 2200 128 
L 1150 128 
L 1150 -347 
L 738 -347 
L 738 2059 
Q 559 1691 350 1347 
Q 225 1497 31 1691 
z
M 1788 541 
L 1788 2578 
L 1150 2578 
L 1150 541 
L 1788 541 
z
M 4875 4322 
L 3366 4322 
Q 3138 3981 2884 3666 
L 4384 3666 
L 4875 4322 
z
M 4588 1134 
L 5619 1134 
L 5619 1991 
L 4588 1991 
L 4588 1134 
z
M 5619 3241 
L 4588 3241 
L 4588 2391 
L 5619 2391 
L 5619 3241 
z
M 3166 1134 
L 4144 1134 
L 4144 1991 
L 3200 1991 
Q 3200 1841 3166 1134 
z
M 3200 2391 
L 4144 2391 
L 4144 3241 
L 3200 3241 
L 3200 2391 
z
" transform="scale(0.015625)"/>
      <path id="MicrosoftYaHei-4e0e" d="M 1163 2384 
L 1163 2859 
L 1413 5328 
L 1931 5328 
L 1834 4334 
L 6269 4334 
L 6269 3859 
L 1791 3859 
L 1694 2859 
L 5813 2859 
Q 5738 1547 5644 416 
Q 5556 -247 5263 -478 
Q 4981 -703 4322 -703 
Q 3706 -697 2900 -678 
Q 2863 -466 2794 -134 
Q 3744 -203 4213 -209 
Q 5050 -266 5125 447 
Q 5206 1278 5263 2384 
L 1163 2384 
z
M 106 1409 
L 4738 1409 
L 4738 934 
L 106 934 
L 106 1409 
z
" transform="scale(0.015625)"/>
      <path id="MicrosoftYaHei-63d0" d="M 2569 5041 
L 5688 5041 
L 5688 2572 
L 5238 2572 
L 5238 2753 
L 3019 2753 
L 3019 2572 
L 2569 2572 
L 2569 5041 
z
M 1594 -559 
Q 2475 178 2581 1553 
L 3050 1553 
Q 3019 1116 2922 734 
Q 3319 128 3956 -84 
L 3956 1797 
L 2025 1797 
L 2025 2209 
L 6238 2209 
L 6238 1797 
L 4425 1797 
L 4425 1097 
L 5994 1097 
L 5994 697 
L 4425 697 
L 4425 -184 
Q 4850 -234 6313 -178 
Q 6300 -209 6169 -641 
Q 5425 -659 4625 -622 
Q 3363 -606 2769 266 
Q 2506 -388 2006 -853 
Q 1819 -697 1594 -559 
z
M 81 2003 
Q 481 2175 888 2366 
L 888 3697 
L 131 3697 
L 131 4122 
L 888 4122 
L 888 5284 
L 1363 5284 
L 1363 4122 
L 2163 4122 
L 2163 3697 
L 1363 3697 
L 1363 2597 
Q 1722 2775 2081 2972 
Q 2100 2728 2131 2472 
Q 1747 2281 1363 2088 
L 1363 -91 
Q 1363 -697 900 -747 
Q 575 -778 169 -766 
Q 131 -503 88 -247 
Q 431 -284 675 -284 
Q 888 -284 888 -53 
L 888 1844 
Q 513 1650 144 1453 
L 81 2003 
z
M 3019 3153 
L 5238 3153 
L 5238 3703 
L 3019 3703 
L 3019 3153 
z
M 5238 4641 
L 3019 4641 
L 3019 4097 
L 5238 4097 
L 5238 4641 
z
" transform="scale(0.015625)"/>
      <path id="MicrosoftYaHei-518d" d="M 1425 -803 
L 931 -803 
L 931 947 
L 138 947 
L 138 1378 
L 931 1378 
L 931 3822 
L 2956 3822 
L 2956 4522 
L 338 4522 
L 338 4953 
L 6069 4953 
L 6069 4522 
L 3444 4522 
L 3444 3822 
L 5481 3822 
L 5481 1378 
L 6300 1378 
L 6300 947 
L 5481 947 
L 5481 -41 
Q 5481 -728 4831 -734 
Q 4431 -741 3806 -734 
Q 3769 -522 3713 -259 
Q 4225 -297 4600 -297 
Q 4981 -309 4981 28 
L 4981 947 
L 1425 947 
L 1425 -803 
z
M 3444 1378 
L 4981 1378 
L 4981 2197 
L 3444 2197 
L 3444 1378 
z
M 1425 1378 
L 2956 1378 
L 2956 2197 
L 1425 2197 
L 1425 1378 
z
M 4981 3416 
L 3444 3416 
L 3444 2603 
L 4981 2603 
L 4981 3416 
z
M 1425 2603 
L 2956 2603 
L 2956 3416 
L 1425 3416 
L 1425 2603 
z
" transform="scale(0.015625)"/>
      <path id="MicrosoftYaHei-3001" d="M 1931 -413 
L 1556 -791 
Q 1028 -216 397 306 
L 728 650 
Q 1506 22 1931 -413 
z
" transform="scale(0.015625)"/>
      <path id="MicrosoftYaHei-4fdd" d="M 2263 5003 
L 5750 5003 
L 5750 2647 
L 5275 2647 
L 5275 2884 
L 4225 2884 
L 4225 2041 
L 6288 2041 
L 6288 1616 
L 4588 1616 
Q 5163 659 6338 109 
Q 6144 -159 6025 -353 
Q 4850 359 4225 1572 
L 4225 -847 
L 3769 -847 
L 3769 1597 
Q 3013 234 1875 -478 
Q 1731 -303 1525 -97 
Q 2638 516 3331 1616 
L 1694 1616 
L 1694 2041 
L 3769 2041 
L 3769 2884 
L 2738 2884 
L 2738 2603 
L 2263 2603 
L 2263 5003 
z
M 69 2247 
Q 906 3497 1369 5278 
L 1831 5141 
Q 1575 4316 1275 3597 
L 1275 -816 
L 825 -816 
L 825 2653 
Q 556 2159 263 1734 
Q 175 1997 69 2247 
z
M 5275 4584 
L 2738 4584 
L 2738 3303 
L 5275 3303 
L 5275 4584 
z
" transform="scale(0.015625)"/>
      <path id="MicrosoftYaHei-5b58" d="M 169 4641 
L 1925 4641 
Q 2053 4991 2163 5359 
L 2675 5228 
Q 2578 4928 2472 4641 
L 6275 4641 
L 6275 4178 
L 2291 4178 
Q 1963 3384 1563 2709 
L 1563 -797 
L 1081 -797 
L 1081 1984 
Q 747 1528 369 1141 
Q 244 1359 69 1591 
Q 1113 2688 1744 4178 
L 169 4178 
L 169 4641 
z
M 1838 1791 
L 3994 1791 
L 3994 2203 
Q 4656 2628 5156 3047 
L 2256 3047 
L 2256 3503 
L 5869 3503 
L 5869 2997 
Q 5231 2491 4475 1978 
L 4475 1791 
L 6319 1791 
L 6319 1334 
L 4475 1334 
L 4475 -72 
Q 4475 -784 3763 -784 
Q 3425 -784 2856 -766 
Q 2825 -528 2775 -259 
Q 3375 -322 3663 -322 
Q 3994 -322 3994 9 
L 3994 1334 
L 1838 1334 
L 1838 1791 
z
" transform="scale(0.015625)"/>
      <path id="MicrosoftYaHei-91cd" d="M 113 -203 
L 2975 -203 
L 2975 259 
L 600 259 
L 600 628 
L 2975 628 
L 2975 1153 
L 1288 1153 
L 1288 928 
L 850 928 
L 850 3278 
L 2975 3278 
L 2975 3728 
L 163 3728 
L 163 4116 
L 2975 4116 
L 2975 4606 
Q 1841 4572 625 4547 
Q 588 4747 538 4972 
Q 3706 5009 5669 5141 
L 5744 4716 
Q 4631 4663 3425 4619 
L 3425 4116 
L 6263 4116 
L 6263 3728 
L 3425 3728 
L 3425 3278 
L 5569 3278 
L 5569 934 
L 5131 934 
L 5131 1153 
L 3425 1153 
L 3425 628 
L 5806 628 
L 5806 259 
L 3425 259 
L 3425 -203 
L 6263 -203 
L 6263 -591 
L 113 -591 
L 113 -203 
z
M 3425 1516 
L 5131 1516 
L 5131 2053 
L 3425 2053 
L 3425 1516 
z
M 1288 1516 
L 2975 1516 
L 2975 2053 
L 1288 2053 
L 1288 1516 
z
M 5131 2916 
L 3425 2916 
L 3425 2384 
L 5131 2384 
L 5131 2916 
z
M 1288 2384 
L 2975 2384 
L 2975 2916 
L 1288 2916 
L 1288 2384 
z
" transform="scale(0.015625)"/>
      <path id="MicrosoftYaHei-5f00" d="M 125 2553 
L 1756 2553 
L 1756 4372 
L 400 4372 
L 400 4866 
L 6006 4866 
L 6006 4372 
L 4731 4372 
L 4731 2553 
L 6275 2553 
L 6275 2059 
L 4731 2059 
L 4731 -791 
L 4219 -791 
L 4219 2059 
L 2266 2059 
Q 2244 916 1938 359 
Q 1631 -253 531 -872 
Q 369 -647 175 -434 
Q 1131 53 1450 584 
Q 1734 1013 1753 2059 
L 125 2059 
L 125 2553 
z
M 2269 2553 
L 4219 2553 
L 4219 4372 
L 2269 4372 
L 2269 2553 
z
" transform="scale(0.015625)"/>
      <path id="MicrosoftYaHei-6838" d="M 2063 759 
Q 3306 1403 4150 2284 
Q 3538 2222 3013 2166 
Q 2781 2141 2581 2078 
L 2350 2534 
Q 2606 2672 2750 2859 
Q 3144 3341 3519 3959 
L 2331 3959 
L 2331 4409 
L 4250 4409 
Q 3994 4791 3775 5091 
L 4181 5347 
Q 4419 5053 4731 4628 
L 4400 4409 
L 6313 4409 
L 6313 3959 
L 4100 3959 
Q 3644 3266 3156 2653 
Q 3844 2691 4550 2734 
Q 4906 3178 5175 3678 
L 5631 3434 
Q 4563 1559 2419 378 
Q 2244 572 2063 759 
z
M 88 1353 
Q 756 2416 1025 3616 
L 131 3616 
L 131 4053 
L 1031 4053 
L 1031 5297 
L 1500 5297 
L 1500 4053 
L 2213 4053 
L 2213 3616 
L 1500 3616 
L 1500 2516 
L 1694 2722 
Q 2094 2384 2438 2047 
L 2119 1728 
Q 1813 2059 1500 2347 
L 1500 -866 
L 1031 -866 
L 1031 2447 
Q 713 1422 288 803 
Q 206 1072 88 1353 
z
M 2250 -472 
Q 4388 428 5769 2466 
L 6194 2178 
Q 5656 1403 5019 784 
Q 5738 197 6369 -366 
L 5988 -772 
Q 5400 -191 4675 466 
Q 3731 -366 2581 -884 
Q 2463 -716 2250 -472 
z
" transform="scale(0.015625)"/>
      <path id="MicrosoftYaHei-5bf9" d="M 694 3691 
Q 1234 2909 1741 2166 
Q 2113 3081 2213 4147 
L 250 4147 
L 250 4622 
L 2725 4622 
L 2725 4166 
Q 2553 2809 2059 1700 
Q 2569 953 3044 247 
L 2594 -53 
Q 2203 563 1803 1181 
Q 1247 163 388 -622 
Q 263 -428 81 -166 
Q 975 638 1500 1647 
Q 919 2538 319 3434 
L 694 3691 
z
M 2975 3941 
L 5056 3941 
L 5056 5278 
L 5563 5278 
L 5563 3941 
L 6325 3941 
L 6325 3466 
L 5563 3466 
L 5563 191 
Q 5563 -716 4669 -716 
Q 4388 -716 3744 -709 
Q 3713 -478 3644 -147 
Q 4263 -197 4588 -197 
Q 5056 -197 5056 278 
L 5056 3466 
L 2975 3466 
L 2975 3941 
z
M 3088 2684 
L 3494 2928 
Q 4000 2184 4388 1484 
L 3919 1216 
Q 3550 1922 3088 2684 
z
" transform="scale(0.015625)"/>
     </defs>
     <use xlink:href="#MicrosoftYaHei-5148"/>
     <use xlink:href="#MicrosoftYaHei-786e" transform="translate(100 0)"/>
     <use xlink:href="#MicrosoftYaHei-8ba4" transform="translate(200 0)"/>
     <use xlink:href="#MicrosoftYaHei-5b9e" transform="translate(300 0)"/>
     <use xlink:href="#MicrosoftYaHei-9a8c" transform="translate(400 0)"/>
     <use xlink:href="#MicrosoftYaHei-540d" transform="translate(500 0)"/>
     <use xlink:href="#MicrosoftYaHei-79f0" transform="translate(600 0)"/>
     <use xlink:href="#MicrosoftYaHei-4e0e" transform="translate(700 0)"/>
     <use xlink:href="#MicrosoftYaHei-8303" transform="translate(800 0)"/>
     <use xlink:href="#MicrosoftYaHei-56f4" transform="translate(900 0)"/>
     <use xlink:href="#MicrosoftYaHei-63d0" transform="translate(1000 0)"/>
     <use xlink:href="#MicrosoftYaHei-793a" transform="translate(1100 0)"/>
     <use xlink:href="#MicrosoftYaHei-ff0c" transform="translate(1200 0)"/>
     <use xlink:href="#MicrosoftYaHei-518d" transform="translate(1300 0)"/>
     <use xlink:href="#MicrosoftYaHei-7f16" transform="translate(1400 0)"/>
     <use xlink:href="#MicrosoftYaHei-8f91" transform="translate(1500 0)"/>
     <use xlink:href="#MicrosoftYaHei-3001" transform="translate(1600 0)"/>
     <use xlink:href="#MicrosoftYaHei-4fdd" transform="translate(1700 0)"/>
     <use xlink:href="#MicrosoftYaHei-5b58" transform="translate(1800 0)"/>
     <use xlink:href="#MicrosoftYaHei-3001" transform="translate(1900 0)"/>
     <use xlink:href="#MicrosoftYaHei-91cd" transform="translate(2000 0)"/>
     <use xlink:href="#MicrosoftYaHei-5f00" transform="translate(2100 0)"/>
     <use xlink:href="#MicrosoftYaHei-6838" transform="translate(2200 0)"/>
     <use xlink:href="#MicrosoftYaHei-5bf9" transform="translate(2300 0)"/>
    </g>
   </g>
  </g>
 </g>
 <defs>
  <clipPath id="p4d3f70077a">
   <rect x="25.2" y="8.424" width="957.6" height="539.136"/>
  </clipPath>
 </defs>
</svg>
