<?xml version="1.0" encoding="utf-8" standalone="no"?>
<!DOCTYPE svg PUBLIC "-//W3C//DTD SVG 1.1//EN"
  "http://www.w3.org/Graphics/SVG/1.1/DTD/svg11.dtd">
<svg xmlns:xlink="http://www.w3.org/1999/xlink" width="1008pt" height="561.6pt" viewBox="0 0 1008 561.6" xmlns="http://www.w3.org/2000/svg" version="1.1">
 <metadata>
  <rdf:RDF xmlns:dc="http://purl.org/dc/elements/1.1/" xmlns:cc="http://creativecommons.org/ns#" xmlns:rdf="http://www.w3.org/1999/02/22-rdf-syntax-ns#">
   <cc:Work>
    <dc:type rdf:resource="http://purl.org/dc/dcmitype/StillImage"/>
    <dc:date>2026-09-26T12:17:14.745833</dc:date>
    <dc:format>image/svg+xml</dc:format>
    <dc:creator>
     <cc:Agent>
      <dc:title>Matplotlib v3.10.6, https://matplotlib.org/</dc:title>
     </cc:Agent>
    </dc:creator>
   </cc:Work>
  </rdf:RDF>
 </metadata>
 <defs>
  <style type="text/css">*{stroke-linejoin: round; stroke-linecap: butt}</style>
 </defs>
 <g id="figure_1">
  <g id="patch_1">
   <path d="M 0 561.6 
L 1008 561.6 
L 1008 0 
L 0 0 
z
" style="fill: #ffffff"/>
  </g>
  <g id="axes_1">
   <g id="patch_2">
    <path d="M 89.3592 309.261888 
L 918.6408 309.261888 
Q 933.0048 309.261888 933.0048 301.174848 
L 933.0048 130.807872 
Q 933.0048 122.720832 918.6408 122.720832 
L 89.3592 122.720832 
Q 74.9952 122.720832 74.9952 130.807872 
L 74.9952 301.174848 
Q 74.9952 309.261888 89.3592 309.261888 
z
" clip-path="url(#p810b22dd65)" style="fill: #edf4fc; stroke: #bccddc; stroke-width: 1.5; stroke-linejoin: miter"/>
   </g>
   <g id="patch_3">
    <path d="M 261.7272 276.913728 
L 487.7208 276.913728 
Q 502.0848 276.913728 502.0848 268.826688 
L 502.0848 179.330112 
Q 502.0848 171.243072 487.7208 171.243072 
L 261.7272 171.243072 
Q 247.3632 171.243072 247.3632 179.330112 
L 247.3632 268.826688 
Q 247.3632 276.913728 261.7272 276.913728 
z
" clip-path="url(#p810b22dd65)" style="fill: #eaf5ef; stroke: #bccddc; stroke-width: 1.5; stroke-linejoin: miter"/>
   </g>
   <g id="patch_4">
    <path d="M 616.0392 276.913728 
L 851.6088 276.913728 
Q 865.9728 276.913728 865.9728 268.826688 
L 865.9728 179.330112 
Q 865.9728 171.243072 851.6088 171.243072 
L 616.0392 171.243072 
Q 601.6752 171.243072 601.6752 179.330112 
L 601.6752 268.826688 
Q 601.6752 276.913728 616.0392 276.913728 
z
" clip-path="url(#p810b22dd65)" style="fill: #eaf5ef; stroke: #bccddc; stroke-width: 1.5; stroke-linejoin: miter"/>
   </g>
   <g id="patch_5">
    <path d="M 510.788913 224.0784 
Q 550.444055 224.0784 587.863129 224.0784 
" clip-path="url(#p810b22dd65)" style="fill: none; stroke: #276fbf; stroke-width: 2; stroke-linecap: round"/>
    <path d="M 579.863129 220.0784 
L 587.863129 224.0784 
L 579.863129 228.0784 
z
" clip-path="url(#p810b22dd65)" style="fill: #276fbf; stroke: #276fbf; stroke-width: 2; stroke-linecap: round"/>
   </g>
   <g id="patch_6">
    <path d="M 89.3592 465.611328 
L 918.6408 465.611328 
Q 933.0048 465.611328 933.0048 457.524288 
L 933.0048 357.244992 
Q 933.0048 349.157952 918.6408 349.157952 
L 89.3592 349.157952 
Q 74.9952 349.157952 74.9952 357.244992 
L 74.9952 457.524288 
Q 74.9952 465.611328 89.3592 465.611328 
z
" clip-path="url(#p810b22dd65)" style="fill: #fff3e8; stroke: #bccddc; stroke-width: 1.5; stroke-linejoin: miter"/>
   </g>
   <g id="text_1">
    <!-- 续跑保留 Run，重跑创建另一个 Run -->
    <g style="fill: #20344b" transform="translate(299.46875 47.656926) scale(0.25 -0.25)">
     <defs>
      <path id="MicrosoftYaHei-7eed" d="M 2263 3584 
L 3975 3584 
L 3975 4216 
L 2506 4216 
L 2506 4641 
L 3975 4641 
L 3975 5303 
L 4450 5303 
L 4450 4641 
L 5938 4641 
L 5938 4216 
L 4450 4216 
L 4450 3584 
L 6231 3584 
L 6231 3159 
Q 5944 2609 5644 2191 
Q 5400 2303 5194 2359 
Q 5494 2759 5719 3159 
L 2263 3159 
L 2263 3584 
z
M 2238 1141 
L 4119 1141 
Q 4263 1716 4250 2941 
L 4706 2941 
Q 4706 1753 4588 1141 
L 6238 1141 
L 6238 716 
L 4588 716 
Q 5444 147 6294 -478 
L 5944 -866 
Q 5206 -222 4306 391 
Q 3744 -491 2281 -903 
Q 2175 -691 2019 -466 
Q 3556 -47 3956 716 
L 2238 716 
L 2238 1141 
z
M 838 1672 
Q 1519 1734 2113 1822 
Q 2088 1553 2069 1397 
Q 1338 1309 294 1159 
L 194 1616 
Q 581 1947 1144 2903 
Q 569 2866 213 2834 
L 88 3247 
Q 563 3897 1131 5278 
L 1606 5103 
Q 1044 4003 606 3284 
Q 938 3284 1363 3297 
Q 1581 3697 1825 4184 
L 2263 3978 
Q 1469 2572 838 1672 
z
M 131 172 
Q 1113 334 2150 547 
Q 2125 209 2125 84 
Q 1213 -97 269 -303 
L 131 172 
z
M 2338 1953 
L 2588 2247 
Q 3200 1866 3531 1578 
L 3244 1234 
Q 2963 1503 2338 1953 
z
M 2775 2647 
L 3031 2947 
Q 3531 2666 3963 2316 
L 3681 1978 
Q 3281 2303 2775 2647 
z
" transform="scale(0.015625)"/>
      <path id="MicrosoftYaHei-8dd1" d="M 88 -34 
Q 253 -9 425 16 
L 425 2428 
L 844 2428 
L 844 81 
Q 1097 122 1356 166 
L 1356 3059 
L 950 3059 
L 950 2866 
L 525 2866 
L 525 4984 
L 2413 4984 
L 2413 3400 
Q 3038 4272 3456 5334 
L 3900 5178 
Q 3756 4844 3603 4534 
L 5856 4534 
Q 5800 2484 5738 1591 
Q 5669 566 4756 566 
Q 4450 566 3950 591 
Q 3931 847 3863 1084 
Q 4363 1022 4706 1022 
Q 5231 1016 5288 1672 
Q 5350 2509 5388 4109 
L 3384 4109 
Q 3172 3713 2947 3359 
L 4675 3359 
L 4675 1591 
L 3288 1591 
L 3288 272 
Q 3288 -134 3700 -134 
L 5213 -134 
Q 5638 -134 5725 228 
Q 5788 484 5844 866 
Q 6125 722 6319 672 
Q 6244 303 6150 -16 
Q 6000 -572 5313 -572 
L 3631 -572 
Q 2850 -572 2850 203 
L 2850 3209 
Q 2691 2972 2525 2753 
Q 2463 2878 2322 3059 
L 1781 3059 
L 1781 1997 
L 2531 1997 
L 2531 1591 
L 1781 1591 
L 1781 241 
Q 2169 313 2569 391 
Q 2563 141 2581 -59 
Q 1538 -259 206 -528 
L 88 -34 
z
M 1988 3447 
L 1988 4597 
L 950 4597 
L 950 3447 
L 1988 3447 
z
M 4238 2009 
L 4238 2941 
L 3288 2941 
L 3288 2009 
L 4238 2009 
z
" transform="scale(0.015625)"/>
      <path id="MicrosoftYaHei-4fdd" d="M 2263 5003 
L 5750 5003 
L 5750 2647 
L 5275 2647 
L 5275 2884 
L 4225 2884 
L 4225 2041 
L 6288 2041 
L 6288 1616 
L 4588 1616 
Q 5163 659 6338 109 
Q 6144 -159 6025 -353 
Q 4850 359 4225 1572 
L 4225 -847 
L 3769 -847 
L 3769 1597 
Q 3013 234 1875 -478 
Q 1731 -303 1525 -97 
Q 2638 516 3331 1616 
L 1694 1616 
L 1694 2041 
L 3769 2041 
L 3769 2884 
L 2738 2884 
L 2738 2603 
L 2263 2603 
L 2263 5003 
z
M 69 2247 
Q 906 3497 1369 5278 
L 1831 5141 
Q 1575 4316 1275 3597 
L 1275 -816 
L 825 -816 
L 825 2653 
Q 556 2159 263 1734 
Q 175 1997 69 2247 
z
M 5275 4584 
L 2738 4584 
L 2738 3303 
L 5275 3303 
L 5275 4584 
z
" transform="scale(0.015625)"/>
      <path id="MicrosoftYaHei-7559" d="M 825 2284 
L 5594 2284 
L 5594 -791 
L 5125 -791 
L 5125 -528 
L 1294 -528 
L 1294 -803 
L 825 -803 
L 825 2284 
z
M 3131 4553 
L 3131 4978 
L 5931 4978 
Q 5900 4166 5863 3478 
Q 5794 2609 5050 2609 
Q 4700 2609 4281 2628 
Q 4244 2859 4188 3128 
Q 4638 3059 4956 3059 
Q 5356 3059 5400 3553 
Q 5431 4047 5444 4553 
L 4247 4553 
Q 4250 3066 3119 2316 
Q 2969 2503 2756 2672 
Q 3788 3278 3781 4553 
L 3131 4553 
z
M 1869 4103 
L 2244 4341 
Q 2656 3809 3075 3159 
L 2663 2891 
Q 2550 3078 2431 3269 
Q 1706 2975 1038 2678 
Q 844 2578 700 2428 
L 331 2853 
Q 519 3059 519 3378 
L 519 4903 
Q 1613 4984 2744 5272 
L 2919 4809 
Q 2069 4634 981 4491 
L 981 3191 
Q 1563 3403 2188 3644 
Q 2034 3872 1869 4103 
z
M 3444 -103 
L 5125 -103 
L 5125 678 
L 3444 678 
L 3444 -103 
z
M 1294 -103 
L 2975 -103 
L 2975 678 
L 1294 678 
L 1294 -103 
z
M 5125 1859 
L 3444 1859 
L 3444 1097 
L 5125 1097 
L 5125 1859 
z
M 1294 1097 
L 2975 1097 
L 2975 1859 
L 1294 1859 
L 1294 1097 
z
" transform="scale(0.015625)"/>
      <path id="MicrosoftYaHei-20" transform="scale(0.015625)"/>
      <path id="MicrosoftYaHei-52" d="M 4159 0 
L 3422 0 
L 2619 1344 
Q 2378 1747 2178 1892 
Q 1978 2038 1700 2038 
L 1250 2038 
L 1250 0 
L 625 0 
L 625 4841 
L 2100 4841 
Q 2806 4841 3206 4500 
Q 3606 4159 3606 3547 
Q 3606 2541 2531 2241 
L 2531 2225 
Q 2731 2141 2876 1984 
Q 3022 1828 3253 1450 
L 4159 0 
z
M 1250 4294 
L 1250 2584 
L 1988 2584 
Q 2416 2584 2683 2834 
Q 2950 3084 2950 3491 
Q 2950 3869 2706 4081 
Q 2463 4294 1997 4294 
L 1250 4294 
z
" transform="scale(0.015625)"/>
      <path id="MicrosoftYaHei-75" d="M 3400 0 
L 2784 0 
L 2784 544 
L 2772 544 
Q 2425 -81 1706 -81 
Q 478 -81 478 1388 
L 478 3456 
L 1084 3456 
L 1084 1478 
Q 1084 425 1891 425 
Q 2291 425 2537 720 
Q 2784 1016 2784 1466 
L 2784 3456 
L 3400 3456 
L 3400 0 
z
" transform="scale(0.015625)"/>
      <path id="MicrosoftYaHei-6e" d="M 3469 0 
L 2859 0 
L 2859 1966 
Q 2859 3031 2081 3031 
Q 1678 3031 1418 2731 
Q 1159 2431 1159 1972 
L 1159 0 
L 547 0 
L 547 3456 
L 1159 3456 
L 1159 2884 
L 1172 2884 
Q 1563 3538 2306 3538 
Q 2875 3538 3172 3173 
Q 3469 2809 3469 2113 
L 3469 0 
z
" transform="scale(0.015625)"/>
      <path id="MicrosoftYaHei-ff0c" d="M 1931 775 
L 1403 -891 
L 966 -891 
L 1350 775 
L 1931 775 
z
" transform="scale(0.015625)"/>
      <path id="MicrosoftYaHei-91cd" d="M 113 -203 
L 2975 -203 
L 2975 259 
L 600 259 
L 600 628 
L 2975 628 
L 2975 1153 
L 1288 1153 
L 1288 928 
L 850 928 
L 850 3278 
L 2975 3278 
L 2975 3728 
L 163 3728 
L 163 4116 
L 2975 4116 
L 2975 4606 
Q 1841 4572 625 4547 
Q 588 4747 538 4972 
Q 3706 5009 5669 5141 
L 5744 4716 
Q 4631 4663 3425 4619 
L 3425 4116 
L 6263 4116 
L 6263 3728 
L 3425 3728 
L 3425 3278 
L 5569 3278 
L 5569 934 
L 5131 934 
L 5131 1153 
L 3425 1153 
L 3425 628 
L 5806 628 
L 5806 259 
L 3425 259 
L 3425 -203 
L 6263 -203 
L 6263 -591 
L 113 -591 
L 113 -203 
z
M 3425 1516 
L 5131 1516 
L 5131 2053 
L 3425 2053 
L 3425 1516 
z
M 1288 1516 
L 2975 1516 
L 2975 2053 
L 1288 2053 
L 1288 1516 
z
M 5131 2916 
L 3425 2916 
L 3425 2384 
L 5131 2384 
L 5131 2916 
z
M 1288 2384 
L 2975 2384 
L 2975 2916 
L 1288 2916 
L 1288 2384 
z
" transform="scale(0.015625)"/>
      <path id="MicrosoftYaHei-521b" d="M 2425 5247 
L 2344 5116 
Q 3138 4384 3869 3634 
L 3525 3247 
Q 2856 3991 2100 4716 
Q 1488 3747 838 3097 
L 3406 3097 
Q 3369 2228 3344 1878 
Q 3313 947 2494 947 
Q 2163 947 1681 966 
Q 1644 1241 1594 1466 
Q 2013 1397 2394 1391 
Q 2844 1384 2875 1959 
Q 2894 2259 2913 2659 
L 1256 2659 
L 1256 153 
Q 1256 -197 1631 -197 
L 2656 -197 
Q 3150 -197 3213 128 
Q 3288 428 3325 878 
Q 3569 778 3819 697 
Q 3756 284 3663 -66 
Q 3506 -647 2781 -647 
L 1538 -647 
Q 769 -647 769 116 
L 769 3022 
Q 569 2834 375 2678 
Q 188 2984 88 3128 
Q 1113 3909 1850 5247 
L 2425 5247 
z
M 5419 5203 
L 5919 5203 
L 5919 9 
Q 5919 -753 5163 -759 
Q 4900 -759 4181 -753 
Q 4150 -466 4081 -184 
Q 4744 -241 5013 -241 
Q 5419 -241 5419 159 
L 5419 5203 
z
M 4594 797 
L 4113 797 
L 4113 4647 
L 4594 4647 
L 4594 797 
z
" transform="scale(0.015625)"/>
      <path id="MicrosoftYaHei-5efa" d="M 2075 1009 
L 3675 1009 
L 3675 1553 
L 2288 1553 
L 2288 1928 
L 3675 1928 
L 3675 2472 
L 2375 2472 
L 2375 2847 
L 3675 2847 
L 3675 3391 
L 2050 3391 
L 2050 3778 
L 3675 3778 
L 3675 4322 
L 2375 4322 
L 2375 4697 
L 3675 4697 
L 3675 5309 
L 4138 5309 
L 4138 4697 
L 5588 4697 
L 5588 3778 
L 6244 3778 
L 6244 3391 
L 5588 3391 
L 5588 2303 
L 5138 2303 
L 5138 2472 
L 4138 2472 
L 4138 1928 
L 5713 1928 
L 5713 1553 
L 4138 1553 
L 4138 1009 
L 6000 1009 
L 6000 634 
L 4138 634 
L 4138 -9 
L 3675 -9 
L 3675 634 
L 2075 634 
L 2075 1009 
z
M 600 2066 
Q 788 1303 1125 813 
Q 1459 1500 1544 2397 
L 294 2397 
L 294 2853 
L 1444 4272 
L 169 4272 
L 169 4697 
L 2019 4697 
L 2019 4272 
L 844 2822 
L 2013 2822 
L 2013 2453 
Q 1897 1294 1447 444 
Q 2128 -147 3563 -153 
Q 4750 -178 6319 -122 
Q 6213 -378 6113 -616 
Q 4681 -609 3344 -603 
Q 1950 -603 1206 47 
Q 853 -466 350 -847 
Q 250 -666 94 -441 
Q 563 -84 881 391 
Q 463 922 188 1909 
L 600 2066 
z
M 4138 2847 
L 5138 2847 
L 5138 3391 
L 4138 3391 
L 4138 2847 
z
M 5138 4322 
L 4138 4322 
L 4138 3778 
L 5138 3778 
L 5138 4322 
z
" transform="scale(0.015625)"/>
      <path id="MicrosoftYaHei-53e6" d="M 913 5066 
L 5513 5066 
L 5513 2666 
L 5013 2666 
L 5013 2947 
L 1413 2947 
L 1413 2659 
L 913 2659 
L 913 5066 
z
M 338 2009 
L 2272 2009 
Q 2313 2325 2338 2709 
L 2875 2709 
Q 2841 2328 2794 2009 
L 5825 2009 
Q 5775 1128 5738 597 
Q 5688 -172 5425 -434 
Q 5175 -722 4481 -728 
Q 3963 -734 3263 -697 
Q 3225 -384 3169 -147 
Q 3831 -228 4450 -228 
Q 4875 -228 5044 -47 
Q 5200 116 5237 622 
Q 5275 1128 5294 1541 
L 2719 1541 
Q 2581 847 2375 509 
Q 1894 -353 450 -872 
Q 288 -647 88 -441 
Q 1525 28 1938 816 
Q 2094 1069 2194 1541 
L 338 1541 
L 338 2009 
z
M 5013 4616 
L 1413 4616 
L 1413 3397 
L 5013 3397 
L 5013 4616 
z
" transform="scale(0.015625)"/>
      <path id="MicrosoftYaHei-4e00" d="M 100 2703 
L 6313 2703 
L 6313 2153 
L 100 2153 
L 100 2703 
z
" transform="scale(0.015625)"/>
      <path id="MicrosoftYaHei-4e2a" d="M 2913 3028 
L 3481 3028 
L 3481 -841 
L 2913 -841 
L 2913 3028 
z
M 3600 5178 
L 3506 5034 
Q 4519 3366 6319 2647 
Q 6125 2341 5988 2084 
Q 4150 3047 3206 4566 
Q 2281 3122 400 1997 
Q 263 2222 81 2491 
Q 2031 3572 2981 5178 
L 3600 5178 
z
" transform="scale(0.015625)"/>
     </defs>
     <use xlink:href="#MicrosoftYaHei-7eed"/>
     <use xlink:href="#MicrosoftYaHei-8dd1" transform="translate(100 0)"/>
     <use xlink:href="#MicrosoftYaHei-4fdd" transform="translate(200 0)"/>
     <use xlink:href="#MicrosoftYaHei-7559" transform="translate(300 0)"/>
     <use xlink:href="#MicrosoftYaHei-20" transform="translate(400 0)"/>
     <use xlink:href="#MicrosoftYaHei-52" transform="translate(429.589844 0)"/>
     <use xlink:href="#MicrosoftYaHei-75" transform="translate(494.873047 0)"/>
     <use xlink:href="#MicrosoftYaHei-6e" transform="translate(556.494141 0)"/>
     <use xlink:href="#MicrosoftYaHei-ff0c" transform="translate(618.115234 0)"/>
     <use xlink:href="#MicrosoftYaHei-91cd" transform="translate(718.115234 0)"/>
     <use xlink:href="#MicrosoftYaHei-8dd1" transform="translate(818.115234 0)"/>
     <use xlink:href="#MicrosoftYaHei-521b" transform="translate(918.115234 0)"/>
     <use xlink:href="#MicrosoftYaHei-5efa" transform="translate(1018.115234 0)"/>
     <use xlink:href="#MicrosoftYaHei-53e6" transform="translate(1118.115234 0)"/>
     <use xlink:href="#MicrosoftYaHei-4e00" transform="translate(1218.115234 0)"/>
     <use xlink:href="#MicrosoftYaHei-4e2a" transform="translate(1318.115234 0)"/>
     <use xlink:href="#MicrosoftYaHei-20" transform="translate(1418.115234 0)"/>
     <use xlink:href="#MicrosoftYaHei-52" transform="translate(1447.705078 0)"/>
     <use xlink:href="#MicrosoftYaHei-75" transform="translate(1512.988281 0)"/>
     <use xlink:href="#MicrosoftYaHei-6e" transform="translate(1574.609375 0)"/>
    </g>
   </g>
   <g id="text_2">
    <!-- 教学示意，依据正文合同绘制；不是系统截图或已执行的青禾 Run。 -->
    <g style="fill: #546779" transform="translate(322.9125 528.220976) scale(0.12 -0.12)">
     <defs>
      <path id="MicrosoftYaHei-6559" d="M 2975 2153 
Q 3681 3453 4106 5216 
L 4563 5103 
Q 4438 4591 4275 4084 
L 6225 4084 
L 6225 3634 
L 5613 3634 
Q 5569 2022 4825 859 
Q 5394 78 6319 -359 
Q 6144 -616 6025 -822 
Q 5113 -297 4538 459 
Q 3906 -328 2900 -884 
Q 2788 -722 2594 -472 
Q 3638 59 4263 872 
Q 3825 1603 3669 2522 
Q 3525 2216 3375 1916 
Q 3175 2047 2975 2153 
z
M 3163 4678 
L 3538 4434 
Q 3156 3866 2688 3309 
L 3150 3309 
L 3150 2897 
L 2331 2897 
Q 2081 2616 1819 2353 
L 2844 2353 
L 2844 1978 
L 2038 1184 
L 2038 1072 
Q 2544 1159 3156 1272 
Q 3138 1034 3131 841 
Q 2619 753 2038 647 
L 2038 -34 
Q 2081 -809 1313 -778 
Q 1044 -778 619 -766 
Q 594 -566 556 -297 
Q 850 -328 1225 -334 
Q 1619 -372 1588 16 
L 1588 566 
Q 981 453 313 322 
L 238 778 
Q 756 853 1588 991 
L 1588 1303 
L 2244 1953 
L 1406 1953 
Q 888 1478 369 1078 
Q 244 1253 75 1434 
Q 438 1691 750 1953 
L 231 1953 
L 231 2353 
L 1200 2353 
Q 1494 2616 1769 2897 
L 150 2897 
L 150 3309 
L 1381 3309 
L 1381 3947 
L 400 3947 
L 400 4359 
L 1381 4359 
L 1381 5209 
L 1831 5209 
L 1831 4359 
L 2600 4359 
L 2600 3947 
L 1831 3947 
L 1831 3309 
L 2138 3309 
Q 2700 3941 3163 4678 
z
M 3981 3272 
Q 4106 2134 4550 1303 
Q 5119 2291 5156 3634 
L 4119 3634 
Q 4056 3453 3981 3272 
z
" transform="scale(0.015625)"/>
      <path id="MicrosoftYaHei-5b66" d="M 144 1359 
L 3069 1359 
L 3069 1709 
L 4263 2384 
L 1325 2384 
L 1325 2841 
L 4994 2841 
L 4994 2316 
L 3575 1497 
L 3575 1359 
L 6263 1359 
L 6263 903 
L 3575 903 
L 3575 -41 
Q 3575 -778 2831 -778 
Q 2419 -778 1863 -766 
Q 1844 -553 1788 -234 
Q 2288 -284 2744 -291 
Q 3069 -297 3069 53 
L 3069 903 
L 144 903 
L 144 1359 
z
M 356 3909 
L 6056 3909 
L 6056 2647 
L 5563 2647 
L 5563 3453 
L 850 3453 
L 850 2647 
L 356 2647 
L 356 3909 
z
M 4313 4272 
Q 4731 4722 5100 5241 
L 5550 4909 
Q 5144 4447 4681 3941 
L 4313 4272 
z
M 2538 5116 
L 2944 5353 
Q 3325 4853 3650 4334 
L 3200 4078 
Q 2925 4566 2538 5116 
z
M 850 4928 
L 1219 5197 
Q 1600 4778 1969 4291 
L 1544 3991 
Q 1194 4522 850 4928 
z
" transform="scale(0.015625)"/>
      <path id="MicrosoftYaHei-793a" d="M 100 3072 
L 6300 3072 
L 6300 2603 
L 3619 2603 
L 3619 78 
Q 3619 -703 2800 -709 
Q 2366 -709 1825 -703 
Q 1788 -447 1731 -128 
Q 2225 -178 2663 -178 
Q 3088 -178 3088 241 
L 3088 2603 
L 100 2603 
L 100 3072 
z
M 675 4916 
L 5744 4916 
L 5744 4447 
L 675 4447 
L 675 4916 
z
M 4413 1847 
L 4831 2128 
Q 5600 1184 6319 159 
L 5863 -141 
Q 5088 991 4413 1847 
z
M 1481 2141 
L 1938 1884 
Q 1281 747 538 -278 
Q 344 -134 125 16 
Q 825 922 1481 2141 
z
" transform="scale(0.015625)"/>
      <path id="MicrosoftYaHei-610f" d="M 2706 759 
L 3022 1028 
L 1419 1028 
L 1419 834 
L 956 834 
L 956 2997 
L 5406 2997 
L 5406 834 
L 4944 834 
L 4944 1028 
L 3038 1028 
Q 3447 681 3756 353 
L 3388 47 
Q 3125 353 2706 759 
z
M 150 3722 
L 1906 3722 
Q 1659 3956 1406 4172 
L 1594 4347 
L 538 4347 
L 538 4722 
L 3028 4722 
Q 2900 4984 2763 5216 
L 3188 5397 
Q 3391 5044 3538 4722 
L 5863 4722 
L 5863 4347 
L 4772 4347 
L 4988 4184 
Q 4738 3953 4472 3722 
L 6250 3722 
L 6250 3347 
L 150 3347 
L 150 3722 
z
M 1650 791 
L 2125 791 
L 2125 78 
Q 2125 -284 2538 -284 
L 3819 -284 
Q 4269 -284 4350 59 
Q 4413 297 4463 622 
Q 4681 528 4931 447 
Q 4856 91 4794 -128 
Q 4644 -709 3950 -709 
L 2438 -709 
Q 1650 -709 1650 34 
L 1650 791 
z
M 1419 1391 
L 4944 1391 
L 4944 1841 
L 1419 1841 
L 1419 1391 
z
M 4944 2634 
L 1419 2634 
L 1419 2191 
L 4944 2191 
L 4944 2634 
z
M 3925 3834 
Q 4178 4047 4481 4347 
L 1838 4347 
Q 2116 4141 2381 3909 
L 2191 3722 
L 4038 3722 
L 3925 3834 
z
M 656 759 
L 1094 591 
Q 869 22 569 -559 
Q 381 -472 131 -366 
Q 388 97 656 759 
z
M 5175 503 
L 5531 778 
Q 5975 303 6325 -116 
L 5931 -428 
Q 5550 72 5175 503 
z
" transform="scale(0.015625)"/>
      <path id="MicrosoftYaHei-4f9d" d="M 5681 3141 
L 6038 2753 
Q 5388 2222 4644 1688 
Q 5250 531 6331 -3 
Q 6106 -253 5938 -478 
Q 4159 622 3675 3138 
Q 3413 2719 3100 2322 
L 3100 22 
Q 3631 322 4194 666 
Q 4238 366 4294 159 
Q 3650 -197 3094 -559 
Q 2906 -691 2731 -853 
L 2394 -422 
Q 2613 -216 2613 141 
L 2613 1759 
Q 2153 1266 1600 816 
Q 1494 1034 1344 1297 
Q 2784 2416 3497 3847 
L 1738 3847 
L 1738 4272 
L 6263 4272 
L 6263 3847 
L 4066 3847 
Q 4038 3791 4009 3731 
Q 4153 2831 4441 2125 
Q 5100 2613 5681 3141 
z
M 69 2272 
Q 906 3522 1369 5303 
L 1831 5166 
Q 1578 4341 1275 3625 
L 1275 -841 
L 825 -841 
L 825 2681 
Q 559 2188 263 1759 
Q 175 2022 69 2272 
z
M 3338 5116 
L 3750 5372 
Q 4075 4966 4338 4591 
L 3900 4303 
Q 3638 4741 3338 5116 
z
" transform="scale(0.015625)"/>
      <path id="MicrosoftYaHei-636e" d="M 2900 1334 
L 4188 1334 
L 4188 2128 
L 2731 2128 
Q 2663 206 1844 -841 
Q 1694 -647 1506 -447 
Q 2288 516 2288 2509 
L 2288 4947 
L 5975 4947 
L 5975 3134 
L 5525 3134 
L 5525 3328 
L 2738 3328 
L 2738 2553 
L 4188 2553 
L 4188 3209 
L 4638 3209 
L 4638 2553 
L 6288 2553 
L 6288 2128 
L 4638 2128 
L 4638 1334 
L 5938 1334 
L 5938 -778 
L 5488 -778 
L 5488 -416 
L 3350 -416 
L 3350 -778 
L 2900 -778 
L 2900 1334 
z
M 100 1966 
Q 544 2088 963 2213 
L 963 3641 
L 175 3641 
L 175 4091 
L 963 4091 
L 963 5284 
L 1425 5284 
L 1425 4091 
L 2106 4091 
L 2106 3641 
L 1425 3641 
L 1425 2356 
Q 1722 2450 2006 2547 
Q 2013 2266 2044 2059 
Q 1722 1956 1425 1856 
L 1425 -34 
Q 1425 -741 806 -753 
Q 613 -759 231 -747 
Q 206 -497 156 -228 
Q 500 -266 681 -266 
Q 963 -266 963 53 
L 963 1703 
Q 534 1559 163 1428 
L 100 1966 
z
M 5525 4534 
L 2738 4534 
L 2738 3741 
L 5525 3741 
L 5525 4534 
z
M 5488 922 
L 3350 922 
L 3350 -9 
L 5488 -9 
L 5488 922 
z
" transform="scale(0.015625)"/>
      <path id="MicrosoftYaHei-6b63" d="M 88 66 
L 1106 66 
L 1106 3416 
L 1644 3416 
L 1644 66 
L 3231 66 
L 3231 4309 
L 375 4309 
L 375 4797 
L 6063 4797 
L 6063 4309 
L 3769 4309 
L 3769 2672 
L 5850 2672 
L 5850 2191 
L 3769 2191 
L 3769 66 
L 6313 66 
L 6313 -422 
L 88 -422 
L 88 66 
z
" transform="scale(0.015625)"/>
      <path id="MicrosoftYaHei-6587" d="M 194 4241 
L 3194 4241 
Q 2878 4841 2700 5116 
L 3181 5341 
Q 3356 5072 3706 4466 
L 3256 4241 
L 6194 4241 
L 6194 3778 
L 5041 3778 
Q 4706 1994 3603 909 
Q 4434 303 6244 -178 
Q 5956 -503 5806 -722 
Q 4044 -113 3203 553 
Q 2359 -103 506 -772 
Q 344 -553 131 -284 
Q 1919 253 2822 913 
Q 1681 2131 1372 3778 
L 194 3778 
L 194 4241 
z
M 4506 3778 
L 1872 3778 
Q 2153 2241 3216 1238 
Q 4231 2181 4506 3778 
z
" transform="scale(0.015625)"/>
      <path id="MicrosoftYaHei-5408" d="M 1025 1909 
L 5381 1909 
L 5381 -866 
L 4881 -866 
L 4881 -447 
L 1525 -447 
L 1525 -878 
L 1025 -878 
L 1025 1909 
z
M 3700 5234 
L 3550 5053 
Q 4594 3697 6319 3009 
Q 6125 2734 5988 2509 
Q 5481 2753 5025 3059 
L 5025 2703 
L 1369 2703 
L 1369 3016 
Q 913 2716 394 2428 
Q 269 2641 81 2897 
Q 2013 3866 3000 5234 
L 3700 5234 
z
M 4881 1453 
L 1525 1453 
L 1525 -3 
L 4881 -3 
L 4881 1453 
z
M 3219 4691 
Q 2581 3872 1550 3147 
L 4894 3147 
Q 3944 3797 3219 4691 
z
" transform="scale(0.015625)"/>
      <path id="MicrosoftYaHei-540c" d="M 1013 -772 
L 531 -772 
L 531 4959 
L 5856 4959 
L 5856 -47 
Q 5856 -741 5125 -741 
Q 4669 -741 4088 -716 
Q 4056 -497 4000 -216 
Q 4619 -272 5025 -272 
Q 5375 -272 5375 78 
L 5375 4497 
L 1013 4497 
L 1013 -772 
z
M 1875 2566 
L 4506 2566 
L 4506 597 
L 2338 597 
L 2338 272 
L 1875 272 
L 1875 2566 
z
M 4044 2116 
L 2338 2116 
L 2338 1047 
L 4044 1047 
L 4044 2116 
z
M 1363 3734 
L 5025 3734 
L 5025 3284 
L 1363 3284 
L 1363 3734 
z
" transform="scale(0.015625)"/>
      <path id="MicrosoftYaHei-7ed8" d="M 2294 1784 
L 5900 1784 
L 5900 1359 
L 3956 1359 
Q 3431 522 2975 -109 
Q 3875 -84 5031 -34 
Q 4738 403 4419 847 
L 4800 1066 
Q 5463 209 5988 -616 
L 5556 -872 
Q 5419 -647 5281 -422 
Q 3656 -509 2994 -559 
Q 2800 -578 2350 -653 
L 2138 -203 
Q 2381 -128 2575 103 
Q 2988 628 3369 1359 
L 2294 1359 
L 2294 1784 
z
M 856 1672 
Q 1481 1734 2075 1816 
Q 2050 1547 2025 1391 
Q 1400 1316 294 1159 
L 194 1616 
Q 531 1834 1156 2903 
Q 575 2866 213 2834 
L 88 3247 
Q 681 4166 1106 5278 
L 1594 5103 
Q 1156 4172 619 3284 
Q 856 3284 1375 3297 
Q 1594 3691 1844 4178 
L 2288 3972 
Q 1569 2722 856 1672 
z
M 4394 5266 
L 4281 5072 
Q 5100 3666 6313 3047 
Q 6088 2797 5950 2609 
Q 4750 3397 4038 4603 
Q 3419 3484 2325 2534 
Q 2206 2697 1950 2884 
Q 3219 3922 3850 5266 
L 4394 5266 
z
M 2850 2997 
L 5294 2997 
L 5294 2578 
L 2850 2578 
L 2850 2997 
z
M 94 97 
Q 763 216 2163 534 
Q 2144 291 2150 53 
Q 1319 -116 219 -378 
L 94 97 
z
" transform="scale(0.015625)"/>
      <path id="MicrosoftYaHei-5236" d="M 1906 5266 
L 2394 5266 
L 2394 4309 
L 3750 4309 
L 3750 3872 
L 2394 3872 
L 2394 3034 
L 4025 3034 
L 4025 2597 
L 2394 2597 
L 2394 1897 
L 3763 1897 
L 3763 409 
Q 3763 -266 3150 -272 
Q 2956 -278 2631 -272 
Q 2600 -72 2538 178 
Q 2844 159 3038 159 
Q 3300 159 3300 472 
L 3300 1472 
L 2394 1472 
L 2394 -847 
L 1906 -847 
L 1906 1472 
L 1044 1472 
L 1044 -378 
L 581 -378 
L 581 1897 
L 1906 1897 
L 1906 2597 
L 113 2597 
L 113 3034 
L 1906 3034 
L 1906 3872 
L 981 3872 
Q 822 3513 619 3191 
Q 413 3309 194 3428 
Q 688 4172 881 5041 
L 1344 4922 
Q 1263 4603 1159 4309 
L 1906 4309 
L 1906 5266 
z
M 5469 5272 
L 5969 5272 
L 5969 122 
Q 5969 -722 5225 -722 
Q 4981 -722 4388 -716 
Q 4350 -472 4288 -172 
Q 4813 -222 5075 -222 
Q 5469 -222 5469 222 
L 5469 5272 
z
M 4750 822 
L 4269 822 
L 4269 4672 
L 4750 4672 
L 4750 822 
z
" transform="scale(0.015625)"/>
      <path id="MicrosoftYaHei-ff1b" d="M 1606 3531 
Q 1772 3531 1890 3415 
Q 2009 3300 2009 3138 
Q 2009 2975 1893 2858 
Q 1778 2741 1606 2741 
Q 1434 2741 1318 2858 
Q 1203 2975 1203 3138 
Q 1203 3300 1322 3415 
Q 1441 3531 1606 3531 
z
M 1931 775 
L 1403 -891 
L 966 -891 
L 1350 775 
L 1931 775 
z
" transform="scale(0.015625)"/>
      <path id="MicrosoftYaHei-4e0d" d="M 225 4772 
L 6181 4772 
L 6181 4284 
L 3881 4284 
Q 3581 3766 3081 3053 
L 3444 3053 
L 3444 -866 
L 2906 -866 
L 2906 2859 
Q 1838 1541 388 609 
Q 231 834 38 1059 
Q 2006 2291 3213 4284 
L 225 4284 
L 225 4772 
z
M 4069 2859 
Q 5238 2147 6325 1409 
L 5969 916 
Q 4681 1872 3763 2434 
L 4069 2859 
z
" transform="scale(0.015625)"/>
      <path id="MicrosoftYaHei-662f" d="M 1088 5078 
L 5338 5078 
L 5338 2472 
L 4863 2472 
L 4863 2722 
L 1563 2722 
L 1563 2472 
L 1088 2472 
L 1088 5078 
z
M 1400 1553 
L 1875 1409 
Q 1775 1081 1647 788 
Q 2122 19 3063 -134 
L 3063 1747 
L 213 1747 
L 213 2184 
L 6225 2184 
L 6225 1747 
L 3563 1747 
L 3563 1122 
L 5788 1122 
L 5788 697 
L 3563 697 
L 3563 -172 
Q 4763 -197 6344 -147 
Q 6244 -416 6169 -641 
Q 4331 -647 3344 -622 
Q 2022 -606 1434 359 
Q 1006 -413 350 -891 
Q 225 -703 44 -484 
Q 1050 191 1400 1553 
z
M 1563 3147 
L 4863 3147 
L 4863 3697 
L 1563 3697 
L 1563 3147 
z
M 4863 4653 
L 1563 4653 
L 1563 4109 
L 4863 4109 
L 4863 4653 
z
" transform="scale(0.015625)"/>
      <path id="MicrosoftYaHei-7cfb" d="M 4494 2747 
Q 5294 2103 6131 1334 
Q 5925 1134 5750 953 
Q 5491 1209 5225 1459 
Q 4391 1425 3519 1378 
L 3519 -28 
Q 3519 -741 2769 -741 
Q 2463 -741 1963 -728 
Q 1931 -497 1881 -216 
Q 2406 -272 2688 -272 
Q 3031 -272 3031 66 
L 3031 1353 
Q 2272 1313 1488 1266 
Q 1131 1247 781 1184 
L 575 1722 
Q 988 1797 1356 1966 
Q 2313 2434 3131 2909 
Q 2044 2825 1306 2759 
Q 981 2728 813 2691 
L 613 3216 
Q 913 3291 1175 3434 
Q 1959 3872 2747 4469 
Q 1675 4403 575 4353 
Q 531 4572 463 4791 
Q 3444 4903 5756 5134 
L 5850 4691 
Q 4494 4578 3097 4488 
L 3350 4309 
Q 2369 3653 1538 3203 
Q 2938 3281 3856 3353 
Q 4481 3753 5013 4159 
L 5419 3828 
Q 3850 2709 1775 1734 
Q 3019 1778 4791 1866 
Q 4478 2153 4163 2428 
L 4494 2747 
z
M 4125 697 
L 4444 1034 
Q 5231 509 6175 -222 
L 5806 -628 
Q 4931 97 4125 697 
z
M 1681 1028 
L 2088 709 
Q 1288 -9 406 -678 
Q 256 -497 63 -297 
Q 875 259 1681 1028 
z
" transform="scale(0.015625)"/>
      <path id="MicrosoftYaHei-7edf" d="M 5100 3641 
Q 5625 2934 6175 2047 
Q 5956 1922 5713 1766 
Q 5556 2031 5413 2275 
Q 5122 2256 4813 2241 
L 4813 122 
Q 4813 -259 5094 -259 
L 5400 -259 
Q 5706 -259 5750 53 
Q 5800 428 5813 866 
Q 6019 778 6313 684 
Q 6263 141 6206 -159 
Q 6119 -703 5550 -703 
L 5013 -703 
Q 4331 -703 4331 78 
L 4331 2213 
Q 3981 2194 3606 2169 
Q 3556 809 3256 272 
Q 2900 -416 1925 -866 
Q 1788 -672 1606 -447 
Q 2513 -78 2819 522 
Q 3100 1000 3122 2138 
Q 2994 2128 2863 2122 
Q 2594 2097 2363 2041 
L 2150 2528 
Q 2419 2641 2581 2828 
Q 3050 3388 3463 4047 
L 2100 4047 
L 2100 4491 
L 4094 4491 
Q 3859 4850 3650 5128 
L 4063 5384 
Q 4300 5091 4594 4684 
L 4297 4491 
L 6200 4491 
L 6200 4047 
L 3663 4047 
L 4006 3897 
Q 3488 3197 2988 2609 
Q 4166 2650 5153 2694 
Q 4916 3075 4700 3391 
L 5100 3641 
z
M 894 1534 
Q 1394 1603 2175 1722 
Q 2138 1472 2113 1259 
Q 1331 1153 325 991 
L 225 1441 
Q 616 1841 1153 2744 
Q 503 2700 219 2678 
L 100 3103 
Q 650 3828 1288 5316 
L 1763 5128 
Q 1156 3941 656 3141 
Q 1066 3147 1394 3159 
Q 1581 3494 1788 3884 
L 2256 3678 
Q 1544 2434 894 1534 
z
M 81 222 
Q 1119 422 2225 672 
Q 2200 347 2200 222 
Q 1069 -28 225 -253 
L 81 222 
z
" transform="scale(0.015625)"/>
      <path id="MicrosoftYaHei-622a" d="M 3625 191 
Q 4038 478 4378 838 
Q 4106 1816 4041 3291 
L 163 3291 
L 163 3703 
L 1856 3703 
L 1856 4284 
L 531 4284 
L 531 4684 
L 1856 4684 
L 1856 5278 
L 2294 5278 
L 2294 4684 
L 3519 4684 
L 3519 4284 
L 2294 4284 
L 2294 3703 
L 4022 3703 
Q 4003 4241 3981 5284 
L 4444 5284 
Q 4444 4400 4472 3703 
L 6225 3703 
L 6225 3291 
L 4491 3291 
Q 4544 2116 4747 1272 
Q 5238 1922 5544 2759 
L 5981 2572 
Q 5563 1541 4897 744 
Q 5041 328 5231 22 
Q 5394 -247 5550 -247 
Q 5681 -247 5738 -9 
Q 5813 303 5881 866 
Q 6125 753 6325 697 
Q 6231 84 6125 -291 
Q 5975 -797 5588 -797 
Q 5138 -797 4806 -197 
Q 4659 44 4538 353 
Q 4253 66 3931 -184 
Q 3800 3 3625 191 
z
M 2044 3034 
L 2338 3284 
Q 2588 3059 2881 2747 
L 2669 2572 
L 3763 2572 
L 3763 2197 
L 2631 2197 
L 2631 1684 
L 3669 1684 
L 3669 1322 
L 2631 1322 
L 2631 809 
L 3688 809 
L 3688 447 
L 2631 447 
L 2631 -66 
L 3756 -66 
L 3756 -441 
L 1213 -441 
L 1213 -791 
L 788 -791 
L 788 1763 
Q 569 1472 338 1209 
Q 200 1391 50 1559 
Q 738 2259 1169 3184 
L 1569 3009 
Q 1450 2784 1322 2572 
L 2478 2572 
Q 2259 2828 2044 3034 
z
M 4744 4741 
L 5019 5066 
Q 5569 4684 5994 4347 
L 5675 3959 
Q 5225 4372 4744 4741 
z
M 1213 809 
L 2206 809 
L 2206 1322 
L 1213 1322 
L 1213 809 
z
M 1213 1684 
L 2206 1684 
L 2206 2197 
L 1213 2197 
L 1213 1684 
z
M 1213 -66 
L 2206 -66 
L 2206 447 
L 1213 447 
L 1213 -66 
z
" transform="scale(0.015625)"/>
      <path id="MicrosoftYaHei-56fe" d="M 431 5072 
L 5944 5072 
L 5944 -809 
L 5475 -809 
L 5475 -509 
L 900 -509 
L 900 -809 
L 431 -809 
L 431 5072 
z
M 5475 4622 
L 900 4622 
L 900 -59 
L 5475 -59 
L 5475 4622 
z
M 1113 3091 
Q 1969 3709 2519 4547 
L 2931 4353 
Q 2816 4181 2681 4016 
L 4894 4016 
L 4894 3647 
Q 4434 3091 3722 2644 
Q 4381 2422 5338 2297 
Q 5194 2016 5131 1828 
Q 4022 2081 3256 2400 
Q 2491 2056 1225 1728 
Q 1138 1934 1013 2128 
Q 2109 2353 2825 2644 
Q 2384 2947 2066 3341 
Q 1769 3056 1419 2784 
Q 1294 2916 1113 3091 
z
M 1563 672 
L 1694 1103 
Q 3256 897 4700 622 
L 4531 147 
Q 3150 453 1563 672 
z
M 4275 3628 
L 2347 3628 
Q 2338 3616 2328 3606 
Q 2691 3141 3244 2841 
Q 3891 3188 4275 3628 
z
M 2219 1503 
L 2344 1922 
Q 3263 1784 4275 1609 
L 4144 1172 
Q 3119 1378 2219 1503 
z
" transform="scale(0.015625)"/>
      <path id="MicrosoftYaHei-6216" d="M 2675 -484 
Q 3456 50 4044 741 
Q 3644 1847 3569 3741 
L 200 3741 
L 200 4203 
L 3550 4203 
Q 3525 4725 3506 5291 
L 4019 5291 
Q 4022 4725 4038 4203 
L 6250 4203 
L 6250 3741 
L 4047 3741 
Q 4088 2188 4397 1197 
Q 5000 2044 5350 3097 
L 5844 2891 
Q 5334 1619 4603 659 
Q 4884 59 5275 -191 
Q 5650 -434 5738 16 
Q 5831 484 5881 978 
Q 6138 866 6363 797 
Q 6244 78 6138 -291 
Q 6006 -778 5569 -791 
Q 5206 -791 4863 -528 
Q 4513 -234 4259 244 
Q 3706 -384 3038 -853 
Q 2894 -691 2675 -484 
z
M 644 3134 
L 2894 3134 
L 2894 947 
L 2444 947 
L 2444 1234 
L 1094 1234 
L 1094 797 
L 644 797 
L 644 3134 
z
M 106 91 
Q 1300 247 3219 578 
Q 3225 309 3238 103 
Q 1831 -109 231 -409 
L 106 91 
z
M 2444 2697 
L 1094 2697 
L 1094 1672 
L 2444 1672 
L 2444 2697 
z
M 4494 4991 
L 4756 5316 
Q 5263 5022 5781 4659 
L 5481 4284 
Q 5013 4647 4494 4991 
z
" transform="scale(0.015625)"/>
      <path id="MicrosoftYaHei-5df2" d="M 738 3684 
L 1275 3684 
L 1275 2828 
L 5013 2828 
L 5013 4434 
L 506 4434 
L 506 4897 
L 5538 4897 
L 5538 1984 
L 5013 1984 
L 5013 2366 
L 1275 2366 
L 1275 547 
Q 1275 -28 1819 -28 
L 4900 -28 
Q 5438 -28 5550 359 
Q 5663 741 5719 1378 
Q 5963 1272 6256 1191 
Q 6169 541 6069 153 
Q 5881 -553 5019 -553 
L 1694 -553 
Q 738 -553 738 434 
L 738 3684 
z
" transform="scale(0.015625)"/>
      <path id="MicrosoftYaHei-6267" d="M 2225 2272 
L 2519 2647 
Q 2788 2472 3059 2294 
Q 3128 2856 3147 3622 
L 2406 3622 
L 2406 4097 
L 3156 4097 
Q 3169 4672 3175 5303 
L 3663 5303 
Q 3656 4653 3644 4097 
L 5363 4097 
Q 5350 3228 5344 2341 
Q 5319 616 5488 34 
Q 5531 -103 5618 -103 
Q 5706 -103 5744 59 
Q 5831 409 5913 1059 
Q 6156 934 6375 878 
Q 6288 253 6175 -159 
Q 6025 -691 5613 -691 
Q 5194 -691 5013 -103 
Q 4869 397 4875 1847 
Q 4869 2672 4869 3622 
L 3634 3622 
Q 3616 2709 3513 1988 
Q 3994 1663 4481 1322 
L 4163 891 
Q 3791 1172 3416 1444 
Q 3113 100 2088 -847 
Q 1931 -634 1713 -422 
Q 2725 506 2975 1756 
Q 2600 2019 2225 2272 
z
M 88 1966 
Q 525 2069 969 2181 
L 969 3647 
L 144 3647 
L 144 4097 
L 969 4097 
L 969 5303 
L 1431 5303 
L 1431 4097 
L 2163 4097 
L 2163 3647 
L 1431 3647 
L 1431 2303 
Q 1772 2394 2113 2491 
Q 2125 2216 2156 2016 
L 1431 1813 
L 1431 -78 
Q 1431 -759 875 -759 
Q 606 -759 219 -747 
Q 194 -516 138 -247 
Q 538 -291 694 -291 
Q 969 -291 969 3 
L 969 1678 
Q 559 1559 150 1441 
L 88 1966 
z
" transform="scale(0.015625)"/>
      <path id="MicrosoftYaHei-884c" d="M 2363 2978 
L 6319 2978 
L 6319 2509 
L 5106 2509 
L 5106 66 
Q 5106 -709 4325 -709 
Q 3800 -709 3256 -703 
Q 3219 -453 3163 -141 
Q 3650 -191 4144 -191 
Q 4575 -191 4575 234 
L 4575 2509 
L 2363 2509 
L 2363 2978 
z
M 100 1578 
Q 1069 2372 1863 3809 
L 2300 3541 
Q 1978 2984 1619 2500 
L 1619 -809 
L 1100 -809 
L 1100 1856 
Q 725 1431 319 1072 
Q 219 1334 100 1578 
z
M 2725 4866 
L 5969 4866 
L 5969 4397 
L 2725 4397 
L 2725 4866 
z
M 131 3559 
Q 1125 4328 1731 5347 
L 2181 5072 
Q 1456 3959 381 3078 
Q 269 3316 131 3559 
z
" transform="scale(0.015625)"/>
      <path id="MicrosoftYaHei-7684" d="M 356 4284 
L 988 4284 
Q 1219 4853 1369 5322 
L 1894 5172 
Q 1697 4694 1513 4284 
L 2763 4284 
L 2763 -691 
L 2263 -691 
L 2263 -203 
L 856 -203 
L 856 -734 
L 356 -734 
L 356 4284 
z
M 2856 3003 
Q 3444 3934 3850 5322 
L 4375 5191 
Q 4216 4719 4050 4303 
L 6063 4303 
Q 5988 1091 5938 259 
Q 5894 -722 4906 -722 
Q 4338 -722 3750 -684 
Q 3713 -372 3650 -128 
L 3669 -128 
Q 4294 -216 4813 -216 
Q 5381 -216 5425 384 
Q 5494 1316 5525 3834 
L 3850 3834 
Q 3578 3231 3288 2772 
Q 3119 2891 2856 3003 
z
M 856 266 
L 2263 266 
L 2263 1847 
L 856 1847 
L 856 266 
z
M 2263 3816 
L 856 3816 
L 856 2297 
L 2263 2297 
L 2263 3816 
z
M 3406 2578 
L 3788 2859 
Q 4481 2041 4894 1441 
L 4431 1116 
Q 3988 1841 3406 2578 
z
" transform="scale(0.015625)"/>
      <path id="MicrosoftYaHei-9752" d="M 1469 -784 
L 975 -784 
L 975 2384 
L 5431 2384 
L 5431 -91 
Q 5431 -747 4656 -741 
Q 4200 -741 3713 -734 
Q 3688 -534 3619 -253 
Q 4119 -291 4588 -291 
Q 4931 -291 4931 -3 
L 4931 347 
L 1469 347 
L 1469 -784 
z
M 200 3166 
L 2963 3166 
L 2963 3591 
L 650 3591 
L 650 3984 
L 2963 3984 
L 2963 4403 
L 325 4403 
L 325 4803 
L 2963 4803 
L 2963 5359 
L 3463 5359 
L 3463 4803 
L 6075 4803 
L 6075 4403 
L 3463 4403 
L 3463 3984 
L 5625 3984 
L 5625 3591 
L 3463 3591 
L 3463 3166 
L 6200 3166 
L 6200 2766 
L 200 2766 
L 200 3166 
z
M 4931 1984 
L 1469 1984 
L 1469 1553 
L 4931 1553 
L 4931 1984 
z
M 1469 734 
L 4931 734 
L 4931 1166 
L 1469 1166 
L 1469 734 
z
" transform="scale(0.015625)"/>
      <path id="MicrosoftYaHei-79be" d="M 325 3128 
L 2938 3128 
L 2938 4328 
Q 1875 4272 656 4228 
Q 631 4466 556 4716 
Q 3569 4809 5713 5009 
L 5788 4522 
Q 4744 4434 3450 4359 
L 3450 3128 
L 6075 3128 
L 6075 2653 
L 3831 2653 
Q 4613 922 6319 284 
Q 6144 97 5931 -216 
Q 4213 578 3450 2522 
L 3450 -897 
L 2938 -897 
L 2938 2497 
Q 2231 828 419 -291 
Q 288 -97 31 184 
Q 1700 1072 2544 2653 
L 325 2653 
L 325 3128 
z
" transform="scale(0.015625)"/>
      <path id="MicrosoftYaHei-3002" d="M 1219 863 
Q 1525 863 1750 625 
Q 1975 388 1975 72 
Q 1975 -284 1747 -507 
Q 1519 -731 1197 -731 
Q 875 -731 642 -503 
Q 409 -275 409 66 
Q 409 413 656 638 
Q 903 863 1219 863 
z
M 1209 -275 
Q 1328 -275 1431 -184 
Q 1534 -94 1534 50 
Q 1534 209 1434 304 
Q 1334 400 1191 400 
Q 1056 400 959 304 
Q 863 209 863 53 
Q 863 -100 977 -187 
Q 1091 -275 1209 -275 
z
" transform="scale(0.015625)"/>
     </defs>
     <use xlink:href="#MicrosoftYaHei-6559"/>
     <use xlink:href="#MicrosoftYaHei-5b66" transform="translate(100 0)"/>
     <use xlink:href="#MicrosoftYaHei-793a" transform="translate(200 0)"/>
     <use xlink:href="#MicrosoftYaHei-610f" transform="translate(300 0)"/>
     <use xlink:href="#MicrosoftYaHei-ff0c" transform="translate(400 0)"/>
     <use xlink:href="#MicrosoftYaHei-4f9d" transform="translate(500 0)"/>
     <use xlink:href="#MicrosoftYaHei-636e" transform="translate(600 0)"/>
     <use xlink:href="#MicrosoftYaHei-6b63" transform="translate(700 0)"/>
     <use xlink:href="#MicrosoftYaHei-6587" transform="translate(800 0)"/>
     <use xlink:href="#MicrosoftYaHei-5408" transform="translate(900 0)"/>
     <use xlink:href="#MicrosoftYaHei-540c" transform="translate(1000 0)"/>
     <use xlink:href="#MicrosoftYaHei-7ed8" transform="translate(1100 0)"/>
     <use xlink:href="#MicrosoftYaHei-5236" transform="translate(1200 0)"/>
     <use xlink:href="#MicrosoftYaHei-ff1b" transform="translate(1300 0)"/>
     <use xlink:href="#MicrosoftYaHei-4e0d" transform="translate(1400 0)"/>
     <use xlink:href="#MicrosoftYaHei-662f" transform="translate(1500 0)"/>
     <use xlink:href="#MicrosoftYaHei-7cfb" transform="translate(1600 0)"/>
     <use xlink:href="#MicrosoftYaHei-7edf" transform="translate(1700 0)"/>
     <use xlink:href="#MicrosoftYaHei-622a" transform="translate(1800 0)"/>
     <use xlink:href="#MicrosoftYaHei-56fe" transform="translate(1900 0)"/>
     <use xlink:href="#MicrosoftYaHei-6216" transform="translate(2000 0)"/>
     <use xlink:href="#MicrosoftYaHei-5df2" transform="translate(2100 0)"/>
     <use xlink:href="#MicrosoftYaHei-6267" transform="translate(2200 0)"/>
     <use xlink:href="#MicrosoftYaHei-884c" transform="translate(2300 0)"/>
     <use xlink:href="#MicrosoftYaHei-7684" transform="translate(2400 0)"/>
     <use xlink:href="#MicrosoftYaHei-9752" transform="translate(2500 0)"/>
     <use xlink:href="#MicrosoftYaHei-79be" transform="translate(2600 0)"/>
     <use xlink:href="#MicrosoftYaHei-20" transform="translate(2700 0)"/>
     <use xlink:href="#MicrosoftYaHei-52" transform="translate(2729.589844 0)"/>
     <use xlink:href="#MicrosoftYaHei-75" transform="translate(2794.873047 0)"/>
     <use xlink:href="#MicrosoftYaHei-6e" transform="translate(2856.494141 0)"/>
     <use xlink:href="#MicrosoftYaHei-3002" transform="translate(2918.115234 0)"/>
    </g>
   </g>
   <g id="text_3">
    <!-- Run A -->
    <g style="fill: #276fbf" transform="translate(137.106719 170.832034) scale(0.22 -0.22)">
     <defs>
      <path id="MicrosoftYaHei-41" d="M 4428 0 
L 3738 0 
L 3244 1325 
L 1228 1325 
L 763 0 
L 72 0 
L 1916 4841 
L 2584 4841 
L 4428 0 
z
M 3050 1872 
L 2319 3884 
Q 2284 3981 2244 4222 
L 2228 4222 
Q 2194 4003 2150 3884 
L 1425 1872 
L 3050 1872 
z
" transform="scale(0.015625)"/>
     </defs>
     <use xlink:href="#MicrosoftYaHei-52"/>
     <use xlink:href="#MicrosoftYaHei-75" transform="translate(65.283203 0)"/>
     <use xlink:href="#MicrosoftYaHei-6e" transform="translate(126.904297 0)"/>
     <use xlink:href="#MicrosoftYaHei-20" transform="translate(188.525391 0)"/>
     <use xlink:href="#MicrosoftYaHei-41" transform="translate(218.115234 0)"/>
    </g>
   </g>
   <g id="text_4">
    <!-- Attempt 1 -->
    <g style="fill: #26816b" transform="translate(328.895406 215.937791) scale(0.19 -0.19)">
     <defs>
      <path id="MicrosoftYaHei-74" d="M 2206 34 
Q 2006 -75 1666 -75 
Q 738 -75 738 953 
L 738 2950 
L 144 2950 
L 144 3456 
L 738 3456 
L 738 4288 
L 1347 4481 
L 1347 3456 
L 2206 3456 
L 2206 2950 
L 1347 2950 
L 1347 1063 
Q 1347 722 1462 575 
Q 1578 428 1847 428 
Q 2053 428 2206 544 
L 2206 34 
z
" transform="scale(0.015625)"/>
      <path id="MicrosoftYaHei-65" d="M 3363 1572 
L 944 1572 
Q 959 1019 1246 717 
Q 1534 416 2050 416 
Q 2631 416 3116 788 
L 3116 241 
Q 2659 -81 1906 -81 
Q 1156 -81 736 394 
Q 316 869 316 1713 
Q 316 2506 777 3022 
Q 1238 3538 1922 3538 
Q 2600 3538 2981 3102 
Q 3363 2666 3363 1881 
L 3363 1572 
z
M 2750 2063 
Q 2747 2531 2528 2787 
Q 2309 3044 1913 3044 
Q 1547 3044 1280 2772 
Q 1013 2500 944 2063 
L 2750 2063 
z
" transform="scale(0.015625)"/>
      <path id="MicrosoftYaHei-6d" d="M 5522 0 
L 4909 0 
L 4909 1984 
Q 4909 2547 4734 2789 
Q 4559 3031 4159 3031 
Q 3822 3031 3581 2715 
Q 3341 2400 3341 1969 
L 3341 0 
L 2728 0 
L 2728 2047 
Q 2728 3031 1969 3031 
Q 1619 3031 1389 2731 
Q 1159 2431 1159 1966 
L 1159 0 
L 547 0 
L 547 3456 
L 1159 3456 
L 1159 2909 
L 1172 2909 
Q 1541 3538 2250 3538 
Q 2597 3538 2862 3347 
Q 3128 3156 3231 2831 
Q 3616 3538 4381 3538 
Q 5522 3538 5522 2131 
L 5522 0 
z
" transform="scale(0.015625)"/>
      <path id="MicrosoftYaHei-70" d="M 1159 488 
L 1159 -1591 
L 547 -1591 
L 547 3456 
L 1159 3456 
L 1159 2859 
L 1172 2859 
Q 1578 3538 2359 3538 
Q 3022 3538 3398 3073 
Q 3775 2609 3775 1828 
Q 3775 966 3348 442 
Q 2922 -81 2200 -81 
Q 1534 -81 1172 488 
L 1159 488 
z
M 1156 1425 
Q 1156 1003 1428 714 
Q 1700 425 2109 425 
Q 2597 425 2872 800 
Q 3147 1175 3147 1838 
Q 3147 2397 2890 2714 
Q 2634 3031 2191 3031 
Q 1738 3031 1447 2709 
Q 1156 2388 1156 1884 
L 1156 1425 
z
" transform="scale(0.015625)"/>
      <path id="MicrosoftYaHei-31" d="M 1781 0 
L 1781 4141 
Q 1638 3997 1295 3819 
Q 953 3641 663 3569 
L 663 4169 
Q 1047 4275 1484 4508 
Q 1922 4741 2156 4947 
L 2388 4947 
L 2388 0 
L 1781 0 
z
" transform="scale(0.015625)"/>
     </defs>
     <use xlink:href="#MicrosoftYaHei-41"/>
     <use xlink:href="#MicrosoftYaHei-74" transform="translate(68.986328 0)"/>
     <use xlink:href="#MicrosoftYaHei-74" transform="translate(106.242188 0)"/>
     <use xlink:href="#MicrosoftYaHei-65" transform="translate(142.623047 0)"/>
     <use xlink:href="#MicrosoftYaHei-6d" transform="translate(199.361328 0)"/>
     <use xlink:href="#MicrosoftYaHei-70" transform="translate(293.0625 0)"/>
     <use xlink:href="#MicrosoftYaHei-74" transform="translate(356.929688 0)"/>
     <use xlink:href="#MicrosoftYaHei-20" transform="translate(394.185547 0)"/>
     <use xlink:href="#MicrosoftYaHei-31" transform="translate(423.775391 0)"/>
    </g>
    <!-- Step 1 … k -->
    <g style="fill: #26816b" transform="translate(327.755406 242.683853) scale(0.19 -0.19)">
     <defs>
      <path id="MicrosoftYaHei-53" d="M 400 909 
Q 622 716 994 591 
Q 1366 466 1700 466 
Q 2719 466 2719 1191 
Q 2719 1394 2609 1556 
Q 2500 1719 2309 1844 
Q 2119 1969 1594 2228 
Q 866 2591 634 2902 
Q 403 3213 403 3613 
Q 403 4216 887 4569 
Q 1372 4922 2109 4922 
Q 2831 4922 3169 4747 
L 3169 4066 
Q 2731 4369 2063 4369 
Q 1619 4369 1339 4183 
Q 1059 3997 1059 3666 
Q 1059 3372 1253 3187 
Q 1447 3003 2094 2684 
Q 2806 2344 3090 2003 
Q 3375 1663 3375 1238 
Q 3375 600 2912 259 
Q 2450 -81 1628 -81 
Q 1341 -81 958 -1 
Q 575 78 400 197 
L 400 909 
z
" transform="scale(0.015625)"/>
      <path id="MicrosoftYaHei-2026" d="M 3944 328 
Q 3944 497 4062 614 
Q 4181 731 4341 731 
Q 4506 731 4623 611 
Q 4741 491 4741 328 
Q 4741 166 4625 51 
Q 4509 -63 4341 -63 
Q 4169 -63 4056 53 
Q 3944 169 3944 328 
z
M 2200 328 
Q 2200 497 2317 614 
Q 2434 731 2603 731 
Q 2766 731 2883 611 
Q 3000 491 3000 328 
Q 3000 166 2884 51 
Q 2769 -63 2600 -63 
Q 2431 -63 2315 51 
Q 2200 166 2200 328 
z
M 469 328 
Q 469 497 583 614 
Q 697 731 863 731 
Q 1022 731 1142 612 
Q 1263 494 1263 328 
Q 1263 166 1147 51 
Q 1031 -63 859 -63 
Q 694 -63 581 50 
Q 469 163 469 328 
z
" transform="scale(0.015625)"/>
      <path id="MicrosoftYaHei-6b" d="M 3484 0 
L 2650 0 
L 1172 1666 
L 1159 1666 
L 1159 0 
L 547 0 
L 547 5116 
L 1159 5116 
L 1159 1872 
L 1172 1872 
L 2575 3456 
L 3363 3456 
L 1800 1794 
L 3484 0 
z
" transform="scale(0.015625)"/>
     </defs>
     <use xlink:href="#MicrosoftYaHei-53"/>
     <use xlink:href="#MicrosoftYaHei-74" transform="translate(54.214844 0)"/>
     <use xlink:href="#MicrosoftYaHei-65" transform="translate(90.595703 0)"/>
     <use xlink:href="#MicrosoftYaHei-70" transform="translate(147.333984 0)"/>
     <use xlink:href="#MicrosoftYaHei-20" transform="translate(211.201172 0)"/>
     <use xlink:href="#MicrosoftYaHei-31" transform="translate(240.791016 0)"/>
     <use xlink:href="#MicrosoftYaHei-20" transform="translate(299.433594 0)"/>
     <use xlink:href="#MicrosoftYaHei-2026" transform="translate(329.023438 0)"/>
     <use xlink:href="#MicrosoftYaHei-20" transform="translate(410.371094 0)"/>
     <use xlink:href="#MicrosoftYaHei-6b" transform="translate(439.960938 0)"/>
    </g>
   </g>
   <g id="text_5">
    <!-- Attempt 2 -->
    <g style="fill: #26816b" transform="translate(687.995406 215.937791) scale(0.19 -0.19)">
     <defs>
      <path id="MicrosoftYaHei-32" d="M 2666 3572 
Q 2666 3963 2419 4186 
Q 2172 4409 1747 4409 
Q 1447 4409 1140 4256 
Q 834 4103 569 3819 
L 569 4413 
Q 806 4659 1107 4790 
Q 1409 4922 1816 4922 
Q 2472 4922 2872 4570 
Q 3272 4219 3272 3619 
Q 3272 3084 3026 2693 
Q 2781 2303 2188 1894 
Q 1581 1475 1376 1294 
Q 1172 1113 1090 947 
Q 1009 781 1009 544 
L 3416 544 
L 3416 0 
L 372 0 
L 372 241 
Q 372 659 486 951 
Q 600 1244 862 1520 
Q 1125 1797 1681 2184 
Q 2250 2584 2458 2886 
Q 2666 3188 2666 3572 
z
" transform="scale(0.015625)"/>
     </defs>
     <use xlink:href="#MicrosoftYaHei-41"/>
     <use xlink:href="#MicrosoftYaHei-74" transform="translate(68.986328 0)"/>
     <use xlink:href="#MicrosoftYaHei-74" transform="translate(106.242188 0)"/>
     <use xlink:href="#MicrosoftYaHei-65" transform="translate(142.623047 0)"/>
     <use xlink:href="#MicrosoftYaHei-6d" transform="translate(199.361328 0)"/>
     <use xlink:href="#MicrosoftYaHei-70" transform="translate(293.0625 0)"/>
     <use xlink:href="#MicrosoftYaHei-74" transform="translate(356.929688 0)"/>
     <use xlink:href="#MicrosoftYaHei-20" transform="translate(394.185547 0)"/>
     <use xlink:href="#MicrosoftYaHei-32" transform="translate(423.775391 0)"/>
    </g>
    <!-- Step k+1 … -->
    <g style="fill: #26816b" transform="translate(682.620484 242.683853) scale(0.19 -0.19)">
     <defs>
      <path id="MicrosoftYaHei-2b" d="M 3972 1772 
L 2613 1772 
L 2613 419 
L 2141 419 
L 2141 1772 
L 788 1772 
L 788 2250 
L 2141 2250 
L 2141 3603 
L 2613 3603 
L 2613 2250 
L 3972 2250 
L 3972 1772 
z
" transform="scale(0.015625)"/>
     </defs>
     <use xlink:href="#MicrosoftYaHei-53"/>
     <use xlink:href="#MicrosoftYaHei-74" transform="translate(54.214844 0)"/>
     <use xlink:href="#MicrosoftYaHei-65" transform="translate(90.595703 0)"/>
     <use xlink:href="#MicrosoftYaHei-70" transform="translate(147.333984 0)"/>
     <use xlink:href="#MicrosoftYaHei-20" transform="translate(211.201172 0)"/>
     <use xlink:href="#MicrosoftYaHei-6b" transform="translate(240.791016 0)"/>
     <use xlink:href="#MicrosoftYaHei-2b" transform="translate(295.234375 0)"/>
     <use xlink:href="#MicrosoftYaHei-31" transform="translate(369.404297 0)"/>
     <use xlink:href="#MicrosoftYaHei-20" transform="translate(428.046875 0)"/>
     <use xlink:href="#MicrosoftYaHei-2026" transform="translate(457.636719 0)"/>
    </g>
   </g>
   <g id="text_6">
    <!-- 续跑 -->
    <g style="fill: #20344b" transform="translate(533.88 156.252071) scale(0.18 -0.18)">
     <use xlink:href="#MicrosoftYaHei-7eed"/>
     <use xlink:href="#MicrosoftYaHei-8dd1" transform="translate(100 0)"/>
    </g>
   </g>
   <g id="text_7">
    <!-- Run B -->
    <g style="fill: #cb6b28" transform="translate(137.94375 413.443234) scale(0.22 -0.22)">
     <defs>
      <path id="MicrosoftYaHei-42" d="M 625 0 
L 625 4841 
L 2047 4841 
Q 2684 4841 3065 4536 
Q 3447 4231 3447 3728 
Q 3447 3328 3220 3022 
Q 2994 2716 2597 2588 
L 2597 2575 
Q 3091 2519 3386 2201 
Q 3681 1884 3681 1397 
Q 3681 772 3232 386 
Q 2784 0 2084 0 
L 625 0 
z
M 1250 4294 
L 1250 2778 
L 1819 2778 
Q 2272 2778 2530 2998 
Q 2788 3219 2788 3609 
Q 2788 4294 1875 4294 
L 1250 4294 
z
M 1250 2234 
L 1250 547 
L 2000 547 
Q 2491 547 2758 773 
Q 3025 1000 3025 1403 
Q 3025 2234 1897 2234 
L 1250 2234 
z
" transform="scale(0.015625)"/>
     </defs>
     <use xlink:href="#MicrosoftYaHei-52"/>
     <use xlink:href="#MicrosoftYaHei-75" transform="translate(65.283203 0)"/>
     <use xlink:href="#MicrosoftYaHei-6e" transform="translate(126.904297 0)"/>
     <use xlink:href="#MicrosoftYaHei-20" transform="translate(188.525391 0)"/>
     <use xlink:href="#MicrosoftYaHei-42" transform="translate(218.115234 0)"/>
    </g>
   </g>
   <g id="text_8">
    <!-- 重跑：原 Run 内嵌实验 → 新 Attempt，从 Step 1 开始 -->
    <g style="fill: #20344b" transform="translate(346.995281 412.674953) scale(0.18 -0.18)">
     <defs>
      <path id="MicrosoftYaHei-ff1a" d="M 1606 3531 
Q 1772 3531 1890 3415 
Q 2009 3300 2009 3138 
Q 2009 2975 1893 2858 
Q 1778 2741 1606 2741 
Q 1434 2741 1318 2858 
Q 1203 2975 1203 3138 
Q 1203 3300 1322 3415 
Q 1441 3531 1606 3531 
z
M 1606 716 
Q 1772 716 1890 600 
Q 2009 484 2009 319 
Q 2009 150 1890 36 
Q 1772 -78 1606 -78 
Q 1441 -78 1322 36 
Q 1203 150 1203 319 
Q 1203 484 1322 600 
Q 1441 716 1606 716 
z
" transform="scale(0.015625)"/>
      <path id="MicrosoftYaHei-539f" d="M 1950 3853 
L 3081 3853 
Q 3200 4153 3306 4472 
L 1256 4472 
L 1256 2772 
Q 1256 1322 1088 634 
Q 919 -103 394 -866 
Q 238 -653 44 -434 
Q 475 209 613 834 
Q 756 1428 756 2659 
L 756 4928 
L 6219 4928 
L 6219 4472 
L 3856 4472 
Q 3716 4134 3584 3853 
L 5719 3853 
L 5719 1291 
L 5250 1291 
L 5250 1416 
L 4094 1416 
L 4094 16 
Q 4094 -772 3381 -766 
Q 3163 -766 2594 -753 
Q 2569 -516 2513 -209 
Q 3000 -272 3281 -272 
Q 3594 -272 3594 91 
L 3594 1416 
L 2419 1416 
L 2419 1291 
L 1950 1291 
L 1950 3853 
z
M 2419 1834 
L 5250 1834 
L 5250 2434 
L 2419 2434 
L 2419 1834 
z
M 5250 3434 
L 2419 3434 
L 2419 2841 
L 5250 2841 
L 5250 3434 
z
M 2488 1172 
L 2919 891 
Q 2313 -9 1613 -703 
Q 1450 -566 1206 -397 
Q 1838 184 2488 1172 
z
M 4925 1159 
Q 5738 391 6313 -266 
L 5894 -641 
Q 5294 122 4556 859 
L 4925 1159 
z
" transform="scale(0.015625)"/>
      <path id="MicrosoftYaHei-5185" d="M 638 4184 
L 2944 4184 
L 2944 5259 
L 3456 5259 
L 3456 4184 
L 5750 4184 
L 5750 59 
Q 5750 -734 4969 -728 
Q 4556 -728 3956 -716 
Q 3938 -503 3863 -172 
Q 4456 -222 4850 -228 
Q 5244 -241 5244 166 
L 5244 3709 
L 3444 3709 
Q 3419 3141 3306 2697 
Q 4413 1809 5094 1134 
L 4713 728 
Q 4044 1459 3156 2247 
Q 2731 1328 1538 647 
Q 1275 1009 1188 1097 
Q 2206 1634 2581 2291 
Q 2881 2772 2931 3709 
L 1144 3709 
L 1144 -784 
L 638 -784 
L 638 4184 
z
" transform="scale(0.015625)"/>
      <path id="MicrosoftYaHei-5d4c" d="M 713 -734 
L 713 2459 
L 144 2459 
L 144 2872 
L 713 2872 
L 713 3472 
L 1150 3472 
L 1150 2872 
L 2400 2872 
L 2400 3491 
L 2838 3491 
L 2838 2872 
L 3425 2872 
L 3425 2459 
L 2838 2459 
L 2838 -291 
L 1150 -291 
L 1150 -734 
L 713 -734 
z
M 5250 3634 
L 5250 3884 
L 725 3884 
L 725 5059 
L 1175 5059 
L 1175 4291 
L 2988 4291 
L 2988 5297 
L 3438 5297 
L 3438 4291 
L 5250 4291 
L 5250 5059 
L 5700 5059 
L 5700 3634 
L 5250 3634 
z
M 2819 -484 
Q 3750 103 4056 684 
Q 4369 1222 4363 2366 
L 4788 2366 
Q 4794 1984 4766 1659 
Q 5213 272 6306 -328 
Q 6094 -584 5963 -753 
Q 5031 -103 4638 903 
Q 4363 -97 3138 -872 
Q 2994 -666 2819 -484 
z
M 3163 1759 
Q 3669 2578 3894 3691 
L 4338 3603 
Q 4266 3297 4175 3003 
L 6181 3003 
L 6181 2591 
Q 5981 1959 5788 1578 
Q 5513 1672 5356 1691 
Q 5600 2222 5725 2591 
L 4038 2591 
Q 3825 2006 3531 1472 
Q 3419 1584 3163 1759 
z
M 2400 109 
L 2400 1084 
L 1150 1084 
L 1150 109 
L 2400 109 
z
M 1150 1484 
L 2400 1484 
L 2400 2459 
L 1150 2459 
L 1150 1484 
z
" transform="scale(0.015625)"/>
      <path id="MicrosoftYaHei-5b9e" d="M 113 -397 
Q 2419 34 3081 972 
L 213 972 
L 213 1434 
L 3313 1434 
Q 3525 2084 3506 3703 
L 4031 3703 
Q 4031 2097 3856 1434 
L 6225 1434 
L 6225 972 
L 3681 972 
Q 3631 872 3563 759 
Q 4900 197 6181 -403 
L 5906 -878 
Q 4569 -197 3263 391 
Q 2413 -441 413 -891 
Q 269 -616 113 -397 
z
M 331 4422 
L 3194 4422 
Q 3038 4703 2775 5078 
L 3231 5334 
Q 3438 5059 3731 4609 
L 3388 4422 
L 6063 4422 
L 6063 3303 
L 5563 3303 
L 5563 3959 
L 831 3959 
L 831 3303 
L 331 3303 
L 331 4422 
z
M 1100 2734 
Q 1819 2409 2450 2053 
L 2181 1622 
Q 1556 2003 863 2334 
L 1100 2734 
z
M 1663 3691 
Q 2388 3341 2981 2984 
L 2700 2559 
Q 2119 2934 1419 3322 
L 1663 3691 
z
" transform="scale(0.015625)"/>
      <path id="MicrosoftYaHei-9a8c" d="M 963 4116 
L 819 2397 
L 1450 2397 
L 1613 4503 
L 194 4503 
L 194 4928 
L 2088 4928 
L 1894 2397 
L 2288 2397 
Q 2244 1078 2206 228 
Q 2188 -722 1381 -722 
Q 1044 -722 588 -703 
Q 556 -472 506 -209 
Q 956 -266 1306 -266 
Q 1744 -266 1769 266 
Q 1806 953 1831 1972 
L 331 1972 
L 531 4116 
L 963 4116 
z
M 2338 -103 
L 4594 -103 
Q 5044 1009 5394 2222 
L 5869 2072 
Q 5500 953 5088 -103 
L 6188 -103 
L 6188 -534 
L 2338 -534 
L 2338 -103 
z
M 4606 5278 
L 4488 5078 
Q 5244 3734 6363 3122 
Q 6163 2872 6031 2684 
Q 4931 3497 4238 4641 
Q 3600 3509 2456 2609 
Q 2344 2772 2144 3003 
Q 3388 3866 4050 5278 
L 4606 5278 
z
M 2975 2978 
L 5550 2978 
L 5550 2547 
L 2975 2547 
L 2975 2978 
z
M 3731 2178 
L 4175 2297 
Q 4438 1359 4606 659 
L 4150 528 
Q 3969 1391 3731 2178 
z
M 2656 1897 
L 3094 2034 
Q 3400 1147 3606 453 
L 3144 297 
Q 2938 1097 2656 1897 
z
M 38 1034 
Q 763 1178 1631 1384 
Q 1625 1134 1638 941 
Q 925 791 131 572 
L 38 1034 
z
" transform="scale(0.015625)"/>
      <path id="MicrosoftYaHei-2192" d="M 4859 3766 
Q 5241 3344 5514 3125 
Q 5788 2906 6150 2713 
L 6150 2572 
Q 5788 2381 5517 2164 
Q 5247 1947 4859 1519 
L 4622 1519 
Q 4766 1822 4866 1983 
Q 4966 2144 5141 2369 
L 247 2369 
L 247 2916 
L 5141 2916 
Q 4972 3131 4869 3298 
Q 4766 3466 4622 3766 
L 4859 3766 
z
" transform="scale(0.015625)"/>
      <path id="MicrosoftYaHei-65b0" d="M 3594 4797 
Q 4888 4809 5981 5053 
L 6144 4572 
Q 4906 4409 4038 4359 
L 4038 2903 
L 6319 2903 
L 6319 2478 
L 5425 2478 
L 5425 -797 
L 4963 -797 
L 4963 2478 
L 4038 2478 
L 4038 2172 
Q 4038 253 3119 -816 
Q 2969 -622 2788 -416 
Q 3594 466 3594 2191 
L 3594 4797 
z
M 263 1991 
L 1538 1991 
L 1538 2584 
L 1988 2584 
L 1988 1991 
L 3213 1991 
L 3213 1591 
L 1988 1591 
L 1988 -41 
Q 1988 -703 1350 -703 
Q 1081 -703 744 -697 
Q 719 -491 675 -222 
Q 1038 -259 1244 -259 
Q 1538 -259 1538 59 
L 1538 1591 
L 263 1591 
L 263 1991 
z
M 88 3159 
L 1094 3159 
Q 828 3581 594 3884 
L 931 4122 
Q 1138 3872 1463 3416 
L 1109 3159 
L 1934 3159 
Q 2275 3650 2563 4128 
L 3006 3878 
Q 2703 3488 2428 3159 
L 3375 3159 
L 3375 2759 
L 88 2759 
L 88 3159 
z
M 288 4609 
L 1638 4609 
Q 1503 4866 1331 5166 
L 1731 5353 
Q 1925 5034 2094 4709 
L 1884 4609 
L 3213 4609 
L 3213 4209 
L 288 4209 
L 288 4609 
z
M 744 1309 
L 1169 1109 
Q 831 403 500 -166 
Q 319 -53 88 59 
Q 394 534 744 1309 
z
M 2544 1278 
Q 2894 803 3156 403 
L 2756 128 
Q 2481 609 2175 1034 
L 2544 1278 
z
" transform="scale(0.015625)"/>
      <path id="MicrosoftYaHei-4ece" d="M 3831 5253 
L 4319 5253 
Q 4319 4534 4297 3634 
Q 4703 784 6325 -228 
Q 6100 -478 5919 -709 
Q 4613 244 4128 2325 
Q 3788 428 2181 -822 
Q 1975 -572 1819 -422 
Q 3388 747 3706 2647 
Q 3831 3528 3831 5253 
z
M 1350 5253 
L 1844 5253 
Q 1844 3956 1784 3041 
Q 2600 2163 3200 1453 
L 2819 1072 
Q 2369 1663 1731 2403 
Q 1550 647 419 -753 
Q 275 -578 56 -353 
Q 913 647 1181 2059 
Q 1344 2909 1350 5253 
z
" transform="scale(0.015625)"/>
      <path id="MicrosoftYaHei-5f00" d="M 125 2553 
L 1756 2553 
L 1756 4372 
L 400 4372 
L 400 4866 
L 6006 4866 
L 6006 4372 
L 4731 4372 
L 4731 2553 
L 6275 2553 
L 6275 2059 
L 4731 2059 
L 4731 -791 
L 4219 -791 
L 4219 2059 
L 2266 2059 
Q 2244 916 1938 359 
Q 1631 -253 531 -872 
Q 369 -647 175 -434 
Q 1131 53 1450 584 
Q 1734 1013 1753 2059 
L 125 2059 
L 125 2553 
z
M 2269 2553 
L 4219 2553 
L 4219 4372 
L 2269 4372 
L 2269 2553 
z
" transform="scale(0.015625)"/>
      <path id="MicrosoftYaHei-59cb" d="M 2838 1984 
L 5850 1984 
L 5850 -828 
L 5375 -828 
L 5375 -391 
L 3313 -391 
L 3313 -834 
L 2838 -834 
L 2838 1984 
z
M 2638 222 
L 2269 -191 
Q 1928 156 1588 484 
Q 1125 -184 381 -778 
Q 250 -584 94 -372 
Q 809 156 1244 809 
Q 797 1228 350 1616 
Q 572 2456 753 3497 
L 113 3497 
L 113 3966 
L 834 3966 
Q 934 4597 1025 5297 
L 1531 5222 
Q 1428 4544 1325 3966 
L 2488 3966 
L 2488 3503 
Q 2341 1828 1863 931 
Q 2288 559 2638 222 
z
M 5225 4484 
Q 5863 3478 6325 2522 
L 5831 2291 
Q 5700 2591 5559 2884 
Q 4572 2825 3200 2697 
Q 3025 2678 2756 2591 
L 2525 3041 
Q 2744 3172 2900 3391 
Q 3406 4147 3925 5334 
L 4450 5166 
Q 3881 4078 3319 3191 
Q 4569 3269 5350 3306 
Q 5097 3803 4819 4284 
L 5225 4484 
z
M 5375 1547 
L 3313 1547 
L 3313 34 
L 5375 34 
L 5375 1547 
z
M 2006 3497 
L 1241 3497 
Q 1044 2463 850 1778 
Q 1191 1503 1497 1247 
Q 1922 2119 2006 3497 
z
" transform="scale(0.015625)"/>
     </defs>
     <use xlink:href="#MicrosoftYaHei-91cd"/>
     <use xlink:href="#MicrosoftYaHei-8dd1" transform="translate(100 0)"/>
     <use xlink:href="#MicrosoftYaHei-ff1a" transform="translate(200 0)"/>
     <use xlink:href="#MicrosoftYaHei-539f" transform="translate(300 0)"/>
     <use xlink:href="#MicrosoftYaHei-20" transform="translate(400 0)"/>
     <use xlink:href="#MicrosoftYaHei-52" transform="translate(429.589844 0)"/>
     <use xlink:href="#MicrosoftYaHei-75" transform="translate(494.873047 0)"/>
     <use xlink:href="#MicrosoftYaHei-6e" transform="translate(556.494141 0)"/>
     <use xlink:href="#MicrosoftYaHei-20" transform="translate(618.115234 0)"/>
     <use xlink:href="#MicrosoftYaHei-5185" transform="translate(647.705078 0)"/>
     <use xlink:href="#MicrosoftYaHei-5d4c" transform="translate(747.705078 0)"/>
     <use xlink:href="#MicrosoftYaHei-5b9e" transform="translate(847.705078 0)"/>
     <use xlink:href="#MicrosoftYaHei-9a8c" transform="translate(947.705078 0)"/>
     <use xlink:href="#MicrosoftYaHei-20" transform="translate(1047.705078 0)"/>
     <use xlink:href="#MicrosoftYaHei-2192" transform="translate(1077.294922 0)"/>
     <use xlink:href="#MicrosoftYaHei-20" transform="translate(1177.294922 0)"/>
     <use xlink:href="#MicrosoftYaHei-65b0" transform="translate(1206.884766 0)"/>
     <use xlink:href="#MicrosoftYaHei-20" transform="translate(1306.884766 0)"/>
     <use xlink:href="#MicrosoftYaHei-41" transform="translate(1336.474609 0)"/>
     <use xlink:href="#MicrosoftYaHei-74" transform="translate(1405.460938 0)"/>
     <use xlink:href="#MicrosoftYaHei-74" transform="translate(1442.716797 0)"/>
     <use xlink:href="#MicrosoftYaHei-65" transform="translate(1479.097656 0)"/>
     <use xlink:href="#MicrosoftYaHei-6d" transform="translate(1535.835938 0)"/>
     <use xlink:href="#MicrosoftYaHei-70" transform="translate(1629.537109 0)"/>
     <use xlink:href="#MicrosoftYaHei-74" transform="translate(1693.404297 0)"/>
     <use xlink:href="#MicrosoftYaHei-ff0c" transform="translate(1730.660156 0)"/>
     <use xlink:href="#MicrosoftYaHei-4ece" transform="translate(1830.660156 0)"/>
     <use xlink:href="#MicrosoftYaHei-20" transform="translate(1930.660156 0)"/>
     <use xlink:href="#MicrosoftYaHei-53" transform="translate(1960.25 0)"/>
     <use xlink:href="#MicrosoftYaHei-74" transform="translate(2014.464844 0)"/>
     <use xlink:href="#MicrosoftYaHei-65" transform="translate(2050.845703 0)"/>
     <use xlink:href="#MicrosoftYaHei-70" transform="translate(2107.583984 0)"/>
     <use xlink:href="#MicrosoftYaHei-20" transform="translate(2171.451172 0)"/>
     <use xlink:href="#MicrosoftYaHei-31" transform="translate(2201.041016 0)"/>
     <use xlink:href="#MicrosoftYaHei-20" transform="translate(2259.683594 0)"/>
     <use xlink:href="#MicrosoftYaHei-5f00" transform="translate(2289.273438 0)"/>
     <use xlink:href="#MicrosoftYaHei-59cb" transform="translate(2389.273438 0)"/>
    </g>
   </g>
  </g>
 </g>
 <defs>
  <clipPath id="p810b22dd65">
   <rect x="25.2" y="8.424" width="957.6" height="539.136"/>
  </clipPath>
 </defs>
</svg>
