<?xml version="1.0" encoding="utf-8" standalone="no"?>
<!DOCTYPE svg PUBLIC "-//W3C//DTD SVG 1.1//EN"
  "http://www.w3.org/Graphics/SVG/1.1/DTD/svg11.dtd">
<svg xmlns:xlink="http://www.w3.org/1999/xlink" width="1008pt" height="561.6pt" viewBox="0 0 1008 561.6" xmlns="http://www.w3.org/2000/svg" version="1.1">
 <metadata>
  <rdf:RDF xmlns:dc="http://purl.org/dc/elements/1.1/" xmlns:cc="http://creativecommons.org/ns#" xmlns:rdf="http://www.w3.org/1999/02/22-rdf-syntax-ns#">
   <cc:Work>
    <dc:type rdf:resource="http://purl.org/dc/dcmitype/StillImage"/>
    <dc:date>2026-09-26T12:17:15.577857</dc:date>
    <dc:format>image/svg+xml</dc:format>
    <dc:creator>
     <cc:Agent>
      <dc:title>Matplotlib v3.10.6, https://matplotlib.org/</dc:title>
     </cc:Agent>
    </dc:creator>
   </cc:Work>
  </rdf:RDF>
 </metadata>
 <defs>
  <style type="text/css">*{stroke-linejoin: round; stroke-linecap: butt}</style>
 </defs>
 <g id="figure_1">
  <g id="patch_1">
   <path d="M 0 561.6 
L 1008 561.6 
L 1008 0 
L 0 0 
z
" style="fill: #ffffff"/>
  </g>
  <g id="axes_1">
   <g id="patch_2">
    <path d="M 108.5112 320.044608 
L 315.3528 320.044608 
Q 329.7168 320.044608 329.7168 311.957568 
L 329.7168 195.504192 
Q 329.7168 187.417152 315.3528 187.417152 
L 108.5112 187.417152 
Q 94.1472 187.417152 94.1472 195.504192 
L 94.1472 311.957568 
Q 94.1472 320.044608 108.5112 320.044608 
z
" clip-path="url(#pc4e86bcffa)" style="fill: #edf4fc; stroke: #bccddc; stroke-width: 1.5; stroke-linejoin: miter"/>
   </g>
   <g id="patch_3">
    <path d="M 132.4512 287.696448 
L 339.2928 287.696448 
Q 353.6568 287.696448 353.6568 279.609408 
L 353.6568 163.156032 
Q 353.6568 155.068992 339.2928 155.068992 
L 132.4512 155.068992 
Q 118.0872 155.068992 118.0872 163.156032 
L 118.0872 279.609408 
Q 118.0872 287.696448 132.4512 287.696448 
z
" clip-path="url(#pc4e86bcffa)" style="fill: #edf4fc; stroke: #bccddc; stroke-width: 1.5; stroke-linejoin: miter"/>
   </g>
   <g id="patch_4">
    <path d="M 156.3912 255.348288 
L 363.2328 255.348288 
Q 377.5968 255.348288 377.5968 247.261248 
L 377.5968 130.807872 
Q 377.5968 122.720832 363.2328 122.720832 
L 156.3912 122.720832 
Q 142.0272 122.720832 142.0272 130.807872 
L 142.0272 247.261248 
Q 142.0272 255.348288 156.3912 255.348288 
z
" clip-path="url(#pc4e86bcffa)" style="fill: #edf4fc; stroke: #bccddc; stroke-width: 1.5; stroke-linejoin: miter"/>
   </g>
   <g id="patch_5">
    <path d="M 180.3312 223.000128 
L 387.1728 223.000128 
Q 401.5368 223.000128 401.5368 214.913088 
L 401.5368 98.459712 
Q 401.5368 90.372672 387.1728 90.372672 
L 180.3312 90.372672 
Q 165.9672 90.372672 165.9672 98.459712 
L 165.9672 214.913088 
Q 165.9672 223.000128 180.3312 223.000128 
z
" clip-path="url(#pc4e86bcffa)" style="fill: #edf4fc; stroke: #bccddc; stroke-width: 1.5; stroke-linejoin: miter"/>
   </g>
   <g id="patch_6">
    <path d="M 386.302111 229.46976 
Q 424.998394 229.46976 461.458609 229.46976 
" clip-path="url(#pc4e86bcffa)" style="fill: none; stroke: #276fbf; stroke-width: 2; stroke-linecap: round"/>
    <path d="M 453.458609 225.46976 
L 461.458609 229.46976 
L 453.458609 233.46976 
z
" clip-path="url(#pc4e86bcffa)" style="fill: #276fbf; stroke: #276fbf; stroke-width: 2; stroke-linecap: round"/>
   </g>
   <g id="patch_7">
    <path d="M 561.456 283.38336 
C 586.851849 283.38336 611.210968 277.702683 629.168545 267.592432 
C 647.126122 257.482181 657.216 243.767814 657.216 229.46976 
C 657.216 215.171706 647.126122 201.457339 629.168545 191.347088 
C 611.210968 181.236837 586.851849 175.55616 561.456 175.55616 
C 536.060151 175.55616 511.701032 181.236837 493.743455 191.347088 
C 475.785878 201.457339 465.696 215.171706 465.696 229.46976 
C 465.696 243.767814 475.785878 257.482181 493.743455 267.592432 
C 511.701032 277.702683 536.060151 283.38336 561.456 283.38336 
z
" clip-path="url(#pc4e86bcffa)" style="fill: #eaf5ef; stroke: #26816b; stroke-width: 2; stroke-linejoin: miter"/>
   </g>
   <g id="patch_8">
    <path d="M 673.58328 229.46976 
Q 707.492371 229.46976 739.165394 229.46976 
" clip-path="url(#pc4e86bcffa)" style="fill: none; stroke: #276fbf; stroke-width: 2; stroke-linecap: round"/>
    <path d="M 731.165394 225.46976 
L 739.165394 229.46976 
L 731.165394 233.46976 
z
" clip-path="url(#pc4e86bcffa)" style="fill: #276fbf; stroke: #276fbf; stroke-width: 2; stroke-linecap: round"/>
   </g>
   <g id="patch_9">
    <path d="M 769.2552 320.044608 
L 928.2168 320.044608 
Q 942.5808 320.044608 942.5808 311.957568 
L 942.5808 157.764672 
Q 942.5808 149.677632 928.2168 149.677632 
L 769.2552 149.677632 
Q 754.8912 149.677632 754.8912 157.764672 
L 754.8912 311.957568 
Q 754.8912 320.044608 769.2552 320.044608 
z
" clip-path="url(#pc4e86bcffa)" style="fill: #f4f7fb; stroke: #bccddc; stroke-width: 1.5; stroke-linejoin: miter"/>
   </g>
   <g id="text_1">
    <!-- 回放是沿事实重建状态，不再调用 Brain -->
    <g style="fill: #20344b" transform="translate(282.244141 47.656926) scale(0.25 -0.25)">
     <defs>
      <path id="MicrosoftYaHei-56de" d="M 475 4947 
L 5938 4947 
L 5938 -778 
L 5413 -778 
L 5413 -378 
L 1000 -378 
L 1000 -778 
L 475 -778 
L 475 4947 
z
M 5413 4484 
L 1000 4484 
L 1000 72 
L 5413 72 
L 5413 4484 
z
M 1875 3528 
L 4531 3528 
L 4531 797 
L 4044 797 
L 4044 1147 
L 2363 1147 
L 2363 797 
L 1875 797 
L 1875 3528 
z
M 4044 3091 
L 2363 3091 
L 2363 1584 
L 4044 1584 
L 4044 3091 
z
" transform="scale(0.015625)"/>
      <path id="MicrosoftYaHei-653e" d="M 3956 5359 
L 4456 5272 
Q 4322 4681 4106 4128 
L 6281 4128 
L 6281 3666 
L 5759 3666 
Q 5638 1816 4884 725 
Q 5447 25 6338 -353 
Q 6131 -628 5994 -847 
Q 5153 -394 4559 322 
Q 3947 -356 3094 -903 
Q 2950 -722 2738 -509 
Q 3669 56 4259 731 
Q 3713 1625 3563 2988 
Q 3378 2669 3163 2366 
Q 3031 2553 2850 2766 
Q 3663 3884 3956 5359 
z
M 156 4184 
L 3169 4184 
L 3169 3722 
L 1400 3722 
Q 1394 3166 1378 2703 
L 2813 2703 
Q 2750 1166 2694 241 
Q 2638 -584 1981 -616 
Q 1600 -622 1263 -609 
Q 1225 -378 1156 -84 
Q 1569 -128 1794 -128 
Q 2175 -128 2206 347 
Q 2269 1078 2306 2241 
L 1359 2241 
Q 1338 216 369 -853 
Q 225 -641 38 -416 
Q 625 247 750 1003 
Q 909 1713 906 3722 
L 156 3722 
L 156 4184 
z
M 5263 3666 
L 3934 3666 
Q 4034 2134 4584 1166 
Q 5188 2131 5263 3666 
z
M 1206 5141 
L 1631 5366 
Q 1900 4966 2144 4503 
L 1706 4272 
Q 1456 4753 1206 5141 
z
" transform="scale(0.015625)"/>
      <path id="MicrosoftYaHei-662f" d="M 1088 5078 
L 5338 5078 
L 5338 2472 
L 4863 2472 
L 4863 2722 
L 1563 2722 
L 1563 2472 
L 1088 2472 
L 1088 5078 
z
M 1400 1553 
L 1875 1409 
Q 1775 1081 1647 788 
Q 2122 19 3063 -134 
L 3063 1747 
L 213 1747 
L 213 2184 
L 6225 2184 
L 6225 1747 
L 3563 1747 
L 3563 1122 
L 5788 1122 
L 5788 697 
L 3563 697 
L 3563 -172 
Q 4763 -197 6344 -147 
Q 6244 -416 6169 -641 
Q 4331 -647 3344 -622 
Q 2022 -606 1434 359 
Q 1006 -413 350 -891 
Q 225 -703 44 -484 
Q 1050 191 1400 1553 
z
M 1563 3147 
L 4863 3147 
L 4863 3697 
L 1563 3697 
L 1563 3147 
z
M 4863 4653 
L 1563 4653 
L 1563 4109 
L 4863 4109 
L 4863 4653 
z
" transform="scale(0.015625)"/>
      <path id="MicrosoftYaHei-6cbf" d="M 2306 2134 
L 5644 2134 
L 5644 -822 
L 5169 -822 
L 5169 -403 
L 2781 -403 
L 2781 -828 
L 2306 -828 
L 2306 2134 
z
M 5169 1703 
L 2781 1703 
L 2781 28 
L 5169 28 
L 5169 1703 
z
M 5625 3128 
Q 5913 3128 6319 3134 
L 6231 2666 
L 5544 2666 
Q 4813 2666 4813 3409 
L 4813 4559 
L 3119 4559 
L 3119 4153 
Q 3119 3441 2900 3072 
Q 2681 2666 2125 2328 
Q 1956 2522 1781 2722 
Q 2294 3009 2481 3328 
Q 2638 3609 2638 4184 
L 2638 5022 
L 5294 5022 
L 5294 3453 
Q 5294 3128 5625 3128 
z
M 1075 1797 
Q 1375 1666 1581 1603 
Q 1338 672 900 -803 
L 356 -609 
Q 769 484 1075 1797 
z
M 694 5159 
Q 1263 4772 1894 4259 
Q 1694 4034 1538 3866 
Q 956 4372 394 4803 
L 694 5159 
z
M 400 3516 
Q 975 3097 1488 2666 
Q 1294 2459 1138 2272 
Q 463 2878 88 3159 
L 400 3516 
z
" transform="scale(0.015625)"/>
      <path id="MicrosoftYaHei-4e8b" d="M 531 734 
L 2975 734 
L 2975 1203 
L 144 1203 
L 144 1591 
L 2975 1591 
L 2975 2053 
L 550 2053 
L 550 2428 
L 2975 2428 
L 2975 2853 
L 1388 2853 
L 1388 2691 
L 950 2691 
L 950 4034 
L 2975 4034 
L 2975 4447 
L 163 4447 
L 163 4834 
L 2975 4834 
L 2975 5322 
L 3438 5322 
L 3438 4834 
L 6244 4834 
L 6244 4447 
L 3438 4447 
L 3438 4034 
L 5463 4034 
L 5463 2691 
L 5025 2691 
L 5025 2853 
L 3438 2853 
L 3438 2428 
L 5600 2428 
L 5600 1591 
L 6294 1591 
L 6294 1203 
L 5600 1203 
L 5600 59 
L 5150 59 
L 5150 359 
L 3438 359 
L 3438 -9 
Q 3438 -759 2713 -766 
Q 2369 -766 1813 -753 
Q 1788 -541 1738 -234 
Q 2225 -297 2606 -297 
Q 2975 -297 2975 78 
L 2975 359 
L 531 359 
L 531 734 
z
M 3438 734 
L 5150 734 
L 5150 1203 
L 3438 1203 
L 3438 734 
z
M 5150 2053 
L 3438 2053 
L 3438 1591 
L 5150 1591 
L 5150 2053 
z
M 5025 3684 
L 3438 3684 
L 3438 3203 
L 5025 3203 
L 5025 3684 
z
M 1388 3203 
L 2975 3203 
L 2975 3684 
L 1388 3684 
L 1388 3203 
z
" transform="scale(0.015625)"/>
      <path id="MicrosoftYaHei-5b9e" d="M 113 -397 
Q 2419 34 3081 972 
L 213 972 
L 213 1434 
L 3313 1434 
Q 3525 2084 3506 3703 
L 4031 3703 
Q 4031 2097 3856 1434 
L 6225 1434 
L 6225 972 
L 3681 972 
Q 3631 872 3563 759 
Q 4900 197 6181 -403 
L 5906 -878 
Q 4569 -197 3263 391 
Q 2413 -441 413 -891 
Q 269 -616 113 -397 
z
M 331 4422 
L 3194 4422 
Q 3038 4703 2775 5078 
L 3231 5334 
Q 3438 5059 3731 4609 
L 3388 4422 
L 6063 4422 
L 6063 3303 
L 5563 3303 
L 5563 3959 
L 831 3959 
L 831 3303 
L 331 3303 
L 331 4422 
z
M 1100 2734 
Q 1819 2409 2450 2053 
L 2181 1622 
Q 1556 2003 863 2334 
L 1100 2734 
z
M 1663 3691 
Q 2388 3341 2981 2984 
L 2700 2559 
Q 2119 2934 1419 3322 
L 1663 3691 
z
" transform="scale(0.015625)"/>
      <path id="MicrosoftYaHei-91cd" d="M 113 -203 
L 2975 -203 
L 2975 259 
L 600 259 
L 600 628 
L 2975 628 
L 2975 1153 
L 1288 1153 
L 1288 928 
L 850 928 
L 850 3278 
L 2975 3278 
L 2975 3728 
L 163 3728 
L 163 4116 
L 2975 4116 
L 2975 4606 
Q 1841 4572 625 4547 
Q 588 4747 538 4972 
Q 3706 5009 5669 5141 
L 5744 4716 
Q 4631 4663 3425 4619 
L 3425 4116 
L 6263 4116 
L 6263 3728 
L 3425 3728 
L 3425 3278 
L 5569 3278 
L 5569 934 
L 5131 934 
L 5131 1153 
L 3425 1153 
L 3425 628 
L 5806 628 
L 5806 259 
L 3425 259 
L 3425 -203 
L 6263 -203 
L 6263 -591 
L 113 -591 
L 113 -203 
z
M 3425 1516 
L 5131 1516 
L 5131 2053 
L 3425 2053 
L 3425 1516 
z
M 1288 1516 
L 2975 1516 
L 2975 2053 
L 1288 2053 
L 1288 1516 
z
M 5131 2916 
L 3425 2916 
L 3425 2384 
L 5131 2384 
L 5131 2916 
z
M 1288 2384 
L 2975 2384 
L 2975 2916 
L 1288 2916 
L 1288 2384 
z
" transform="scale(0.015625)"/>
      <path id="MicrosoftYaHei-5efa" d="M 2075 1009 
L 3675 1009 
L 3675 1553 
L 2288 1553 
L 2288 1928 
L 3675 1928 
L 3675 2472 
L 2375 2472 
L 2375 2847 
L 3675 2847 
L 3675 3391 
L 2050 3391 
L 2050 3778 
L 3675 3778 
L 3675 4322 
L 2375 4322 
L 2375 4697 
L 3675 4697 
L 3675 5309 
L 4138 5309 
L 4138 4697 
L 5588 4697 
L 5588 3778 
L 6244 3778 
L 6244 3391 
L 5588 3391 
L 5588 2303 
L 5138 2303 
L 5138 2472 
L 4138 2472 
L 4138 1928 
L 5713 1928 
L 5713 1553 
L 4138 1553 
L 4138 1009 
L 6000 1009 
L 6000 634 
L 4138 634 
L 4138 -9 
L 3675 -9 
L 3675 634 
L 2075 634 
L 2075 1009 
z
M 600 2066 
Q 788 1303 1125 813 
Q 1459 1500 1544 2397 
L 294 2397 
L 294 2853 
L 1444 4272 
L 169 4272 
L 169 4697 
L 2019 4697 
L 2019 4272 
L 844 2822 
L 2013 2822 
L 2013 2453 
Q 1897 1294 1447 444 
Q 2128 -147 3563 -153 
Q 4750 -178 6319 -122 
Q 6213 -378 6113 -616 
Q 4681 -609 3344 -603 
Q 1950 -603 1206 47 
Q 853 -466 350 -847 
Q 250 -666 94 -441 
Q 563 -84 881 391 
Q 463 922 188 1909 
L 600 2066 
z
M 4138 2847 
L 5138 2847 
L 5138 3391 
L 4138 3391 
L 4138 2847 
z
M 5138 4322 
L 4138 4322 
L 4138 3778 
L 5138 3778 
L 5138 4322 
z
" transform="scale(0.015625)"/>
      <path id="MicrosoftYaHei-72b6" d="M 2213 3516 
L 3791 3516 
Q 3825 4369 3825 5297 
L 4325 5297 
Q 4325 4338 4294 3516 
L 6175 3516 
L 6175 3047 
L 4309 3047 
Q 4884 628 6313 -228 
Q 6069 -491 5906 -703 
Q 4638 266 4119 2106 
Q 3766 413 2363 -809 
Q 2169 -541 2013 -384 
Q 3600 853 3766 3047 
L 2213 3047 
L 2213 3516 
z
M 1494 5316 
L 1994 5316 
L 1994 -834 
L 1494 -834 
L 1494 1606 
Q 916 1119 400 691 
L 75 1122 
Q 769 1628 1494 2222 
L 1494 5316 
z
M 219 4134 
L 644 4334 
Q 1019 3672 1306 2884 
L 831 2666 
Q 519 3541 219 4134 
z
M 5006 5053 
Q 5550 4641 5950 4278 
Q 5775 4078 5606 3884 
Q 5150 4328 4681 4716 
L 5006 5053 
z
" transform="scale(0.015625)"/>
      <path id="MicrosoftYaHei-6001" d="M 325 4434 
L 2888 4434 
Q 2972 4822 2969 5328 
L 3438 5328 
Q 3444 4841 3372 4434 
L 6075 4434 
L 6075 3991 
L 3528 3991 
Q 4419 2706 6231 2241 
Q 6050 2034 5881 1759 
Q 4041 2394 3172 3772 
Q 2975 3331 2588 2953 
Q 3078 2616 3538 2259 
L 3225 1891 
Q 2828 2244 2259 2675 
Q 1556 2138 388 1703 
Q 294 1922 113 2178 
Q 2250 2866 2750 3991 
L 325 3991 
L 325 4434 
z
M 1713 1547 
L 2200 1547 
L 2200 203 
Q 2200 -172 2575 -172 
L 3763 -172 
Q 4175 -172 4256 134 
Q 4331 428 4381 1028 
Q 4556 953 4863 847 
Q 4763 128 4706 -47 
Q 4563 -616 3869 -616 
L 2488 -616 
Q 1713 -616 1713 172 
L 1713 1547 
z
M 813 1447 
L 1281 1297 
Q 1038 522 663 -297 
Q 463 -203 194 -116 
Q 569 591 813 1447 
z
M 4894 1272 
L 5263 1553 
Q 5781 972 6306 309 
L 5888 -9 
Q 5425 641 4894 1272 
z
M 2594 1503 
L 2913 1809 
Q 3419 1403 3850 991 
L 3488 641 
Q 3094 1059 2594 1503 
z
" transform="scale(0.015625)"/>
      <path id="MicrosoftYaHei-ff0c" d="M 1931 775 
L 1403 -891 
L 966 -891 
L 1350 775 
L 1931 775 
z
" transform="scale(0.015625)"/>
      <path id="MicrosoftYaHei-4e0d" d="M 225 4772 
L 6181 4772 
L 6181 4284 
L 3881 4284 
Q 3581 3766 3081 3053 
L 3444 3053 
L 3444 -866 
L 2906 -866 
L 2906 2859 
Q 1838 1541 388 609 
Q 231 834 38 1059 
Q 2006 2291 3213 4284 
L 225 4284 
L 225 4772 
z
M 4069 2859 
Q 5238 2147 6325 1409 
L 5969 916 
Q 4681 1872 3763 2434 
L 4069 2859 
z
" transform="scale(0.015625)"/>
      <path id="MicrosoftYaHei-518d" d="M 1425 -803 
L 931 -803 
L 931 947 
L 138 947 
L 138 1378 
L 931 1378 
L 931 3822 
L 2956 3822 
L 2956 4522 
L 338 4522 
L 338 4953 
L 6069 4953 
L 6069 4522 
L 3444 4522 
L 3444 3822 
L 5481 3822 
L 5481 1378 
L 6300 1378 
L 6300 947 
L 5481 947 
L 5481 -41 
Q 5481 -728 4831 -734 
Q 4431 -741 3806 -734 
Q 3769 -522 3713 -259 
Q 4225 -297 4600 -297 
Q 4981 -309 4981 28 
L 4981 947 
L 1425 947 
L 1425 -803 
z
M 3444 1378 
L 4981 1378 
L 4981 2197 
L 3444 2197 
L 3444 1378 
z
M 1425 1378 
L 2956 1378 
L 2956 2197 
L 1425 2197 
L 1425 1378 
z
M 4981 3416 
L 3444 3416 
L 3444 2603 
L 4981 2603 
L 4981 3416 
z
M 1425 2603 
L 2956 2603 
L 2956 3416 
L 1425 3416 
L 1425 2603 
z
" transform="scale(0.015625)"/>
      <path id="MicrosoftYaHei-8c03" d="M 2600 4509 
L 2600 1941 
Q 2600 109 1606 -841 
Q 1450 -616 1281 -441 
Q 2144 384 2144 1891 
L 2144 4934 
L 5994 4934 
L 5994 -66 
Q 5994 -759 5356 -759 
Q 4988 -759 4369 -741 
Q 4338 -509 4275 -259 
Q 4938 -303 5225 -303 
Q 5538 -303 5538 28 
L 5538 4509 
L 2600 4509 
z
M 3081 1884 
L 4994 1884 
L 4994 291 
L 3519 291 
L 3519 3 
L 3081 3 
L 3081 1884 
z
M 2794 2791 
L 3844 2791 
L 3844 3366 
L 2969 3366 
L 2969 3766 
L 3844 3766 
L 3844 4359 
L 4294 4359 
L 4294 3766 
L 5156 3766 
L 5156 3366 
L 4294 3366 
L 4294 2791 
L 5344 2791 
L 5344 2391 
L 2794 2391 
L 2794 2791 
z
M 1944 1466 
Q 1956 1184 1988 922 
Q 1338 447 863 28 
L 575 434 
Q 781 659 781 997 
L 781 2903 
L 100 2903 
L 100 3341 
L 1238 3341 
L 1238 909 
Q 1569 1153 1944 1466 
z
M 4556 1484 
L 3519 1484 
L 3519 691 
L 4556 691 
L 4556 1484 
z
M 863 5197 
Q 1281 4784 1800 4216 
L 1388 3866 
Q 900 4484 506 4897 
L 863 5197 
z
" transform="scale(0.015625)"/>
      <path id="MicrosoftYaHei-7528" d="M 3088 -734 
L 3088 1253 
L 1269 1253 
Q 1163 -47 513 -903 
Q 350 -697 144 -472 
Q 550 103 694 803 
Q 831 1478 831 2716 
L 831 4947 
L 5925 4947 
L 5925 -22 
Q 5925 -766 5219 -766 
Q 4788 -766 4250 -747 
Q 4219 -541 4156 -228 
Q 4700 -266 5038 -266 
Q 5425 -266 5425 103 
L 5425 1253 
L 3588 1253 
L 3588 -734 
L 3088 -734 
z
M 3588 1703 
L 5425 1703 
L 5425 2872 
L 3588 2872 
L 3588 1703 
z
M 5425 4484 
L 3588 4484 
L 3588 3322 
L 5425 3322 
L 5425 4484 
z
M 1303 1703 
L 3088 1703 
L 3088 2872 
L 1331 2872 
Q 1350 2266 1303 1703 
z
M 1331 4484 
L 1331 3322 
L 3088 3322 
L 3088 4484 
L 1331 4484 
z
" transform="scale(0.015625)"/>
      <path id="MicrosoftYaHei-20" transform="scale(0.015625)"/>
      <path id="MicrosoftYaHei-42" d="M 625 0 
L 625 4841 
L 2047 4841 
Q 2684 4841 3065 4536 
Q 3447 4231 3447 3728 
Q 3447 3328 3220 3022 
Q 2994 2716 2597 2588 
L 2597 2575 
Q 3091 2519 3386 2201 
Q 3681 1884 3681 1397 
Q 3681 772 3232 386 
Q 2784 0 2084 0 
L 625 0 
z
M 1250 4294 
L 1250 2778 
L 1819 2778 
Q 2272 2778 2530 2998 
Q 2788 3219 2788 3609 
Q 2788 4294 1875 4294 
L 1250 4294 
z
M 1250 2234 
L 1250 547 
L 2000 547 
Q 2491 547 2758 773 
Q 3025 1000 3025 1403 
Q 3025 2234 1897 2234 
L 1250 2234 
z
" transform="scale(0.015625)"/>
      <path id="MicrosoftYaHei-72" d="M 2400 2850 
Q 2247 2959 1978 2959 
Q 1622 2959 1390 2626 
Q 1159 2294 1159 1750 
L 1159 0 
L 547 0 
L 547 3456 
L 1159 3456 
L 1159 2753 
L 1172 2753 
Q 1434 3516 2078 3516 
Q 2288 3516 2400 3469 
L 2400 2850 
z
" transform="scale(0.015625)"/>
      <path id="MicrosoftYaHei-61" d="M 628 3216 
Q 1144 3538 1819 3538 
Q 3069 3538 3069 2225 
L 3069 0 
L 2463 0 
L 2463 534 
L 2447 534 
Q 2088 -81 1388 -81 
Q 884 -81 587 191 
Q 291 463 291 925 
Q 291 1894 1438 2053 
L 2463 2197 
Q 2463 3044 1763 3044 
Q 1141 3044 628 2625 
L 628 3216 
z
M 1653 1625 
Q 1228 1569 1067 1412 
Q 906 1256 906 975 
Q 906 728 1081 572 
Q 1256 416 1544 416 
Q 1944 416 2203 697 
Q 2463 978 2463 1403 
L 2463 1734 
L 1653 1625 
z
" transform="scale(0.015625)"/>
      <path id="MicrosoftYaHei-69" d="M 472 4675 
Q 472 4838 583 4948 
Q 694 5059 856 5059 
Q 1022 5059 1136 4950 
Q 1250 4841 1250 4675 
Q 1250 4513 1136 4405 
Q 1022 4297 856 4297 
Q 691 4297 581 4405 
Q 472 4513 472 4675 
z
M 544 0 
L 544 3456 
L 1156 3456 
L 1156 0 
L 544 0 
z
" transform="scale(0.015625)"/>
      <path id="MicrosoftYaHei-6e" d="M 3469 0 
L 2859 0 
L 2859 1966 
Q 2859 3031 2081 3031 
Q 1678 3031 1418 2731 
Q 1159 2431 1159 1972 
L 1159 0 
L 547 0 
L 547 3456 
L 1159 3456 
L 1159 2884 
L 1172 2884 
Q 1563 3538 2306 3538 
Q 2875 3538 3172 3173 
Q 3469 2809 3469 2113 
L 3469 0 
z
" transform="scale(0.015625)"/>
     </defs>
     <use xlink:href="#MicrosoftYaHei-56de"/>
     <use xlink:href="#MicrosoftYaHei-653e" transform="translate(100 0)"/>
     <use xlink:href="#MicrosoftYaHei-662f" transform="translate(200 0)"/>
     <use xlink:href="#MicrosoftYaHei-6cbf" transform="translate(300 0)"/>
     <use xlink:href="#MicrosoftYaHei-4e8b" transform="translate(400 0)"/>
     <use xlink:href="#MicrosoftYaHei-5b9e" transform="translate(500 0)"/>
     <use xlink:href="#MicrosoftYaHei-91cd" transform="translate(600 0)"/>
     <use xlink:href="#MicrosoftYaHei-5efa" transform="translate(700 0)"/>
     <use xlink:href="#MicrosoftYaHei-72b6" transform="translate(800 0)"/>
     <use xlink:href="#MicrosoftYaHei-6001" transform="translate(900 0)"/>
     <use xlink:href="#MicrosoftYaHei-ff0c" transform="translate(1000 0)"/>
     <use xlink:href="#MicrosoftYaHei-4e0d" transform="translate(1100 0)"/>
     <use xlink:href="#MicrosoftYaHei-518d" transform="translate(1200 0)"/>
     <use xlink:href="#MicrosoftYaHei-8c03" transform="translate(1300 0)"/>
     <use xlink:href="#MicrosoftYaHei-7528" transform="translate(1400 0)"/>
     <use xlink:href="#MicrosoftYaHei-20" transform="translate(1500 0)"/>
     <use xlink:href="#MicrosoftYaHei-42" transform="translate(1529.589844 0)"/>
     <use xlink:href="#MicrosoftYaHei-72" transform="translate(1592.333984 0)"/>
     <use xlink:href="#MicrosoftYaHei-61" transform="translate(1630.517578 0)"/>
     <use xlink:href="#MicrosoftYaHei-69" transform="translate(1685.791016 0)"/>
     <use xlink:href="#MicrosoftYaHei-6e" transform="translate(1712.402344 0)"/>
    </g>
   </g>
   <g id="text_2">
    <!-- 教学示意，依据正文合同绘制；不是系统截图或已执行的青禾 Run。 -->
    <g style="fill: #546779" transform="translate(322.9125 528.220976) scale(0.12 -0.12)">
     <defs>
      <path id="MicrosoftYaHei-6559" d="M 2975 2153 
Q 3681 3453 4106 5216 
L 4563 5103 
Q 4438 4591 4275 4084 
L 6225 4084 
L 6225 3634 
L 5613 3634 
Q 5569 2022 4825 859 
Q 5394 78 6319 -359 
Q 6144 -616 6025 -822 
Q 5113 -297 4538 459 
Q 3906 -328 2900 -884 
Q 2788 -722 2594 -472 
Q 3638 59 4263 872 
Q 3825 1603 3669 2522 
Q 3525 2216 3375 1916 
Q 3175 2047 2975 2153 
z
M 3163 4678 
L 3538 4434 
Q 3156 3866 2688 3309 
L 3150 3309 
L 3150 2897 
L 2331 2897 
Q 2081 2616 1819 2353 
L 2844 2353 
L 2844 1978 
L 2038 1184 
L 2038 1072 
Q 2544 1159 3156 1272 
Q 3138 1034 3131 841 
Q 2619 753 2038 647 
L 2038 -34 
Q 2081 -809 1313 -778 
Q 1044 -778 619 -766 
Q 594 -566 556 -297 
Q 850 -328 1225 -334 
Q 1619 -372 1588 16 
L 1588 566 
Q 981 453 313 322 
L 238 778 
Q 756 853 1588 991 
L 1588 1303 
L 2244 1953 
L 1406 1953 
Q 888 1478 369 1078 
Q 244 1253 75 1434 
Q 438 1691 750 1953 
L 231 1953 
L 231 2353 
L 1200 2353 
Q 1494 2616 1769 2897 
L 150 2897 
L 150 3309 
L 1381 3309 
L 1381 3947 
L 400 3947 
L 400 4359 
L 1381 4359 
L 1381 5209 
L 1831 5209 
L 1831 4359 
L 2600 4359 
L 2600 3947 
L 1831 3947 
L 1831 3309 
L 2138 3309 
Q 2700 3941 3163 4678 
z
M 3981 3272 
Q 4106 2134 4550 1303 
Q 5119 2291 5156 3634 
L 4119 3634 
Q 4056 3453 3981 3272 
z
" transform="scale(0.015625)"/>
      <path id="MicrosoftYaHei-5b66" d="M 144 1359 
L 3069 1359 
L 3069 1709 
L 4263 2384 
L 1325 2384 
L 1325 2841 
L 4994 2841 
L 4994 2316 
L 3575 1497 
L 3575 1359 
L 6263 1359 
L 6263 903 
L 3575 903 
L 3575 -41 
Q 3575 -778 2831 -778 
Q 2419 -778 1863 -766 
Q 1844 -553 1788 -234 
Q 2288 -284 2744 -291 
Q 3069 -297 3069 53 
L 3069 903 
L 144 903 
L 144 1359 
z
M 356 3909 
L 6056 3909 
L 6056 2647 
L 5563 2647 
L 5563 3453 
L 850 3453 
L 850 2647 
L 356 2647 
L 356 3909 
z
M 4313 4272 
Q 4731 4722 5100 5241 
L 5550 4909 
Q 5144 4447 4681 3941 
L 4313 4272 
z
M 2538 5116 
L 2944 5353 
Q 3325 4853 3650 4334 
L 3200 4078 
Q 2925 4566 2538 5116 
z
M 850 4928 
L 1219 5197 
Q 1600 4778 1969 4291 
L 1544 3991 
Q 1194 4522 850 4928 
z
" transform="scale(0.015625)"/>
      <path id="MicrosoftYaHei-793a" d="M 100 3072 
L 6300 3072 
L 6300 2603 
L 3619 2603 
L 3619 78 
Q 3619 -703 2800 -709 
Q 2366 -709 1825 -703 
Q 1788 -447 1731 -128 
Q 2225 -178 2663 -178 
Q 3088 -178 3088 241 
L 3088 2603 
L 100 2603 
L 100 3072 
z
M 675 4916 
L 5744 4916 
L 5744 4447 
L 675 4447 
L 675 4916 
z
M 4413 1847 
L 4831 2128 
Q 5600 1184 6319 159 
L 5863 -141 
Q 5088 991 4413 1847 
z
M 1481 2141 
L 1938 1884 
Q 1281 747 538 -278 
Q 344 -134 125 16 
Q 825 922 1481 2141 
z
" transform="scale(0.015625)"/>
      <path id="MicrosoftYaHei-610f" d="M 2706 759 
L 3022 1028 
L 1419 1028 
L 1419 834 
L 956 834 
L 956 2997 
L 5406 2997 
L 5406 834 
L 4944 834 
L 4944 1028 
L 3038 1028 
Q 3447 681 3756 353 
L 3388 47 
Q 3125 353 2706 759 
z
M 150 3722 
L 1906 3722 
Q 1659 3956 1406 4172 
L 1594 4347 
L 538 4347 
L 538 4722 
L 3028 4722 
Q 2900 4984 2763 5216 
L 3188 5397 
Q 3391 5044 3538 4722 
L 5863 4722 
L 5863 4347 
L 4772 4347 
L 4988 4184 
Q 4738 3953 4472 3722 
L 6250 3722 
L 6250 3347 
L 150 3347 
L 150 3722 
z
M 1650 791 
L 2125 791 
L 2125 78 
Q 2125 -284 2538 -284 
L 3819 -284 
Q 4269 -284 4350 59 
Q 4413 297 4463 622 
Q 4681 528 4931 447 
Q 4856 91 4794 -128 
Q 4644 -709 3950 -709 
L 2438 -709 
Q 1650 -709 1650 34 
L 1650 791 
z
M 1419 1391 
L 4944 1391 
L 4944 1841 
L 1419 1841 
L 1419 1391 
z
M 4944 2634 
L 1419 2634 
L 1419 2191 
L 4944 2191 
L 4944 2634 
z
M 3925 3834 
Q 4178 4047 4481 4347 
L 1838 4347 
Q 2116 4141 2381 3909 
L 2191 3722 
L 4038 3722 
L 3925 3834 
z
M 656 759 
L 1094 591 
Q 869 22 569 -559 
Q 381 -472 131 -366 
Q 388 97 656 759 
z
M 5175 503 
L 5531 778 
Q 5975 303 6325 -116 
L 5931 -428 
Q 5550 72 5175 503 
z
" transform="scale(0.015625)"/>
      <path id="MicrosoftYaHei-4f9d" d="M 5681 3141 
L 6038 2753 
Q 5388 2222 4644 1688 
Q 5250 531 6331 -3 
Q 6106 -253 5938 -478 
Q 4159 622 3675 3138 
Q 3413 2719 3100 2322 
L 3100 22 
Q 3631 322 4194 666 
Q 4238 366 4294 159 
Q 3650 -197 3094 -559 
Q 2906 -691 2731 -853 
L 2394 -422 
Q 2613 -216 2613 141 
L 2613 1759 
Q 2153 1266 1600 816 
Q 1494 1034 1344 1297 
Q 2784 2416 3497 3847 
L 1738 3847 
L 1738 4272 
L 6263 4272 
L 6263 3847 
L 4066 3847 
Q 4038 3791 4009 3731 
Q 4153 2831 4441 2125 
Q 5100 2613 5681 3141 
z
M 69 2272 
Q 906 3522 1369 5303 
L 1831 5166 
Q 1578 4341 1275 3625 
L 1275 -841 
L 825 -841 
L 825 2681 
Q 559 2188 263 1759 
Q 175 2022 69 2272 
z
M 3338 5116 
L 3750 5372 
Q 4075 4966 4338 4591 
L 3900 4303 
Q 3638 4741 3338 5116 
z
" transform="scale(0.015625)"/>
      <path id="MicrosoftYaHei-636e" d="M 2900 1334 
L 4188 1334 
L 4188 2128 
L 2731 2128 
Q 2663 206 1844 -841 
Q 1694 -647 1506 -447 
Q 2288 516 2288 2509 
L 2288 4947 
L 5975 4947 
L 5975 3134 
L 5525 3134 
L 5525 3328 
L 2738 3328 
L 2738 2553 
L 4188 2553 
L 4188 3209 
L 4638 3209 
L 4638 2553 
L 6288 2553 
L 6288 2128 
L 4638 2128 
L 4638 1334 
L 5938 1334 
L 5938 -778 
L 5488 -778 
L 5488 -416 
L 3350 -416 
L 3350 -778 
L 2900 -778 
L 2900 1334 
z
M 100 1966 
Q 544 2088 963 2213 
L 963 3641 
L 175 3641 
L 175 4091 
L 963 4091 
L 963 5284 
L 1425 5284 
L 1425 4091 
L 2106 4091 
L 2106 3641 
L 1425 3641 
L 1425 2356 
Q 1722 2450 2006 2547 
Q 2013 2266 2044 2059 
Q 1722 1956 1425 1856 
L 1425 -34 
Q 1425 -741 806 -753 
Q 613 -759 231 -747 
Q 206 -497 156 -228 
Q 500 -266 681 -266 
Q 963 -266 963 53 
L 963 1703 
Q 534 1559 163 1428 
L 100 1966 
z
M 5525 4534 
L 2738 4534 
L 2738 3741 
L 5525 3741 
L 5525 4534 
z
M 5488 922 
L 3350 922 
L 3350 -9 
L 5488 -9 
L 5488 922 
z
" transform="scale(0.015625)"/>
      <path id="MicrosoftYaHei-6b63" d="M 88 66 
L 1106 66 
L 1106 3416 
L 1644 3416 
L 1644 66 
L 3231 66 
L 3231 4309 
L 375 4309 
L 375 4797 
L 6063 4797 
L 6063 4309 
L 3769 4309 
L 3769 2672 
L 5850 2672 
L 5850 2191 
L 3769 2191 
L 3769 66 
L 6313 66 
L 6313 -422 
L 88 -422 
L 88 66 
z
" transform="scale(0.015625)"/>
      <path id="MicrosoftYaHei-6587" d="M 194 4241 
L 3194 4241 
Q 2878 4841 2700 5116 
L 3181 5341 
Q 3356 5072 3706 4466 
L 3256 4241 
L 6194 4241 
L 6194 3778 
L 5041 3778 
Q 4706 1994 3603 909 
Q 4434 303 6244 -178 
Q 5956 -503 5806 -722 
Q 4044 -113 3203 553 
Q 2359 -103 506 -772 
Q 344 -553 131 -284 
Q 1919 253 2822 913 
Q 1681 2131 1372 3778 
L 194 3778 
L 194 4241 
z
M 4506 3778 
L 1872 3778 
Q 2153 2241 3216 1238 
Q 4231 2181 4506 3778 
z
" transform="scale(0.015625)"/>
      <path id="MicrosoftYaHei-5408" d="M 1025 1909 
L 5381 1909 
L 5381 -866 
L 4881 -866 
L 4881 -447 
L 1525 -447 
L 1525 -878 
L 1025 -878 
L 1025 1909 
z
M 3700 5234 
L 3550 5053 
Q 4594 3697 6319 3009 
Q 6125 2734 5988 2509 
Q 5481 2753 5025 3059 
L 5025 2703 
L 1369 2703 
L 1369 3016 
Q 913 2716 394 2428 
Q 269 2641 81 2897 
Q 2013 3866 3000 5234 
L 3700 5234 
z
M 4881 1453 
L 1525 1453 
L 1525 -3 
L 4881 -3 
L 4881 1453 
z
M 3219 4691 
Q 2581 3872 1550 3147 
L 4894 3147 
Q 3944 3797 3219 4691 
z
" transform="scale(0.015625)"/>
      <path id="MicrosoftYaHei-540c" d="M 1013 -772 
L 531 -772 
L 531 4959 
L 5856 4959 
L 5856 -47 
Q 5856 -741 5125 -741 
Q 4669 -741 4088 -716 
Q 4056 -497 4000 -216 
Q 4619 -272 5025 -272 
Q 5375 -272 5375 78 
L 5375 4497 
L 1013 4497 
L 1013 -772 
z
M 1875 2566 
L 4506 2566 
L 4506 597 
L 2338 597 
L 2338 272 
L 1875 272 
L 1875 2566 
z
M 4044 2116 
L 2338 2116 
L 2338 1047 
L 4044 1047 
L 4044 2116 
z
M 1363 3734 
L 5025 3734 
L 5025 3284 
L 1363 3284 
L 1363 3734 
z
" transform="scale(0.015625)"/>
      <path id="MicrosoftYaHei-7ed8" d="M 2294 1784 
L 5900 1784 
L 5900 1359 
L 3956 1359 
Q 3431 522 2975 -109 
Q 3875 -84 5031 -34 
Q 4738 403 4419 847 
L 4800 1066 
Q 5463 209 5988 -616 
L 5556 -872 
Q 5419 -647 5281 -422 
Q 3656 -509 2994 -559 
Q 2800 -578 2350 -653 
L 2138 -203 
Q 2381 -128 2575 103 
Q 2988 628 3369 1359 
L 2294 1359 
L 2294 1784 
z
M 856 1672 
Q 1481 1734 2075 1816 
Q 2050 1547 2025 1391 
Q 1400 1316 294 1159 
L 194 1616 
Q 531 1834 1156 2903 
Q 575 2866 213 2834 
L 88 3247 
Q 681 4166 1106 5278 
L 1594 5103 
Q 1156 4172 619 3284 
Q 856 3284 1375 3297 
Q 1594 3691 1844 4178 
L 2288 3972 
Q 1569 2722 856 1672 
z
M 4394 5266 
L 4281 5072 
Q 5100 3666 6313 3047 
Q 6088 2797 5950 2609 
Q 4750 3397 4038 4603 
Q 3419 3484 2325 2534 
Q 2206 2697 1950 2884 
Q 3219 3922 3850 5266 
L 4394 5266 
z
M 2850 2997 
L 5294 2997 
L 5294 2578 
L 2850 2578 
L 2850 2997 
z
M 94 97 
Q 763 216 2163 534 
Q 2144 291 2150 53 
Q 1319 -116 219 -378 
L 94 97 
z
" transform="scale(0.015625)"/>
      <path id="MicrosoftYaHei-5236" d="M 1906 5266 
L 2394 5266 
L 2394 4309 
L 3750 4309 
L 3750 3872 
L 2394 3872 
L 2394 3034 
L 4025 3034 
L 4025 2597 
L 2394 2597 
L 2394 1897 
L 3763 1897 
L 3763 409 
Q 3763 -266 3150 -272 
Q 2956 -278 2631 -272 
Q 2600 -72 2538 178 
Q 2844 159 3038 159 
Q 3300 159 3300 472 
L 3300 1472 
L 2394 1472 
L 2394 -847 
L 1906 -847 
L 1906 1472 
L 1044 1472 
L 1044 -378 
L 581 -378 
L 581 1897 
L 1906 1897 
L 1906 2597 
L 113 2597 
L 113 3034 
L 1906 3034 
L 1906 3872 
L 981 3872 
Q 822 3513 619 3191 
Q 413 3309 194 3428 
Q 688 4172 881 5041 
L 1344 4922 
Q 1263 4603 1159 4309 
L 1906 4309 
L 1906 5266 
z
M 5469 5272 
L 5969 5272 
L 5969 122 
Q 5969 -722 5225 -722 
Q 4981 -722 4388 -716 
Q 4350 -472 4288 -172 
Q 4813 -222 5075 -222 
Q 5469 -222 5469 222 
L 5469 5272 
z
M 4750 822 
L 4269 822 
L 4269 4672 
L 4750 4672 
L 4750 822 
z
" transform="scale(0.015625)"/>
      <path id="MicrosoftYaHei-ff1b" d="M 1606 3531 
Q 1772 3531 1890 3415 
Q 2009 3300 2009 3138 
Q 2009 2975 1893 2858 
Q 1778 2741 1606 2741 
Q 1434 2741 1318 2858 
Q 1203 2975 1203 3138 
Q 1203 3300 1322 3415 
Q 1441 3531 1606 3531 
z
M 1931 775 
L 1403 -891 
L 966 -891 
L 1350 775 
L 1931 775 
z
" transform="scale(0.015625)"/>
      <path id="MicrosoftYaHei-7cfb" d="M 4494 2747 
Q 5294 2103 6131 1334 
Q 5925 1134 5750 953 
Q 5491 1209 5225 1459 
Q 4391 1425 3519 1378 
L 3519 -28 
Q 3519 -741 2769 -741 
Q 2463 -741 1963 -728 
Q 1931 -497 1881 -216 
Q 2406 -272 2688 -272 
Q 3031 -272 3031 66 
L 3031 1353 
Q 2272 1313 1488 1266 
Q 1131 1247 781 1184 
L 575 1722 
Q 988 1797 1356 1966 
Q 2313 2434 3131 2909 
Q 2044 2825 1306 2759 
Q 981 2728 813 2691 
L 613 3216 
Q 913 3291 1175 3434 
Q 1959 3872 2747 4469 
Q 1675 4403 575 4353 
Q 531 4572 463 4791 
Q 3444 4903 5756 5134 
L 5850 4691 
Q 4494 4578 3097 4488 
L 3350 4309 
Q 2369 3653 1538 3203 
Q 2938 3281 3856 3353 
Q 4481 3753 5013 4159 
L 5419 3828 
Q 3850 2709 1775 1734 
Q 3019 1778 4791 1866 
Q 4478 2153 4163 2428 
L 4494 2747 
z
M 4125 697 
L 4444 1034 
Q 5231 509 6175 -222 
L 5806 -628 
Q 4931 97 4125 697 
z
M 1681 1028 
L 2088 709 
Q 1288 -9 406 -678 
Q 256 -497 63 -297 
Q 875 259 1681 1028 
z
" transform="scale(0.015625)"/>
      <path id="MicrosoftYaHei-7edf" d="M 5100 3641 
Q 5625 2934 6175 2047 
Q 5956 1922 5713 1766 
Q 5556 2031 5413 2275 
Q 5122 2256 4813 2241 
L 4813 122 
Q 4813 -259 5094 -259 
L 5400 -259 
Q 5706 -259 5750 53 
Q 5800 428 5813 866 
Q 6019 778 6313 684 
Q 6263 141 6206 -159 
Q 6119 -703 5550 -703 
L 5013 -703 
Q 4331 -703 4331 78 
L 4331 2213 
Q 3981 2194 3606 2169 
Q 3556 809 3256 272 
Q 2900 -416 1925 -866 
Q 1788 -672 1606 -447 
Q 2513 -78 2819 522 
Q 3100 1000 3122 2138 
Q 2994 2128 2863 2122 
Q 2594 2097 2363 2041 
L 2150 2528 
Q 2419 2641 2581 2828 
Q 3050 3388 3463 4047 
L 2100 4047 
L 2100 4491 
L 4094 4491 
Q 3859 4850 3650 5128 
L 4063 5384 
Q 4300 5091 4594 4684 
L 4297 4491 
L 6200 4491 
L 6200 4047 
L 3663 4047 
L 4006 3897 
Q 3488 3197 2988 2609 
Q 4166 2650 5153 2694 
Q 4916 3075 4700 3391 
L 5100 3641 
z
M 894 1534 
Q 1394 1603 2175 1722 
Q 2138 1472 2113 1259 
Q 1331 1153 325 991 
L 225 1441 
Q 616 1841 1153 2744 
Q 503 2700 219 2678 
L 100 3103 
Q 650 3828 1288 5316 
L 1763 5128 
Q 1156 3941 656 3141 
Q 1066 3147 1394 3159 
Q 1581 3494 1788 3884 
L 2256 3678 
Q 1544 2434 894 1534 
z
M 81 222 
Q 1119 422 2225 672 
Q 2200 347 2200 222 
Q 1069 -28 225 -253 
L 81 222 
z
" transform="scale(0.015625)"/>
      <path id="MicrosoftYaHei-622a" d="M 3625 191 
Q 4038 478 4378 838 
Q 4106 1816 4041 3291 
L 163 3291 
L 163 3703 
L 1856 3703 
L 1856 4284 
L 531 4284 
L 531 4684 
L 1856 4684 
L 1856 5278 
L 2294 5278 
L 2294 4684 
L 3519 4684 
L 3519 4284 
L 2294 4284 
L 2294 3703 
L 4022 3703 
Q 4003 4241 3981 5284 
L 4444 5284 
Q 4444 4400 4472 3703 
L 6225 3703 
L 6225 3291 
L 4491 3291 
Q 4544 2116 4747 1272 
Q 5238 1922 5544 2759 
L 5981 2572 
Q 5563 1541 4897 744 
Q 5041 328 5231 22 
Q 5394 -247 5550 -247 
Q 5681 -247 5738 -9 
Q 5813 303 5881 866 
Q 6125 753 6325 697 
Q 6231 84 6125 -291 
Q 5975 -797 5588 -797 
Q 5138 -797 4806 -197 
Q 4659 44 4538 353 
Q 4253 66 3931 -184 
Q 3800 3 3625 191 
z
M 2044 3034 
L 2338 3284 
Q 2588 3059 2881 2747 
L 2669 2572 
L 3763 2572 
L 3763 2197 
L 2631 2197 
L 2631 1684 
L 3669 1684 
L 3669 1322 
L 2631 1322 
L 2631 809 
L 3688 809 
L 3688 447 
L 2631 447 
L 2631 -66 
L 3756 -66 
L 3756 -441 
L 1213 -441 
L 1213 -791 
L 788 -791 
L 788 1763 
Q 569 1472 338 1209 
Q 200 1391 50 1559 
Q 738 2259 1169 3184 
L 1569 3009 
Q 1450 2784 1322 2572 
L 2478 2572 
Q 2259 2828 2044 3034 
z
M 4744 4741 
L 5019 5066 
Q 5569 4684 5994 4347 
L 5675 3959 
Q 5225 4372 4744 4741 
z
M 1213 809 
L 2206 809 
L 2206 1322 
L 1213 1322 
L 1213 809 
z
M 1213 1684 
L 2206 1684 
L 2206 2197 
L 1213 2197 
L 1213 1684 
z
M 1213 -66 
L 2206 -66 
L 2206 447 
L 1213 447 
L 1213 -66 
z
" transform="scale(0.015625)"/>
      <path id="MicrosoftYaHei-56fe" d="M 431 5072 
L 5944 5072 
L 5944 -809 
L 5475 -809 
L 5475 -509 
L 900 -509 
L 900 -809 
L 431 -809 
L 431 5072 
z
M 5475 4622 
L 900 4622 
L 900 -59 
L 5475 -59 
L 5475 4622 
z
M 1113 3091 
Q 1969 3709 2519 4547 
L 2931 4353 
Q 2816 4181 2681 4016 
L 4894 4016 
L 4894 3647 
Q 4434 3091 3722 2644 
Q 4381 2422 5338 2297 
Q 5194 2016 5131 1828 
Q 4022 2081 3256 2400 
Q 2491 2056 1225 1728 
Q 1138 1934 1013 2128 
Q 2109 2353 2825 2644 
Q 2384 2947 2066 3341 
Q 1769 3056 1419 2784 
Q 1294 2916 1113 3091 
z
M 1563 672 
L 1694 1103 
Q 3256 897 4700 622 
L 4531 147 
Q 3150 453 1563 672 
z
M 4275 3628 
L 2347 3628 
Q 2338 3616 2328 3606 
Q 2691 3141 3244 2841 
Q 3891 3188 4275 3628 
z
M 2219 1503 
L 2344 1922 
Q 3263 1784 4275 1609 
L 4144 1172 
Q 3119 1378 2219 1503 
z
" transform="scale(0.015625)"/>
      <path id="MicrosoftYaHei-6216" d="M 2675 -484 
Q 3456 50 4044 741 
Q 3644 1847 3569 3741 
L 200 3741 
L 200 4203 
L 3550 4203 
Q 3525 4725 3506 5291 
L 4019 5291 
Q 4022 4725 4038 4203 
L 6250 4203 
L 6250 3741 
L 4047 3741 
Q 4088 2188 4397 1197 
Q 5000 2044 5350 3097 
L 5844 2891 
Q 5334 1619 4603 659 
Q 4884 59 5275 -191 
Q 5650 -434 5738 16 
Q 5831 484 5881 978 
Q 6138 866 6363 797 
Q 6244 78 6138 -291 
Q 6006 -778 5569 -791 
Q 5206 -791 4863 -528 
Q 4513 -234 4259 244 
Q 3706 -384 3038 -853 
Q 2894 -691 2675 -484 
z
M 644 3134 
L 2894 3134 
L 2894 947 
L 2444 947 
L 2444 1234 
L 1094 1234 
L 1094 797 
L 644 797 
L 644 3134 
z
M 106 91 
Q 1300 247 3219 578 
Q 3225 309 3238 103 
Q 1831 -109 231 -409 
L 106 91 
z
M 2444 2697 
L 1094 2697 
L 1094 1672 
L 2444 1672 
L 2444 2697 
z
M 4494 4991 
L 4756 5316 
Q 5263 5022 5781 4659 
L 5481 4284 
Q 5013 4647 4494 4991 
z
" transform="scale(0.015625)"/>
      <path id="MicrosoftYaHei-5df2" d="M 738 3684 
L 1275 3684 
L 1275 2828 
L 5013 2828 
L 5013 4434 
L 506 4434 
L 506 4897 
L 5538 4897 
L 5538 1984 
L 5013 1984 
L 5013 2366 
L 1275 2366 
L 1275 547 
Q 1275 -28 1819 -28 
L 4900 -28 
Q 5438 -28 5550 359 
Q 5663 741 5719 1378 
Q 5963 1272 6256 1191 
Q 6169 541 6069 153 
Q 5881 -553 5019 -553 
L 1694 -553 
Q 738 -553 738 434 
L 738 3684 
z
" transform="scale(0.015625)"/>
      <path id="MicrosoftYaHei-6267" d="M 2225 2272 
L 2519 2647 
Q 2788 2472 3059 2294 
Q 3128 2856 3147 3622 
L 2406 3622 
L 2406 4097 
L 3156 4097 
Q 3169 4672 3175 5303 
L 3663 5303 
Q 3656 4653 3644 4097 
L 5363 4097 
Q 5350 3228 5344 2341 
Q 5319 616 5488 34 
Q 5531 -103 5618 -103 
Q 5706 -103 5744 59 
Q 5831 409 5913 1059 
Q 6156 934 6375 878 
Q 6288 253 6175 -159 
Q 6025 -691 5613 -691 
Q 5194 -691 5013 -103 
Q 4869 397 4875 1847 
Q 4869 2672 4869 3622 
L 3634 3622 
Q 3616 2709 3513 1988 
Q 3994 1663 4481 1322 
L 4163 891 
Q 3791 1172 3416 1444 
Q 3113 100 2088 -847 
Q 1931 -634 1713 -422 
Q 2725 506 2975 1756 
Q 2600 2019 2225 2272 
z
M 88 1966 
Q 525 2069 969 2181 
L 969 3647 
L 144 3647 
L 144 4097 
L 969 4097 
L 969 5303 
L 1431 5303 
L 1431 4097 
L 2163 4097 
L 2163 3647 
L 1431 3647 
L 1431 2303 
Q 1772 2394 2113 2491 
Q 2125 2216 2156 2016 
L 1431 1813 
L 1431 -78 
Q 1431 -759 875 -759 
Q 606 -759 219 -747 
Q 194 -516 138 -247 
Q 538 -291 694 -291 
Q 969 -291 969 3 
L 969 1678 
Q 559 1559 150 1441 
L 88 1966 
z
" transform="scale(0.015625)"/>
      <path id="MicrosoftYaHei-884c" d="M 2363 2978 
L 6319 2978 
L 6319 2509 
L 5106 2509 
L 5106 66 
Q 5106 -709 4325 -709 
Q 3800 -709 3256 -703 
Q 3219 -453 3163 -141 
Q 3650 -191 4144 -191 
Q 4575 -191 4575 234 
L 4575 2509 
L 2363 2509 
L 2363 2978 
z
M 100 1578 
Q 1069 2372 1863 3809 
L 2300 3541 
Q 1978 2984 1619 2500 
L 1619 -809 
L 1100 -809 
L 1100 1856 
Q 725 1431 319 1072 
Q 219 1334 100 1578 
z
M 2725 4866 
L 5969 4866 
L 5969 4397 
L 2725 4397 
L 2725 4866 
z
M 131 3559 
Q 1125 4328 1731 5347 
L 2181 5072 
Q 1456 3959 381 3078 
Q 269 3316 131 3559 
z
" transform="scale(0.015625)"/>
      <path id="MicrosoftYaHei-7684" d="M 356 4284 
L 988 4284 
Q 1219 4853 1369 5322 
L 1894 5172 
Q 1697 4694 1513 4284 
L 2763 4284 
L 2763 -691 
L 2263 -691 
L 2263 -203 
L 856 -203 
L 856 -734 
L 356 -734 
L 356 4284 
z
M 2856 3003 
Q 3444 3934 3850 5322 
L 4375 5191 
Q 4216 4719 4050 4303 
L 6063 4303 
Q 5988 1091 5938 259 
Q 5894 -722 4906 -722 
Q 4338 -722 3750 -684 
Q 3713 -372 3650 -128 
L 3669 -128 
Q 4294 -216 4813 -216 
Q 5381 -216 5425 384 
Q 5494 1316 5525 3834 
L 3850 3834 
Q 3578 3231 3288 2772 
Q 3119 2891 2856 3003 
z
M 856 266 
L 2263 266 
L 2263 1847 
L 856 1847 
L 856 266 
z
M 2263 3816 
L 856 3816 
L 856 2297 
L 2263 2297 
L 2263 3816 
z
M 3406 2578 
L 3788 2859 
Q 4481 2041 4894 1441 
L 4431 1116 
Q 3988 1841 3406 2578 
z
" transform="scale(0.015625)"/>
      <path id="MicrosoftYaHei-9752" d="M 1469 -784 
L 975 -784 
L 975 2384 
L 5431 2384 
L 5431 -91 
Q 5431 -747 4656 -741 
Q 4200 -741 3713 -734 
Q 3688 -534 3619 -253 
Q 4119 -291 4588 -291 
Q 4931 -291 4931 -3 
L 4931 347 
L 1469 347 
L 1469 -784 
z
M 200 3166 
L 2963 3166 
L 2963 3591 
L 650 3591 
L 650 3984 
L 2963 3984 
L 2963 4403 
L 325 4403 
L 325 4803 
L 2963 4803 
L 2963 5359 
L 3463 5359 
L 3463 4803 
L 6075 4803 
L 6075 4403 
L 3463 4403 
L 3463 3984 
L 5625 3984 
L 5625 3591 
L 3463 3591 
L 3463 3166 
L 6200 3166 
L 6200 2766 
L 200 2766 
L 200 3166 
z
M 4931 1984 
L 1469 1984 
L 1469 1553 
L 4931 1553 
L 4931 1984 
z
M 1469 734 
L 4931 734 
L 4931 1166 
L 1469 1166 
L 1469 734 
z
" transform="scale(0.015625)"/>
      <path id="MicrosoftYaHei-79be" d="M 325 3128 
L 2938 3128 
L 2938 4328 
Q 1875 4272 656 4228 
Q 631 4466 556 4716 
Q 3569 4809 5713 5009 
L 5788 4522 
Q 4744 4434 3450 4359 
L 3450 3128 
L 6075 3128 
L 6075 2653 
L 3831 2653 
Q 4613 922 6319 284 
Q 6144 97 5931 -216 
Q 4213 578 3450 2522 
L 3450 -897 
L 2938 -897 
L 2938 2497 
Q 2231 828 419 -291 
Q 288 -97 31 184 
Q 1700 1072 2544 2653 
L 325 2653 
L 325 3128 
z
" transform="scale(0.015625)"/>
      <path id="MicrosoftYaHei-52" d="M 4159 0 
L 3422 0 
L 2619 1344 
Q 2378 1747 2178 1892 
Q 1978 2038 1700 2038 
L 1250 2038 
L 1250 0 
L 625 0 
L 625 4841 
L 2100 4841 
Q 2806 4841 3206 4500 
Q 3606 4159 3606 3547 
Q 3606 2541 2531 2241 
L 2531 2225 
Q 2731 2141 2876 1984 
Q 3022 1828 3253 1450 
L 4159 0 
z
M 1250 4294 
L 1250 2584 
L 1988 2584 
Q 2416 2584 2683 2834 
Q 2950 3084 2950 3491 
Q 2950 3869 2706 4081 
Q 2463 4294 1997 4294 
L 1250 4294 
z
" transform="scale(0.015625)"/>
      <path id="MicrosoftYaHei-75" d="M 3400 0 
L 2784 0 
L 2784 544 
L 2772 544 
Q 2425 -81 1706 -81 
Q 478 -81 478 1388 
L 478 3456 
L 1084 3456 
L 1084 1478 
Q 1084 425 1891 425 
Q 2291 425 2537 720 
Q 2784 1016 2784 1466 
L 2784 3456 
L 3400 3456 
L 3400 0 
z
" transform="scale(0.015625)"/>
      <path id="MicrosoftYaHei-3002" d="M 1219 863 
Q 1525 863 1750 625 
Q 1975 388 1975 72 
Q 1975 -284 1747 -507 
Q 1519 -731 1197 -731 
Q 875 -731 642 -503 
Q 409 -275 409 66 
Q 409 413 656 638 
Q 903 863 1219 863 
z
M 1209 -275 
Q 1328 -275 1431 -184 
Q 1534 -94 1534 50 
Q 1534 209 1434 304 
Q 1334 400 1191 400 
Q 1056 400 959 304 
Q 863 209 863 53 
Q 863 -100 977 -187 
Q 1091 -275 1209 -275 
z
" transform="scale(0.015625)"/>
     </defs>
     <use xlink:href="#MicrosoftYaHei-6559"/>
     <use xlink:href="#MicrosoftYaHei-5b66" transform="translate(100 0)"/>
     <use xlink:href="#MicrosoftYaHei-793a" transform="translate(200 0)"/>
     <use xlink:href="#MicrosoftYaHei-610f" transform="translate(300 0)"/>
     <use xlink:href="#MicrosoftYaHei-ff0c" transform="translate(400 0)"/>
     <use xlink:href="#MicrosoftYaHei-4f9d" transform="translate(500 0)"/>
     <use xlink:href="#MicrosoftYaHei-636e" transform="translate(600 0)"/>
     <use xlink:href="#MicrosoftYaHei-6b63" transform="translate(700 0)"/>
     <use xlink:href="#MicrosoftYaHei-6587" transform="translate(800 0)"/>
     <use xlink:href="#MicrosoftYaHei-5408" transform="translate(900 0)"/>
     <use xlink:href="#MicrosoftYaHei-540c" transform="translate(1000 0)"/>
     <use xlink:href="#MicrosoftYaHei-7ed8" transform="translate(1100 0)"/>
     <use xlink:href="#MicrosoftYaHei-5236" transform="translate(1200 0)"/>
     <use xlink:href="#MicrosoftYaHei-ff1b" transform="translate(1300 0)"/>
     <use xlink:href="#MicrosoftYaHei-4e0d" transform="translate(1400 0)"/>
     <use xlink:href="#MicrosoftYaHei-662f" transform="translate(1500 0)"/>
     <use xlink:href="#MicrosoftYaHei-7cfb" transform="translate(1600 0)"/>
     <use xlink:href="#MicrosoftYaHei-7edf" transform="translate(1700 0)"/>
     <use xlink:href="#MicrosoftYaHei-622a" transform="translate(1800 0)"/>
     <use xlink:href="#MicrosoftYaHei-56fe" transform="translate(1900 0)"/>
     <use xlink:href="#MicrosoftYaHei-6216" transform="translate(2000 0)"/>
     <use xlink:href="#MicrosoftYaHei-5df2" transform="translate(2100 0)"/>
     <use xlink:href="#MicrosoftYaHei-6267" transform="translate(2200 0)"/>
     <use xlink:href="#MicrosoftYaHei-884c" transform="translate(2300 0)"/>
     <use xlink:href="#MicrosoftYaHei-7684" transform="translate(2400 0)"/>
     <use xlink:href="#MicrosoftYaHei-9752" transform="translate(2500 0)"/>
     <use xlink:href="#MicrosoftYaHei-79be" transform="translate(2600 0)"/>
     <use xlink:href="#MicrosoftYaHei-20" transform="translate(2700 0)"/>
     <use xlink:href="#MicrosoftYaHei-52" transform="translate(2729.589844 0)"/>
     <use xlink:href="#MicrosoftYaHei-75" transform="translate(2794.873047 0)"/>
     <use xlink:href="#MicrosoftYaHei-6e" transform="translate(2856.494141 0)"/>
     <use xlink:href="#MicrosoftYaHei-3002" transform="translate(2918.115234 0)"/>
    </g>
   </g>
   <g id="text_3">
    <!-- 已提交帧 -->
    <g style="fill: #276fbf" transform="translate(209.024 200.759904) scale(0.23 -0.23)">
     <defs>
      <path id="MicrosoftYaHei-63d0" d="M 2569 5041 
L 5688 5041 
L 5688 2572 
L 5238 2572 
L 5238 2753 
L 3019 2753 
L 3019 2572 
L 2569 2572 
L 2569 5041 
z
M 1594 -559 
Q 2475 178 2581 1553 
L 3050 1553 
Q 3019 1116 2922 734 
Q 3319 128 3956 -84 
L 3956 1797 
L 2025 1797 
L 2025 2209 
L 6238 2209 
L 6238 1797 
L 4425 1797 
L 4425 1097 
L 5994 1097 
L 5994 697 
L 4425 697 
L 4425 -184 
Q 4850 -234 6313 -178 
Q 6300 -209 6169 -641 
Q 5425 -659 4625 -622 
Q 3363 -606 2769 266 
Q 2506 -388 2006 -853 
Q 1819 -697 1594 -559 
z
M 81 2003 
Q 481 2175 888 2366 
L 888 3697 
L 131 3697 
L 131 4122 
L 888 4122 
L 888 5284 
L 1363 5284 
L 1363 4122 
L 2163 4122 
L 2163 3697 
L 1363 3697 
L 1363 2597 
Q 1722 2775 2081 2972 
Q 2100 2728 2131 2472 
Q 1747 2281 1363 2088 
L 1363 -91 
Q 1363 -697 900 -747 
Q 575 -778 169 -766 
Q 131 -503 88 -247 
Q 431 -284 675 -284 
Q 888 -284 888 -53 
L 888 1844 
Q 513 1650 144 1453 
L 81 2003 
z
M 3019 3153 
L 5238 3153 
L 5238 3703 
L 3019 3703 
L 3019 3153 
z
M 5238 4641 
L 3019 4641 
L 3019 4097 
L 5238 4097 
L 5238 4641 
z
" transform="scale(0.015625)"/>
      <path id="MicrosoftYaHei-4ea4" d="M 4194 2641 
L 4675 2434 
Q 4209 1375 3566 713 
Q 4503 19 6225 -278 
Q 5994 -591 5850 -803 
Q 4184 -378 3194 375 
Q 2334 -297 463 -847 
Q 325 -628 150 -366 
Q 1909 78 2803 713 
Q 2184 1344 1738 2359 
L 2156 2597 
Q 2566 1669 3194 1041 
Q 3766 1609 4194 2641 
z
M 194 4384 
L 3122 4384 
Q 2975 4691 2700 5128 
L 3163 5353 
Q 3431 4978 3638 4566 
L 3288 4384 
L 6194 4384 
L 6194 3922 
L 194 3922 
L 194 4384 
z
M 2044 3634 
L 2444 3309 
Q 1569 2391 625 1666 
Q 469 1859 275 2066 
Q 1219 2734 2044 3634 
z
M 4288 3666 
Q 5431 2766 6075 2159 
Q 5900 1984 5700 1753 
Q 4994 2478 3944 3341 
L 4288 3666 
z
" transform="scale(0.015625)"/>
      <path id="MicrosoftYaHei-5e27" d="M 375 4109 
L 1213 4109 
L 1213 5284 
L 1650 5284 
L 1650 4109 
L 2500 4109 
L 2500 1059 
Q 2500 559 1800 597 
Q 1756 784 1669 1047 
Q 2069 972 2075 1197 
L 2075 3684 
L 1650 3684 
L 1650 -866 
L 1213 -866 
L 1213 3684 
L 800 3684 
L 800 584 
L 375 584 
L 375 4109 
z
M 2969 3484 
L 4138 3484 
L 4138 5284 
L 4613 5284 
L 4613 4622 
L 6300 4622 
L 6300 4184 
L 4613 4184 
L 4613 3484 
L 5919 3484 
L 5919 478 
L 5463 478 
L 5463 3059 
L 3425 3059 
L 3425 478 
L 2969 478 
L 2969 3484 
z
M 4213 2728 
L 4669 2728 
Q 4675 1466 4575 978 
Q 4544 822 4488 672 
Q 5394 147 6275 -472 
L 5950 -872 
Q 5113 -197 4313 291 
Q 3831 -484 2588 -922 
Q 2456 -728 2263 -484 
Q 3900 -59 4138 1097 
Q 4219 1484 4213 2728 
z
" transform="scale(0.015625)"/>
     </defs>
     <use xlink:href="#MicrosoftYaHei-5df2"/>
     <use xlink:href="#MicrosoftYaHei-63d0" transform="translate(100 0)"/>
     <use xlink:href="#MicrosoftYaHei-4ea4" transform="translate(200 0)"/>
     <use xlink:href="#MicrosoftYaHei-5e27" transform="translate(300 0)"/>
    </g>
   </g>
   <g id="text_4">
    <!-- 校验 -->
    <g style="fill: #26816b" transform="translate(538.456 219.615338) scale(0.23 -0.23)">
     <defs>
      <path id="MicrosoftYaHei-6821" d="M 88 1353 
Q 744 2472 1013 3572 
L 156 3572 
L 156 4003 
L 1031 4003 
L 1031 5297 
L 1488 5297 
L 1488 4003 
L 2213 4003 
L 2213 3572 
L 1488 3572 
L 1488 2991 
L 1706 3159 
Q 2150 2597 2319 2334 
L 1981 2084 
Q 1788 2378 1488 2809 
L 1488 -866 
L 1031 -866 
L 1031 2472 
Q 706 1416 288 803 
Q 206 1072 88 1353 
z
M 3344 2416 
Q 3681 1528 4175 959 
Q 4638 1528 4938 2472 
L 5419 2297 
Q 5006 1216 4525 616 
Q 5231 28 6313 -272 
Q 6163 -453 5994 -741 
Q 4869 -347 4188 253 
Q 3469 -434 2288 -891 
Q 2163 -691 1988 -441 
Q 3144 -34 3838 603 
Q 3306 1203 2944 2222 
L 3344 2416 
z
M 2425 4341 
L 4113 4341 
Q 3981 4697 3756 5159 
L 4175 5341 
Q 4419 4909 4588 4522 
L 4181 4341 
L 6188 4341 
L 6188 3903 
L 2425 3903 
L 2425 4341 
z
M 3344 3766 
L 3775 3553 
Q 3225 2603 2625 1809 
Q 2438 1941 2231 2072 
Q 2881 2897 3344 3766 
z
M 4581 3459 
L 4919 3741 
Q 5600 3016 6213 2253 
L 5831 1928 
Q 5288 2684 4581 3459 
z
" transform="scale(0.015625)"/>
      <path id="MicrosoftYaHei-9a8c" d="M 963 4116 
L 819 2397 
L 1450 2397 
L 1613 4503 
L 194 4503 
L 194 4928 
L 2088 4928 
L 1894 2397 
L 2288 2397 
Q 2244 1078 2206 228 
Q 2188 -722 1381 -722 
Q 1044 -722 588 -703 
Q 556 -472 506 -209 
Q 956 -266 1306 -266 
Q 1744 -266 1769 266 
Q 1806 953 1831 1972 
L 331 1972 
L 531 4116 
L 963 4116 
z
M 2338 -103 
L 4594 -103 
Q 5044 1009 5394 2222 
L 5869 2072 
Q 5500 953 5088 -103 
L 6188 -103 
L 6188 -534 
L 2338 -534 
L 2338 -103 
z
M 4606 5278 
L 4488 5078 
Q 5244 3734 6363 3122 
Q 6163 2872 6031 2684 
Q 4931 3497 4238 4641 
Q 3600 3509 2456 2609 
Q 2344 2772 2144 3003 
Q 3388 3866 4050 5278 
L 4606 5278 
z
M 2975 2978 
L 5550 2978 
L 5550 2547 
L 2975 2547 
L 2975 2978 
z
M 3731 2178 
L 4175 2297 
Q 4438 1359 4606 659 
L 4150 528 
Q 3969 1391 3731 2178 
z
M 2656 1897 
L 3094 2034 
Q 3400 1147 3606 453 
L 3144 297 
Q 2938 1097 2656 1897 
z
M 38 1034 
Q 763 1178 1631 1384 
Q 1625 1134 1638 941 
Q 925 791 131 572 
L 38 1034 
z
" transform="scale(0.015625)"/>
     </defs>
     <use xlink:href="#MicrosoftYaHei-6821"/>
     <use xlink:href="#MicrosoftYaHei-9a8c" transform="translate(100 0)"/>
    </g>
    <!-- 归约 -->
    <g style="fill: #26816b" transform="translate(538.456 251.992151) scale(0.23 -0.23)">
     <defs>
      <path id="MicrosoftYaHei-5f52" d="M 2450 272 
L 5419 272 
L 5419 2222 
L 2800 2222 
L 2800 2659 
L 5419 2659 
L 5419 4347 
L 2650 4347 
L 2650 4797 
L 5906 4797 
L 5906 -591 
L 5419 -591 
L 5419 -166 
L 2450 -166 
L 2450 272 
z
M 1800 5284 
L 2294 5284 
L 2294 2741 
Q 2300 103 1219 -866 
Q 1069 -672 844 -447 
Q 1800 453 1800 2541 
L 1800 5284 
z
M 513 4672 
L 1000 4672 
L 1000 641 
L 513 641 
L 513 4672 
z
" transform="scale(0.015625)"/>
      <path id="MicrosoftYaHei-7ea6" d="M 2269 2884 
Q 3056 4047 3463 5341 
L 3981 5197 
Q 3794 4731 3613 4322 
L 6056 4322 
Q 5969 1472 5913 316 
Q 5856 -678 4850 -678 
Q 4263 -678 3600 -641 
Q 3556 -397 3488 -78 
Q 4200 -166 4794 -166 
Q 5369 -166 5394 441 
Q 5463 1322 5519 3853 
L 3394 3853 
Q 3053 3153 2719 2641 
Q 2519 2759 2269 2884 
z
M 981 1534 
Q 1938 1666 2556 1766 
Q 2513 1516 2500 1291 
Q 1481 1153 413 978 
L 300 1441 
Q 772 1922 1309 2766 
Q 597 2722 244 2691 
L 125 3116 
Q 813 4028 1394 5347 
L 1869 5159 
Q 1275 4016 688 3153 
Q 1150 3163 1566 3178 
Q 1813 3591 2075 4078 
L 2538 3847 
Q 1731 2509 981 1534 
z
M 113 97 
Q 1488 278 2669 484 
Q 2644 234 2631 -3 
Q 1619 -128 225 -391 
L 113 97 
z
M 3144 2584 
L 3544 2847 
Q 4144 2078 4600 1403 
L 4131 1103 
Q 3713 1791 3144 2584 
z
" transform="scale(0.015625)"/>
     </defs>
     <use xlink:href="#MicrosoftYaHei-5f52"/>
     <use xlink:href="#MicrosoftYaHei-7ea6" transform="translate(100 0)"/>
    </g>
   </g>
   <g id="text_5">
    <!-- 位置 / 状态 -->
    <g style="fill: #20344b" transform="translate(801.054906 221.329151) scale(0.19 -0.19)">
     <defs>
      <path id="MicrosoftYaHei-4f4d" d="M 1788 -59 
L 4228 -59 
Q 4678 1144 5269 3372 
L 5831 3203 
Q 5453 2044 4756 -59 
L 6319 -59 
L 6319 -522 
L 1788 -522 
L 1788 -59 
z
M 81 2291 
Q 975 3641 1431 5322 
L 1963 5191 
Q 1703 4397 1406 3709 
L 1406 -853 
L 938 -853 
L 938 2731 
Q 644 2181 319 1716 
Q 231 1953 81 2291 
z
M 1919 4191 
L 4122 4191 
Q 3844 4659 3506 5059 
L 3931 5353 
Q 4206 5034 4613 4497 
L 4150 4191 
L 6206 4191 
L 6206 3728 
L 1919 3728 
L 1919 4191 
z
M 2769 3309 
Q 3181 2184 3669 584 
L 3150 434 
Q 2725 1966 2294 3147 
L 2769 3309 
z
" transform="scale(0.015625)"/>
      <path id="MicrosoftYaHei-7f6e" d="M 94 -284 
L 1025 -284 
L 1025 2609 
L 2938 2609 
L 2938 3016 
L 244 3016 
L 244 3366 
L 2938 3366 
L 2938 3697 
L 3388 3697 
L 3388 3366 
L 6150 3366 
L 6150 3016 
L 3388 3016 
L 3388 2609 
L 5431 2609 
L 5431 -284 
L 6294 -284 
L 6294 -647 
L 94 -647 
L 94 -284 
z
M 638 5034 
L 5756 5034 
L 5756 3641 
L 5331 3641 
L 5331 3784 
L 1069 3784 
L 1069 3641 
L 638 3641 
L 638 5034 
z
M 1463 -284 
L 4994 -284 
L 4994 116 
L 1463 116 
L 1463 -284 
z
M 1463 441 
L 4994 441 
L 4994 834 
L 1463 834 
L 1463 441 
z
M 1463 1159 
L 4994 1159 
L 4994 1553 
L 1463 1553 
L 1463 1159 
z
M 4994 2272 
L 1463 2272 
L 1463 1878 
L 4994 1878 
L 4994 2272 
z
M 5331 4697 
L 4181 4697 
L 4181 4122 
L 5331 4122 
L 5331 4697 
z
M 2625 4122 
L 3769 4122 
L 3769 4697 
L 2625 4697 
L 2625 4122 
z
M 1069 4122 
L 2213 4122 
L 2213 4697 
L 1069 4697 
L 1069 4122 
z
" transform="scale(0.015625)"/>
      <path id="MicrosoftYaHei-2f" d="M 2791 4841 
L 469 -803 
L -103 -803 
L 2219 4841 
L 2791 4841 
z
" transform="scale(0.015625)"/>
     </defs>
     <use xlink:href="#MicrosoftYaHei-4f4d"/>
     <use xlink:href="#MicrosoftYaHei-7f6e" transform="translate(100 0)"/>
     <use xlink:href="#MicrosoftYaHei-20" transform="translate(200 0)"/>
     <use xlink:href="#MicrosoftYaHei-2f" transform="translate(229.589844 0)"/>
     <use xlink:href="#MicrosoftYaHei-20" transform="translate(272.314453 0)"/>
     <use xlink:href="#MicrosoftYaHei-72b6" transform="translate(301.904297 0)"/>
     <use xlink:href="#MicrosoftYaHei-6001" transform="translate(401.904297 0)"/>
    </g>
    <!-- 会话 / 外观 -->
    <g style="fill: #20344b" transform="translate(801.054906 248.075213) scale(0.19 -0.19)">
     <defs>
      <path id="MicrosoftYaHei-4f1a" d="M 4144 972 
Q 5050 166 5706 -541 
L 5300 -903 
Q 5100 -672 4838 -391 
Q 3281 -484 1656 -603 
Q 1394 -628 1125 -741 
L 844 -222 
Q 1150 -109 1363 78 
Q 1906 609 2413 1322 
L 331 1322 
L 331 1784 
L 6069 1784 
L 6069 1322 
L 3044 1322 
Q 2406 516 1800 -109 
Q 3181 -41 4438 22 
Q 4150 316 3806 659 
L 4144 972 
z
M 3200 4747 
Q 1950 3272 394 2372 
Q 244 2597 50 2828 
Q 1844 3747 2956 5253 
L 3625 5253 
L 3506 5097 
Q 4588 3653 6363 2978 
Q 6175 2728 6013 2447 
Q 4200 3328 3200 4747 
z
M 1463 3072 
L 4913 3072 
L 4913 2609 
L 1463 2609 
L 1463 3072 
z
" transform="scale(0.015625)"/>
      <path id="MicrosoftYaHei-8bdd" d="M 2431 1928 
L 3825 1928 
L 3825 2972 
L 1813 2972 
L 1813 3434 
L 3825 3434 
L 3825 4475 
Q 3056 4428 2188 4384 
Q 2138 4616 2075 4847 
Q 4144 4928 5869 5103 
L 5981 4647 
Q 5231 4575 4325 4509 
L 4325 3434 
L 6263 3434 
L 6263 2972 
L 4325 2972 
L 4325 1928 
L 5738 1928 
L 5738 -841 
L 5250 -841 
L 5250 -397 
L 2919 -397 
L 2919 -841 
L 2431 -841 
L 2431 1928 
z
M 5250 1478 
L 2919 1478 
L 2919 53 
L 5250 53 
L 5250 1478 
z
M 2175 747 
Q 2194 409 2219 191 
Q 1506 -278 963 -722 
L 669 -303 
Q 881 -103 881 259 
L 881 2716 
L 100 2716 
L 100 3166 
L 1363 3166 
L 1363 166 
Q 1681 366 2175 747 
z
M 738 5222 
Q 1419 4522 1725 4184 
L 1288 3816 
Q 894 4334 356 4891 
L 738 5222 
z
" transform="scale(0.015625)"/>
      <path id="MicrosoftYaHei-5916" d="M 38 2084 
Q 969 3503 1438 5316 
L 1950 5172 
Q 1800 4666 1638 4197 
L 3375 4197 
L 3375 3734 
Q 3044 628 569 -822 
Q 438 -616 244 -378 
Q 1456 341 2106 1422 
Q 1669 1791 1125 2172 
L 1444 2553 
Q 1975 2166 2350 1872 
Q 2738 2678 2850 3722 
L 1456 3722 
Q 1019 2616 325 1553 
Q 200 1809 38 2084 
z
M 3988 5266 
L 4513 5266 
L 4513 3116 
L 4763 3397 
Q 5656 2703 6356 2128 
L 6000 1666 
Q 5338 2278 4513 2972 
L 4513 -859 
L 3988 -859 
L 3988 5266 
z
" transform="scale(0.015625)"/>
      <path id="MicrosoftYaHei-89c2" d="M 788 3672 
Q 1125 3025 1469 2359 
Q 1722 3225 1806 4266 
L 250 4266 
L 250 4741 
L 2294 4741 
L 2294 4284 
Q 2181 2869 1784 1747 
Q 2159 1019 2544 266 
L 2081 9 
Q 1841 534 1544 1147 
Q 1094 163 394 -559 
Q 269 -366 81 -103 
Q 825 659 1253 1741 
Q 859 2538 381 3466 
L 788 3672 
z
M 4031 4141 
L 4506 4141 
L 4506 3009 
Q 4506 2256 4394 1678 
L 4769 1678 
L 4769 191 
Q 4769 -203 5094 -203 
L 5394 -203 
Q 5713 -203 5756 134 
Q 5794 441 5819 966 
Q 6025 878 6313 772 
Q 6263 216 6213 -91 
Q 6119 -666 5500 -666 
L 5019 -666 
Q 4306 -666 4306 72 
L 4306 1313 
Q 4200 953 4044 678 
Q 3600 -116 2381 -822 
Q 2250 -634 2038 -409 
Q 3206 216 3625 941 
Q 4031 1584 4031 2978 
L 4031 4141 
z
M 2744 5034 
L 5794 5034 
L 5794 1284 
L 5319 1284 
L 5319 4572 
L 3219 4572 
L 3219 1197 
L 2744 1197 
L 2744 5034 
z
" transform="scale(0.015625)"/>
     </defs>
     <use xlink:href="#MicrosoftYaHei-4f1a"/>
     <use xlink:href="#MicrosoftYaHei-8bdd" transform="translate(100 0)"/>
     <use xlink:href="#MicrosoftYaHei-20" transform="translate(200 0)"/>
     <use xlink:href="#MicrosoftYaHei-2f" transform="translate(229.589844 0)"/>
     <use xlink:href="#MicrosoftYaHei-20" transform="translate(272.314453 0)"/>
     <use xlink:href="#MicrosoftYaHei-5916" transform="translate(301.904297 0)"/>
     <use xlink:href="#MicrosoftYaHei-89c2" transform="translate(401.904297 0)"/>
    </g>
   </g>
   <g id="text_6">
    <!-- 身份、哈希、连续性 -->
    <g style="fill: #276fbf" transform="translate(169.524 393.747302) scale(0.19 -0.19)">
     <defs>
      <path id="MicrosoftYaHei-8eab" d="M 150 1666 
L 1013 1666 
L 1013 4653 
L 2441 4653 
Q 2588 5022 2681 5341 
L 3206 5209 
Q 3088 4941 2953 4653 
L 5219 4653 
L 5219 1997 
Q 5628 2303 6006 2641 
L 6319 2297 
Q 5791 1844 5219 1441 
L 5219 191 
Q 5219 -753 4394 -759 
Q 3881 -772 3356 -747 
Q 3319 -528 3256 -228 
Q 3713 -272 4238 -272 
Q 4725 -272 4725 241 
L 4725 1109 
Q 2819 -116 419 -828 
Q 300 -584 138 -353 
Q 2347 216 4094 1247 
L 150 1247 
L 150 1666 
z
M 1506 1666 
L 4725 1666 
L 4725 2259 
L 1506 2259 
L 1506 1666 
z
M 4725 4234 
L 1506 4234 
L 1506 3647 
L 4725 3647 
L 4725 4234 
z
M 1506 2659 
L 4725 2659 
L 4725 3247 
L 1506 3247 
L 1506 2659 
z
" transform="scale(0.015625)"/>
      <path id="MicrosoftYaHei-4efd" d="M 2269 2653 
L 5394 2653 
Q 5388 2566 5300 366 
Q 5275 -709 4319 -722 
Q 3806 -722 3425 -703 
Q 3394 -416 3331 -184 
Q 3763 -241 4200 -253 
Q 4806 -297 4813 422 
Q 4863 1259 4888 2216 
L 3481 2216 
Q 3463 1222 3181 572 
Q 2844 -172 2019 -822 
Q 1856 -622 1656 -416 
Q 2450 203 2713 772 
Q 2969 1275 2997 2216 
L 2269 2216 
L 2269 2653 
z
M 75 2353 
Q 969 3534 1525 5284 
L 2013 5116 
Q 1709 4284 1350 3559 
L 1350 -809 
L 875 -809 
L 875 2691 
Q 588 2216 275 1797 
Q 181 2066 75 2353 
z
M 4006 5116 
L 4419 5291 
Q 5038 3703 6325 2972 
Q 6088 2697 5969 2516 
Q 4575 3472 4006 5116 
z
M 1588 2741 
Q 2563 3597 3163 5034 
L 3606 4866 
Q 3025 3409 1963 2397 
Q 1738 2628 1588 2741 
z
" transform="scale(0.015625)"/>
      <path id="MicrosoftYaHei-3001" d="M 1931 -413 
L 1556 -791 
Q 1028 -216 397 306 
L 728 650 
Q 1506 22 1931 -413 
z
" transform="scale(0.015625)"/>
      <path id="MicrosoftYaHei-54c8" d="M 413 4541 
L 2069 4541 
L 2069 97 
L 1619 97 
L 1619 534 
L 863 534 
L 863 -3 
L 413 -3 
L 413 4541 
z
M 2950 2972 
L 5475 2972 
L 5475 2534 
L 2950 2534 
L 2950 2972 
z
M 4600 5272 
L 4494 5103 
Q 5231 3741 6319 3197 
Q 6138 2978 5975 2759 
Q 4988 3391 4231 4684 
Q 3619 3566 2463 2728 
Q 2306 2941 2138 3122 
Q 3406 3959 4013 5272 
L 4600 5272 
z
M 2706 1716 
L 5663 1716 
L 5663 -872 
L 5188 -872 
L 5188 -497 
L 3181 -497 
L 3181 -872 
L 2706 -872 
L 2706 1716 
z
M 1619 966 
L 1619 4109 
L 863 4109 
L 863 966 
L 1619 966 
z
M 5188 -59 
L 5188 1278 
L 3181 1278 
L 3181 -59 
L 5188 -59 
z
" transform="scale(0.015625)"/>
      <path id="MicrosoftYaHei-5e0c" d="M 3113 2547 
L 3588 2547 
L 3588 1947 
L 5550 1947 
L 5550 409 
Q 5550 -341 4825 -341 
Q 4613 -341 4081 -334 
Q 4050 -97 4000 166 
Q 4475 116 4744 116 
Q 5075 116 5075 466 
L 5075 1509 
L 3588 1509 
L 3588 -834 
L 3113 -834 
L 3113 1509 
L 1675 1509 
L 1675 -303 
L 1200 -303 
L 1200 1369 
Q 831 1038 425 741 
Q 263 978 88 1153 
Q 1119 1866 1850 2728 
L 194 2728 
L 194 3166 
L 2197 3166 
Q 2394 3434 2563 3716 
L 3094 3628 
Q 2947 3391 2791 3166 
L 6231 3166 
L 6231 2728 
L 2469 2728 
Q 2156 2319 1800 1947 
L 3113 1947 
L 3113 2547 
z
M 744 4866 
L 969 5266 
Q 2116 4969 3341 4603 
Q 4247 4925 5119 5353 
L 5419 4991 
Q 4734 4663 4038 4391 
Q 4906 4122 5813 3822 
L 5563 3372 
Q 4397 3794 3331 4131 
Q 1991 3672 600 3409 
Q 525 3616 394 3859 
Q 1519 4034 2597 4359 
Q 1625 4650 744 4866 
z
" transform="scale(0.015625)"/>
      <path id="MicrosoftYaHei-8fde" d="M 1850 1391 
L 3950 1391 
L 3950 2259 
L 2131 2259 
L 2131 2703 
Q 2513 3369 2825 4116 
L 1925 4116 
L 1925 4553 
L 3000 4553 
Q 3150 4947 3281 5359 
L 3806 5247 
Q 3672 4894 3531 4553 
L 6088 4553 
L 6088 4116 
L 3350 4116 
Q 3031 3372 2694 2697 
L 3950 2697 
L 3950 3778 
L 4450 3778 
L 4450 2697 
L 6050 2697 
L 6050 2259 
L 4450 2259 
L 4450 1391 
L 6225 1391 
L 6225 953 
L 4450 953 
L 4450 -78 
L 3950 -78 
L 3950 953 
L 1850 953 
L 1850 1391 
z
M 2650 -216 
L 3931 -247 
L 6319 -191 
Q 6213 -441 6113 -672 
L 3944 -697 
L 2594 -666 
Q 1588 -653 1088 47 
Q 906 -97 356 -753 
L 88 -222 
Q 478 131 863 459 
L 863 2641 
L 150 2641 
L 150 3097 
L 1350 3097 
L 1350 369 
Q 1806 -188 2650 -216 
z
M 856 5203 
Q 1288 4659 1688 4084 
L 1244 3772 
Q 875 4359 456 4934 
L 856 5203 
z
" transform="scale(0.015625)"/>
      <path id="MicrosoftYaHei-7eed" d="M 2263 3584 
L 3975 3584 
L 3975 4216 
L 2506 4216 
L 2506 4641 
L 3975 4641 
L 3975 5303 
L 4450 5303 
L 4450 4641 
L 5938 4641 
L 5938 4216 
L 4450 4216 
L 4450 3584 
L 6231 3584 
L 6231 3159 
Q 5944 2609 5644 2191 
Q 5400 2303 5194 2359 
Q 5494 2759 5719 3159 
L 2263 3159 
L 2263 3584 
z
M 2238 1141 
L 4119 1141 
Q 4263 1716 4250 2941 
L 4706 2941 
Q 4706 1753 4588 1141 
L 6238 1141 
L 6238 716 
L 4588 716 
Q 5444 147 6294 -478 
L 5944 -866 
Q 5206 -222 4306 391 
Q 3744 -491 2281 -903 
Q 2175 -691 2019 -466 
Q 3556 -47 3956 716 
L 2238 716 
L 2238 1141 
z
M 838 1672 
Q 1519 1734 2113 1822 
Q 2088 1553 2069 1397 
Q 1338 1309 294 1159 
L 194 1616 
Q 581 1947 1144 2903 
Q 569 2866 213 2834 
L 88 3247 
Q 563 3897 1131 5278 
L 1606 5103 
Q 1044 4003 606 3284 
Q 938 3284 1363 3297 
Q 1581 3697 1825 4184 
L 2263 3978 
Q 1469 2572 838 1672 
z
M 131 172 
Q 1113 334 2150 547 
Q 2125 209 2125 84 
Q 1213 -97 269 -303 
L 131 172 
z
M 2338 1953 
L 2588 2247 
Q 3200 1866 3531 1578 
L 3244 1234 
Q 2963 1503 2338 1953 
z
M 2775 2647 
L 3031 2947 
Q 3531 2666 3963 2316 
L 3681 1978 
Q 3281 2303 2775 2647 
z
" transform="scale(0.015625)"/>
      <path id="MicrosoftYaHei-6027" d="M 1963 -153 
L 3988 -153 
L 3988 1522 
L 2375 1522 
L 2375 1959 
L 3988 1959 
L 3988 3472 
L 2975 3472 
Q 2744 2878 2438 2291 
Q 2169 2509 2019 2578 
Q 2644 3709 2894 4891 
L 3388 4759 
Q 3281 4328 3138 3909 
L 3988 3909 
L 3988 5284 
L 4481 5284 
L 4481 3909 
L 6125 3909 
L 6125 3472 
L 4481 3472 
L 4481 1959 
L 6000 1959 
L 6000 1522 
L 4481 1522 
L 4481 -153 
L 6319 -153 
L 6319 -591 
L 1963 -591 
L 1963 -153 
z
M 988 5291 
L 1469 5291 
L 1469 4091 
L 1738 4241 
Q 2063 3734 2294 3291 
L 1906 3041 
Q 1688 3503 1469 3859 
L 1469 -872 
L 988 -872 
L 988 5291 
z
M 406 3878 
L 819 3784 
Q 706 3028 506 2178 
Q 338 2241 75 2297 
Q 263 2978 406 3878 
z
" transform="scale(0.015625)"/>
     </defs>
     <use xlink:href="#MicrosoftYaHei-8eab"/>
     <use xlink:href="#MicrosoftYaHei-4efd" transform="translate(100 0)"/>
     <use xlink:href="#MicrosoftYaHei-3001" transform="translate(200 0)"/>
     <use xlink:href="#MicrosoftYaHei-54c8" transform="translate(300 0)"/>
     <use xlink:href="#MicrosoftYaHei-5e0c" transform="translate(400 0)"/>
     <use xlink:href="#MicrosoftYaHei-3001" transform="translate(500 0)"/>
     <use xlink:href="#MicrosoftYaHei-8fde" transform="translate(600 0)"/>
     <use xlink:href="#MicrosoftYaHei-7eed" transform="translate(700 0)"/>
     <use xlink:href="#MicrosoftYaHei-6027" transform="translate(800 0)"/>
    </g>
   </g>
   <g id="text_7">
    <!-- 同一批事实 → 一致状态 -->
    <g style="fill: #26816b" transform="translate(652.353187 393.747302) scale(0.19 -0.19)">
     <defs>
      <path id="MicrosoftYaHei-4e00" d="M 100 2703 
L 6313 2703 
L 6313 2153 
L 100 2153 
L 100 2703 
z
" transform="scale(0.015625)"/>
      <path id="MicrosoftYaHei-6279" d="M 4125 5247 
L 4613 5247 
L 4613 2928 
Q 5297 3519 5856 4178 
L 6244 3828 
Q 5381 2944 4613 2313 
L 4613 172 
Q 4613 -203 4931 -203 
L 5300 -203 
Q 5675 -203 5731 141 
Q 5806 522 5850 1191 
Q 6081 1091 6325 1009 
Q 6269 422 6194 -9 
Q 6081 -678 5475 -678 
L 4869 -678 
Q 4125 -678 4125 84 
L 4125 5247 
z
M 81 1916 
Q 503 2031 969 2178 
L 969 3634 
L 163 3634 
L 163 4084 
L 969 4084 
L 969 5316 
L 1456 5316 
L 1456 4084 
L 2138 4084 
L 2138 3634 
L 1456 3634 
L 1456 2331 
Q 1775 2438 2113 2553 
Q 2094 2284 2088 2053 
Q 1784 1941 1456 1825 
L 1456 -84 
Q 1456 -741 869 -766 
Q 619 -778 288 -772 
Q 263 -522 213 -259 
Q 500 -291 731 -291 
Q 969 -291 969 -34 
L 969 1659 
Q 578 1528 156 1391 
L 81 1916 
z
M 3944 716 
Q 3963 434 3994 191 
Q 3194 -303 2869 -528 
Q 2688 -659 2563 -791 
L 2231 -384 
Q 2431 -203 2431 147 
L 2431 5247 
L 2919 5247 
L 2919 3334 
L 3950 3334 
L 3950 2872 
L 2919 2872 
L 2919 78 
Q 3338 322 3944 716 
z
" transform="scale(0.015625)"/>
      <path id="MicrosoftYaHei-2192" d="M 4859 3766 
Q 5241 3344 5514 3125 
Q 5788 2906 6150 2713 
L 6150 2572 
Q 5788 2381 5517 2164 
Q 5247 1947 4859 1519 
L 4622 1519 
Q 4766 1822 4866 1983 
Q 4966 2144 5141 2369 
L 247 2369 
L 247 2916 
L 5141 2916 
Q 4972 3131 4869 3298 
Q 4766 3466 4622 3766 
L 4859 3766 
z
" transform="scale(0.015625)"/>
      <path id="MicrosoftYaHei-81f4" d="M 3006 3053 
Q 3606 4109 3994 5366 
L 4450 5209 
Q 4269 4694 4066 4216 
L 6213 4216 
L 6213 3772 
L 5638 3772 
Q 5575 1784 4875 725 
Q 5463 47 6344 -353 
Q 6138 -603 5963 -809 
Q 5088 -306 4572 316 
Q 4044 -306 3025 -872 
Q 2925 -716 2713 -453 
Q 3778 94 4284 697 
Q 3663 1581 3509 3078 
Q 3409 2897 3306 2722 
Q 3194 2859 3006 3053 
z
M 188 4978 
L 3138 4978 
L 3138 4534 
L 1706 4534 
Q 1266 3628 938 3097 
Q 1694 3134 2288 3169 
Q 2116 3544 1931 3909 
L 2325 4097 
Q 2763 3278 3119 2478 
Q 2875 2359 2675 2266 
Q 2575 2516 2469 2763 
Q 1550 2691 856 2622 
Q 606 2578 413 2516 
L 181 2947 
Q 406 3072 556 3297 
Q 863 3791 1191 4534 
L 188 4534 
L 188 4978 
z
M 106 47 
Q 738 106 1388 175 
L 1388 1234 
L 244 1234 
L 244 1678 
L 1388 1678 
L 1388 2459 
L 1875 2459 
L 1875 1678 
L 3063 1678 
L 3063 1234 
L 1875 1234 
L 1875 231 
Q 2488 303 3119 384 
Q 3125 253 3150 -59 
Q 1813 -241 231 -434 
L 106 47 
z
M 4575 1109 
Q 5109 2028 5153 3772 
L 3891 3772 
Q 3978 1997 4575 1109 
z
" transform="scale(0.015625)"/>
     </defs>
     <use xlink:href="#MicrosoftYaHei-540c"/>
     <use xlink:href="#MicrosoftYaHei-4e00" transform="translate(100 0)"/>
     <use xlink:href="#MicrosoftYaHei-6279" transform="translate(200 0)"/>
     <use xlink:href="#MicrosoftYaHei-4e8b" transform="translate(300 0)"/>
     <use xlink:href="#MicrosoftYaHei-5b9e" transform="translate(400 0)"/>
     <use xlink:href="#MicrosoftYaHei-20" transform="translate(500 0)"/>
     <use xlink:href="#MicrosoftYaHei-2192" transform="translate(529.589844 0)"/>
     <use xlink:href="#MicrosoftYaHei-20" transform="translate(629.589844 0)"/>
     <use xlink:href="#MicrosoftYaHei-4e00" transform="translate(659.179688 0)"/>
     <use xlink:href="#MicrosoftYaHei-81f4" transform="translate(759.179688 0)"/>
     <use xlink:href="#MicrosoftYaHei-72b6" transform="translate(859.179688 0)"/>
     <use xlink:href="#MicrosoftYaHei-6001" transform="translate(959.179688 0)"/>
    </g>
   </g>
   <g id="text_8">
    <!-- 无需重新执行模型；可丢弃的投影缓存不是事实源。 -->
    <g style="fill: #20344b" transform="translate(262.5 467.081443) scale(0.21 -0.21)">
     <defs>
      <path id="MicrosoftYaHei-65e0" d="M 200 2878 
L 2650 2878 
Q 2781 3528 2806 4328 
L 675 4328 
L 675 4816 
L 5750 4816 
L 5750 4328 
L 3331 4328 
Q 3288 3528 3169 2878 
L 6225 2878 
L 6225 2391 
L 3063 2391 
Q 2588 278 450 -884 
Q 313 -672 113 -441 
Q 1975 491 2538 2391 
L 200 2391 
L 200 2878 
z
M 3400 1941 
L 3906 1941 
L 3906 297 
Q 3906 -197 4363 -197 
L 5219 -197 
Q 5644 -197 5700 172 
Q 5750 528 5775 1097 
Q 6013 1009 6300 916 
Q 6238 297 6188 -16 
Q 6106 -641 5300 -641 
L 4219 -641 
Q 3400 -641 3400 222 
L 3400 1941 
z
" transform="scale(0.015625)"/>
      <path id="MicrosoftYaHei-9700" d="M 1188 -822 
L 713 -822 
L 713 1228 
L 2750 1228 
L 2853 1716 
L 125 1716 
L 125 2103 
L 6275 2103 
L 6275 1716 
L 3338 1716 
L 3213 1228 
L 5719 1228 
L 5719 -172 
Q 5719 -791 5100 -791 
Q 4800 -791 4444 -778 
Q 4425 -572 4356 -297 
Q 4725 -334 4963 -334 
Q 5244 -334 5244 -84 
L 5244 841 
L 4169 841 
L 4169 -647 
L 3725 -647 
L 3725 841 
L 2688 841 
L 2688 -647 
L 2244 -647 
L 2244 841 
L 1188 841 
L 1188 -822 
z
M 338 4266 
L 2975 4266 
L 2975 4628 
L 650 4628 
L 650 5016 
L 5700 5016 
L 5700 4628 
L 3419 4628 
L 3419 4266 
L 6063 4266 
L 6063 3103 
L 5581 3103 
L 5581 3878 
L 3419 3878 
L 3419 2391 
L 2975 2391 
L 2975 3878 
L 819 3878 
L 819 3103 
L 338 3103 
L 338 4266 
z
M 3750 2816 
L 5219 2816 
L 5219 2478 
L 3750 2478 
L 3750 2816 
z
M 1175 3516 
L 2644 3516 
L 2644 3178 
L 1175 3178 
L 1175 3516 
z
M 1175 2816 
L 2644 2816 
L 2644 2478 
L 1175 2478 
L 1175 2816 
z
M 3750 3516 
L 5219 3516 
L 5219 3178 
L 3750 3178 
L 3750 3516 
z
" transform="scale(0.015625)"/>
      <path id="MicrosoftYaHei-65b0" d="M 3594 4797 
Q 4888 4809 5981 5053 
L 6144 4572 
Q 4906 4409 4038 4359 
L 4038 2903 
L 6319 2903 
L 6319 2478 
L 5425 2478 
L 5425 -797 
L 4963 -797 
L 4963 2478 
L 4038 2478 
L 4038 2172 
Q 4038 253 3119 -816 
Q 2969 -622 2788 -416 
Q 3594 466 3594 2191 
L 3594 4797 
z
M 263 1991 
L 1538 1991 
L 1538 2584 
L 1988 2584 
L 1988 1991 
L 3213 1991 
L 3213 1591 
L 1988 1591 
L 1988 -41 
Q 1988 -703 1350 -703 
Q 1081 -703 744 -697 
Q 719 -491 675 -222 
Q 1038 -259 1244 -259 
Q 1538 -259 1538 59 
L 1538 1591 
L 263 1591 
L 263 1991 
z
M 88 3159 
L 1094 3159 
Q 828 3581 594 3884 
L 931 4122 
Q 1138 3872 1463 3416 
L 1109 3159 
L 1934 3159 
Q 2275 3650 2563 4128 
L 3006 3878 
Q 2703 3488 2428 3159 
L 3375 3159 
L 3375 2759 
L 88 2759 
L 88 3159 
z
M 288 4609 
L 1638 4609 
Q 1503 4866 1331 5166 
L 1731 5353 
Q 1925 5034 2094 4709 
L 1884 4609 
L 3213 4609 
L 3213 4209 
L 288 4209 
L 288 4609 
z
M 744 1309 
L 1169 1109 
Q 831 403 500 -166 
Q 319 -53 88 59 
Q 394 534 744 1309 
z
M 2544 1278 
Q 2894 803 3156 403 
L 2756 128 
Q 2481 609 2175 1034 
L 2544 1278 
z
" transform="scale(0.015625)"/>
      <path id="MicrosoftYaHei-6a21" d="M 2050 984 
L 3859 984 
Q 3900 1213 3913 1547 
L 2950 1547 
L 2950 1372 
L 2500 1372 
L 2500 3634 
L 5844 3634 
L 5844 1372 
L 5394 1372 
L 5394 1547 
L 4344 1547 
Q 4325 1203 4288 984 
L 6250 984 
L 6250 584 
L 4525 584 
Q 5203 -175 6319 -341 
Q 6144 -572 6013 -809 
Q 4803 -456 4128 466 
Q 3681 -431 2075 -847 
Q 1969 -628 1831 -416 
Q 3303 -106 3713 584 
L 2050 584 
L 2050 984 
z
M 63 1409 
Q 603 2316 922 3509 
L 138 3509 
L 138 3922 
L 1006 3922 
L 1006 5309 
L 1444 5309 
L 1444 3922 
L 2256 3922 
L 2256 3509 
L 1444 3509 
L 1444 2684 
L 1688 2884 
Q 2044 2503 2350 2116 
L 2006 1828 
Q 1719 2244 1444 2563 
L 1444 -822 
L 1006 -822 
L 1006 2581 
Q 672 1438 275 859 
Q 188 1128 63 1409 
z
M 4713 5303 
L 5150 5303 
L 5150 4703 
L 6225 4703 
L 6225 4303 
L 5150 4303 
L 5150 3797 
L 4713 3797 
L 4713 4303 
L 3600 4303 
L 3600 3797 
L 3163 3797 
L 3163 4303 
L 2175 4303 
L 2175 4703 
L 3163 4703 
L 3163 5309 
L 3600 5309 
L 3600 4703 
L 4713 4703 
L 4713 5303 
z
M 5394 3247 
L 2950 3247 
L 2950 2778 
L 5394 2778 
L 5394 3247 
z
M 2950 1934 
L 5394 1934 
L 5394 2403 
L 2950 2403 
L 2950 1934 
z
" transform="scale(0.015625)"/>
      <path id="MicrosoftYaHei-578b" d="M 150 3503 
L 1100 3503 
Q 1106 3638 1106 4547 
L 413 4547 
L 413 4959 
L 3675 4959 
L 3675 4547 
L 2994 4547 
L 2994 3503 
L 3881 3503 
L 3881 3091 
L 2994 3091 
L 2994 1747 
L 2538 1747 
L 2538 3091 
L 1528 3091 
Q 1450 2191 638 1534 
Q 475 1716 294 1897 
Q 1013 2453 1066 3091 
L 150 3091 
L 150 3503 
z
M 138 -103 
L 2938 -103 
L 2938 741 
L 706 741 
L 706 1172 
L 2938 1172 
L 2938 1659 
L 3425 1659 
L 3425 1172 
L 5713 1172 
L 5713 741 
L 3425 741 
L 3425 -103 
L 6256 -103 
L 6256 -534 
L 138 -534 
L 138 -103 
z
M 5856 5209 
L 5856 2334 
Q 5856 1672 5200 1659 
Q 4825 1647 4331 1659 
Q 4306 1897 4256 2153 
Q 4781 2122 5044 2122 
Q 5400 2122 5400 2516 
L 5400 5209 
L 5856 5209 
z
M 1556 3503 
L 2538 3503 
L 2538 4547 
L 1563 4547 
Q 1563 3791 1556 3503 
z
M 4138 4859 
L 4588 4859 
L 4588 2697 
L 4138 2697 
L 4138 4859 
z
" transform="scale(0.015625)"/>
      <path id="MicrosoftYaHei-53ef" d="M 813 3409 
L 3569 3409 
L 3569 941 
L 1306 941 
L 1306 497 
L 813 497 
L 813 3409 
z
M 119 4809 
L 6294 4809 
L 6294 4334 
L 5256 4334 
L 5256 103 
Q 5256 -741 4438 -747 
Q 3850 -747 3294 -741 
Q 3263 -453 3194 -172 
Q 3900 -222 4269 -222 
Q 4731 -222 4731 278 
L 4731 4334 
L 119 4334 
L 119 4809 
z
M 3075 2966 
L 1306 2966 
L 1306 1384 
L 3075 1384 
L 3075 2966 
z
" transform="scale(0.015625)"/>
      <path id="MicrosoftYaHei-4e22" d="M 4219 1191 
Q 5075 397 5906 -541 
L 5456 -866 
Q 5256 -616 5025 -350 
Q 2953 -425 1394 -541 
Q 1213 -559 856 -641 
L 600 -147 
Q 931 -16 1188 166 
Q 1806 669 2394 1447 
L 169 1447 
L 169 1891 
L 2938 1891 
L 2938 2916 
L 575 2916 
L 575 3359 
L 2938 3359 
L 2938 4416 
Q 1859 4372 663 4334 
Q 619 4572 563 4816 
Q 3469 4884 5706 5041 
L 5781 4559 
Q 4713 4494 3469 4441 
L 3469 3359 
L 5825 3359 
L 5825 2916 
L 3469 2916 
L 3469 1891 
L 6238 1891 
L 6238 1447 
L 3063 1447 
Q 2388 641 1650 -41 
Q 2353 -22 4659 59 
Q 4284 466 3844 909 
L 4219 1191 
z
" transform="scale(0.015625)"/>
      <path id="MicrosoftYaHei-5f03" d="M 200 4534 
L 3072 4534 
Q 2884 4841 2700 5103 
L 3125 5353 
Q 3369 5047 3613 4653 
L 3391 4534 
L 6206 4534 
L 6206 4084 
L 2869 4084 
Q 2366 3528 1725 2934 
Q 3225 2941 4516 2978 
Q 4231 3269 3938 3547 
L 4281 3841 
Q 5056 3159 5763 2416 
L 5363 2059 
Q 5141 2313 4916 2556 
Q 2978 2528 1575 2447 
Q 1388 2434 1038 2372 
L 806 2878 
Q 1088 2978 1319 3178 
Q 1806 3606 2206 4084 
L 200 4084 
L 200 4534 
z
M 138 1459 
L 1725 1459 
Q 1759 1794 1756 2209 
L 2250 2209 
Q 2256 1800 2231 1459 
L 4188 1459 
L 4188 2222 
L 4688 2222 
L 4688 1459 
L 6281 1459 
L 6281 1009 
L 4688 1009 
L 4688 -809 
L 4188 -809 
L 4188 1009 
L 2175 1009 
Q 2013 -184 675 -872 
Q 531 -678 300 -459 
Q 1500 116 1653 1009 
L 138 1009 
L 138 1459 
z
" transform="scale(0.015625)"/>
      <path id="MicrosoftYaHei-6295" d="M 2450 1997 
L 2450 2434 
L 5663 2434 
L 5663 2003 
Q 5238 1013 4466 338 
Q 5213 -131 6344 -316 
Q 6169 -547 6031 -791 
Q 4863 -534 4081 38 
Q 3238 -553 2056 -841 
Q 1919 -584 1781 -403 
Q 2916 -166 3713 350 
Q 3025 1009 2731 1997 
L 2450 1997 
z
M 94 1966 
Q 531 2084 1006 2231 
L 1006 3609 
L 175 3609 
L 175 4047 
L 1006 4047 
L 1006 5259 
L 1475 5259 
L 1475 4047 
L 2231 4047 
L 2231 3609 
L 1475 3609 
L 1475 2378 
Q 1797 2481 2138 2597 
Q 2131 2397 2150 2109 
Q 1809 2003 1475 1894 
L 1475 -72 
Q 1475 -753 869 -753 
L 263 -753 
Q 238 -534 181 -222 
Q 531 -259 750 -259 
Q 1006 -259 1006 41 
L 1006 1741 
Q 578 1597 156 1447 
L 94 1966 
z
M 5619 3366 
L 6319 3366 
Q 6256 3141 6213 2909 
L 5550 2909 
Q 4831 2909 4831 3597 
L 4831 4578 
L 3444 4578 
L 3444 4347 
Q 3450 3141 2488 2547 
Q 2331 2753 2150 2928 
Q 2975 3378 2975 4347 
L 2975 5016 
L 5300 5016 
L 5300 3666 
Q 5300 3366 5619 3366 
z
M 5144 1997 
L 3184 1997 
Q 3447 1166 4084 619 
Q 4769 1178 5144 1997 
z
" transform="scale(0.015625)"/>
      <path id="MicrosoftYaHei-5f71" d="M 119 2734 
L 1803 2734 
Q 1713 2903 1613 3053 
L 1897 3191 
L 875 3191 
L 875 3028 
L 450 3028 
L 450 5041 
L 3563 5041 
L 3563 3028 
L 3138 3028 
L 3138 3191 
L 2047 3191 
Q 2188 2972 2303 2734 
L 3969 2734 
L 3969 2372 
L 119 2372 
L 119 2734 
z
M 550 2016 
L 3475 2016 
L 3475 703 
L 3050 703 
L 3050 797 
L 2275 797 
L 2275 -72 
Q 2275 -791 1625 -791 
Q 1406 -791 1050 -784 
Q 1025 -559 969 -341 
Q 1288 -384 1513 -384 
Q 1844 -384 1844 -22 
L 1844 797 
L 975 797 
L 975 703 
L 550 703 
L 550 2016 
z
M 3600 -497 
Q 5038 378 5913 1734 
L 6300 1447 
Q 5319 -9 3931 -866 
Q 3763 -634 3600 -497 
z
M 3825 1784 
Q 4913 2522 5756 3634 
L 6144 3328 
Q 5200 2178 4150 1409 
Q 3981 1628 3825 1784 
z
M 3756 3616 
Q 4681 4203 5469 5222 
L 5856 4934 
Q 5075 3928 4088 3259 
Q 3906 3478 3756 3616 
z
M 3050 1678 
L 975 1678 
L 975 1134 
L 3050 1134 
L 3050 1678 
z
M 3138 4691 
L 875 4691 
L 875 4278 
L 3138 4278 
L 3138 4691 
z
M 875 3541 
L 3138 3541 
L 3138 3953 
L 875 3953 
L 875 3541 
z
M 81 -347 
Q 525 22 1019 609 
L 1381 359 
Q 838 -278 400 -634 
L 81 -347 
z
M 2575 372 
L 2869 641 
Q 3225 359 3675 -47 
L 3350 -366 
Q 3019 3 2575 372 
z
" transform="scale(0.015625)"/>
      <path id="MicrosoftYaHei-7f13" d="M 2150 2566 
L 2981 2566 
Q 3006 2819 3016 3091 
L 2275 3091 
L 2275 3478 
L 4784 3478 
Q 5081 3959 5363 4516 
L 5800 4266 
Q 5478 3778 5263 3478 
L 6138 3478 
L 6138 3091 
L 3447 3091 
Q 3441 2822 3416 2566 
L 6238 2566 
L 6238 2178 
L 3369 2178 
Q 3328 1922 3269 1678 
L 5663 1678 
L 5663 1297 
Q 5244 616 4650 128 
Q 5347 -241 6300 -322 
Q 6175 -572 6069 -791 
Q 5006 -641 4259 -156 
Q 3544 -625 2613 -859 
Q 2506 -666 2375 -447 
Q 3231 -250 3881 122 
Q 3409 528 3097 1100 
Q 2741 106 2013 -603 
Q 1938 -459 1744 -197 
Q 2675 713 2928 2178 
L 2150 2178 
L 2150 2566 
z
M 863 1641 
Q 1481 1716 2100 1803 
Q 2081 1609 2075 1359 
Q 1069 1241 350 1122 
L 244 1566 
Q 625 1975 1184 2934 
Q 503 2900 225 2853 
L 138 3284 
Q 606 3922 1138 5284 
L 1625 5134 
Q 1119 4091 663 3303 
Q 1166 3313 1403 3319 
Q 1619 3706 1856 4166 
L 2294 3966 
Q 1538 2622 863 1641 
z
M 2325 4434 
Q 2288 4647 2238 4878 
Q 4194 4928 5994 5109 
L 6081 4659 
Q 4725 4534 2325 4434 
z
M 5156 1291 
L 3416 1291 
Q 3756 734 4263 369 
Q 4794 756 5156 1291 
z
M 181 259 
Q 894 422 2050 691 
Q 2031 553 2031 228 
Q 994 -16 300 -216 
L 181 259 
z
M 3769 4328 
L 4163 4478 
Q 4338 4153 4506 3703 
L 4081 3547 
Q 3963 3916 3769 4328 
z
M 2519 4203 
L 2881 4397 
Q 3088 4116 3306 3722 
L 2906 3503 
Q 2706 3916 2519 4203 
z
" transform="scale(0.015625)"/>
      <path id="MicrosoftYaHei-5b58" d="M 169 4641 
L 1925 4641 
Q 2053 4991 2163 5359 
L 2675 5228 
Q 2578 4928 2472 4641 
L 6275 4641 
L 6275 4178 
L 2291 4178 
Q 1963 3384 1563 2709 
L 1563 -797 
L 1081 -797 
L 1081 1984 
Q 747 1528 369 1141 
Q 244 1359 69 1591 
Q 1113 2688 1744 4178 
L 169 4178 
L 169 4641 
z
M 1838 1791 
L 3994 1791 
L 3994 2203 
Q 4656 2628 5156 3047 
L 2256 3047 
L 2256 3503 
L 5869 3503 
L 5869 2997 
Q 5231 2491 4475 1978 
L 4475 1791 
L 6319 1791 
L 6319 1334 
L 4475 1334 
L 4475 -72 
Q 4475 -784 3763 -784 
Q 3425 -784 2856 -766 
Q 2825 -528 2775 -259 
Q 3375 -322 3663 -322 
Q 3994 -322 3994 9 
L 3994 1334 
L 1838 1334 
L 1838 1791 
z
" transform="scale(0.015625)"/>
      <path id="MicrosoftYaHei-6e90" d="M 2931 3741 
L 3744 3741 
Q 3878 4094 4006 4478 
L 2425 4478 
L 2425 2678 
Q 2425 222 1463 -841 
Q 1313 -647 1100 -453 
Q 1963 509 1963 2672 
L 1963 4903 
L 6300 4903 
L 6300 4478 
L 4547 4478 
Q 4375 4103 4194 3741 
L 5844 3741 
L 5844 1178 
L 5394 1178 
L 5394 1341 
L 4588 1341 
L 4588 -128 
Q 4588 -797 3938 -797 
Q 3725 -797 3394 -791 
Q 3363 -603 3306 -359 
Q 3619 -384 3850 -384 
Q 4138 -384 4138 -84 
L 4138 1341 
L 3381 1341 
L 3381 1178 
L 2931 1178 
L 2931 3741 
z
M 831 1878 
Q 1056 1734 1275 1666 
Q 1019 603 700 -766 
L 219 -603 
Q 581 678 831 1878 
z
M 3381 1753 
L 5394 1753 
L 5394 2347 
L 3381 2347 
L 3381 1753 
z
M 5394 3328 
L 3381 3328 
L 3381 2747 
L 5394 2747 
L 5394 3328 
z
M 6288 -241 
L 5894 -541 
Q 5450 128 4931 759 
L 5294 1016 
Q 5863 353 6288 -241 
z
M 2363 -297 
Q 2894 272 3306 984 
L 3706 741 
Q 3231 -16 2731 -584 
L 2363 -297 
z
M 400 3622 
Q 888 3272 1500 2784 
Q 1281 2522 1144 2378 
Q 544 2909 88 3266 
L 400 3622 
z
M 669 5228 
Q 1163 4859 1688 4384 
Q 1469 4172 1313 4003 
Q 769 4541 350 4884 
L 669 5228 
z
" transform="scale(0.015625)"/>
     </defs>
     <use xlink:href="#MicrosoftYaHei-65e0"/>
     <use xlink:href="#MicrosoftYaHei-9700" transform="translate(100 0)"/>
     <use xlink:href="#MicrosoftYaHei-91cd" transform="translate(200 0)"/>
     <use xlink:href="#MicrosoftYaHei-65b0" transform="translate(300 0)"/>
     <use xlink:href="#MicrosoftYaHei-6267" transform="translate(400 0)"/>
     <use xlink:href="#MicrosoftYaHei-884c" transform="translate(500 0)"/>
     <use xlink:href="#MicrosoftYaHei-6a21" transform="translate(600 0)"/>
     <use xlink:href="#MicrosoftYaHei-578b" transform="translate(700 0)"/>
     <use xlink:href="#MicrosoftYaHei-ff1b" transform="translate(800 0)"/>
     <use xlink:href="#MicrosoftYaHei-53ef" transform="translate(900 0)"/>
     <use xlink:href="#MicrosoftYaHei-4e22" transform="translate(1000 0)"/>
     <use xlink:href="#MicrosoftYaHei-5f03" transform="translate(1100 0)"/>
     <use xlink:href="#MicrosoftYaHei-7684" transform="translate(1200 0)"/>
     <use xlink:href="#MicrosoftYaHei-6295" transform="translate(1300 0)"/>
     <use xlink:href="#MicrosoftYaHei-5f71" transform="translate(1400 0)"/>
     <use xlink:href="#MicrosoftYaHei-7f13" transform="translate(1500 0)"/>
     <use xlink:href="#MicrosoftYaHei-5b58" transform="translate(1600 0)"/>
     <use xlink:href="#MicrosoftYaHei-4e0d" transform="translate(1700 0)"/>
     <use xlink:href="#MicrosoftYaHei-662f" transform="translate(1800 0)"/>
     <use xlink:href="#MicrosoftYaHei-4e8b" transform="translate(1900 0)"/>
     <use xlink:href="#MicrosoftYaHei-5b9e" transform="translate(2000 0)"/>
     <use xlink:href="#MicrosoftYaHei-6e90" transform="translate(2100 0)"/>
     <use xlink:href="#MicrosoftYaHei-3002" transform="translate(2200 0)"/>
    </g>
   </g>
  </g>
 </g>
 <defs>
  <clipPath id="pc4e86bcffa">
   <rect x="25.2" y="8.424" width="957.6" height="539.136"/>
  </clipPath>
 </defs>
</svg>
