<?xml version="1.0" encoding="utf-8" standalone="no"?>
<!DOCTYPE svg PUBLIC "-//W3C//DTD SVG 1.1//EN"
  "http://www.w3.org/Graphics/SVG/1.1/DTD/svg11.dtd">
<svg xmlns:xlink="http://www.w3.org/1999/xlink" width="1008pt" height="482.4pt" viewBox="0 0 1008 482.4" xmlns="http://www.w3.org/2000/svg" version="1.1">
 <metadata>
  <rdf:RDF xmlns:dc="http://purl.org/dc/elements/1.1/" xmlns:cc="http://creativecommons.org/ns#" xmlns:rdf="http://www.w3.org/1999/02/22-rdf-syntax-ns#">
   <cc:Work>
    <dc:type rdf:resource="http://purl.org/dc/dcmitype/StillImage"/>
    <dc:date>2026-09-26T12:24:16.870273</dc:date>
    <dc:format>image/svg+xml</dc:format>
    <dc:creator>
     <cc:Agent>
      <dc:title>Matplotlib v3.10.6, https://matplotlib.org/</dc:title>
     </cc:Agent>
    </dc:creator>
   </cc:Work>
  </rdf:RDF>
 </metadata>
 <defs>
  <style type="text/css">*{stroke-linejoin: round; stroke-linecap: butt}</style>
 </defs>
 <g id="figure_1">
  <g id="patch_1">
   <path d="M 0 482.4 
L 1008 482.4 
L 1008 0 
L 0 0 
z
" style="fill: #ffffff"/>
  </g>
  <g id="axes_1">
   <g id="patch_2">
    <path d="M 53.928 197.909424 
L 954.072 197.909424 
L 954.072 140.166144 
L 53.928 140.166144 
z
" clip-path="url(#pa980350539)" style="fill: #edf4fc; stroke: #ffffff; stroke-width: 2; stroke-linejoin: miter"/>
   </g>
   <g id="patch_3">
    <path d="M 53.928 262.068624 
L 954.072 262.068624 
L 954.072 204.325344 
L 53.928 204.325344 
z
" clip-path="url(#pa980350539)" style="fill: #eaf5ef; stroke: #ffffff; stroke-width: 2; stroke-linejoin: miter"/>
   </g>
   <g id="patch_4">
    <path d="M 53.928 326.227824 
L 954.072 326.227824 
L 954.072 268.484544 
L 53.928 268.484544 
z
" clip-path="url(#pa980350539)" style="fill: #edf4fc; stroke: #ffffff; stroke-width: 2; stroke-linejoin: miter"/>
   </g>
   <g id="patch_5">
    <path d="M 53.928 390.387024 
L 954.072 390.387024 
L 954.072 332.643744 
L 53.928 332.643744 
z
" clip-path="url(#pa980350539)" style="fill: #eaf5ef; stroke: #ffffff; stroke-width: 2; stroke-linejoin: miter"/>
   </g>
   <g id="text_1">
    <!-- 设计交付与运行交付，各自完成到哪里 -->
    <g style="fill: #20344b" transform="translate(308.5 42.562224) scale(0.23 -0.23)">
     <defs>
      <path id="MicrosoftYaHei-8bbe" d="M 2231 2116 
L 2231 2547 
L 5638 2547 
L 5638 2116 
Q 5144 1031 4419 416 
Q 5216 -109 6338 -316 
Q 6119 -597 5956 -822 
Q 4841 -500 4013 113 
Q 3163 -463 1863 -872 
Q 1700 -641 1538 -422 
Q 2778 -88 3613 431 
Q 2888 1131 2559 2116 
L 2231 2116 
z
M 4856 4553 
L 3294 4553 
L 3294 4372 
Q 3294 3222 2244 2659 
Q 2075 2866 1881 3047 
Q 2806 3522 2806 4359 
L 2806 5016 
L 5344 5016 
L 5344 3741 
Q 5344 3459 5631 3459 
L 6319 3459 
Q 6288 3203 6269 2997 
L 5444 2997 
Q 4856 2997 4856 3647 
L 4856 4553 
z
M 2250 1028 
Q 2263 734 2294 472 
Q 1438 -84 1019 -422 
L 719 -9 
Q 931 197 931 553 
L 931 2778 
L 138 2778 
L 138 3228 
L 1406 3228 
L 1406 453 
Q 1813 722 2250 1028 
z
M 988 5128 
Q 1469 4653 1906 4166 
L 1469 3803 
Q 1013 4391 613 4803 
L 988 5128 
z
M 3031 2116 
Q 3347 1319 4022 713 
Q 4684 1225 5081 2116 
L 3031 2116 
z
" transform="scale(0.015625)"/>
      <path id="MicrosoftYaHei-8ba1" d="M 2100 3153 
L 3919 3153 
L 3919 5303 
L 4456 5303 
L 4456 3153 
L 6288 3153 
L 6288 2703 
L 4456 2703 
L 4456 -822 
L 3919 -822 
L 3919 2703 
L 2100 2703 
L 2100 3153 
z
M 2675 903 
Q 2694 578 2719 359 
Q 1719 -266 1069 -728 
L 769 -303 
Q 988 -116 988 266 
L 988 2741 
L 100 2741 
L 100 3191 
L 1488 3191 
L 1488 153 
Q 2031 484 2675 903 
z
M 738 5222 
Q 1419 4522 1725 4184 
L 1288 3816 
Q 894 4334 356 4891 
L 738 5222 
z
" transform="scale(0.015625)"/>
      <path id="MicrosoftYaHei-4ea4" d="M 4194 2641 
L 4675 2434 
Q 4209 1375 3566 713 
Q 4503 19 6225 -278 
Q 5994 -591 5850 -803 
Q 4184 -378 3194 375 
Q 2334 -297 463 -847 
Q 325 -628 150 -366 
Q 1909 78 2803 713 
Q 2184 1344 1738 2359 
L 2156 2597 
Q 2566 1669 3194 1041 
Q 3766 1609 4194 2641 
z
M 194 4384 
L 3122 4384 
Q 2975 4691 2700 5128 
L 3163 5353 
Q 3431 4978 3638 4566 
L 3288 4384 
L 6194 4384 
L 6194 3922 
L 194 3922 
L 194 4384 
z
M 2044 3634 
L 2444 3309 
Q 1569 2391 625 1666 
Q 469 1859 275 2066 
Q 1219 2734 2044 3634 
z
M 4288 3666 
Q 5431 2766 6075 2159 
Q 5900 1984 5700 1753 
Q 4994 2478 3944 3341 
L 4288 3666 
z
" transform="scale(0.015625)"/>
      <path id="MicrosoftYaHei-4ed8" d="M 1913 3897 
L 4775 3897 
L 4775 5266 
L 5281 5266 
L 5281 3897 
L 6188 3897 
L 6188 3422 
L 5281 3422 
L 5281 259 
Q 5281 -716 4400 -728 
Q 4106 -734 3463 -722 
Q 3431 -478 3363 -159 
Q 3963 -209 4288 -209 
Q 4575 -216 4675 -84 
Q 4775 34 4775 409 
L 4775 3422 
L 1913 3422 
L 1913 3897 
z
M 94 2341 
Q 963 3553 1519 5322 
L 2031 5128 
Q 1772 4431 1500 3831 
L 1500 -816 
L 1000 -816 
L 1000 2838 
Q 653 2222 288 1747 
Q 175 2166 94 2341 
z
M 2319 2434 
L 2738 2697 
Q 3119 2147 3631 1253 
L 3181 972 
Q 2744 1828 2319 2434 
z
" transform="scale(0.015625)"/>
      <path id="MicrosoftYaHei-4e0e" d="M 1163 2384 
L 1163 2859 
L 1413 5328 
L 1931 5328 
L 1834 4334 
L 6269 4334 
L 6269 3859 
L 1791 3859 
L 1694 2859 
L 5813 2859 
Q 5738 1547 5644 416 
Q 5556 -247 5263 -478 
Q 4981 -703 4322 -703 
Q 3706 -697 2900 -678 
Q 2863 -466 2794 -134 
Q 3744 -203 4213 -209 
Q 5050 -266 5125 447 
Q 5206 1278 5263 2384 
L 1163 2384 
z
M 106 1409 
L 4738 1409 
L 4738 934 
L 106 934 
L 106 1409 
z
" transform="scale(0.015625)"/>
      <path id="MicrosoftYaHei-8fd0" d="M 4319 2197 
L 4713 2447 
Q 5419 1522 5963 666 
L 5513 359 
Q 5372 597 5225 834 
Q 3450 722 2681 622 
Q 2469 591 2238 516 
L 2006 966 
Q 2250 1134 2413 1366 
Q 2838 2009 3250 2859 
L 1919 2859 
L 1919 3334 
L 6200 3334 
L 6200 2859 
L 3844 2859 
Q 3303 1866 2800 1116 
Q 3750 1172 4959 1253 
Q 4650 1731 4319 2197 
z
M 2756 -141 
L 4588 -178 
L 6313 -109 
Q 6206 -366 6113 -609 
L 4250 -622 
L 2650 -603 
Q 1656 -578 1156 122 
Q 769 -209 369 -697 
L 100 -166 
Q 116 -147 931 547 
L 931 2678 
L 131 2678 
L 131 3141 
L 1431 3141 
L 1431 459 
Q 1903 -125 2756 -141 
z
M 2338 4947 
L 5838 4947 
L 5838 4472 
L 2338 4472 
L 2338 4947 
z
M 794 5278 
Q 1275 4697 1744 4078 
L 1300 3778 
Q 881 4403 413 5003 
L 794 5278 
z
" transform="scale(0.015625)"/>
      <path id="MicrosoftYaHei-884c" d="M 2363 2978 
L 6319 2978 
L 6319 2509 
L 5106 2509 
L 5106 66 
Q 5106 -709 4325 -709 
Q 3800 -709 3256 -703 
Q 3219 -453 3163 -141 
Q 3650 -191 4144 -191 
Q 4575 -191 4575 234 
L 4575 2509 
L 2363 2509 
L 2363 2978 
z
M 100 1578 
Q 1069 2372 1863 3809 
L 2300 3541 
Q 1978 2984 1619 2500 
L 1619 -809 
L 1100 -809 
L 1100 1856 
Q 725 1431 319 1072 
Q 219 1334 100 1578 
z
M 2725 4866 
L 5969 4866 
L 5969 4397 
L 2725 4397 
L 2725 4866 
z
M 131 3559 
Q 1125 4328 1731 5347 
L 2181 5072 
Q 1456 3959 381 3078 
Q 269 3316 131 3559 
z
" transform="scale(0.015625)"/>
      <path id="MicrosoftYaHei-ff0c" d="M 1931 775 
L 1403 -891 
L 966 -891 
L 1350 775 
L 1931 775 
z
" transform="scale(0.015625)"/>
      <path id="MicrosoftYaHei-5404" d="M 1838 5366 
L 2325 5191 
Q 2191 4934 2038 4691 
L 5463 4691 
L 5463 4234 
Q 4819 3428 3806 2831 
Q 4881 2366 6375 2266 
Q 6169 1953 6025 1703 
Q 4388 1947 3272 2544 
Q 2022 1925 300 1578 
Q 169 1828 31 2059 
Q 1591 2303 2775 2844 
Q 2041 3347 1588 4038 
Q 1138 3444 569 2916 
Q 400 3122 225 3278 
Q 1288 4191 1838 5366 
z
M 1100 1666 
L 5363 1666 
L 5363 -803 
L 4875 -803 
L 4875 -441 
L 1588 -441 
L 1588 -803 
L 1100 -803 
L 1100 1666 
z
M 4875 1216 
L 1588 1216 
L 1588 -3 
L 4875 -3 
L 4875 1216 
z
M 4794 4241 
L 1988 4241 
Q 2494 3547 3275 3094 
Q 4153 3575 4794 4241 
z
" transform="scale(0.015625)"/>
      <path id="MicrosoftYaHei-81ea" d="M 775 4466 
L 2391 4466 
Q 2525 4828 2688 5328 
L 3219 5166 
Q 3059 4778 2909 4466 
L 5625 4466 
L 5625 -822 
L 5125 -822 
L 5125 -447 
L 1275 -447 
L 1275 -822 
L 775 -822 
L 775 4466 
z
M 1275 3 
L 5125 3 
L 5125 1053 
L 1275 1053 
L 1275 3 
z
M 1275 1497 
L 5125 1497 
L 5125 2534 
L 1275 2534 
L 1275 1497 
z
M 5125 4016 
L 1275 4016 
L 1275 2978 
L 5125 2978 
L 5125 4016 
z
" transform="scale(0.015625)"/>
      <path id="MicrosoftYaHei-5b8c" d="M 275 1959 
L 6150 1959 
L 6150 1516 
L 4131 1516 
L 4131 191 
Q 4131 -222 4538 -222 
L 5200 -222 
Q 5625 -222 5675 65 
Q 5725 353 5744 884 
Q 5969 797 6294 697 
Q 6250 184 6181 -141 
Q 6094 -678 5425 -678 
L 4406 -678 
Q 3625 -678 3625 122 
L 3625 1516 
L 2503 1516 
Q 2488 -247 438 -834 
Q 313 -628 125 -372 
Q 1975 78 2006 1516 
L 275 1516 
L 275 1959 
z
M 325 4534 
L 3000 4534 
Q 2878 4788 2688 5128 
L 3175 5353 
Q 3422 4878 3575 4534 
L 6075 4534 
L 6075 3384 
L 5563 3384 
L 5563 4091 
L 838 4091 
L 838 3384 
L 325 3384 
L 325 4534 
z
M 1050 3253 
L 5450 3253 
L 5450 2816 
L 1050 2816 
L 1050 3253 
z
" transform="scale(0.015625)"/>
      <path id="MicrosoftYaHei-6210" d="M 2750 -347 
Q 3472 138 4038 781 
Q 3675 1703 3609 3759 
L 1250 3759 
L 1250 2809 
L 3050 2809 
Q 3013 1616 2950 803 
Q 2875 -59 2113 -59 
Q 1856 -59 1431 -34 
Q 1394 197 1331 484 
Q 1769 422 2063 422 
Q 2425 422 2469 922 
Q 2519 1497 2544 2347 
L 1247 2347 
Q 1197 175 369 -866 
Q 213 -653 44 -434 
Q 750 503 750 2528 
L 750 4222 
L 3591 4222 
Q 3569 4716 3550 5291 
L 4069 5291 
Q 4066 4850 4084 4222 
L 6238 4222 
L 6238 3759 
L 4100 3759 
Q 4163 2078 4409 1247 
Q 5016 2069 5406 3109 
L 5900 2903 
Q 5363 1631 4609 691 
Q 5069 -244 5506 -244 
Q 5666 -244 5750 47 
Q 5838 503 5888 984 
Q 6156 878 6363 809 
Q 6269 141 6156 -284 
Q 6038 -741 5631 -778 
Q 5250 -803 4900 -522 
Q 4522 -231 4256 278 
Q 3728 -291 3106 -722 
Q 2944 -534 2750 -347 
z
M 4544 4984 
L 4806 5309 
Q 5331 5009 5788 4684 
L 5488 4309 
Q 5038 4666 4544 4984 
z
" transform="scale(0.015625)"/>
      <path id="MicrosoftYaHei-5230" d="M 2856 4122 
Q 3356 3384 3794 2584 
Q 3556 2472 3313 2334 
Q 3203 2566 3088 2791 
Q 1741 2659 531 2534 
L 306 3053 
Q 669 3247 931 3672 
Q 1172 4034 1403 4484 
L 238 4484 
L 238 4947 
L 3825 4947 
L 3825 4484 
L 1994 4484 
Q 1528 3694 1050 3047 
Q 1941 3113 2863 3209 
Q 2656 3569 2431 3909 
L 2856 4122 
z
M 281 1734 
L 1750 1734 
L 1750 2509 
L 2250 2509 
L 2250 1734 
L 3681 1734 
L 3681 1272 
L 2250 1272 
L 2250 172 
Q 2988 266 3769 372 
Q 3769 153 3794 -116 
Q 2025 -334 238 -597 
L 94 -72 
Q 891 9 1750 113 
L 1750 1272 
L 281 1272 
L 281 1734 
z
M 5519 5322 
L 6038 5322 
L 6038 34 
Q 6038 -747 5281 -747 
Q 5025 -747 4369 -741 
Q 4331 -484 4275 -178 
Q 4825 -228 5125 -228 
Q 5519 -234 5519 178 
L 5519 5322 
z
M 4163 4647 
L 4669 4647 
L 4669 666 
L 4163 666 
L 4163 4647 
z
" transform="scale(0.015625)"/>
      <path id="MicrosoftYaHei-54ea" d="M 1906 1872 
L 2322 1872 
Q 2359 2356 2372 3009 
L 1913 3009 
L 1913 3397 
L 2378 3397 
Q 2388 3922 2391 4534 
L 1913 4534 
L 1913 4934 
L 3863 4934 
Q 3844 1397 3788 122 
Q 3731 -622 3050 -622 
Q 2769 -622 2369 -609 
Q 2331 -391 2275 -134 
Q 2738 -172 2944 -172 
Q 3313 -178 3350 266 
Q 3372 681 3391 1484 
L 2725 1484 
Q 2563 88 1525 -866 
Q 1388 -672 1206 -491 
Q 2119 297 2284 1484 
L 1906 1484 
L 1906 1872 
z
M 363 4666 
L 1725 4666 
L 1725 734 
L 788 734 
L 788 391 
L 363 391 
L 363 4666 
z
M 6213 1166 
Q 6213 128 5425 128 
Q 5206 128 4844 159 
Q 4819 416 4763 678 
Q 5106 584 5338 584 
Q 5763 584 5763 1197 
Q 5763 1941 4981 2709 
Q 5394 3728 5644 4522 
L 4725 4522 
L 4725 -866 
L 4300 -866 
L 4300 4934 
L 6113 4934 
L 6113 4516 
Q 5775 3509 5475 2803 
Q 6213 2066 6213 1166 
z
M 1300 1147 
L 1300 4253 
L 788 4253 
L 788 1147 
L 1300 1147 
z
M 3413 3009 
L 2797 3009 
Q 2788 2378 2756 1872 
L 3397 1872 
Q 3406 2378 3413 3009 
z
M 3425 4534 
L 2825 4534 
Q 2822 3969 2806 3397 
L 3416 3397 
Q 3422 3922 3425 4534 
z
" transform="scale(0.015625)"/>
      <path id="MicrosoftYaHei-91cc" d="M 106 -72 
L 2944 -72 
L 2944 747 
L 481 747 
L 481 1184 
L 2944 1184 
L 2944 2003 
L 1206 2003 
L 1206 1778 
L 719 1778 
L 719 4984 
L 5681 4984 
L 5681 1778 
L 5194 1778 
L 5194 2003 
L 3450 2003 
L 3450 1184 
L 5919 1184 
L 5919 747 
L 3450 747 
L 3450 -72 
L 6319 -72 
L 6319 -522 
L 106 -522 
L 106 -72 
z
M 5194 4553 
L 3450 4553 
L 3450 3709 
L 5194 3709 
L 5194 4553 
z
M 3450 2434 
L 5194 2434 
L 5194 3278 
L 3450 3278 
L 3450 2434 
z
M 1206 2434 
L 2944 2434 
L 2944 3278 
L 1206 3278 
L 1206 2434 
z
M 1206 3709 
L 2944 3709 
L 2944 4553 
L 1206 4553 
L 1206 3709 
z
" transform="scale(0.015625)"/>
     </defs>
     <use xlink:href="#MicrosoftYaHei-8bbe"/>
     <use xlink:href="#MicrosoftYaHei-8ba1" transform="translate(100 0)"/>
     <use xlink:href="#MicrosoftYaHei-4ea4" transform="translate(200 0)"/>
     <use xlink:href="#MicrosoftYaHei-4ed8" transform="translate(300 0)"/>
     <use xlink:href="#MicrosoftYaHei-4e0e" transform="translate(400 0)"/>
     <use xlink:href="#MicrosoftYaHei-8fd0" transform="translate(500 0)"/>
     <use xlink:href="#MicrosoftYaHei-884c" transform="translate(600 0)"/>
     <use xlink:href="#MicrosoftYaHei-4ea4" transform="translate(700 0)"/>
     <use xlink:href="#MicrosoftYaHei-4ed8" transform="translate(800 0)"/>
     <use xlink:href="#MicrosoftYaHei-ff0c" transform="translate(900 0)"/>
     <use xlink:href="#MicrosoftYaHei-5404" transform="translate(1000 0)"/>
     <use xlink:href="#MicrosoftYaHei-81ea" transform="translate(1100 0)"/>
     <use xlink:href="#MicrosoftYaHei-5b8c" transform="translate(1200 0)"/>
     <use xlink:href="#MicrosoftYaHei-6210" transform="translate(1300 0)"/>
     <use xlink:href="#MicrosoftYaHei-5230" transform="translate(1400 0)"/>
     <use xlink:href="#MicrosoftYaHei-54ea" transform="translate(1500 0)"/>
     <use xlink:href="#MicrosoftYaHei-91cc" transform="translate(1600 0)"/>
    </g>
   </g>
   <g id="text_2">
    <!-- 作者教学对照；不是两组实测结果。 -->
    <g style="fill: #617386" transform="translate(408 74.820488) scale(0.12 -0.12)">
     <defs>
      <path id="MicrosoftYaHei-4f5c" d="M 1806 2784 
Q 2638 3922 3031 5322 
L 3544 5228 
Q 3397 4747 3213 4297 
L 6294 4297 
L 6294 3859 
L 4019 3859 
L 4019 2766 
L 6044 2766 
L 6044 2328 
L 4019 2328 
L 4019 1191 
L 6125 1191 
L 6125 753 
L 4019 753 
L 4019 -822 
L 3531 -822 
L 3531 3859 
L 3022 3859 
Q 2669 3097 2200 2428 
Q 2025 2597 1806 2784 
z
M 69 2209 
Q 950 3516 1463 5303 
L 1975 5153 
Q 1734 4416 1463 3769 
L 1463 -822 
L 975 -822 
L 975 2750 
Q 659 2159 306 1672 
Q 213 1909 69 2209 
z
" transform="scale(0.015625)"/>
      <path id="MicrosoftYaHei-8005" d="M 194 3303 
L 2569 3303 
L 2569 4091 
L 813 4091 
L 813 4516 
L 2569 4516 
L 2569 5309 
L 3069 5309 
L 3069 4516 
L 4600 4516 
L 4600 4091 
L 3069 4091 
L 3069 3303 
L 3681 3303 
Q 4706 4028 5363 4891 
L 5806 4591 
Q 5241 3913 4466 3303 
L 6256 3303 
L 6256 2878 
L 3888 2878 
Q 3372 2522 2778 2191 
L 5256 2191 
L 5256 -822 
L 4769 -822 
L 4769 -453 
L 1875 -453 
L 1875 -822 
L 1388 -822 
L 1388 1497 
Q 875 1269 319 1053 
Q 213 1247 38 1509 
Q 1766 2109 3031 2878 
L 194 2878 
L 194 3303 
z
M 1875 -41 
L 4769 -41 
L 4769 678 
L 1875 678 
L 1875 -41 
z
M 1875 1722 
L 1875 1066 
L 4769 1066 
L 4769 1778 
L 1988 1778 
Q 1931 1750 1875 1722 
z
" transform="scale(0.015625)"/>
      <path id="MicrosoftYaHei-6559" d="M 2975 2153 
Q 3681 3453 4106 5216 
L 4563 5103 
Q 4438 4591 4275 4084 
L 6225 4084 
L 6225 3634 
L 5613 3634 
Q 5569 2022 4825 859 
Q 5394 78 6319 -359 
Q 6144 -616 6025 -822 
Q 5113 -297 4538 459 
Q 3906 -328 2900 -884 
Q 2788 -722 2594 -472 
Q 3638 59 4263 872 
Q 3825 1603 3669 2522 
Q 3525 2216 3375 1916 
Q 3175 2047 2975 2153 
z
M 3163 4678 
L 3538 4434 
Q 3156 3866 2688 3309 
L 3150 3309 
L 3150 2897 
L 2331 2897 
Q 2081 2616 1819 2353 
L 2844 2353 
L 2844 1978 
L 2038 1184 
L 2038 1072 
Q 2544 1159 3156 1272 
Q 3138 1034 3131 841 
Q 2619 753 2038 647 
L 2038 -34 
Q 2081 -809 1313 -778 
Q 1044 -778 619 -766 
Q 594 -566 556 -297 
Q 850 -328 1225 -334 
Q 1619 -372 1588 16 
L 1588 566 
Q 981 453 313 322 
L 238 778 
Q 756 853 1588 991 
L 1588 1303 
L 2244 1953 
L 1406 1953 
Q 888 1478 369 1078 
Q 244 1253 75 1434 
Q 438 1691 750 1953 
L 231 1953 
L 231 2353 
L 1200 2353 
Q 1494 2616 1769 2897 
L 150 2897 
L 150 3309 
L 1381 3309 
L 1381 3947 
L 400 3947 
L 400 4359 
L 1381 4359 
L 1381 5209 
L 1831 5209 
L 1831 4359 
L 2600 4359 
L 2600 3947 
L 1831 3947 
L 1831 3309 
L 2138 3309 
Q 2700 3941 3163 4678 
z
M 3981 3272 
Q 4106 2134 4550 1303 
Q 5119 2291 5156 3634 
L 4119 3634 
Q 4056 3453 3981 3272 
z
" transform="scale(0.015625)"/>
      <path id="MicrosoftYaHei-5b66" d="M 144 1359 
L 3069 1359 
L 3069 1709 
L 4263 2384 
L 1325 2384 
L 1325 2841 
L 4994 2841 
L 4994 2316 
L 3575 1497 
L 3575 1359 
L 6263 1359 
L 6263 903 
L 3575 903 
L 3575 -41 
Q 3575 -778 2831 -778 
Q 2419 -778 1863 -766 
Q 1844 -553 1788 -234 
Q 2288 -284 2744 -291 
Q 3069 -297 3069 53 
L 3069 903 
L 144 903 
L 144 1359 
z
M 356 3909 
L 6056 3909 
L 6056 2647 
L 5563 2647 
L 5563 3453 
L 850 3453 
L 850 2647 
L 356 2647 
L 356 3909 
z
M 4313 4272 
Q 4731 4722 5100 5241 
L 5550 4909 
Q 5144 4447 4681 3941 
L 4313 4272 
z
M 2538 5116 
L 2944 5353 
Q 3325 4853 3650 4334 
L 3200 4078 
Q 2925 4566 2538 5116 
z
M 850 4928 
L 1219 5197 
Q 1600 4778 1969 4291 
L 1544 3991 
Q 1194 4522 850 4928 
z
" transform="scale(0.015625)"/>
      <path id="MicrosoftYaHei-5bf9" d="M 694 3691 
Q 1234 2909 1741 2166 
Q 2113 3081 2213 4147 
L 250 4147 
L 250 4622 
L 2725 4622 
L 2725 4166 
Q 2553 2809 2059 1700 
Q 2569 953 3044 247 
L 2594 -53 
Q 2203 563 1803 1181 
Q 1247 163 388 -622 
Q 263 -428 81 -166 
Q 975 638 1500 1647 
Q 919 2538 319 3434 
L 694 3691 
z
M 2975 3941 
L 5056 3941 
L 5056 5278 
L 5563 5278 
L 5563 3941 
L 6325 3941 
L 6325 3466 
L 5563 3466 
L 5563 191 
Q 5563 -716 4669 -716 
Q 4388 -716 3744 -709 
Q 3713 -478 3644 -147 
Q 4263 -197 4588 -197 
Q 5056 -197 5056 278 
L 5056 3466 
L 2975 3466 
L 2975 3941 
z
M 3088 2684 
L 3494 2928 
Q 4000 2184 4388 1484 
L 3919 1216 
Q 3550 1922 3088 2684 
z
" transform="scale(0.015625)"/>
      <path id="MicrosoftYaHei-7167" d="M 488 4997 
L 2500 4997 
L 2500 916 
L 2038 916 
L 2038 1153 
L 950 1153 
L 950 872 
L 488 872 
L 488 4997 
z
M 3156 2791 
L 5938 2791 
L 5938 866 
L 5475 866 
L 5475 1059 
L 3619 1059 
L 3619 866 
L 3156 866 
L 3156 2791 
z
M 2944 4609 
L 2944 5022 
L 5969 5022 
Q 5944 4366 5906 3891 
Q 5844 3109 5094 3109 
Q 4844 3109 4356 3128 
Q 4319 3359 4263 3622 
Q 4756 3559 5013 3559 
Q 5413 3559 5444 3922 
Q 5481 4366 5481 4609 
L 4166 4609 
Q 4150 3353 3006 2716 
Q 2863 2903 2681 3084 
Q 3713 3628 3706 4609 
L 2944 4609 
z
M 5475 2391 
L 3619 2391 
L 3619 1459 
L 5475 1459 
L 5475 2391 
z
M 950 1578 
L 2038 1578 
L 2038 2884 
L 950 2884 
L 950 1578 
z
M 2038 4572 
L 950 4572 
L 950 3309 
L 2038 3309 
L 2038 4572 
z
M 844 728 
L 1288 559 
Q 1050 -22 613 -809 
Q 400 -709 169 -609 
Q 631 166 844 728 
z
M 5025 547 
L 5425 784 
Q 5863 184 6213 -422 
L 5775 -678 
Q 5438 -59 5025 547 
z
M 1906 453 
L 2319 641 
Q 2663 22 2900 -522 
L 2450 -722 
Q 2225 -166 1906 453 
z
M 3513 497 
L 3925 678 
Q 4263 109 4525 -447 
L 4081 -659 
Q 3806 -34 3513 497 
z
" transform="scale(0.015625)"/>
      <path id="MicrosoftYaHei-ff1b" d="M 1606 3531 
Q 1772 3531 1890 3415 
Q 2009 3300 2009 3138 
Q 2009 2975 1893 2858 
Q 1778 2741 1606 2741 
Q 1434 2741 1318 2858 
Q 1203 2975 1203 3138 
Q 1203 3300 1322 3415 
Q 1441 3531 1606 3531 
z
M 1931 775 
L 1403 -891 
L 966 -891 
L 1350 775 
L 1931 775 
z
" transform="scale(0.015625)"/>
      <path id="MicrosoftYaHei-4e0d" d="M 225 4772 
L 6181 4772 
L 6181 4284 
L 3881 4284 
Q 3581 3766 3081 3053 
L 3444 3053 
L 3444 -866 
L 2906 -866 
L 2906 2859 
Q 1838 1541 388 609 
Q 231 834 38 1059 
Q 2006 2291 3213 4284 
L 225 4284 
L 225 4772 
z
M 4069 2859 
Q 5238 2147 6325 1409 
L 5969 916 
Q 4681 1872 3763 2434 
L 4069 2859 
z
" transform="scale(0.015625)"/>
      <path id="MicrosoftYaHei-662f" d="M 1088 5078 
L 5338 5078 
L 5338 2472 
L 4863 2472 
L 4863 2722 
L 1563 2722 
L 1563 2472 
L 1088 2472 
L 1088 5078 
z
M 1400 1553 
L 1875 1409 
Q 1775 1081 1647 788 
Q 2122 19 3063 -134 
L 3063 1747 
L 213 1747 
L 213 2184 
L 6225 2184 
L 6225 1747 
L 3563 1747 
L 3563 1122 
L 5788 1122 
L 5788 697 
L 3563 697 
L 3563 -172 
Q 4763 -197 6344 -147 
Q 6244 -416 6169 -641 
Q 4331 -647 3344 -622 
Q 2022 -606 1434 359 
Q 1006 -413 350 -891 
Q 225 -703 44 -484 
Q 1050 191 1400 1553 
z
M 1563 3147 
L 4863 3147 
L 4863 3697 
L 1563 3697 
L 1563 3147 
z
M 4863 4653 
L 1563 4653 
L 1563 4109 
L 4863 4109 
L 4863 4653 
z
" transform="scale(0.015625)"/>
      <path id="MicrosoftYaHei-4e24" d="M 163 4991 
L 6238 4991 
L 6238 4534 
L 4325 4534 
Q 4328 4084 4316 3697 
L 5856 3697 
L 5856 3 
Q 5856 -716 5138 -716 
Q 4800 -716 4181 -703 
Q 4150 -484 4094 -216 
Q 4688 -259 4994 -259 
Q 5388 -259 5388 122 
L 5388 3247 
L 4297 3247 
Q 4269 2634 4172 2138 
Q 4859 1500 5325 966 
L 5000 616 
Q 4519 1194 4038 1678 
Q 3734 834 3050 147 
Q 2913 303 2663 484 
Q 3844 1559 3844 3247 
L 2538 3247 
Q 2506 2591 2444 2316 
Q 2956 1897 3288 1603 
L 3013 1191 
Q 2675 1541 2325 1869 
Q 2044 1025 1381 334 
Q 1231 503 1019 691 
Q 2056 1653 2084 3247 
L 1000 3247 
L 1000 -747 
L 531 -747 
L 531 3697 
L 2103 3697 
Q 2116 4091 2113 4534 
L 163 4534 
L 163 4991 
z
M 2556 3697 
L 3863 3697 
Q 3875 4094 3872 4534 
L 2569 4534 
Q 2569 4084 2556 3697 
z
" transform="scale(0.015625)"/>
      <path id="MicrosoftYaHei-7ec4" d="M 1994 -516 
L 1994 -66 
L 2738 -66 
L 2738 4941 
L 5763 4941 
L 5763 -66 
L 6313 -66 
L 6313 -516 
L 1994 -516 
z
M 969 1703 
Q 1606 1784 2300 1872 
Q 2275 1603 2256 1447 
Q 1331 1328 400 1191 
L 300 1647 
Q 697 1956 1284 2941 
Q 597 2897 256 2866 
L 131 3278 
Q 619 3866 1200 5291 
L 1706 5116 
Q 1163 4091 681 3316 
Q 1197 3319 1506 3328 
Q 1756 3775 2038 4334 
L 2519 4122 
Q 1806 2859 969 1703 
z
M 5288 4491 
L 3213 4491 
L 3213 3259 
L 5288 3259 
L 5288 4491 
z
M 3213 -66 
L 5288 -66 
L 5288 1166 
L 3213 1166 
L 3213 -66 
z
M 3213 1597 
L 5288 1597 
L 5288 2828 
L 3213 2828 
L 3213 1597 
z
M 181 291 
Q 1088 459 2356 741 
Q 2331 453 2331 266 
Q 1031 -3 319 -184 
L 181 291 
z
" transform="scale(0.015625)"/>
      <path id="MicrosoftYaHei-5b9e" d="M 113 -397 
Q 2419 34 3081 972 
L 213 972 
L 213 1434 
L 3313 1434 
Q 3525 2084 3506 3703 
L 4031 3703 
Q 4031 2097 3856 1434 
L 6225 1434 
L 6225 972 
L 3681 972 
Q 3631 872 3563 759 
Q 4900 197 6181 -403 
L 5906 -878 
Q 4569 -197 3263 391 
Q 2413 -441 413 -891 
Q 269 -616 113 -397 
z
M 331 4422 
L 3194 4422 
Q 3038 4703 2775 5078 
L 3231 5334 
Q 3438 5059 3731 4609 
L 3388 4422 
L 6063 4422 
L 6063 3303 
L 5563 3303 
L 5563 3959 
L 831 3959 
L 831 3303 
L 331 3303 
L 331 4422 
z
M 1100 2734 
Q 1819 2409 2450 2053 
L 2181 1622 
Q 1556 2003 863 2334 
L 1100 2734 
z
M 1663 3691 
Q 2388 3341 2981 2984 
L 2700 2559 
Q 2119 2934 1419 3322 
L 1663 3691 
z
" transform="scale(0.015625)"/>
      <path id="MicrosoftYaHei-6d4b" d="M 875 1753 
Q 1175 1597 1369 1522 
Q 950 -41 763 -784 
L 250 -547 
Q 619 497 875 1753 
z
M 638 5166 
Q 1019 4847 1588 4303 
Q 1381 4103 1213 3928 
Q 756 4434 313 4853 
L 638 5166 
z
M 356 3559 
Q 881 3134 1350 2716 
Q 1188 2547 988 2322 
Q 425 2878 50 3216 
L 356 3559 
z
M 5575 5284 
L 6031 5284 
L 6031 -34 
Q 6031 -753 5338 -753 
Q 5038 -753 4625 -741 
Q 4600 -509 4538 -228 
Q 4938 -272 5219 -272 
Q 5575 -272 5575 84 
L 5575 5284 
z
M 5038 634 
L 4600 634 
L 4600 4778 
L 5038 4778 
L 5038 634 
z
M 1706 4941 
L 4063 4941 
L 4063 991 
L 3613 991 
L 3613 4503 
L 2156 4503 
L 2156 991 
L 1706 991 
L 1706 4941 
z
M 2681 3966 
L 3138 3966 
L 3138 2416 
Q 3138 1466 2963 891 
Q 3775 266 4375 -234 
L 4038 -616 
Q 3538 -141 2800 472 
Q 2413 -297 1406 -884 
Q 1269 -684 1100 -484 
Q 2031 53 2375 709 
Q 2681 1278 2681 2403 
L 2681 3966 
z
" transform="scale(0.015625)"/>
      <path id="MicrosoftYaHei-7ed3" d="M 2625 1709 
L 5925 1709 
L 5925 -828 
L 5438 -828 
L 5438 -441 
L 3113 -441 
L 3113 -828 
L 2625 -828 
L 2625 1709 
z
M 2500 2897 
L 4025 2897 
L 4025 3872 
L 2294 3872 
L 2294 4322 
L 4025 4322 
L 4025 5322 
L 4525 5322 
L 4525 4322 
L 6275 4322 
L 6275 3872 
L 4525 3872 
L 4525 2897 
L 6056 2897 
L 6056 2447 
L 2500 2447 
L 2500 2897 
z
M 894 1566 
Q 1725 1684 2269 1778 
Q 2231 1534 2213 1303 
Q 1519 1203 319 1009 
L 219 1472 
Q 619 1888 1172 2791 
Q 647 2756 219 2722 
L 100 3147 
Q 675 3916 1294 5366 
L 1769 5178 
Q 1094 3853 663 3184 
Q 1025 3194 1419 3206 
Q 1631 3569 1863 3997 
L 2325 3766 
Q 1613 2578 894 1566 
z
M 5438 1272 
L 3113 1272 
L 3113 -3 
L 5438 -3 
L 5438 1272 
z
M 75 91 
Q 1231 316 2331 584 
Q 2313 334 2313 109 
Q 1300 -103 213 -391 
L 75 91 
z
" transform="scale(0.015625)"/>
      <path id="MicrosoftYaHei-679c" d="M 6338 -53 
Q 6100 -309 5944 -522 
Q 4425 -41 3438 1181 
L 3438 -841 
L 2963 -841 
L 2963 1188 
Q 2084 172 450 -603 
Q 300 -416 75 -203 
Q 1550 363 2472 1259 
L 213 1259 
L 213 1709 
L 2963 1709 
L 2963 2384 
L 1306 2384 
L 1306 2141 
L 831 2141 
L 831 5016 
L 5569 5016 
L 5569 2141 
L 5094 2141 
L 5094 2384 
L 3438 2384 
L 3438 1709 
L 6200 1709 
L 6200 1259 
L 3856 1259 
Q 4769 294 6338 -53 
z
M 3438 2809 
L 5094 2809 
L 5094 3497 
L 3438 3497 
L 3438 2809 
z
M 5094 4591 
L 3438 4591 
L 3438 3903 
L 5094 3903 
L 5094 4591 
z
M 1306 2809 
L 2963 2809 
L 2963 3497 
L 1306 3497 
L 1306 2809 
z
M 1306 3903 
L 2963 3903 
L 2963 4591 
L 1306 4591 
L 1306 3903 
z
" transform="scale(0.015625)"/>
      <path id="MicrosoftYaHei-3002" d="M 1219 863 
Q 1525 863 1750 625 
Q 1975 388 1975 72 
Q 1975 -284 1747 -507 
Q 1519 -731 1197 -731 
Q 875 -731 642 -503 
Q 409 -275 409 66 
Q 409 413 656 638 
Q 903 863 1219 863 
z
M 1209 -275 
Q 1328 -275 1431 -184 
Q 1534 -94 1534 50 
Q 1534 209 1434 304 
Q 1334 400 1191 400 
Q 1056 400 959 304 
Q 863 209 863 53 
Q 863 -100 977 -187 
Q 1091 -275 1209 -275 
z
" transform="scale(0.015625)"/>
     </defs>
     <use xlink:href="#MicrosoftYaHei-4f5c"/>
     <use xlink:href="#MicrosoftYaHei-8005" transform="translate(100 0)"/>
     <use xlink:href="#MicrosoftYaHei-6559" transform="translate(200 0)"/>
     <use xlink:href="#MicrosoftYaHei-5b66" transform="translate(300 0)"/>
     <use xlink:href="#MicrosoftYaHei-5bf9" transform="translate(400 0)"/>
     <use xlink:href="#MicrosoftYaHei-7167" transform="translate(500 0)"/>
     <use xlink:href="#MicrosoftYaHei-ff1b" transform="translate(600 0)"/>
     <use xlink:href="#MicrosoftYaHei-4e0d" transform="translate(700 0)"/>
     <use xlink:href="#MicrosoftYaHei-662f" transform="translate(800 0)"/>
     <use xlink:href="#MicrosoftYaHei-4e24" transform="translate(900 0)"/>
     <use xlink:href="#MicrosoftYaHei-7ec4" transform="translate(1000 0)"/>
     <use xlink:href="#MicrosoftYaHei-5b9e" transform="translate(1100 0)"/>
     <use xlink:href="#MicrosoftYaHei-6d4b" transform="translate(1200 0)"/>
     <use xlink:href="#MicrosoftYaHei-7ed3" transform="translate(1300 0)"/>
     <use xlink:href="#MicrosoftYaHei-679c" transform="translate(1400 0)"/>
     <use xlink:href="#MicrosoftYaHei-3002" transform="translate(1500 0)"/>
    </g>
   </g>
   <g id="text_3">
    <!-- 比较项 -->
    <g style="fill: #617386" transform="translate(157.416 125.782069) scale(0.14 -0.14)">
     <defs>
      <path id="MicrosoftYaHei-6bd4" d="M 3225 5316 
L 3744 5316 
L 3744 2672 
Q 4959 3550 5744 4509 
L 6188 4178 
Q 5175 3063 3744 2056 
L 3744 247 
Q 3744 -166 4106 -166 
L 5175 -166 
Q 5588 -166 5650 203 
Q 5725 678 5763 1247 
Q 6025 1147 6300 1066 
Q 6244 484 6150 22 
Q 6019 -622 5319 -622 
L 3944 -622 
Q 3225 -622 3225 159 
L 3225 5316 
z
M 1063 5153 
L 1063 3278 
L 2825 3278 
L 2825 2809 
L 1063 2809 
L 1063 153 
Q 1713 428 2763 928 
Q 2763 634 2788 366 
Q 1869 -3 1231 -328 
Q 956 -472 725 -672 
L 344 -184 
Q 544 -34 544 272 
L 544 5153 
L 1063 5153 
z
" transform="scale(0.015625)"/>
      <path id="MicrosoftYaHei-8f83" d="M 694 2234 
L 1438 2234 
L 1438 3603 
L 1875 3603 
L 1875 2234 
L 2513 2234 
L 2513 1828 
L 1875 1828 
L 1875 981 
Q 2288 1031 2688 1084 
Q 2656 847 2644 653 
Q 2294 613 1875 559 
L 1875 -841 
L 1438 -841 
L 1438 506 
Q 844 428 131 334 
L 81 791 
Q 778 856 1438 928 
L 1438 1828 
L 238 1828 
L 238 2222 
Q 575 3156 816 3928 
L 156 3928 
L 156 4347 
L 941 4347 
Q 1103 4891 1206 5347 
L 1688 5247 
Q 1559 4831 1403 4347 
L 2494 4347 
L 2494 3928 
L 1269 3928 
Q 1016 3156 694 2234 
z
M 5525 2341 
Q 5200 1303 4694 644 
Q 5306 69 6331 -247 
Q 6094 -522 5944 -728 
Q 4972 -334 4353 256 
Q 3641 -450 2563 -828 
Q 2481 -666 2263 -384 
Q 3341 -22 4025 619 
Q 3531 1247 3219 2203 
L 3644 2397 
Q 3909 1572 4363 1003 
Q 4813 1622 5063 2497 
L 5525 2341 
z
M 2719 4366 
L 4316 4366 
Q 4109 4728 3806 5116 
L 4188 5359 
Q 4538 4966 4788 4578 
L 4459 4366 
L 6225 4366 
L 6225 3928 
L 2719 3928 
L 2719 4366 
z
M 4663 3422 
L 5006 3722 
Q 5669 3103 6256 2434 
L 5881 2097 
Q 5344 2747 4663 3422 
z
M 3600 3741 
L 4013 3484 
Q 3456 2628 2925 1997 
Q 2706 2191 2544 2297 
Q 3106 2922 3600 3741 
z
" transform="scale(0.015625)"/>
      <path id="MicrosoftYaHei-9879" d="M 2594 3728 
L 3750 3728 
L 3925 4509 
L 2450 4509 
L 2450 4947 
L 6219 4947 
L 6219 4509 
L 4469 4509 
L 4263 3728 
L 5906 3728 
L 5906 466 
L 5419 466 
L 5419 3291 
L 3081 3291 
L 3081 466 
L 2594 466 
L 2594 3728 
z
M 44 666 
Q 556 778 988 884 
L 988 4203 
L 131 4203 
L 131 4653 
L 2275 4653 
L 2275 4203 
L 1475 4203 
L 1475 1003 
Q 1994 1128 2363 1228 
Q 2375 903 2406 734 
Q 906 359 181 159 
L 44 666 
z
M 4006 2884 
L 4494 2884 
L 4494 1916 
Q 4494 1266 4319 772 
Q 5413 184 6275 -397 
L 5950 -841 
Q 5088 -197 4125 359 
Q 4081 291 4038 228 
Q 3531 -466 2256 -922 
Q 2131 -728 1944 -497 
Q 3169 -84 3638 534 
Q 4006 1009 4006 1934 
L 4006 2884 
z
" transform="scale(0.015625)"/>
     </defs>
     <use xlink:href="#MicrosoftYaHei-6bd4"/>
     <use xlink:href="#MicrosoftYaHei-8f83" transform="translate(100 0)"/>
     <use xlink:href="#MicrosoftYaHei-9879" transform="translate(200 0)"/>
    </g>
   </g>
   <g id="text_4">
    <!-- 设计交付 -->
    <g style="fill: #276fbf" transform="translate(429.696 126.883631) scale(0.18 -0.18)">
     <use xlink:href="#MicrosoftYaHei-8bbe"/>
     <use xlink:href="#MicrosoftYaHei-8ba1" transform="translate(100 0)"/>
     <use xlink:href="#MicrosoftYaHei-4ea4" transform="translate(200 0)"/>
     <use xlink:href="#MicrosoftYaHei-4ed8" transform="translate(300 0)"/>
    </g>
   </g>
   <g id="text_5">
    <!-- 运行交付 -->
    <g style="fill: #26816b" transform="translate(745.704 126.883631) scale(0.18 -0.18)">
     <use xlink:href="#MicrosoftYaHei-8fd0"/>
     <use xlink:href="#MicrosoftYaHei-884c" transform="translate(100 0)"/>
     <use xlink:href="#MicrosoftYaHei-4ea4" transform="translate(200 0)"/>
     <use xlink:href="#MicrosoftYaHei-4ed8" transform="translate(300 0)"/>
    </g>
   </g>
   <g id="text_6">
    <!-- 问题与方法 -->
    <g style="fill: #20344b" transform="translate(143.416 171.610069) scale(0.14 -0.14)">
     <defs>
      <path id="MicrosoftYaHei-95ee" d="M 1863 3353 
L 4513 3353 
L 4513 853 
L 2313 853 
L 2313 497 
L 1863 497 
L 1863 3353 
z
M 2388 4453 
L 2388 4922 
L 5963 4922 
L 5963 91 
Q 5963 -816 5144 -816 
Q 4613 -816 4119 -803 
Q 4094 -616 4019 -297 
Q 4538 -334 5019 -334 
Q 5475 -334 5475 153 
L 5475 4453 
L 2388 4453 
z
M 4063 2891 
L 2313 2891 
L 2313 1316 
L 4063 1316 
L 4063 2891 
z
M 431 4084 
L 919 4084 
L 919 -816 
L 431 -816 
L 431 4084 
z
M 744 5003 
L 1100 5322 
Q 1444 4997 2006 4409 
L 1600 4053 
Q 1063 4678 744 5003 
z
" transform="scale(0.015625)"/>
      <path id="MicrosoftYaHei-9898" d="M 88 -291 
Q 544 328 581 1622 
L 1013 1622 
Q 994 1234 950 884 
Q 1181 466 1538 209 
L 1538 1916 
L 138 1916 
L 138 2322 
L 3025 2322 
L 3025 1916 
L 1950 1916 
L 1950 1253 
L 2956 1253 
L 2956 847 
L 1950 847 
L 1950 -16 
Q 2369 -184 2906 -197 
Q 4006 -266 6300 -166 
Q 6231 -372 6125 -659 
Q 3888 -716 2906 -634 
Q 1513 -597 850 347 
Q 688 -359 363 -878 
Q 238 -584 88 -291 
z
M 525 5041 
L 2725 5041 
L 2725 2634 
L 2313 2634 
L 2313 2828 
L 938 2828 
L 938 2634 
L 525 2634 
L 525 5041 
z
M 3263 3878 
L 4169 3878 
Q 4231 4247 4275 4591 
L 3031 4591 
L 3031 4997 
L 6169 4997 
L 6169 4591 
L 4738 4591 
Q 4681 4222 4613 3878 
L 5838 3878 
L 5838 1228 
L 5425 1228 
L 5425 3472 
L 3675 3472 
L 3675 1228 
L 3263 1228 
L 3263 3878 
z
M 4344 3203 
L 4756 3203 
L 4756 2422 
Q 4756 1809 4631 1372 
Q 5594 678 6050 284 
L 5713 -47 
Q 5213 422 4481 972 
Q 4444 903 4406 841 
Q 4031 241 3131 -109 
Q 2988 72 2794 259 
Q 3669 547 4006 1028 
Q 4344 1503 4344 2441 
L 4344 3203 
z
M 938 3203 
L 2313 3203 
L 2313 3753 
L 938 3753 
L 938 3203 
z
M 2313 4666 
L 938 4666 
L 938 4122 
L 2313 4122 
L 2313 4666 
z
" transform="scale(0.015625)"/>
      <path id="MicrosoftYaHei-65b9" d="M 194 4241 
L 3194 4241 
Q 2878 4841 2700 5116 
L 3188 5347 
Q 3363 5078 3713 4472 
L 3256 4241 
L 6219 4241 
L 6219 3766 
L 2428 3766 
Q 2406 3197 2381 2797 
L 5400 2797 
Q 5325 1441 5238 441 
Q 5169 -691 4138 -691 
Q 3663 -691 2869 -641 
Q 2838 -403 2775 -66 
Q 3569 -172 4063 -172 
Q 4638 -172 4706 509 
Q 4781 1253 4838 2328 
L 2347 2328 
Q 2172 266 438 -872 
Q 269 -672 56 -447 
Q 1706 641 1825 2466 
Q 1869 2959 1897 3766 
L 194 3766 
L 194 4241 
z
" transform="scale(0.015625)"/>
      <path id="MicrosoftYaHei-6cd5" d="M 4888 1328 
Q 5488 509 6181 -553 
Q 5931 -697 5694 -841 
Q 5519 -550 5350 -278 
Q 3300 -447 2138 -559 
L 1906 -16 
Q 2300 159 2675 716 
Q 3088 1303 3441 1953 
L 1800 1953 
L 1800 2403 
L 3763 2403 
L 3763 3728 
L 2106 3728 
L 2106 4178 
L 3763 4178 
L 3763 5322 
L 4263 5322 
L 4263 4178 
L 5994 4178 
L 5994 3728 
L 4263 3728 
L 4263 2403 
L 6288 2403 
L 6288 1953 
L 4069 1953 
Q 3372 806 2706 -28 
Q 3897 28 5088 141 
Q 4766 644 4475 1066 
L 4888 1328 
z
M 1013 1828 
Q 1244 1728 1506 1622 
Q 1063 291 731 -784 
L 194 -603 
Q 606 497 1013 1828 
z
M 400 3622 
Q 869 3291 1500 2772 
Q 1269 2509 1138 2366 
Q 431 2997 88 3259 
L 400 3622 
z
M 644 5241 
Q 1144 4841 1719 4328 
Q 1506 4109 1350 3941 
Q 775 4509 325 4897 
L 644 5241 
z
" transform="scale(0.015625)"/>
     </defs>
     <use xlink:href="#MicrosoftYaHei-95ee"/>
     <use xlink:href="#MicrosoftYaHei-9898" transform="translate(100 0)"/>
     <use xlink:href="#MicrosoftYaHei-4e0e" transform="translate(200 0)"/>
     <use xlink:href="#MicrosoftYaHei-65b9" transform="translate(300 0)"/>
     <use xlink:href="#MicrosoftYaHei-6cd5" transform="translate(400 0)"/>
    </g>
   </g>
   <g id="text_7">
    <!-- 范围、判据、计划 -->
    <g style="fill: #20344b" transform="translate(409.696 171.610069) scale(0.14 -0.14)">
     <defs>
      <path id="MicrosoftYaHei-8303" d="M 2600 3341 
L 5575 3341 
Q 5525 2416 5481 1828 
Q 5400 941 4550 941 
Q 4188 941 3713 959 
Q 3675 1209 3613 1503 
Q 4163 1428 4538 1428 
Q 4931 1428 4988 1822 
Q 5031 2241 5056 2903 
L 3094 2903 
L 3094 197 
Q 3094 -191 3488 -191 
L 5125 -191 
Q 5625 -209 5694 191 
Q 5781 672 5806 1134 
Q 6069 1028 6313 947 
Q 6263 522 6169 22 
Q 6056 -678 5169 -641 
L 3344 -641 
Q 2600 -628 2600 109 
L 2600 3341 
z
M 150 4653 
L 1863 4653 
L 1863 5328 
L 2363 5328 
L 2363 4653 
L 4050 4653 
L 4050 5328 
L 4550 5328 
L 4550 4653 
L 6269 4653 
L 6269 4209 
L 4550 4209 
L 4550 3659 
L 4050 3659 
L 4050 4209 
L 2363 4209 
L 2363 3659 
L 1863 3659 
L 1863 4209 
L 150 4209 
L 150 4653 
z
M 1525 1559 
Q 1700 1422 1975 1253 
Q 1213 -97 813 -734 
L 344 -422 
Q 988 484 1525 1559 
z
M 1119 3784 
Q 1788 3316 2156 3016 
L 1819 2622 
Q 1275 3109 819 3428 
L 1119 3784 
z
M 431 2747 
Q 1025 2341 1438 1984 
L 1125 1591 
Q 494 2141 131 2378 
L 431 2747 
z
" transform="scale(0.015625)"/>
      <path id="MicrosoftYaHei-56f4" d="M 469 4997 
L 5938 4997 
L 5938 -834 
L 5469 -834 
L 5469 -528 
L 938 -528 
L 938 -841 
L 469 -841 
L 469 4997 
z
M 5469 4553 
L 938 4553 
L 938 -84 
L 5469 -84 
L 5469 4553 
z
M 1200 2016 
L 2794 2016 
L 2794 2541 
L 1481 2541 
L 1481 2953 
L 2794 2953 
L 2794 3472 
L 1325 3472 
L 1325 3884 
L 2794 3884 
L 2794 4409 
L 3250 4409 
L 3250 3884 
L 4963 3884 
L 4963 3472 
L 3250 3472 
L 3250 2953 
L 4756 2953 
L 4756 2541 
L 3250 2541 
L 3250 2016 
L 4925 2016 
Q 4906 1634 4869 1191 
Q 4819 478 4169 478 
Q 3888 478 3569 497 
Q 3538 728 3475 984 
Q 3806 934 4063 928 
Q 4394 909 4419 1234 
Q 4438 1409 4444 1603 
L 3250 1603 
L 3250 72 
L 2794 72 
L 2794 1603 
L 1200 1603 
L 1200 2016 
z
" transform="scale(0.015625)"/>
      <path id="MicrosoftYaHei-3001" d="M 1931 -413 
L 1556 -791 
Q 1028 -216 397 306 
L 728 650 
Q 1506 22 1931 -413 
z
" transform="scale(0.015625)"/>
      <path id="MicrosoftYaHei-5224" d="M 200 1803 
L 1622 1803 
Q 1700 2222 1709 2697 
L 331 2697 
L 331 3134 
L 1725 3134 
Q 1756 3959 1756 5259 
L 2244 5259 
Q 2238 4016 2219 3134 
L 3594 3134 
L 3594 2697 
L 2209 2697 
Q 2203 2225 2138 1803 
L 3700 1803 
L 3700 1366 
L 2050 1366 
Q 1716 -28 694 -872 
Q 513 -653 313 -472 
Q 1194 234 1519 1366 
L 200 1366 
L 200 1803 
z
M 5475 5284 
L 5963 5284 
L 5963 53 
Q 5963 -753 5169 -753 
Q 4856 -753 4275 -741 
Q 4244 -466 4188 -209 
Q 4669 -259 5019 -259 
Q 5475 -259 5475 228 
L 5475 5284 
z
M 4144 4584 
L 4625 4584 
L 4625 759 
L 4144 759 
L 4144 4584 
z
M 2525 3728 
Q 3000 4309 3313 4866 
L 3756 4591 
Q 3306 3928 2906 3434 
L 2525 3728 
z
M 269 4603 
L 656 4853 
Q 1075 4316 1444 3759 
L 1013 3466 
Q 606 4153 269 4603 
z
" transform="scale(0.015625)"/>
      <path id="MicrosoftYaHei-636e" d="M 2900 1334 
L 4188 1334 
L 4188 2128 
L 2731 2128 
Q 2663 206 1844 -841 
Q 1694 -647 1506 -447 
Q 2288 516 2288 2509 
L 2288 4947 
L 5975 4947 
L 5975 3134 
L 5525 3134 
L 5525 3328 
L 2738 3328 
L 2738 2553 
L 4188 2553 
L 4188 3209 
L 4638 3209 
L 4638 2553 
L 6288 2553 
L 6288 2128 
L 4638 2128 
L 4638 1334 
L 5938 1334 
L 5938 -778 
L 5488 -778 
L 5488 -416 
L 3350 -416 
L 3350 -778 
L 2900 -778 
L 2900 1334 
z
M 100 1966 
Q 544 2088 963 2213 
L 963 3641 
L 175 3641 
L 175 4091 
L 963 4091 
L 963 5284 
L 1425 5284 
L 1425 4091 
L 2106 4091 
L 2106 3641 
L 1425 3641 
L 1425 2356 
Q 1722 2450 2006 2547 
Q 2013 2266 2044 2059 
Q 1722 1956 1425 1856 
L 1425 -34 
Q 1425 -741 806 -753 
Q 613 -759 231 -747 
Q 206 -497 156 -228 
Q 500 -266 681 -266 
Q 963 -266 963 53 
L 963 1703 
Q 534 1559 163 1428 
L 100 1966 
z
M 5525 4534 
L 2738 4534 
L 2738 3741 
L 5525 3741 
L 5525 4534 
z
M 5488 922 
L 3350 922 
L 3350 -9 
L 5488 -9 
L 5488 922 
z
" transform="scale(0.015625)"/>
      <path id="MicrosoftYaHei-5212" d="M 75 -28 
Q 881 394 1547 975 
Q 1297 1694 1209 3053 
L 256 2884 
L 181 3328 
L 1184 3503 
Q 1144 4291 1113 5266 
L 1613 5266 
Q 1628 4341 1659 3584 
L 3688 3941 
L 3744 3503 
L 1681 3138 
Q 1753 1975 1934 1331 
Q 2622 2019 3144 2897 
L 3563 2634 
Q 2913 1609 2100 831 
Q 2391 91 2850 -191 
Q 3188 -391 3281 -9 
Q 3363 422 3425 953 
Q 3725 828 3919 772 
Q 3800 66 3700 -291 
Q 3575 -791 3131 -791 
Q 2781 -791 2456 -547 
Q 2019 -178 1728 494 
Q 1122 -25 431 -422 
Q 300 -259 75 -28 
z
M 5425 5272 
L 5919 5272 
L 5919 53 
Q 5919 -728 5194 -734 
Q 4856 -741 4256 -728 
Q 4225 -441 4156 -197 
Q 4619 -241 5031 -247 
Q 5425 -253 5425 172 
L 5425 5272 
z
M 4594 853 
L 4113 853 
L 4113 4672 
L 4594 4672 
L 4594 853 
z
M 2000 4803 
L 2288 5109 
Q 2719 4797 3131 4441 
L 2800 4084 
Q 2463 4428 2000 4803 
z
" transform="scale(0.015625)"/>
     </defs>
     <use xlink:href="#MicrosoftYaHei-8303"/>
     <use xlink:href="#MicrosoftYaHei-56f4" transform="translate(100 0)"/>
     <use xlink:href="#MicrosoftYaHei-3001" transform="translate(200 0)"/>
     <use xlink:href="#MicrosoftYaHei-5224" transform="translate(300 0)"/>
     <use xlink:href="#MicrosoftYaHei-636e" transform="translate(400 0)"/>
     <use xlink:href="#MicrosoftYaHei-3001" transform="translate(500 0)"/>
     <use xlink:href="#MicrosoftYaHei-8ba1" transform="translate(600 0)"/>
     <use xlink:href="#MicrosoftYaHei-5212" transform="translate(700 0)"/>
    </g>
   </g>
   <g id="text_8">
    <!-- 同样需要 -->
    <g style="fill: #20344b" transform="translate(753.704 171.610069) scale(0.14 -0.14)">
     <defs>
      <path id="MicrosoftYaHei-540c" d="M 1013 -772 
L 531 -772 
L 531 4959 
L 5856 4959 
L 5856 -47 
Q 5856 -741 5125 -741 
Q 4669 -741 4088 -716 
Q 4056 -497 4000 -216 
Q 4619 -272 5025 -272 
Q 5375 -272 5375 78 
L 5375 4497 
L 1013 4497 
L 1013 -772 
z
M 1875 2566 
L 4506 2566 
L 4506 597 
L 2338 597 
L 2338 272 
L 1875 272 
L 1875 2566 
z
M 4044 2116 
L 2338 2116 
L 2338 1047 
L 4044 1047 
L 4044 2116 
z
M 1363 3734 
L 5025 3734 
L 5025 3284 
L 1363 3284 
L 1363 3734 
z
" transform="scale(0.015625)"/>
      <path id="MicrosoftYaHei-6837" d="M 2150 1197 
L 3981 1197 
L 3981 2222 
L 2619 2222 
L 2619 2659 
L 3981 2659 
L 3981 3641 
L 2475 3641 
L 2475 4078 
L 4406 4078 
Q 4925 4828 5188 5316 
L 5650 5022 
Q 5325 4578 4931 4078 
L 6075 4078 
L 6075 3641 
L 4469 3641 
L 4469 2659 
L 5900 2659 
L 5900 2222 
L 4469 2222 
L 4469 1197 
L 6275 1197 
L 6275 759 
L 4469 759 
L 4469 -872 
L 3981 -872 
L 3981 759 
L 2150 759 
L 2150 1197 
z
M 94 1384 
Q 700 2316 1038 3603 
L 163 3603 
L 163 4022 
L 1088 4022 
L 1088 5259 
L 1544 5259 
L 1544 4022 
L 2275 4022 
L 2275 3603 
L 1544 3603 
L 1544 2622 
L 1794 2847 
Q 2200 2447 2594 2022 
L 2238 1697 
Q 1756 2247 1544 2472 
L 1544 -872 
L 1088 -872 
L 1088 2559 
Q 750 1547 319 841 
Q 225 1109 94 1384 
z
M 2831 5047 
L 3200 5322 
Q 3694 4766 3906 4466 
L 3481 4172 
Q 3113 4703 2831 5047 
z
" transform="scale(0.015625)"/>
      <path id="MicrosoftYaHei-9700" d="M 1188 -822 
L 713 -822 
L 713 1228 
L 2750 1228 
L 2853 1716 
L 125 1716 
L 125 2103 
L 6275 2103 
L 6275 1716 
L 3338 1716 
L 3213 1228 
L 5719 1228 
L 5719 -172 
Q 5719 -791 5100 -791 
Q 4800 -791 4444 -778 
Q 4425 -572 4356 -297 
Q 4725 -334 4963 -334 
Q 5244 -334 5244 -84 
L 5244 841 
L 4169 841 
L 4169 -647 
L 3725 -647 
L 3725 841 
L 2688 841 
L 2688 -647 
L 2244 -647 
L 2244 841 
L 1188 841 
L 1188 -822 
z
M 338 4266 
L 2975 4266 
L 2975 4628 
L 650 4628 
L 650 5016 
L 5700 5016 
L 5700 4628 
L 3419 4628 
L 3419 4266 
L 6063 4266 
L 6063 3103 
L 5581 3103 
L 5581 3878 
L 3419 3878 
L 3419 2391 
L 2975 2391 
L 2975 3878 
L 819 3878 
L 819 3103 
L 338 3103 
L 338 4266 
z
M 3750 2816 
L 5219 2816 
L 5219 2478 
L 3750 2478 
L 3750 2816 
z
M 1175 3516 
L 2644 3516 
L 2644 3178 
L 1175 3178 
L 1175 3516 
z
M 1175 2816 
L 2644 2816 
L 2644 2478 
L 1175 2478 
L 1175 2816 
z
M 3750 3516 
L 5219 3516 
L 5219 3178 
L 3750 3178 
L 3750 3516 
z
" transform="scale(0.015625)"/>
      <path id="MicrosoftYaHei-8981" d="M 613 3978 
L 2181 3978 
L 2181 4659 
L 313 4659 
L 313 5084 
L 6088 5084 
L 6088 4659 
L 4213 4659 
L 4213 3978 
L 5781 3978 
L 5781 2116 
L 5319 2116 
L 5319 2353 
L 1075 2353 
L 1075 2116 
L 613 2116 
L 613 3978 
z
M 94 1741 
L 1959 1741 
Q 2150 2038 2319 2341 
L 2800 2147 
Q 2663 1941 2528 1741 
L 6300 1741 
L 6300 1316 
L 4856 1316 
Q 4497 681 3925 247 
Q 4853 -31 5875 -347 
L 5600 -834 
Q 4550 -469 3394 -81 
Q 2300 -650 531 -872 
Q 419 -641 288 -391 
Q 1809 -253 2750 134 
Q 1991 388 1188 653 
Q 1447 981 1675 1316 
L 94 1316 
L 94 1741 
z
M 1900 853 
Q 2584 650 3328 428 
Q 3938 797 4269 1316 
L 2231 1316 
Q 2066 1078 1900 853 
z
M 2644 2753 
L 3750 2753 
L 3750 3578 
L 2644 3578 
L 2644 2753 
z
M 5319 3578 
L 4213 3578 
L 4213 2753 
L 5319 2753 
L 5319 3578 
z
M 1075 2753 
L 2181 2753 
L 2181 3578 
L 1075 3578 
L 1075 2753 
z
M 2644 3978 
L 3750 3978 
L 3750 4659 
L 2644 4659 
L 2644 3978 
z
" transform="scale(0.015625)"/>
     </defs>
     <use xlink:href="#MicrosoftYaHei-540c"/>
     <use xlink:href="#MicrosoftYaHei-6837" transform="translate(100 0)"/>
     <use xlink:href="#MicrosoftYaHei-9700" transform="translate(200 0)"/>
     <use xlink:href="#MicrosoftYaHei-8981" transform="translate(300 0)"/>
    </g>
   </g>
   <g id="text_9">
    <!-- 输入材料 -->
    <g style="fill: #20344b" transform="translate(150.416 235.769269) scale(0.14 -0.14)">
     <defs>
      <path id="MicrosoftYaHei-8f93" d="M 625 2216 
L 1188 2216 
L 1188 3353 
L 1600 3353 
L 1600 2216 
L 2200 2216 
L 2200 1803 
L 1600 1803 
L 1600 947 
Q 1931 991 2275 1047 
Q 2244 809 2231 616 
Q 1913 572 1600 528 
L 1600 -866 
L 1188 -866 
L 1188 466 
Q 681 391 169 309 
L 100 766 
Q 638 822 1188 891 
L 1188 1803 
L 188 1803 
L 188 2234 
Q 425 2903 681 3934 
L 131 3934 
L 131 4334 
L 781 4334 
Q 888 4784 1000 5297 
L 1450 5197 
Q 1331 4741 1225 4334 
L 2356 4334 
L 2356 3934 
L 1119 3934 
Q 844 2922 625 2216 
z
M 2813 -853 
L 2413 -853 
L 2413 2828 
L 4075 2828 
L 4075 -247 
Q 4075 -797 3569 -797 
Q 3375 -797 3081 -791 
Q 3050 -653 2994 -403 
Q 3244 -422 3450 -422 
Q 3675 -422 3675 -172 
L 3675 553 
L 2813 553 
L 2813 -853 
z
M 4619 5253 
L 4513 5116 
Q 5244 4016 6344 3541 
Q 6131 3291 6019 3109 
Q 5594 3347 5231 3647 
L 5231 3334 
L 3063 3334 
L 3063 3609 
Q 2694 3303 2294 3047 
Q 2106 3291 1963 3428 
Q 3206 4153 3969 5253 
L 4619 5253 
z
M 5550 2941 
L 5975 2941 
L 5975 -103 
Q 5975 -797 5388 -803 
Q 5069 -809 4656 -791 
Q 4625 -559 4569 -322 
Q 4963 -372 5244 -372 
Q 5550 -372 5550 -47 
L 5550 2941 
z
M 4206 4791 
Q 3738 4203 3194 3728 
L 5131 3728 
Q 4600 4191 4206 4791 
z
M 4594 2641 
L 4994 2641 
L 4994 366 
L 4594 366 
L 4594 2641 
z
M 2813 903 
L 3675 903 
L 3675 1503 
L 2813 1503 
L 2813 903 
z
M 3675 2447 
L 2813 2447 
L 2813 1853 
L 3675 1853 
L 3675 2447 
z
" transform="scale(0.015625)"/>
      <path id="MicrosoftYaHei-5165" d="M 1831 4947 
L 2244 5241 
Q 2944 4809 3781 3028 
Q 4950 472 6319 -91 
L 5881 -641 
Q 4513 172 3350 2784 
Q 3256 2994 3166 3184 
Q 2441 700 469 -678 
Q 300 -428 88 -209 
Q 2116 1069 2819 3834 
Q 2328 4653 1831 4947 
z
" transform="scale(0.015625)"/>
      <path id="MicrosoftYaHei-6750" d="M 2863 3997 
L 4925 3997 
L 4925 5278 
L 5419 5278 
L 5419 3997 
L 6306 3997 
L 6306 3541 
L 5419 3541 
L 5419 166 
Q 5419 -716 4600 -716 
Q 4244 -716 3625 -709 
Q 3594 -478 3525 -159 
Q 4144 -203 4450 -203 
Q 4925 -203 4925 191 
L 4925 3003 
Q 4138 1297 2588 59 
Q 2438 241 2219 478 
Q 3856 1716 4681 3541 
L 2863 3541 
L 2863 3997 
z
M 88 1309 
Q 819 2341 1138 3572 
L 188 3572 
L 188 4016 
L 1219 4016 
L 1219 5278 
L 1700 5278 
L 1700 4016 
L 2606 4016 
L 2606 3572 
L 1700 3572 
L 1700 2728 
L 1956 2959 
Q 2481 2472 2938 2003 
L 2563 1659 
Q 2144 2153 1700 2597 
L 1700 -834 
L 1219 -834 
L 1219 2578 
Q 838 1484 331 759 
Q 219 1028 88 1309 
z
" transform="scale(0.015625)"/>
      <path id="MicrosoftYaHei-6599" d="M 88 541 
Q 756 1397 1113 2472 
L 150 2472 
L 150 2897 
L 1194 2897 
L 1194 5297 
L 1656 5297 
L 1656 2897 
L 2675 2897 
L 2675 2472 
L 1656 2472 
L 1656 1853 
L 1938 2078 
Q 2363 1628 2706 1216 
L 2350 928 
Q 2025 1372 1656 1778 
L 1656 -828 
L 1194 -828 
L 1194 1691 
Q 800 641 281 41 
Q 200 297 88 541 
z
M 2850 1353 
L 4850 1597 
L 4850 5297 
L 5331 5297 
L 5331 1653 
L 6281 1772 
L 6319 1322 
L 5331 1197 
L 5331 -828 
L 4850 -828 
L 4850 1141 
L 2913 903 
L 2850 1353 
z
M 2981 2778 
L 3250 3109 
Q 3844 2716 4356 2309 
L 4050 1934 
Q 3569 2347 2981 2778 
z
M 1806 3347 
Q 2094 4053 2288 4653 
L 2731 4516 
Q 2500 3897 2194 3184 
L 1806 3347 
z
M 3119 4366 
L 3406 4697 
Q 3944 4309 4463 3859 
L 4150 3491 
Q 3744 3884 3119 4366 
z
M 144 4516 
L 519 4666 
Q 750 4128 1025 3416 
L 594 3222 
Q 313 4066 144 4516 
z
" transform="scale(0.015625)"/>
     </defs>
     <use xlink:href="#MicrosoftYaHei-8f93"/>
     <use xlink:href="#MicrosoftYaHei-5165" transform="translate(100 0)"/>
     <use xlink:href="#MicrosoftYaHei-6750" transform="translate(200 0)"/>
     <use xlink:href="#MicrosoftYaHei-6599" transform="translate(300 0)"/>
    </g>
   </g>
   <g id="text_10">
    <!-- 精确文字与依赖 -->
    <g style="fill: #20344b" transform="translate(416.696 235.769269) scale(0.14 -0.14)">
     <defs>
      <path id="MicrosoftYaHei-7cbe" d="M 3225 -822 
L 2775 -822 
L 2775 2347 
L 5919 2347 
L 5919 -91 
Q 5919 -772 5219 -772 
L 4200 -772 
Q 4169 -572 4106 -291 
Q 4688 -328 5063 -328 
Q 5469 -328 5469 9 
L 5469 297 
L 3225 297 
L 3225 -822 
z
M 2488 3122 
L 4106 3122 
L 4106 3553 
L 2750 3553 
L 2750 3947 
L 4106 3947 
L 4106 4366 
L 2588 4366 
L 2588 4759 
L 4106 4759 
L 4106 5322 
L 4556 5322 
L 4556 4759 
L 6200 4759 
L 6200 4366 
L 4556 4366 
L 4556 3947 
L 6013 3947 
L 6013 3553 
L 4556 3553 
L 4556 3122 
L 6288 3122 
L 6288 2728 
L 2488 2728 
L 2488 3122 
z
M 56 578 
Q 663 1497 1044 2628 
L 138 2628 
L 138 3028 
L 1094 3028 
L 1094 5303 
L 1506 5303 
L 1506 3028 
L 2313 3028 
L 2313 2628 
L 1506 2628 
L 1506 1853 
L 1738 2041 
Q 2263 1534 2581 1166 
L 2256 866 
Q 1863 1347 1506 1722 
L 1506 -847 
L 1094 -847 
L 1094 1784 
Q 731 841 250 72 
Q 150 353 56 578 
z
M 5469 1947 
L 3225 1947 
L 3225 1509 
L 5469 1509 
L 5469 1947 
z
M 3225 684 
L 5469 684 
L 5469 1122 
L 3225 1122 
L 3225 684 
z
M 1625 3559 
Q 1900 4166 2081 4834 
L 2481 4691 
Q 2250 3997 1994 3397 
L 1625 3559 
z
M 150 4709 
L 519 4841 
Q 744 4209 944 3572 
L 550 3409 
Q 338 4172 150 4709 
z
" transform="scale(0.015625)"/>
      <path id="MicrosoftYaHei-786e" d="M 2075 3453 
Q 2956 4334 3456 5359 
L 3931 5272 
Q 3781 4991 3619 4722 
L 5438 4722 
L 5438 4328 
L 4909 3666 
L 6063 3666 
L 6063 -53 
Q 6063 -728 5475 -728 
Q 5144 -728 4906 -716 
Q 4869 -497 4813 -259 
Q 5156 -291 5331 -291 
Q 5619 -291 5619 16 
L 5619 734 
L 4588 734 
L 4588 -659 
L 4144 -659 
L 4144 734 
L 3113 734 
Q 2944 -263 2444 -884 
Q 2288 -703 2081 -509 
Q 2756 291 2756 1841 
L 2756 3506 
Q 2597 3316 2431 3134 
Q 2281 3278 2075 3453 
z
M 31 1691 
Q 741 2834 1066 4291 
L 231 4291 
L 231 4716 
L 2469 4716 
L 2469 4291 
L 1509 4291 
Q 1356 3613 1128 2991 
L 2200 2991 
L 2200 128 
L 1150 128 
L 1150 -347 
L 738 -347 
L 738 2059 
Q 559 1691 350 1347 
Q 225 1497 31 1691 
z
M 1788 541 
L 1788 2578 
L 1150 2578 
L 1150 541 
L 1788 541 
z
M 4875 4322 
L 3366 4322 
Q 3138 3981 2884 3666 
L 4384 3666 
L 4875 4322 
z
M 4588 1134 
L 5619 1134 
L 5619 1991 
L 4588 1991 
L 4588 1134 
z
M 5619 3241 
L 4588 3241 
L 4588 2391 
L 5619 2391 
L 5619 3241 
z
M 3166 1134 
L 4144 1134 
L 4144 1991 
L 3200 1991 
Q 3200 1841 3166 1134 
z
M 3200 2391 
L 4144 2391 
L 4144 3241 
L 3200 3241 
L 3200 2391 
z
" transform="scale(0.015625)"/>
      <path id="MicrosoftYaHei-6587" d="M 194 4241 
L 3194 4241 
Q 2878 4841 2700 5116 
L 3181 5341 
Q 3356 5072 3706 4466 
L 3256 4241 
L 6194 4241 
L 6194 3778 
L 5041 3778 
Q 4706 1994 3603 909 
Q 4434 303 6244 -178 
Q 5956 -503 5806 -722 
Q 4044 -113 3203 553 
Q 2359 -103 506 -772 
Q 344 -553 131 -284 
Q 1919 253 2822 913 
Q 1681 2131 1372 3778 
L 194 3778 
L 194 4241 
z
M 4506 3778 
L 1872 3778 
Q 2153 2241 3216 1238 
Q 4231 2181 4506 3778 
z
" transform="scale(0.015625)"/>
      <path id="MicrosoftYaHei-5b57" d="M 125 1628 
L 3056 1628 
L 3056 2022 
L 4288 2797 
L 1263 2797 
L 1263 3253 
L 5050 3253 
L 5050 2747 
L 3569 1797 
L 3569 1628 
L 6300 1628 
L 6300 1166 
L 3569 1166 
L 3569 16 
Q 3569 -778 2775 -778 
Q 2456 -778 1844 -766 
Q 1819 -528 1769 -209 
Q 2263 -278 2644 -278 
Q 3056 -278 3056 166 
L 3056 1166 
L 125 1166 
L 125 1628 
z
M 363 4384 
L 3238 4384 
Q 3006 4713 2681 5103 
L 3100 5384 
Q 3494 4953 3750 4584 
L 3453 4384 
L 6088 4384 
L 6088 3116 
L 5581 3116 
L 5581 3928 
L 863 3928 
L 863 3116 
L 363 3116 
L 363 4384 
z
" transform="scale(0.015625)"/>
      <path id="MicrosoftYaHei-4f9d" d="M 5681 3141 
L 6038 2753 
Q 5388 2222 4644 1688 
Q 5250 531 6331 -3 
Q 6106 -253 5938 -478 
Q 4159 622 3675 3138 
Q 3413 2719 3100 2322 
L 3100 22 
Q 3631 322 4194 666 
Q 4238 366 4294 159 
Q 3650 -197 3094 -559 
Q 2906 -691 2731 -853 
L 2394 -422 
Q 2613 -216 2613 141 
L 2613 1759 
Q 2153 1266 1600 816 
Q 1494 1034 1344 1297 
Q 2784 2416 3497 3847 
L 1738 3847 
L 1738 4272 
L 6263 4272 
L 6263 3847 
L 4066 3847 
Q 4038 3791 4009 3731 
Q 4153 2831 4441 2125 
Q 5100 2613 5681 3141 
z
M 69 2272 
Q 906 3522 1369 5303 
L 1831 5166 
Q 1578 4341 1275 3625 
L 1275 -841 
L 825 -841 
L 825 2681 
Q 559 2188 263 1759 
Q 175 2022 69 2272 
z
M 3338 5116 
L 3750 5372 
Q 4075 4966 4338 4591 
L 3900 4303 
Q 3638 4741 3338 5116 
z
" transform="scale(0.015625)"/>
      <path id="MicrosoftYaHei-8d56" d="M 1413 -859 
L 1413 1022 
Q 900 97 219 -541 
Q 175 -266 81 -9 
Q 831 678 1331 1641 
L 850 1641 
L 850 1503 
L 425 1503 
L 425 3547 
L 1413 3547 
L 1413 4178 
L 213 4178 
L 213 4591 
L 1413 4591 
L 1413 5316 
L 1850 5316 
L 1850 4591 
L 3063 4591 
L 3063 4178 
L 1850 4178 
L 1850 3547 
L 2838 3547 
L 2838 1503 
L 2413 1503 
L 2413 1641 
L 1850 1641 
L 1850 1047 
L 2044 1297 
Q 2650 847 3031 503 
L 2725 128 
Q 2344 522 1850 928 
L 1850 -859 
L 1413 -859 
z
M 3313 3447 
L 4581 3447 
L 5106 4328 
L 3969 4328 
Q 3625 3778 3225 3366 
Q 3050 3534 2869 3659 
Q 3563 4384 4000 5334 
L 4463 5241 
Q 4344 4991 4219 4759 
L 5656 4759 
L 5656 4353 
L 5088 3447 
L 6013 3447 
L 6013 678 
L 5569 678 
L 5569 3016 
L 3756 3016 
L 3756 678 
L 3313 678 
L 3313 3447 
z
M 4438 2778 
L 4881 2778 
Q 4888 1728 4850 1384 
Q 4825 1028 4719 728 
Q 5531 153 6288 -466 
L 5963 -841 
Q 5238 -184 4531 322 
Q 4088 -441 3031 -859 
Q 2900 -647 2738 -434 
Q 4350 78 4419 1459 
Q 4444 1809 4438 2778 
z
M 850 2041 
L 1413 2041 
L 1413 3147 
L 850 3147 
L 850 2041 
z
M 2413 3147 
L 1850 3147 
L 1850 2041 
L 2413 2041 
L 2413 3147 
z
" transform="scale(0.015625)"/>
     </defs>
     <use xlink:href="#MicrosoftYaHei-7cbe"/>
     <use xlink:href="#MicrosoftYaHei-786e" transform="translate(100 0)"/>
     <use xlink:href="#MicrosoftYaHei-6587" transform="translate(200 0)"/>
     <use xlink:href="#MicrosoftYaHei-5b57" transform="translate(300 0)"/>
     <use xlink:href="#MicrosoftYaHei-4e0e" transform="translate(400 0)"/>
     <use xlink:href="#MicrosoftYaHei-4f9d" transform="translate(500 0)"/>
     <use xlink:href="#MicrosoftYaHei-8d56" transform="translate(600 0)"/>
    </g>
   </g>
   <g id="text_11">
    <!-- 实际保存的实验副本 -->
    <g style="fill: #20344b" transform="translate(718.704 235.769269) scale(0.14 -0.14)">
     <defs>
      <path id="MicrosoftYaHei-9645" d="M 2256 1678 
Q 2419 503 1656 334 
Q 1413 284 1025 328 
Q 975 584 888 834 
Q 1219 753 1469 784 
Q 1906 834 1763 1678 
Q 1675 2166 1169 2828 
Q 1425 3591 1681 4491 
L 850 4491 
L 850 -841 
L 375 -841 
L 375 4953 
L 2200 4953 
L 2200 4503 
Q 1913 3572 1694 2884 
Q 2194 2203 2256 1678 
z
M 2150 3228 
L 6225 3228 
L 6225 2766 
L 4425 2766 
L 4425 16 
Q 4425 -747 3688 -747 
Q 3394 -747 2938 -741 
Q 2881 -403 2838 -209 
Q 3313 -259 3575 -259 
Q 3938 -259 3938 122 
L 3938 2766 
L 2150 2766 
L 2150 3228 
z
M 2488 4803 
L 5888 4803 
L 5888 4341 
L 2488 4341 
L 2488 4803 
z
M 2969 2097 
L 3431 1928 
Q 2988 747 2481 -222 
Q 2206 -72 2038 -3 
Q 2594 1003 2969 2097 
z
M 4900 1872 
L 5331 2084 
Q 5844 1041 6300 53 
L 5844 -166 
Q 5494 641 4900 1872 
z
" transform="scale(0.015625)"/>
      <path id="MicrosoftYaHei-4fdd" d="M 2263 5003 
L 5750 5003 
L 5750 2647 
L 5275 2647 
L 5275 2884 
L 4225 2884 
L 4225 2041 
L 6288 2041 
L 6288 1616 
L 4588 1616 
Q 5163 659 6338 109 
Q 6144 -159 6025 -353 
Q 4850 359 4225 1572 
L 4225 -847 
L 3769 -847 
L 3769 1597 
Q 3013 234 1875 -478 
Q 1731 -303 1525 -97 
Q 2638 516 3331 1616 
L 1694 1616 
L 1694 2041 
L 3769 2041 
L 3769 2884 
L 2738 2884 
L 2738 2603 
L 2263 2603 
L 2263 5003 
z
M 69 2247 
Q 906 3497 1369 5278 
L 1831 5141 
Q 1575 4316 1275 3597 
L 1275 -816 
L 825 -816 
L 825 2653 
Q 556 2159 263 1734 
Q 175 1997 69 2247 
z
M 5275 4584 
L 2738 4584 
L 2738 3303 
L 5275 3303 
L 5275 4584 
z
" transform="scale(0.015625)"/>
      <path id="MicrosoftYaHei-5b58" d="M 169 4641 
L 1925 4641 
Q 2053 4991 2163 5359 
L 2675 5228 
Q 2578 4928 2472 4641 
L 6275 4641 
L 6275 4178 
L 2291 4178 
Q 1963 3384 1563 2709 
L 1563 -797 
L 1081 -797 
L 1081 1984 
Q 747 1528 369 1141 
Q 244 1359 69 1591 
Q 1113 2688 1744 4178 
L 169 4178 
L 169 4641 
z
M 1838 1791 
L 3994 1791 
L 3994 2203 
Q 4656 2628 5156 3047 
L 2256 3047 
L 2256 3503 
L 5869 3503 
L 5869 2997 
Q 5231 2491 4475 1978 
L 4475 1791 
L 6319 1791 
L 6319 1334 
L 4475 1334 
L 4475 -72 
Q 4475 -784 3763 -784 
Q 3425 -784 2856 -766 
Q 2825 -528 2775 -259 
Q 3375 -322 3663 -322 
Q 3994 -322 3994 9 
L 3994 1334 
L 1838 1334 
L 1838 1791 
z
" transform="scale(0.015625)"/>
      <path id="MicrosoftYaHei-7684" d="M 356 4284 
L 988 4284 
Q 1219 4853 1369 5322 
L 1894 5172 
Q 1697 4694 1513 4284 
L 2763 4284 
L 2763 -691 
L 2263 -691 
L 2263 -203 
L 856 -203 
L 856 -734 
L 356 -734 
L 356 4284 
z
M 2856 3003 
Q 3444 3934 3850 5322 
L 4375 5191 
Q 4216 4719 4050 4303 
L 6063 4303 
Q 5988 1091 5938 259 
Q 5894 -722 4906 -722 
Q 4338 -722 3750 -684 
Q 3713 -372 3650 -128 
L 3669 -128 
Q 4294 -216 4813 -216 
Q 5381 -216 5425 384 
Q 5494 1316 5525 3834 
L 3850 3834 
Q 3578 3231 3288 2772 
Q 3119 2891 2856 3003 
z
M 856 266 
L 2263 266 
L 2263 1847 
L 856 1847 
L 856 266 
z
M 2263 3816 
L 856 3816 
L 856 2297 
L 2263 2297 
L 2263 3816 
z
M 3406 2578 
L 3788 2859 
Q 4481 2041 4894 1441 
L 4431 1116 
Q 3988 1841 3406 2578 
z
" transform="scale(0.015625)"/>
      <path id="MicrosoftYaHei-9a8c" d="M 963 4116 
L 819 2397 
L 1450 2397 
L 1613 4503 
L 194 4503 
L 194 4928 
L 2088 4928 
L 1894 2397 
L 2288 2397 
Q 2244 1078 2206 228 
Q 2188 -722 1381 -722 
Q 1044 -722 588 -703 
Q 556 -472 506 -209 
Q 956 -266 1306 -266 
Q 1744 -266 1769 266 
Q 1806 953 1831 1972 
L 331 1972 
L 531 4116 
L 963 4116 
z
M 2338 -103 
L 4594 -103 
Q 5044 1009 5394 2222 
L 5869 2072 
Q 5500 953 5088 -103 
L 6188 -103 
L 6188 -534 
L 2338 -534 
L 2338 -103 
z
M 4606 5278 
L 4488 5078 
Q 5244 3734 6363 3122 
Q 6163 2872 6031 2684 
Q 4931 3497 4238 4641 
Q 3600 3509 2456 2609 
Q 2344 2772 2144 3003 
Q 3388 3866 4050 5278 
L 4606 5278 
z
M 2975 2978 
L 5550 2978 
L 5550 2547 
L 2975 2547 
L 2975 2978 
z
M 3731 2178 
L 4175 2297 
Q 4438 1359 4606 659 
L 4150 528 
Q 3969 1391 3731 2178 
z
M 2656 1897 
L 3094 2034 
Q 3400 1147 3606 453 
L 3144 297 
Q 2938 1097 2656 1897 
z
M 38 1034 
Q 763 1178 1631 1384 
Q 1625 1134 1638 941 
Q 925 791 131 572 
L 38 1034 
z
" transform="scale(0.015625)"/>
      <path id="MicrosoftYaHei-526f" d="M 400 2109 
L 3725 2109 
L 3725 -828 
L 3275 -828 
L 3275 -491 
L 850 -491 
L 850 -828 
L 400 -828 
L 400 2109 
z
M 681 4059 
L 3425 4059 
L 3425 2466 
L 2975 2466 
L 2975 2622 
L 1131 2622 
L 1131 2466 
L 681 2466 
L 681 4059 
z
M 5419 5228 
L 5919 5228 
L 5919 28 
Q 5919 -728 5206 -734 
Q 4881 -741 4281 -728 
Q 4250 -441 4181 -172 
Q 4738 -228 5050 -228 
Q 5419 -228 5419 166 
L 5419 5228 
z
M 4731 822 
L 4250 822 
L 4250 4591 
L 4731 4591 
L 4731 822 
z
M 150 4984 
L 3913 4984 
L 3913 4559 
L 150 4559 
L 150 4984 
z
M 2975 3672 
L 1131 3672 
L 1131 3009 
L 2975 3009 
L 2975 3672 
z
M 3275 1722 
L 2288 1722 
L 2288 991 
L 3275 991 
L 3275 1722 
z
M 850 991 
L 1838 991 
L 1838 1722 
L 850 1722 
L 850 991 
z
M 2288 -103 
L 3275 -103 
L 3275 616 
L 2288 616 
L 2288 -103 
z
M 850 -103 
L 1838 -103 
L 1838 616 
L 850 616 
L 850 -103 
z
" transform="scale(0.015625)"/>
      <path id="MicrosoftYaHei-672c" d="M 6281 803 
Q 6119 641 5856 366 
Q 4344 1531 3444 3353 
L 3444 878 
L 4875 878 
L 4875 441 
L 3444 441 
L 3444 -841 
L 2956 -841 
L 2956 441 
L 1475 441 
L 1475 878 
L 2956 878 
L 2956 3353 
Q 2159 1766 513 291 
Q 269 522 100 666 
Q 1878 2125 2759 3753 
L 238 3753 
L 238 4216 
L 2956 4216 
L 2956 5341 
L 3444 5341 
L 3444 4216 
L 6163 4216 
L 6163 3753 
L 3622 3753 
Q 4616 1884 6281 803 
z
" transform="scale(0.015625)"/>
     </defs>
     <use xlink:href="#MicrosoftYaHei-5b9e"/>
     <use xlink:href="#MicrosoftYaHei-9645" transform="translate(100 0)"/>
     <use xlink:href="#MicrosoftYaHei-4fdd" transform="translate(200 0)"/>
     <use xlink:href="#MicrosoftYaHei-5b58" transform="translate(300 0)"/>
     <use xlink:href="#MicrosoftYaHei-7684" transform="translate(400 0)"/>
     <use xlink:href="#MicrosoftYaHei-5b9e" transform="translate(500 0)"/>
     <use xlink:href="#MicrosoftYaHei-9a8c" transform="translate(600 0)"/>
     <use xlink:href="#MicrosoftYaHei-526f" transform="translate(700 0)"/>
     <use xlink:href="#MicrosoftYaHei-672c" transform="translate(800 0)"/>
    </g>
   </g>
   <g id="text_12">
    <!-- 运行证据 -->
    <g style="fill: #20344b" transform="translate(150.416 299.928469) scale(0.14 -0.14)">
     <defs>
      <path id="MicrosoftYaHei-8bc1" d="M 1681 -34 
L 2550 -34 
L 2550 3422 
L 3031 3422 
L 3031 -34 
L 4025 -34 
L 4025 4534 
L 2025 4534 
L 2025 4997 
L 6200 4997 
L 6200 4534 
L 4525 4534 
L 4525 2653 
L 5975 2653 
L 5975 2191 
L 4525 2191 
L 4525 -34 
L 6300 -34 
L 6300 -497 
L 1681 -497 
L 1681 -34 
z
M 2050 1534 
Q 2075 1316 2169 991 
Q 1413 241 1025 -203 
L 669 203 
Q 856 466 856 828 
L 856 2784 
L 100 2784 
L 100 3234 
L 1338 3234 
L 1338 797 
Q 1625 1072 2050 1534 
z
M 706 5222 
Q 1438 4478 1731 4147 
L 1294 3778 
Q 900 4291 325 4891 
L 706 5222 
z
" transform="scale(0.015625)"/>
     </defs>
     <use xlink:href="#MicrosoftYaHei-8fd0"/>
     <use xlink:href="#MicrosoftYaHei-884c" transform="translate(100 0)"/>
     <use xlink:href="#MicrosoftYaHei-8bc1" transform="translate(200 0)"/>
     <use xlink:href="#MicrosoftYaHei-636e" transform="translate(300 0)"/>
    </g>
   </g>
   <g id="text_13">
    <!-- 明确待执行 -->
    <g style="fill: #20344b" transform="translate(430.696 299.928469) scale(0.14 -0.14)">
     <defs>
      <path id="MicrosoftYaHei-660e" d="M 2350 -872 
Q 2188 -691 1944 -491 
Q 2706 197 2950 853 
Q 3188 1472 3188 2816 
L 3188 5016 
L 5931 5016 
L 5931 -47 
Q 5931 -791 5213 -791 
Q 4769 -791 4150 -772 
Q 4113 -522 4056 -259 
Q 4675 -297 5056 -297 
Q 5438 -297 5438 72 
L 5438 1284 
L 3575 1284 
Q 3400 116 2350 -872 
z
M 475 4816 
L 2431 4816 
L 2431 566 
L 944 566 
L 944 109 
L 475 109 
L 475 4816 
z
M 3634 1734 
L 5438 1734 
L 5438 2922 
L 3681 2922 
Q 3688 2278 3634 1734 
z
M 5438 4547 
L 3681 4547 
L 3681 3372 
L 5438 3372 
L 5438 4547 
z
M 1963 1022 
L 1963 2491 
L 944 2491 
L 944 1022 
L 1963 1022 
z
M 1963 4359 
L 944 4359 
L 944 2934 
L 1963 2934 
L 1963 4359 
z
" transform="scale(0.015625)"/>
      <path id="MicrosoftYaHei-5f85" d="M 2013 3116 
L 3881 3116 
L 3881 4016 
L 2288 4016 
L 2288 4447 
L 3881 4447 
L 3881 5322 
L 4381 5322 
L 4381 4447 
L 5988 4447 
L 5988 4016 
L 4381 4016 
L 4381 3116 
L 6238 3116 
L 6238 2678 
L 2013 2678 
L 2013 3116 
z
M 2025 1891 
L 4813 1891 
L 4813 2484 
L 5313 2484 
L 5313 1891 
L 6288 1891 
L 6288 1453 
L 5313 1453 
L 5313 -9 
Q 5313 -747 4531 -747 
Q 4169 -747 3550 -741 
Q 3513 -516 3450 -216 
Q 3994 -259 4425 -259 
Q 4813 -259 4813 166 
L 4813 1453 
L 2025 1453 
L 2025 1891 
z
M 81 1622 
Q 894 2391 1606 3672 
L 2044 3447 
Q 1756 2966 1469 2547 
L 1469 -847 
L 1000 -847 
L 1000 1913 
Q 653 1475 300 1122 
Q 206 1366 81 1622 
z
M 94 3578 
Q 975 4272 1600 5341 
L 2044 5084 
Q 1250 3903 350 3134 
Q 238 3353 94 3578 
z
M 2475 972 
L 2838 1253 
Q 3288 766 3631 334 
L 3231 28 
Q 2881 509 2475 972 
z
" transform="scale(0.015625)"/>
      <path id="MicrosoftYaHei-6267" d="M 2225 2272 
L 2519 2647 
Q 2788 2472 3059 2294 
Q 3128 2856 3147 3622 
L 2406 3622 
L 2406 4097 
L 3156 4097 
Q 3169 4672 3175 5303 
L 3663 5303 
Q 3656 4653 3644 4097 
L 5363 4097 
Q 5350 3228 5344 2341 
Q 5319 616 5488 34 
Q 5531 -103 5618 -103 
Q 5706 -103 5744 59 
Q 5831 409 5913 1059 
Q 6156 934 6375 878 
Q 6288 253 6175 -159 
Q 6025 -691 5613 -691 
Q 5194 -691 5013 -103 
Q 4869 397 4875 1847 
Q 4869 2672 4869 3622 
L 3634 3622 
Q 3616 2709 3513 1988 
Q 3994 1663 4481 1322 
L 4163 891 
Q 3791 1172 3416 1444 
Q 3113 100 2088 -847 
Q 1931 -634 1713 -422 
Q 2725 506 2975 1756 
Q 2600 2019 2225 2272 
z
M 88 1966 
Q 525 2069 969 2181 
L 969 3647 
L 144 3647 
L 144 4097 
L 969 4097 
L 969 5303 
L 1431 5303 
L 1431 4097 
L 2163 4097 
L 2163 3647 
L 1431 3647 
L 1431 2303 
Q 1772 2394 2113 2491 
Q 2125 2216 2156 2016 
L 1431 1813 
L 1431 -78 
Q 1431 -759 875 -759 
Q 606 -759 219 -747 
Q 194 -516 138 -247 
Q 538 -291 694 -291 
Q 969 -291 969 3 
L 969 1678 
Q 559 1559 150 1441 
L 88 1966 
z
" transform="scale(0.015625)"/>
     </defs>
     <use xlink:href="#MicrosoftYaHei-660e"/>
     <use xlink:href="#MicrosoftYaHei-786e" transform="translate(100 0)"/>
     <use xlink:href="#MicrosoftYaHei-5f85" transform="translate(200 0)"/>
     <use xlink:href="#MicrosoftYaHei-6267" transform="translate(300 0)"/>
     <use xlink:href="#MicrosoftYaHei-884c" transform="translate(400 0)"/>
    </g>
   </g>
   <g id="text_14">
    <!-- 全部Run与判分 -->
    <g style="fill: #20344b" transform="translate(733.506812 299.928469) scale(0.14 -0.14)">
     <defs>
      <path id="MicrosoftYaHei-5168" d="M 369 -103 
L 2950 -103 
L 2950 984 
L 925 984 
L 925 1441 
L 2950 1441 
L 2950 2403 
L 1156 2403 
L 1156 2859 
L 5269 2859 
L 5269 2403 
L 3469 2403 
L 3469 1441 
L 5500 1441 
L 5500 984 
L 3469 984 
L 3469 -103 
L 6044 -103 
L 6044 -566 
L 369 -566 
L 369 -103 
z
M 3656 5234 
L 3531 5078 
Q 4581 3703 6319 3009 
Q 6125 2734 5988 2509 
Q 4338 3322 3219 4691 
Q 2263 3453 394 2428 
Q 269 2641 81 2897 
Q 2013 3866 3000 5234 
L 3656 5234 
z
" transform="scale(0.015625)"/>
      <path id="MicrosoftYaHei-90e8" d="M 6288 1247 
Q 6288 172 5444 84 
Q 5125 47 4594 109 
Q 4563 334 4513 659 
Q 4969 584 5294 584 
Q 5844 584 5794 1341 
Q 5769 2009 4838 2709 
Q 5244 3516 5663 4503 
L 4388 4503 
L 4388 -828 
L 3913 -828 
L 3913 4966 
L 6163 4966 
L 6163 4453 
Q 5919 3822 5406 2816 
Q 6288 2128 6288 1247 
z
M 575 1753 
L 3275 1753 
L 3275 -791 
L 2813 -791 
L 2813 -328 
L 1038 -328 
L 1038 -797 
L 575 -797 
L 575 1753 
z
M 2813 1334 
L 1038 1334 
L 1038 103 
L 2813 103 
L 2813 1334 
z
M 125 2822 
L 2125 2822 
Q 2497 3466 2731 3997 
L 3194 3759 
Q 2922 3284 2616 2822 
L 3706 2822 
L 3706 2403 
L 125 2403 
L 125 2822 
z
M 263 4472 
L 1825 4472 
Q 1703 4753 1456 5159 
L 1888 5359 
Q 2169 4891 2288 4616 
L 1981 4472 
L 3594 4472 
L 3594 4053 
L 263 4053 
L 263 4472 
z
M 681 3728 
L 1063 3959 
Q 1375 3516 1631 3072 
L 1206 2828 
Q 1013 3222 681 3728 
z
" transform="scale(0.015625)"/>
      <path id="MicrosoftYaHei-52" d="M 4159 0 
L 3422 0 
L 2619 1344 
Q 2378 1747 2178 1892 
Q 1978 2038 1700 2038 
L 1250 2038 
L 1250 0 
L 625 0 
L 625 4841 
L 2100 4841 
Q 2806 4841 3206 4500 
Q 3606 4159 3606 3547 
Q 3606 2541 2531 2241 
L 2531 2225 
Q 2731 2141 2876 1984 
Q 3022 1828 3253 1450 
L 4159 0 
z
M 1250 4294 
L 1250 2584 
L 1988 2584 
Q 2416 2584 2683 2834 
Q 2950 3084 2950 3491 
Q 2950 3869 2706 4081 
Q 2463 4294 1997 4294 
L 1250 4294 
z
" transform="scale(0.015625)"/>
      <path id="MicrosoftYaHei-75" d="M 3400 0 
L 2784 0 
L 2784 544 
L 2772 544 
Q 2425 -81 1706 -81 
Q 478 -81 478 1388 
L 478 3456 
L 1084 3456 
L 1084 1478 
Q 1084 425 1891 425 
Q 2291 425 2537 720 
Q 2784 1016 2784 1466 
L 2784 3456 
L 3400 3456 
L 3400 0 
z
" transform="scale(0.015625)"/>
      <path id="MicrosoftYaHei-6e" d="M 3469 0 
L 2859 0 
L 2859 1966 
Q 2859 3031 2081 3031 
Q 1678 3031 1418 2731 
Q 1159 2431 1159 1972 
L 1159 0 
L 547 0 
L 547 3456 
L 1159 3456 
L 1159 2884 
L 1172 2884 
Q 1563 3538 2306 3538 
Q 2875 3538 3172 3173 
Q 3469 2809 3469 2113 
L 3469 0 
z
" transform="scale(0.015625)"/>
      <path id="MicrosoftYaHei-5206" d="M 900 2559 
L 5056 2559 
Q 5025 1497 4963 484 
Q 4888 -684 3856 -678 
Q 3350 -684 2788 -647 
Q 2750 -384 2700 -116 
Q 3181 -184 3775 -191 
Q 4400 -203 4463 541 
Q 4513 1216 4538 2097 
L 2616 2097 
Q 2541 1053 2181 416 
Q 1706 -422 588 -878 
Q 425 -666 231 -459 
Q 1269 -72 1725 666 
Q 2053 1225 2103 2097 
L 900 2097 
L 900 2559 
z
M 3488 5159 
L 3938 5353 
Q 4625 3678 6350 2847 
Q 6069 2553 5944 2372 
Q 4225 3366 3488 5159 
z
M 50 2766 
Q 1338 3678 2250 5253 
L 2694 5009 
Q 1744 3347 413 2341 
Q 281 2534 50 2766 
z
" transform="scale(0.015625)"/>
     </defs>
     <use xlink:href="#MicrosoftYaHei-5168"/>
     <use xlink:href="#MicrosoftYaHei-90e8" transform="translate(100 0)"/>
     <use xlink:href="#MicrosoftYaHei-52" transform="translate(200 0)"/>
     <use xlink:href="#MicrosoftYaHei-75" transform="translate(265.283203 0)"/>
     <use xlink:href="#MicrosoftYaHei-6e" transform="translate(326.904297 0)"/>
     <use xlink:href="#MicrosoftYaHei-4e0e" transform="translate(388.525391 0)"/>
     <use xlink:href="#MicrosoftYaHei-5224" transform="translate(488.525391 0)"/>
     <use xlink:href="#MicrosoftYaHei-5206" transform="translate(588.525391 0)"/>
    </g>
   </g>
   <g id="text_15">
    <!-- 接收范围 -->
    <g style="fill: #20344b" transform="translate(150.416 364.087669) scale(0.14 -0.14)">
     <defs>
      <path id="MicrosoftYaHei-63a5" d="M 1800 -366 
Q 3019 -188 3784 222 
Q 3200 484 2531 772 
Q 2800 1119 3028 1466 
L 2000 1466 
L 2000 1884 
L 3291 1884 
Q 3491 2222 3656 2559 
L 4119 2366 
Q 3969 2116 3822 1884 
L 6225 1884 
L 6225 1466 
L 5403 1466 
Q 5156 778 4672 306 
Q 5469 -25 6219 -353 
L 5944 -816 
Q 5241 -444 4288 -3 
Q 3450 -572 2038 -841 
Q 1950 -634 1800 -366 
z
M 100 1966 
Q 544 2088 963 2213 
L 963 3641 
L 175 3641 
L 175 4091 
L 963 4091 
L 963 5259 
L 1425 5259 
L 1425 4091 
L 2144 4091 
L 2144 3641 
L 1425 3641 
L 1425 2356 
Q 1722 2450 2006 2547 
Q 2013 2266 2044 2059 
Q 1722 1956 1425 1856 
L 1425 -72 
Q 1425 -747 819 -753 
Q 588 -759 231 -747 
Q 206 -491 156 -228 
Q 531 -266 688 -266 
Q 963 -266 963 66 
L 963 1703 
Q 534 1559 163 1428 
L 100 1966 
z
M 2019 3072 
L 4453 3072 
Q 4850 3622 5156 4103 
L 5625 3847 
Q 5300 3456 4966 3072 
L 6269 3072 
L 6269 2653 
L 2019 2653 
L 2019 3072 
z
M 2263 4591 
L 4028 4591 
Q 3881 4875 3719 5153 
L 4138 5347 
Q 4338 5009 4519 4666 
L 4359 4591 
L 6119 4591 
L 6119 4172 
L 2263 4172 
L 2263 4591 
z
M 3181 909 
Q 3703 703 4203 497 
Q 4694 894 4900 1466 
L 3553 1466 
Q 3363 1175 3181 909 
z
M 2825 3853 
L 3188 4097 
Q 3481 3753 3756 3372 
L 3356 3103 
Q 3119 3491 2825 3853 
z
" transform="scale(0.015625)"/>
      <path id="MicrosoftYaHei-6536" d="M 2244 2659 
Q 3044 4047 3400 5341 
L 3906 5197 
Q 3706 4619 3488 4091 
L 6213 4091 
L 6213 3628 
L 5478 3628 
Q 5384 1819 4550 681 
Q 5184 119 6350 -297 
Q 6156 -541 5994 -797 
Q 4881 -322 4219 300 
Q 3616 -294 2550 -853 
Q 2419 -647 2231 -434 
Q 3297 100 3878 672 
Q 3156 1575 2944 2916 
Q 2769 2575 2581 2259 
Q 2463 2441 2244 2659 
z
M 1681 5291 
L 2156 5291 
L 2156 -816 
L 1681 -816 
L 1681 1113 
Q 1300 900 906 641 
Q 744 522 588 359 
L 231 778 
Q 425 984 425 1316 
L 425 4416 
L 900 4416 
L 900 1216 
Q 1272 1413 1681 1634 
L 1681 5291 
z
M 4984 3628 
L 3322 3628 
Q 3413 2103 4203 1059 
Q 4916 2063 4984 3628 
z
" transform="scale(0.015625)"/>
     </defs>
     <use xlink:href="#MicrosoftYaHei-63a5"/>
     <use xlink:href="#MicrosoftYaHei-6536" transform="translate(100 0)"/>
     <use xlink:href="#MicrosoftYaHei-8303" transform="translate(200 0)"/>
     <use xlink:href="#MicrosoftYaHei-56f4" transform="translate(300 0)"/>
    </g>
   </g>
   <g id="text_16">
    <!-- 纸面审读 -->
    <g style="fill: #20344b" transform="translate(437.696 364.087669) scale(0.14 -0.14)">
     <defs>
      <path id="MicrosoftYaHei-7eb8" d="M 2556 4816 
Q 4006 4797 6038 5084 
L 6206 4597 
Q 5394 4513 4669 4459 
Q 4681 3481 4725 2766 
L 6213 2766 
L 6213 2316 
L 4756 2316 
Q 4881 500 5381 -134 
Q 5494 -259 5581 -259 
Q 5719 -259 5750 -59 
Q 5806 341 5863 878 
Q 6150 772 6325 722 
Q 6250 128 6175 -297 
Q 6069 -803 5669 -803 
Q 5219 -803 4913 -316 
Q 4428 409 4269 2316 
L 3025 2316 
L 3025 -59 
Q 3475 103 4288 441 
Q 4288 134 4294 -78 
Q 3575 -328 2875 -628 
Q 2800 -666 2663 -741 
L 2369 -291 
Q 2556 -84 2556 209 
L 2556 4816 
z
M 856 1697 
Q 1594 1766 2175 1847 
Q 2150 1578 2125 1422 
Q 1294 1322 294 1184 
L 194 1641 
Q 531 1863 1156 2931 
Q 575 2894 213 2859 
L 88 3272 
Q 681 4191 1106 5303 
L 1594 5128 
Q 1156 4197 619 3309 
Q 859 3309 1378 3322 
Q 1594 3719 1844 4203 
L 2288 3997 
Q 1581 2747 856 1697 
z
M 3025 4378 
L 3025 2766 
L 4238 2766 
Q 4188 3503 4175 4425 
Q 3566 4391 3025 4378 
z
M 131 209 
Q 1169 403 2250 672 
Q 2225 347 2225 222 
Q 1244 -22 269 -266 
L 131 209 
z
" transform="scale(0.015625)"/>
      <path id="MicrosoftYaHei-9762" d="M 519 3659 
L 2500 3659 
Q 2681 4134 2794 4484 
L 188 4484 
L 188 4947 
L 6200 4947 
L 6200 4484 
L 3353 4484 
Q 3216 4144 3009 3659 
L 5850 3659 
L 5850 -809 
L 5369 -809 
L 5369 -459 
L 1000 -459 
L 1000 -816 
L 519 -816 
L 519 3659 
z
M 5369 3247 
L 4363 3247 
L 4363 -47 
L 5369 -47 
L 5369 3247 
z
M 1000 -47 
L 2006 -47 
L 2006 3247 
L 1000 3247 
L 1000 -47 
z
M 2456 -47 
L 3913 -47 
L 3913 784 
L 2456 784 
L 2456 -47 
z
M 2456 1184 
L 3913 1184 
L 3913 2016 
L 2456 2016 
L 2456 1184 
z
M 2456 2416 
L 3913 2416 
L 3913 3247 
L 2456 3247 
L 2456 2416 
z
" transform="scale(0.015625)"/>
      <path id="MicrosoftYaHei-5ba1" d="M 900 3297 
L 2956 3297 
L 2956 3972 
L 3444 3972 
L 3444 3297 
L 5506 3297 
L 5506 234 
L 5044 234 
L 5044 528 
L 3444 528 
L 3444 -834 
L 2956 -834 
L 2956 528 
L 1363 528 
L 1363 234 
L 900 234 
L 900 3297 
z
M 344 4603 
L 3075 4603 
Q 2916 4863 2713 5147 
L 3144 5403 
Q 3400 5078 3594 4784 
L 3300 4603 
L 6063 4603 
L 6063 3434 
L 5575 3434 
L 5575 4153 
L 831 4153 
L 831 3434 
L 344 3434 
L 344 4603 
z
M 3444 966 
L 5044 966 
L 5044 1703 
L 3444 1703 
L 3444 966 
z
M 1363 966 
L 2956 966 
L 2956 1703 
L 1363 1703 
L 1363 966 
z
M 5044 2859 
L 3444 2859 
L 3444 2128 
L 5044 2128 
L 5044 2859 
z
M 1363 2128 
L 2956 2128 
L 2956 2859 
L 1363 2859 
L 1363 2128 
z
" transform="scale(0.015625)"/>
      <path id="MicrosoftYaHei-8bfb" d="M 1844 3516 
L 3750 3516 
L 3750 4141 
L 2075 4141 
L 2075 4578 
L 3750 4578 
L 3750 5303 
L 4225 5303 
L 4225 4578 
L 6013 4578 
L 6013 4141 
L 4225 4141 
L 4225 3516 
L 6138 3516 
L 6063 2291 
Q 5838 2316 5581 2322 
L 5650 3078 
L 1844 3078 
L 1844 3516 
z
M 1794 1291 
L 4063 1291 
Q 4188 1803 4156 2916 
L 4631 2916 
Q 4650 1741 4556 1291 
L 6219 1291 
L 6219 853 
L 4463 853 
Q 4419 734 4369 634 
Q 5300 134 6200 -391 
L 5888 -816 
Q 4950 -222 4125 247 
Q 3563 -434 2044 -884 
Q 1906 -666 1731 -434 
Q 3544 53 3950 853 
L 1794 853 
L 1794 1291 
z
M 2025 672 
Q 2038 384 2069 128 
Q 1381 -316 913 -691 
L 625 -278 
Q 838 -91 838 259 
L 838 2678 
L 88 2678 
L 88 3128 
L 1306 3128 
L 1306 166 
Q 1619 378 2025 672 
z
M 813 5147 
Q 1288 4672 1763 4141 
L 1331 3784 
Q 894 4334 431 4834 
L 813 5147 
z
M 2056 1997 
L 2281 2334 
Q 2869 2053 3425 1728 
L 3181 1353 
Q 2675 1678 2056 1997 
z
M 2513 2678 
L 2744 3022 
Q 3331 2734 3869 2434 
L 3619 2053 
Q 3088 2384 2513 2678 
z
" transform="scale(0.015625)"/>
     </defs>
     <use xlink:href="#MicrosoftYaHei-7eb8"/>
     <use xlink:href="#MicrosoftYaHei-9762" transform="translate(100 0)"/>
     <use xlink:href="#MicrosoftYaHei-5ba1" transform="translate(200 0)"/>
     <use xlink:href="#MicrosoftYaHei-8bfb" transform="translate(300 0)"/>
    </g>
   </g>
   <g id="text_17">
    <!-- 实际约定的核查 -->
    <g style="fill: #20344b" transform="translate(732.704 364.087669) scale(0.14 -0.14)">
     <defs>
      <path id="MicrosoftYaHei-7ea6" d="M 2269 2884 
Q 3056 4047 3463 5341 
L 3981 5197 
Q 3794 4731 3613 4322 
L 6056 4322 
Q 5969 1472 5913 316 
Q 5856 -678 4850 -678 
Q 4263 -678 3600 -641 
Q 3556 -397 3488 -78 
Q 4200 -166 4794 -166 
Q 5369 -166 5394 441 
Q 5463 1322 5519 3853 
L 3394 3853 
Q 3053 3153 2719 2641 
Q 2519 2759 2269 2884 
z
M 981 1534 
Q 1938 1666 2556 1766 
Q 2513 1516 2500 1291 
Q 1481 1153 413 978 
L 300 1441 
Q 772 1922 1309 2766 
Q 597 2722 244 2691 
L 125 3116 
Q 813 4028 1394 5347 
L 1869 5159 
Q 1275 4016 688 3153 
Q 1150 3163 1566 3178 
Q 1813 3591 2075 4078 
L 2538 3847 
Q 1731 2509 981 1534 
z
M 113 97 
Q 1488 278 2669 484 
Q 2644 234 2631 -3 
Q 1619 -128 225 -391 
L 113 97 
z
M 3144 2584 
L 3544 2847 
Q 4144 2078 4600 1403 
L 4131 1103 
Q 3713 1791 3144 2584 
z
" transform="scale(0.015625)"/>
      <path id="MicrosoftYaHei-5b9a" d="M 81 -384 
Q 1119 509 1281 2241 
L 1806 2159 
Q 1731 1581 1578 1081 
Q 2063 50 3081 -103 
L 3081 2647 
L 225 2647 
L 225 3116 
L 6163 3116 
L 6163 2647 
L 3600 2647 
L 3600 1634 
L 5775 1634 
L 5775 1172 
L 3600 1172 
L 3600 -138 
Q 4844 -169 6306 -116 
Q 6200 -359 6125 -634 
Q 4594 -653 3450 -616 
Q 2041 -616 1378 528 
Q 1022 -300 413 -872 
Q 269 -628 81 -384 
z
M 450 4566 
L 3116 4566 
Q 2931 4834 2725 5091 
L 3200 5347 
Q 3444 5066 3731 4716 
L 3450 4566 
L 5981 4566 
L 5981 3378 
L 5488 3378 
L 5488 4097 
L 944 4097 
L 944 3384 
L 450 3384 
L 450 4566 
z
" transform="scale(0.015625)"/>
      <path id="MicrosoftYaHei-6838" d="M 2063 759 
Q 3306 1403 4150 2284 
Q 3538 2222 3013 2166 
Q 2781 2141 2581 2078 
L 2350 2534 
Q 2606 2672 2750 2859 
Q 3144 3341 3519 3959 
L 2331 3959 
L 2331 4409 
L 4250 4409 
Q 3994 4791 3775 5091 
L 4181 5347 
Q 4419 5053 4731 4628 
L 4400 4409 
L 6313 4409 
L 6313 3959 
L 4100 3959 
Q 3644 3266 3156 2653 
Q 3844 2691 4550 2734 
Q 4906 3178 5175 3678 
L 5631 3434 
Q 4563 1559 2419 378 
Q 2244 572 2063 759 
z
M 88 1353 
Q 756 2416 1025 3616 
L 131 3616 
L 131 4053 
L 1031 4053 
L 1031 5297 
L 1500 5297 
L 1500 4053 
L 2213 4053 
L 2213 3616 
L 1500 3616 
L 1500 2516 
L 1694 2722 
Q 2094 2384 2438 2047 
L 2119 1728 
Q 1813 2059 1500 2347 
L 1500 -866 
L 1031 -866 
L 1031 2447 
Q 713 1422 288 803 
Q 206 1072 88 1353 
z
M 2250 -472 
Q 4388 428 5769 2466 
L 6194 2178 
Q 5656 1403 5019 784 
Q 5738 197 6369 -366 
L 5988 -772 
Q 5400 -191 4675 466 
Q 3731 -366 2581 -884 
Q 2463 -716 2250 -472 
z
" transform="scale(0.015625)"/>
      <path id="MicrosoftYaHei-67e5" d="M 306 4659 
L 2975 4659 
L 2975 5328 
L 3419 5328 
L 3419 4659 
L 6125 4659 
L 6125 4241 
L 3809 4241 
Q 4797 3488 6306 3103 
Q 6144 2859 6019 2659 
Q 5681 2775 5369 2909 
L 5369 197 
L 4894 197 
L 4894 478 
L 1525 478 
L 1525 191 
L 1050 191 
L 1050 2878 
Q 731 2731 381 2597 
Q 250 2791 88 2997 
Q 1700 3506 2559 4241 
L 306 4241 
L 306 4659 
z
M 156 -141 
L 6244 -141 
L 6244 -591 
L 156 -591 
L 156 -141 
z
M 2975 3066 
L 2975 4138 
Q 2256 3444 1119 2909 
L 5366 2909 
Q 4213 3400 3419 4125 
L 3419 3066 
L 2975 3066 
z
M 1525 909 
L 4894 909 
L 4894 1484 
L 1525 1484 
L 1525 909 
z
M 4894 2478 
L 1525 2478 
L 1525 1909 
L 4894 1909 
L 4894 2478 
z
" transform="scale(0.015625)"/>
     </defs>
     <use xlink:href="#MicrosoftYaHei-5b9e"/>
     <use xlink:href="#MicrosoftYaHei-9645" transform="translate(100 0)"/>
     <use xlink:href="#MicrosoftYaHei-7ea6" transform="translate(200 0)"/>
     <use xlink:href="#MicrosoftYaHei-5b9a" transform="translate(300 0)"/>
     <use xlink:href="#MicrosoftYaHei-7684" transform="translate(400 0)"/>
     <use xlink:href="#MicrosoftYaHei-6838" transform="translate(500 0)"/>
     <use xlink:href="#MicrosoftYaHei-67e5" transform="translate(600 0)"/>
    </g>
   </g>
   <g id="text_18">
    <!-- 没有Run可以交付设计；不能把设计审阅写成运行验证。 -->
    <g style="fill: #c97624" transform="translate(342.245469 444.011278) scale(0.13 -0.13)">
     <defs>
      <path id="MicrosoftYaHei-6ca1" d="M 2156 2116 
L 2156 2547 
L 5638 2547 
L 5638 2134 
Q 5253 1128 4391 406 
Q 5178 -94 6319 -316 
Q 6100 -591 5938 -816 
Q 4775 -491 3975 91 
Q 3100 -503 1838 -872 
Q 1675 -641 1513 -422 
Q 2744 -100 3575 419 
Q 2819 1119 2481 2116 
L 2156 2116 
z
M 4850 4553 
L 3213 4553 
L 3213 4291 
Q 3213 3253 2156 2666 
Q 1981 2872 1788 3053 
Q 2725 3516 2725 4328 
L 2725 5016 
L 5338 5016 
L 5338 3753 
Q 5338 3472 5613 3472 
L 6319 3472 
Q 6288 3216 6269 3009 
L 5469 3009 
Q 4850 3009 4850 3659 
L 4850 4553 
z
M 5075 2116 
L 2959 2116 
Q 3303 1272 3984 703 
Q 4747 1300 5075 2116 
z
M 1000 1853 
Q 1263 1734 1500 1641 
Q 1025 228 725 -791 
L 181 -603 
Q 575 441 1000 1853 
z
M 400 3622 
Q 850 3309 1513 2766 
Q 1306 2534 1156 2353 
Q 438 2991 88 3259 
L 400 3622 
z
M 650 5222 
Q 1238 4759 1738 4328 
Q 1525 4109 1369 3941 
Q 838 4441 331 4878 
L 650 5222 
z
" transform="scale(0.015625)"/>
      <path id="MicrosoftYaHei-6709" d="M 1856 -816 
L 1363 -816 
L 1363 2419 
Q 909 1891 363 1403 
Q 231 1622 63 1859 
Q 1269 2869 1947 4097 
L 238 4097 
L 238 4559 
L 2181 4559 
Q 2359 4950 2488 5359 
L 3006 5241 
Q 2881 4894 2731 4559 
L 6263 4559 
L 6263 4097 
L 2506 4097 
Q 2313 3728 2081 3378 
L 5506 3378 
L 5506 41 
Q 5506 -734 4750 -734 
Q 4419 -741 3744 -741 
Q 3713 -528 3650 -228 
Q 4225 -272 4575 -272 
Q 5006 -272 5006 153 
L 5006 597 
L 1856 597 
L 1856 -816 
z
M 1856 1022 
L 5006 1022 
L 5006 1772 
L 1856 1772 
L 1856 1022 
z
M 5006 2941 
L 1856 2941 
L 1856 2197 
L 5006 2197 
L 5006 2941 
z
" transform="scale(0.015625)"/>
      <path id="MicrosoftYaHei-53ef" d="M 813 3409 
L 3569 3409 
L 3569 941 
L 1306 941 
L 1306 497 
L 813 497 
L 813 3409 
z
M 119 4809 
L 6294 4809 
L 6294 4334 
L 5256 4334 
L 5256 103 
Q 5256 -741 4438 -747 
Q 3850 -747 3294 -741 
Q 3263 -453 3194 -172 
Q 3900 -222 4269 -222 
Q 4731 -222 4731 278 
L 4731 4334 
L 119 4334 
L 119 4809 
z
M 3075 2966 
L 1306 2966 
L 1306 1384 
L 3075 1384 
L 3075 2966 
z
" transform="scale(0.015625)"/>
      <path id="MicrosoftYaHei-4ee5" d="M 4819 5172 
L 5331 5172 
L 5331 4047 
Q 5331 2319 4888 1303 
Q 5663 503 6350 -272 
L 5919 -666 
Q 5278 128 4641 844 
Q 3919 -253 2469 -872 
Q 2325 -678 2131 -441 
Q 3706 284 4250 1241 
Q 4831 2178 4819 4059 
L 4819 5172 
z
M 2881 1709 
Q 2900 1303 2931 1116 
Q 1431 172 1063 -72 
Q 856 -216 669 -384 
L 313 109 
Q 606 372 600 741 
L 600 5084 
L 1113 5084 
L 1113 616 
Q 1800 1028 2881 1709 
z
M 2625 5316 
Q 3044 4653 3556 3728 
L 3069 3453 
Q 2581 4416 2181 5078 
L 2625 5316 
z
" transform="scale(0.015625)"/>
      <path id="MicrosoftYaHei-80fd" d="M 950 -759 
L 463 -759 
L 463 2928 
L 3000 2928 
L 3000 -28 
Q 3000 -703 2375 -703 
Q 2100 -709 1669 -709 
Q 1638 -516 1575 -234 
Q 1969 -266 2206 -266 
Q 2513 -266 2513 53 
L 2513 572 
L 950 572 
L 950 -759 
z
M 3606 2253 
L 4094 2253 
L 4094 1222 
Q 4981 1553 5950 2091 
L 6231 1659 
Q 5209 1122 4094 706 
L 4094 166 
Q 4094 -228 4400 -228 
L 5319 -228 
Q 5638 -228 5688 78 
Q 5731 353 5763 897 
Q 6000 803 6250 722 
Q 6200 172 6144 -109 
Q 6063 -659 5363 -659 
L 4319 -659 
Q 3606 -659 3606 72 
L 3606 2253 
z
M 3619 5303 
L 4106 5303 
L 4106 4231 
Q 4966 4572 5813 5053 
L 6094 4622 
Q 5119 4128 4106 3719 
L 4106 3359 
Q 4106 2941 4438 2941 
L 5231 2941 
Q 5625 2941 5675 3266 
Q 5719 3534 5750 4047 
Q 5988 3953 6238 3866 
Q 6188 3366 6131 3053 
Q 6038 2509 5288 2509 
L 4375 2509 
Q 3619 2509 3619 3259 
L 3619 5303 
z
M 2463 4772 
Q 3031 4034 3450 3353 
Q 3213 3191 3019 3066 
Q 2897 3281 2759 3506 
Q 1231 3394 313 3303 
L 113 3828 
Q 388 3978 719 4391 
Q 1063 4841 1394 5397 
L 1888 5216 
Q 1369 4466 794 3797 
Q 1731 3856 2497 3919 
Q 2300 4216 2075 4528 
L 2463 4772 
z
M 950 947 
L 2513 947 
L 2513 1553 
L 950 1553 
L 950 947 
z
M 2513 2528 
L 950 2528 
L 950 1928 
L 2513 1928 
L 2513 2528 
z
" transform="scale(0.015625)"/>
      <path id="MicrosoftYaHei-628a" d="M 2300 4972 
L 5788 4972 
L 5788 1922 
L 5313 1922 
L 5313 2259 
L 2775 2259 
L 2775 353 
Q 2775 -153 3244 -153 
L 5000 -153 
Q 5581 -153 5663 284 
Q 5731 628 5794 1241 
Q 6044 1141 6319 1059 
Q 6225 434 6138 72 
Q 5969 -616 5125 -616 
L 3050 -616 
Q 2300 -616 2300 234 
L 2300 4972 
z
M 81 1991 
Q 509 2113 906 2231 
L 906 3647 
L 150 3647 
L 150 4066 
L 906 4066 
L 906 5284 
L 1381 5284 
L 1381 4066 
L 2106 4066 
L 2106 3647 
L 1381 3647 
L 1381 2375 
Q 1744 2488 2075 2597 
Q 2063 2291 2063 2116 
Q 1741 2013 1381 1894 
L 1381 -97 
Q 1381 -734 788 -753 
Q 538 -753 213 -753 
Q 181 -522 131 -234 
Q 438 -272 644 -272 
Q 906 -272 906 28 
L 906 1731 
Q 544 1609 150 1472 
L 81 1991 
z
M 5313 4528 
L 4281 4528 
L 4281 2703 
L 5313 2703 
L 5313 4528 
z
M 2775 2703 
L 3806 2703 
L 3806 4528 
L 2775 4528 
L 2775 2703 
z
" transform="scale(0.015625)"/>
      <path id="MicrosoftYaHei-9605" d="M 1675 3284 
L 2538 3284 
Q 2281 3634 1950 4022 
L 2288 4284 
Q 2713 3841 2969 3497 
L 2669 3284 
L 3381 3284 
Q 3731 3772 4019 4278 
L 4450 4028 
Q 4175 3641 3888 3284 
L 4738 3284 
L 4738 1522 
L 3863 1522 
L 3863 672 
Q 3863 403 4113 403 
L 4413 403 
Q 4731 403 4763 709 
Q 4788 941 4788 1266 
Q 4931 1216 5225 1103 
Q 5200 684 5163 503 
Q 5088 -3 4494 -3 
L 3969 -3 
Q 3425 -3 3425 578 
L 3425 1522 
L 2938 1522 
Q 2894 822 2588 434 
Q 2288 22 1419 -309 
Q 1300 -97 1144 91 
Q 1894 334 2231 709 
Q 2456 991 2494 1522 
L 2125 1522 
L 2125 1347 
L 1675 1347 
L 1675 3284 
z
M 2350 4472 
L 2350 4922 
L 6006 4922 
L 6006 -9 
Q 6006 -816 5106 -816 
Q 4631 -816 4169 -803 
Q 4131 -584 4069 -322 
Q 4588 -359 5025 -359 
Q 5525 -359 5525 72 
L 5525 4472 
L 2350 4472 
z
M 419 4084 
L 900 4084 
L 900 -816 
L 419 -816 
L 419 4084 
z
M 4288 2872 
L 2125 2872 
L 2125 1934 
L 4288 1934 
L 4288 2872 
z
M 744 5016 
L 1088 5322 
Q 1644 4816 1931 4478 
L 1544 4134 
Q 1225 4516 744 5016 
z
" transform="scale(0.015625)"/>
      <path id="MicrosoftYaHei-5199" d="M 1125 1853 
L 1125 2303 
L 1550 4303 
L 2075 4303 
L 1922 3559 
L 5588 3559 
L 5588 3097 
L 1828 3097 
L 1669 2322 
L 5750 2322 
Q 5688 1016 5606 172 
Q 5500 -722 4550 -728 
Q 3956 -728 3194 -697 
Q 3163 -447 3106 -153 
Q 3781 -228 4456 -228 
Q 5019 -228 5100 272 
Q 5163 872 5206 1853 
L 1125 1853 
z
M 369 4959 
L 6038 4959 
L 6038 3784 
L 5525 3784 
L 5525 4491 
L 881 4491 
L 881 3784 
L 369 3784 
L 369 4959 
z
M 113 1072 
L 4725 1072 
L 4725 609 
L 113 609 
L 113 1072 
z
" transform="scale(0.015625)"/>
     </defs>
     <use xlink:href="#MicrosoftYaHei-6ca1"/>
     <use xlink:href="#MicrosoftYaHei-6709" transform="translate(100 0)"/>
     <use xlink:href="#MicrosoftYaHei-52" transform="translate(200 0)"/>
     <use xlink:href="#MicrosoftYaHei-75" transform="translate(265.283203 0)"/>
     <use xlink:href="#MicrosoftYaHei-6e" transform="translate(326.904297 0)"/>
     <use xlink:href="#MicrosoftYaHei-53ef" transform="translate(388.525391 0)"/>
     <use xlink:href="#MicrosoftYaHei-4ee5" transform="translate(488.525391 0)"/>
     <use xlink:href="#MicrosoftYaHei-4ea4" transform="translate(588.525391 0)"/>
     <use xlink:href="#MicrosoftYaHei-4ed8" transform="translate(688.525391 0)"/>
     <use xlink:href="#MicrosoftYaHei-8bbe" transform="translate(788.525391 0)"/>
     <use xlink:href="#MicrosoftYaHei-8ba1" transform="translate(888.525391 0)"/>
     <use xlink:href="#MicrosoftYaHei-ff1b" transform="translate(988.525391 0)"/>
     <use xlink:href="#MicrosoftYaHei-4e0d" transform="translate(1088.525391 0)"/>
     <use xlink:href="#MicrosoftYaHei-80fd" transform="translate(1188.525391 0)"/>
     <use xlink:href="#MicrosoftYaHei-628a" transform="translate(1288.525391 0)"/>
     <use xlink:href="#MicrosoftYaHei-8bbe" transform="translate(1388.525391 0)"/>
     <use xlink:href="#MicrosoftYaHei-8ba1" transform="translate(1488.525391 0)"/>
     <use xlink:href="#MicrosoftYaHei-5ba1" transform="translate(1588.525391 0)"/>
     <use xlink:href="#MicrosoftYaHei-9605" transform="translate(1688.525391 0)"/>
     <use xlink:href="#MicrosoftYaHei-5199" transform="translate(1788.525391 0)"/>
     <use xlink:href="#MicrosoftYaHei-6210" transform="translate(1888.525391 0)"/>
     <use xlink:href="#MicrosoftYaHei-8fd0" transform="translate(1988.525391 0)"/>
     <use xlink:href="#MicrosoftYaHei-884c" transform="translate(2088.525391 0)"/>
     <use xlink:href="#MicrosoftYaHei-9a8c" transform="translate(2188.525391 0)"/>
     <use xlink:href="#MicrosoftYaHei-8bc1" transform="translate(2288.525391 0)"/>
     <use xlink:href="#MicrosoftYaHei-3002" transform="translate(2388.525391 0)"/>
    </g>
   </g>
  </g>
 </g>
 <defs>
  <clipPath id="pa980350539">
   <rect x="25.2" y="9.648" width="957.6" height="458.28"/>
  </clipPath>
 </defs>
</svg>
