<?xml version="1.0" encoding="utf-8" standalone="no"?>
<!DOCTYPE svg PUBLIC "-//W3C//DTD SVG 1.1//EN"
  "http://www.w3.org/Graphics/SVG/1.1/DTD/svg11.dtd">
<svg xmlns:xlink="http://www.w3.org/1999/xlink" width="1008pt" height="468pt" viewBox="0 0 1008 468" xmlns="http://www.w3.org/2000/svg" version="1.1">
 <metadata>
  <rdf:RDF xmlns:dc="http://purl.org/dc/elements/1.1/" xmlns:cc="http://creativecommons.org/ns#" xmlns:rdf="http://www.w3.org/1999/02/22-rdf-syntax-ns#">
   <cc:Work>
    <dc:type rdf:resource="http://purl.org/dc/dcmitype/StillImage"/>
    <dc:date>2026-09-26T12:24:20.388565</dc:date>
    <dc:format>image/svg+xml</dc:format>
    <dc:creator>
     <cc:Agent>
      <dc:title>Matplotlib v3.10.6, https://matplotlib.org/</dc:title>
     </cc:Agent>
    </dc:creator>
   </cc:Work>
  </rdf:RDF>
 </metadata>
 <defs>
  <style type="text/css">*{stroke-linejoin: round; stroke-linecap: butt}</style>
 </defs>
 <g id="figure_1">
  <g id="patch_1">
   <path d="M 0 468 
L 1008 468 
L 1008 0 
L 0 0 
z
" style="fill: #ffffff"/>
  </g>
  <g id="axes_1">
   <g id="patch_2">
    <path d="M 235.872 180.531 
L 373.7664 180.531 
L 373.7664 157.4118 
L 235.872 157.4118 
z
" clip-path="url(#peceaa3cea4)" style="fill: #276fbf; opacity: 0.82"/>
   </g>
   <g id="patch_3">
    <path d="M 373.7664 180.531 
L 511.6608 180.531 
L 511.6608 157.4118 
L 373.7664 157.4118 
z
" clip-path="url(#peceaa3cea4)" style="fill: #26816b; opacity: 0.82"/>
   </g>
   <g id="patch_4">
    <path d="M 511.6608 180.531 
L 718.5024 180.531 
L 718.5024 157.4118 
L 511.6608 157.4118 
z
" clip-path="url(#peceaa3cea4)" style="fill: #276fbf; opacity: 0.82"/>
   </g>
   <g id="patch_5">
    <path d="M 718.5024 180.531 
L 925.344 180.531 
L 925.344 157.4118 
L 718.5024 157.4118 
z
" clip-path="url(#peceaa3cea4)" style="fill: #c97624; opacity: 0.82"/>
   </g>
   <g id="line2d_1">
    <path d="M 235.872 342.81 
L 235.872 140.517 
" clip-path="url(#peceaa3cea4)" style="fill: none; stroke-dasharray: 2.96,1.28; stroke-dashoffset: 0; stroke: #cbd6df; stroke-width: 0.8"/>
   </g>
   <g id="line2d_2">
    <path d="M 373.7664 342.81 
L 373.7664 140.517 
" clip-path="url(#peceaa3cea4)" style="fill: none; stroke-dasharray: 2.96,1.28; stroke-dashoffset: 0; stroke: #cbd6df; stroke-width: 0.8"/>
   </g>
   <g id="line2d_3">
    <path d="M 511.6608 342.81 
L 511.6608 140.517 
" clip-path="url(#peceaa3cea4)" style="fill: none; stroke-dasharray: 2.96,1.28; stroke-dashoffset: 0; stroke: #cbd6df; stroke-width: 0.8"/>
   </g>
   <g id="line2d_4">
    <path d="M 718.5024 342.81 
L 718.5024 140.517 
" clip-path="url(#peceaa3cea4)" style="fill: none; stroke-dasharray: 2.96,1.28; stroke-dashoffset: 0; stroke: #cbd6df; stroke-width: 0.8"/>
   </g>
   <g id="line2d_5">
    <path d="M 925.344 342.81 
L 925.344 140.517 
" clip-path="url(#peceaa3cea4)" style="fill: none; stroke-dasharray: 2.96,1.28; stroke-dashoffset: 0; stroke: #cbd6df; stroke-width: 0.8"/>
   </g>
   <g id="text_1">
    <!-- 20分钟研讨：把时间留给证据和讨论 -->
    <g style="fill: #20344b" transform="translate(318.012656 41.480784) scale(0.23 -0.23)">
     <defs>
      <path id="MicrosoftYaHei-32" d="M 2666 3572 
Q 2666 3963 2419 4186 
Q 2172 4409 1747 4409 
Q 1447 4409 1140 4256 
Q 834 4103 569 3819 
L 569 4413 
Q 806 4659 1107 4790 
Q 1409 4922 1816 4922 
Q 2472 4922 2872 4570 
Q 3272 4219 3272 3619 
Q 3272 3084 3026 2693 
Q 2781 2303 2188 1894 
Q 1581 1475 1376 1294 
Q 1172 1113 1090 947 
Q 1009 781 1009 544 
L 3416 544 
L 3416 0 
L 372 0 
L 372 241 
Q 372 659 486 951 
Q 600 1244 862 1520 
Q 1125 1797 1681 2184 
Q 2250 2584 2458 2886 
Q 2666 3188 2666 3572 
z
" transform="scale(0.015625)"/>
      <path id="MicrosoftYaHei-30" d="M 284 2325 
Q 284 3606 709 4264 
Q 1134 4922 1941 4922 
Q 3478 4922 3478 2441 
Q 3478 1216 3045 567 
Q 2613 -81 1831 -81 
Q 1094 -81 689 534 
Q 284 1150 284 2325 
z
M 909 2353 
Q 909 425 1888 425 
Q 2850 425 2850 2384 
Q 2850 4413 1906 4413 
Q 909 4413 909 2353 
z
" transform="scale(0.015625)"/>
      <path id="MicrosoftYaHei-5206" d="M 900 2559 
L 5056 2559 
Q 5025 1497 4963 484 
Q 4888 -684 3856 -678 
Q 3350 -684 2788 -647 
Q 2750 -384 2700 -116 
Q 3181 -184 3775 -191 
Q 4400 -203 4463 541 
Q 4513 1216 4538 2097 
L 2616 2097 
Q 2541 1053 2181 416 
Q 1706 -422 588 -878 
Q 425 -666 231 -459 
Q 1269 -72 1725 666 
Q 2053 1225 2103 2097 
L 900 2097 
L 900 2559 
z
M 3488 5159 
L 3938 5353 
Q 4625 3678 6350 2847 
Q 6069 2553 5944 2372 
Q 4225 3366 3488 5159 
z
M 50 2766 
Q 1338 3678 2250 5253 
L 2694 5009 
Q 1744 3347 413 2341 
Q 281 2534 50 2766 
z
" transform="scale(0.015625)"/>
      <path id="MicrosoftYaHei-949f" d="M 2663 4091 
L 4094 4091 
L 4094 5303 
L 4569 5303 
L 4569 4091 
L 6000 4091 
L 6000 1091 
L 5538 1091 
L 5538 1384 
L 4569 1384 
L 4569 -822 
L 4094 -822 
L 4094 1384 
L 3125 1384 
L 3125 1091 
L 2663 1091 
L 2663 4091 
z
M 2294 566 
Q 2294 291 2325 47 
Q 1925 -147 1394 -466 
Q 1281 -528 1131 -678 
L 800 -247 
Q 1000 -53 1000 222 
L 1000 1584 
L 144 1584 
L 144 2016 
L 1000 2016 
L 1000 2859 
L 563 2859 
L 563 3281 
Q 444 3094 319 2903 
Q 200 3128 56 3328 
Q 700 4278 1056 5341 
L 1525 5184 
Q 1363 4781 1166 4378 
L 2388 4378 
L 2388 3947 
L 944 3947 
Q 769 3619 566 3291 
L 2238 3291 
L 2238 2859 
L 1456 2859 
L 1456 2016 
L 2388 2016 
L 2388 1584 
L 1456 1584 
L 1456 97 
Q 1913 341 2294 566 
z
M 5538 3653 
L 4569 3653 
L 4569 1822 
L 5538 1822 
L 5538 3653 
z
M 3125 1822 
L 4094 1822 
L 4094 3653 
L 3125 3653 
L 3125 1822 
z
" transform="scale(0.015625)"/>
      <path id="MicrosoftYaHei-7814" d="M 2506 2616 
L 3259 2616 
Q 3263 2763 3263 4478 
L 2756 4478 
L 2756 4941 
L 6063 4941 
L 6063 4478 
L 5431 4478 
L 5431 2616 
L 6288 2616 
L 6288 2153 
L 5431 2153 
L 5431 -803 
L 4950 -803 
L 4950 2153 
L 3728 2153 
Q 3713 303 2525 -853 
Q 2331 -659 2113 -491 
Q 3225 553 3241 2153 
L 2506 2153 
L 2506 2616 
z
M 238 4916 
L 2519 4916 
L 2519 4478 
L 1613 4478 
Q 1459 3725 1209 3059 
L 2263 3059 
L 2263 128 
L 1088 128 
L 1088 -391 
L 650 -391 
L 650 1875 
Q 522 1656 381 1453 
Q 238 1678 81 1841 
Q 872 3022 1147 4478 
L 238 4478 
L 238 4916 
z
M 3741 2616 
L 4950 2616 
L 4950 4478 
L 3744 4478 
Q 3744 2859 3741 2616 
z
M 1825 559 
L 1825 2628 
L 1088 2628 
L 1088 559 
L 1825 559 
z
" transform="scale(0.015625)"/>
      <path id="MicrosoftYaHei-8ba8" d="M 2075 4022 
L 4750 4022 
L 4750 5303 
L 5269 5303 
L 5269 4022 
L 6306 4022 
L 6306 3547 
L 5269 3547 
L 5269 147 
Q 5269 -734 4331 -734 
Q 4019 -734 3400 -728 
Q 3369 -497 3300 -178 
Q 3919 -222 4281 -222 
Q 4750 -222 4750 284 
L 4750 3547 
L 2075 3547 
L 2075 4022 
z
M 2513 1009 
Q 2575 691 2638 459 
Q 1994 3 1506 -384 
Q 1325 -541 1150 -759 
L 738 -341 
Q 981 -103 981 309 
L 981 2703 
L 81 2703 
L 81 3166 
L 1488 3166 
L 1488 234 
Q 2069 647 2513 1009 
z
M 2438 2659 
L 2856 2922 
Q 3325 2291 3856 1466 
L 3381 1159 
Q 2869 2066 2438 2659 
z
M 831 5241 
Q 1306 4772 1756 4241 
L 1331 3891 
Q 919 4428 463 4928 
L 831 5241 
z
" transform="scale(0.015625)"/>
      <path id="MicrosoftYaHei-ff1a" d="M 1606 3531 
Q 1772 3531 1890 3415 
Q 2009 3300 2009 3138 
Q 2009 2975 1893 2858 
Q 1778 2741 1606 2741 
Q 1434 2741 1318 2858 
Q 1203 2975 1203 3138 
Q 1203 3300 1322 3415 
Q 1441 3531 1606 3531 
z
M 1606 716 
Q 1772 716 1890 600 
Q 2009 484 2009 319 
Q 2009 150 1890 36 
Q 1772 -78 1606 -78 
Q 1441 -78 1322 36 
Q 1203 150 1203 319 
Q 1203 484 1322 600 
Q 1441 716 1606 716 
z
" transform="scale(0.015625)"/>
      <path id="MicrosoftYaHei-628a" d="M 2300 4972 
L 5788 4972 
L 5788 1922 
L 5313 1922 
L 5313 2259 
L 2775 2259 
L 2775 353 
Q 2775 -153 3244 -153 
L 5000 -153 
Q 5581 -153 5663 284 
Q 5731 628 5794 1241 
Q 6044 1141 6319 1059 
Q 6225 434 6138 72 
Q 5969 -616 5125 -616 
L 3050 -616 
Q 2300 -616 2300 234 
L 2300 4972 
z
M 81 1991 
Q 509 2113 906 2231 
L 906 3647 
L 150 3647 
L 150 4066 
L 906 4066 
L 906 5284 
L 1381 5284 
L 1381 4066 
L 2106 4066 
L 2106 3647 
L 1381 3647 
L 1381 2375 
Q 1744 2488 2075 2597 
Q 2063 2291 2063 2116 
Q 1741 2013 1381 1894 
L 1381 -97 
Q 1381 -734 788 -753 
Q 538 -753 213 -753 
Q 181 -522 131 -234 
Q 438 -272 644 -272 
Q 906 -272 906 28 
L 906 1731 
Q 544 1609 150 1472 
L 81 1991 
z
M 5313 4528 
L 4281 4528 
L 4281 2703 
L 5313 2703 
L 5313 4528 
z
M 2775 2703 
L 3806 2703 
L 3806 4528 
L 2775 4528 
L 2775 2703 
z
" transform="scale(0.015625)"/>
      <path id="MicrosoftYaHei-65f6" d="M 344 4728 
L 2500 4728 
L 2500 -366 
L 2006 -366 
L 2006 153 
L 838 153 
L 838 -441 
L 344 -441 
L 344 4728 
z
M 2706 3941 
L 4925 3941 
L 4925 5322 
L 5425 5322 
L 5425 3941 
L 6313 3941 
L 6313 3478 
L 5425 3478 
L 5425 116 
Q 5425 -722 4625 -722 
Q 4263 -722 3563 -703 
Q 3531 -478 3463 -178 
Q 4119 -228 4488 -228 
Q 4925 -228 4925 216 
L 4925 3478 
L 2706 3478 
L 2706 3941 
z
M 838 616 
L 2006 616 
L 2006 2234 
L 838 2234 
L 838 616 
z
M 2006 4266 
L 838 4266 
L 838 2684 
L 2006 2684 
L 2006 4266 
z
M 3406 2878 
Q 3906 1966 4163 1422 
Q 4000 1347 3663 1172 
Q 3419 1766 2963 2653 
L 3406 2878 
z
" transform="scale(0.015625)"/>
      <path id="MicrosoftYaHei-95f4" d="M 1863 3647 
L 4513 3647 
L 4513 553 
L 2313 553 
L 2313 166 
L 1863 166 
L 1863 3647 
z
M 2388 4453 
L 2388 4922 
L 6013 4922 
L 6013 -28 
Q 6013 -816 5119 -816 
Q 4756 -816 4169 -803 
Q 4144 -616 4069 -297 
Q 4588 -334 5056 -334 
Q 5525 -334 5525 122 
L 5525 4453 
L 2388 4453 
z
M 419 4084 
L 906 4084 
L 906 -816 
L 419 -816 
L 419 4084 
z
M 2313 997 
L 4063 997 
L 4063 1884 
L 2313 1884 
L 2313 997 
z
M 4063 3203 
L 2313 3203 
L 2313 2328 
L 4063 2328 
L 4063 3203 
z
M 744 5003 
L 1100 5322 
Q 1575 4872 1981 4447 
L 1575 4091 
Q 1194 4541 744 5003 
z
" transform="scale(0.015625)"/>
      <path id="MicrosoftYaHei-7559" d="M 825 2284 
L 5594 2284 
L 5594 -791 
L 5125 -791 
L 5125 -528 
L 1294 -528 
L 1294 -803 
L 825 -803 
L 825 2284 
z
M 3131 4553 
L 3131 4978 
L 5931 4978 
Q 5900 4166 5863 3478 
Q 5794 2609 5050 2609 
Q 4700 2609 4281 2628 
Q 4244 2859 4188 3128 
Q 4638 3059 4956 3059 
Q 5356 3059 5400 3553 
Q 5431 4047 5444 4553 
L 4247 4553 
Q 4250 3066 3119 2316 
Q 2969 2503 2756 2672 
Q 3788 3278 3781 4553 
L 3131 4553 
z
M 1869 4103 
L 2244 4341 
Q 2656 3809 3075 3159 
L 2663 2891 
Q 2550 3078 2431 3269 
Q 1706 2975 1038 2678 
Q 844 2578 700 2428 
L 331 2853 
Q 519 3059 519 3378 
L 519 4903 
Q 1613 4984 2744 5272 
L 2919 4809 
Q 2069 4634 981 4491 
L 981 3191 
Q 1563 3403 2188 3644 
Q 2034 3872 1869 4103 
z
M 3444 -103 
L 5125 -103 
L 5125 678 
L 3444 678 
L 3444 -103 
z
M 1294 -103 
L 2975 -103 
L 2975 678 
L 1294 678 
L 1294 -103 
z
M 5125 1859 
L 3444 1859 
L 3444 1097 
L 5125 1097 
L 5125 1859 
z
M 1294 1097 
L 2975 1097 
L 2975 1859 
L 1294 1859 
L 1294 1097 
z
" transform="scale(0.015625)"/>
      <path id="MicrosoftYaHei-7ed9" d="M 2538 1791 
L 5700 1791 
L 5700 -853 
L 5225 -853 
L 5225 -434 
L 3013 -434 
L 3013 -859 
L 2538 -859 
L 2538 1791 
z
M 856 1572 
Q 881 1572 2150 1672 
Q 2119 1478 2094 1266 
Q 1050 1172 313 1091 
L 213 1491 
Q 588 1847 1156 2803 
Q 763 2778 213 2734 
L 81 3128 
Q 619 3741 1256 5278 
L 1750 5103 
Q 1138 3922 625 3166 
Q 1000 3172 1369 3178 
Q 1594 3566 1838 4034 
L 2306 3834 
Q 1431 2384 856 1572 
z
M 5225 1359 
L 3013 1359 
L 3013 -3 
L 5225 -3 
L 5225 1359 
z
M 4475 5278 
L 4344 5066 
Q 5075 3872 6350 3091 
Q 6169 2903 5988 2684 
Q 4763 3553 4081 4641 
Q 3400 3491 2313 2603 
Q 2194 2741 1950 2953 
Q 3213 3916 3919 5278 
L 4475 5278 
z
M 2750 2959 
L 5488 2959 
L 5488 2528 
L 2750 2528 
L 2750 2959 
z
M 106 122 
Q 1269 341 2194 553 
Q 2188 322 2200 109 
Q 925 -159 269 -341 
L 106 122 
z
" transform="scale(0.015625)"/>
      <path id="MicrosoftYaHei-8bc1" d="M 1681 -34 
L 2550 -34 
L 2550 3422 
L 3031 3422 
L 3031 -34 
L 4025 -34 
L 4025 4534 
L 2025 4534 
L 2025 4997 
L 6200 4997 
L 6200 4534 
L 4525 4534 
L 4525 2653 
L 5975 2653 
L 5975 2191 
L 4525 2191 
L 4525 -34 
L 6300 -34 
L 6300 -497 
L 1681 -497 
L 1681 -34 
z
M 2050 1534 
Q 2075 1316 2169 991 
Q 1413 241 1025 -203 
L 669 203 
Q 856 466 856 828 
L 856 2784 
L 100 2784 
L 100 3234 
L 1338 3234 
L 1338 797 
Q 1625 1072 2050 1534 
z
M 706 5222 
Q 1438 4478 1731 4147 
L 1294 3778 
Q 900 4291 325 4891 
L 706 5222 
z
" transform="scale(0.015625)"/>
      <path id="MicrosoftYaHei-636e" d="M 2900 1334 
L 4188 1334 
L 4188 2128 
L 2731 2128 
Q 2663 206 1844 -841 
Q 1694 -647 1506 -447 
Q 2288 516 2288 2509 
L 2288 4947 
L 5975 4947 
L 5975 3134 
L 5525 3134 
L 5525 3328 
L 2738 3328 
L 2738 2553 
L 4188 2553 
L 4188 3209 
L 4638 3209 
L 4638 2553 
L 6288 2553 
L 6288 2128 
L 4638 2128 
L 4638 1334 
L 5938 1334 
L 5938 -778 
L 5488 -778 
L 5488 -416 
L 3350 -416 
L 3350 -778 
L 2900 -778 
L 2900 1334 
z
M 100 1966 
Q 544 2088 963 2213 
L 963 3641 
L 175 3641 
L 175 4091 
L 963 4091 
L 963 5284 
L 1425 5284 
L 1425 4091 
L 2106 4091 
L 2106 3641 
L 1425 3641 
L 1425 2356 
Q 1722 2450 2006 2547 
Q 2013 2266 2044 2059 
Q 1722 1956 1425 1856 
L 1425 -34 
Q 1425 -741 806 -753 
Q 613 -759 231 -747 
Q 206 -497 156 -228 
Q 500 -266 681 -266 
Q 963 -266 963 53 
L 963 1703 
Q 534 1559 163 1428 
L 100 1966 
z
M 5525 4534 
L 2738 4534 
L 2738 3741 
L 5525 3741 
L 5525 4534 
z
M 5488 922 
L 3350 922 
L 3350 -9 
L 5488 -9 
L 5488 922 
z
" transform="scale(0.015625)"/>
      <path id="MicrosoftYaHei-548c" d="M 3263 4553 
L 6025 4553 
L 6025 -666 
L 5525 -666 
L 5525 -59 
L 3763 -59 
L 3763 -666 
L 3263 -666 
L 3263 4553 
z
M 5525 4091 
L 3763 4091 
L 3763 391 
L 5525 391 
L 5525 4091 
z
M 75 897 
Q 788 1841 1206 2997 
L 113 2997 
L 113 3422 
L 1306 3422 
L 1306 4409 
Q 819 4334 319 4272 
Q 263 4478 181 4703 
Q 1481 4847 2700 5128 
L 2844 4691 
Q 2325 4584 1781 4491 
L 1781 3422 
L 2950 3422 
L 2950 2997 
L 1781 2997 
L 1781 2191 
L 2006 2416 
Q 2500 1991 2975 1516 
L 2619 1153 
Q 2244 1584 1781 2034 
L 1781 -872 
L 1306 -872 
L 1306 2128 
Q 938 1203 313 359 
Q 213 603 75 897 
z
" transform="scale(0.015625)"/>
      <path id="MicrosoftYaHei-8bba" d="M 2725 2866 
L 3225 2866 
L 3225 1553 
Q 4425 2072 5188 2753 
L 5538 2341 
Q 4569 1578 3225 1034 
L 3225 216 
Q 3225 -197 3600 -197 
L 4844 -197 
Q 5294 -197 5363 203 
Q 5444 659 5475 1191 
Q 5675 1103 5981 1009 
Q 5925 497 5844 53 
Q 5719 -672 4869 -672 
L 3450 -672 
Q 2725 -672 2725 122 
L 2725 2866 
z
M 4413 5253 
L 4331 5109 
Q 5075 3791 6344 3166 
Q 6163 2947 5981 2697 
Q 4744 3516 4056 4666 
Q 3388 3559 2106 2678 
Q 1925 2941 1763 3109 
Q 3181 3947 3831 5253 
L 4413 5253 
z
M 2206 691 
Q 2225 366 2250 153 
Q 1550 -316 994 -747 
L 700 -328 
Q 913 -153 913 209 
L 913 2678 
L 100 2678 
L 100 3141 
L 1400 3141 
L 1400 122 
Q 1769 372 2206 691 
z
M 856 5197 
Q 1538 4497 1844 4159 
L 1406 3791 
Q 1013 4309 475 4866 
L 856 5197 
z
" transform="scale(0.015625)"/>
     </defs>
     <use xlink:href="#MicrosoftYaHei-32"/>
     <use xlink:href="#MicrosoftYaHei-30" transform="translate(58.642578 0)"/>
     <use xlink:href="#MicrosoftYaHei-5206" transform="translate(117.285156 0)"/>
     <use xlink:href="#MicrosoftYaHei-949f" transform="translate(217.285156 0)"/>
     <use xlink:href="#MicrosoftYaHei-7814" transform="translate(317.285156 0)"/>
     <use xlink:href="#MicrosoftYaHei-8ba8" transform="translate(417.285156 0)"/>
     <use xlink:href="#MicrosoftYaHei-ff1a" transform="translate(517.285156 0)"/>
     <use xlink:href="#MicrosoftYaHei-628a" transform="translate(617.285156 0)"/>
     <use xlink:href="#MicrosoftYaHei-65f6" transform="translate(717.285156 0)"/>
     <use xlink:href="#MicrosoftYaHei-95f4" transform="translate(817.285156 0)"/>
     <use xlink:href="#MicrosoftYaHei-7559" transform="translate(917.285156 0)"/>
     <use xlink:href="#MicrosoftYaHei-7ed9" transform="translate(1017.285156 0)"/>
     <use xlink:href="#MicrosoftYaHei-8bc1" transform="translate(1117.285156 0)"/>
     <use xlink:href="#MicrosoftYaHei-636e" transform="translate(1217.285156 0)"/>
     <use xlink:href="#MicrosoftYaHei-548c" transform="translate(1317.285156 0)"/>
     <use xlink:href="#MicrosoftYaHei-8ba8" transform="translate(1417.285156 0)"/>
     <use xlink:href="#MicrosoftYaHei-8bba" transform="translate(1517.285156 0)"/>
    </g>
   </g>
   <g id="text_2">
    <!-- 作者给定的教学时间安排；不是实际运行日志。 -->
    <g style="fill: #617386" transform="translate(378 72.685688) scale(0.12 -0.12)">
     <defs>
      <path id="MicrosoftYaHei-4f5c" d="M 1806 2784 
Q 2638 3922 3031 5322 
L 3544 5228 
Q 3397 4747 3213 4297 
L 6294 4297 
L 6294 3859 
L 4019 3859 
L 4019 2766 
L 6044 2766 
L 6044 2328 
L 4019 2328 
L 4019 1191 
L 6125 1191 
L 6125 753 
L 4019 753 
L 4019 -822 
L 3531 -822 
L 3531 3859 
L 3022 3859 
Q 2669 3097 2200 2428 
Q 2025 2597 1806 2784 
z
M 69 2209 
Q 950 3516 1463 5303 
L 1975 5153 
Q 1734 4416 1463 3769 
L 1463 -822 
L 975 -822 
L 975 2750 
Q 659 2159 306 1672 
Q 213 1909 69 2209 
z
" transform="scale(0.015625)"/>
      <path id="MicrosoftYaHei-8005" d="M 194 3303 
L 2569 3303 
L 2569 4091 
L 813 4091 
L 813 4516 
L 2569 4516 
L 2569 5309 
L 3069 5309 
L 3069 4516 
L 4600 4516 
L 4600 4091 
L 3069 4091 
L 3069 3303 
L 3681 3303 
Q 4706 4028 5363 4891 
L 5806 4591 
Q 5241 3913 4466 3303 
L 6256 3303 
L 6256 2878 
L 3888 2878 
Q 3372 2522 2778 2191 
L 5256 2191 
L 5256 -822 
L 4769 -822 
L 4769 -453 
L 1875 -453 
L 1875 -822 
L 1388 -822 
L 1388 1497 
Q 875 1269 319 1053 
Q 213 1247 38 1509 
Q 1766 2109 3031 2878 
L 194 2878 
L 194 3303 
z
M 1875 -41 
L 4769 -41 
L 4769 678 
L 1875 678 
L 1875 -41 
z
M 1875 1722 
L 1875 1066 
L 4769 1066 
L 4769 1778 
L 1988 1778 
Q 1931 1750 1875 1722 
z
" transform="scale(0.015625)"/>
      <path id="MicrosoftYaHei-5b9a" d="M 81 -384 
Q 1119 509 1281 2241 
L 1806 2159 
Q 1731 1581 1578 1081 
Q 2063 50 3081 -103 
L 3081 2647 
L 225 2647 
L 225 3116 
L 6163 3116 
L 6163 2647 
L 3600 2647 
L 3600 1634 
L 5775 1634 
L 5775 1172 
L 3600 1172 
L 3600 -138 
Q 4844 -169 6306 -116 
Q 6200 -359 6125 -634 
Q 4594 -653 3450 -616 
Q 2041 -616 1378 528 
Q 1022 -300 413 -872 
Q 269 -628 81 -384 
z
M 450 4566 
L 3116 4566 
Q 2931 4834 2725 5091 
L 3200 5347 
Q 3444 5066 3731 4716 
L 3450 4566 
L 5981 4566 
L 5981 3378 
L 5488 3378 
L 5488 4097 
L 944 4097 
L 944 3384 
L 450 3384 
L 450 4566 
z
" transform="scale(0.015625)"/>
      <path id="MicrosoftYaHei-7684" d="M 356 4284 
L 988 4284 
Q 1219 4853 1369 5322 
L 1894 5172 
Q 1697 4694 1513 4284 
L 2763 4284 
L 2763 -691 
L 2263 -691 
L 2263 -203 
L 856 -203 
L 856 -734 
L 356 -734 
L 356 4284 
z
M 2856 3003 
Q 3444 3934 3850 5322 
L 4375 5191 
Q 4216 4719 4050 4303 
L 6063 4303 
Q 5988 1091 5938 259 
Q 5894 -722 4906 -722 
Q 4338 -722 3750 -684 
Q 3713 -372 3650 -128 
L 3669 -128 
Q 4294 -216 4813 -216 
Q 5381 -216 5425 384 
Q 5494 1316 5525 3834 
L 3850 3834 
Q 3578 3231 3288 2772 
Q 3119 2891 2856 3003 
z
M 856 266 
L 2263 266 
L 2263 1847 
L 856 1847 
L 856 266 
z
M 2263 3816 
L 856 3816 
L 856 2297 
L 2263 2297 
L 2263 3816 
z
M 3406 2578 
L 3788 2859 
Q 4481 2041 4894 1441 
L 4431 1116 
Q 3988 1841 3406 2578 
z
" transform="scale(0.015625)"/>
      <path id="MicrosoftYaHei-6559" d="M 2975 2153 
Q 3681 3453 4106 5216 
L 4563 5103 
Q 4438 4591 4275 4084 
L 6225 4084 
L 6225 3634 
L 5613 3634 
Q 5569 2022 4825 859 
Q 5394 78 6319 -359 
Q 6144 -616 6025 -822 
Q 5113 -297 4538 459 
Q 3906 -328 2900 -884 
Q 2788 -722 2594 -472 
Q 3638 59 4263 872 
Q 3825 1603 3669 2522 
Q 3525 2216 3375 1916 
Q 3175 2047 2975 2153 
z
M 3163 4678 
L 3538 4434 
Q 3156 3866 2688 3309 
L 3150 3309 
L 3150 2897 
L 2331 2897 
Q 2081 2616 1819 2353 
L 2844 2353 
L 2844 1978 
L 2038 1184 
L 2038 1072 
Q 2544 1159 3156 1272 
Q 3138 1034 3131 841 
Q 2619 753 2038 647 
L 2038 -34 
Q 2081 -809 1313 -778 
Q 1044 -778 619 -766 
Q 594 -566 556 -297 
Q 850 -328 1225 -334 
Q 1619 -372 1588 16 
L 1588 566 
Q 981 453 313 322 
L 238 778 
Q 756 853 1588 991 
L 1588 1303 
L 2244 1953 
L 1406 1953 
Q 888 1478 369 1078 
Q 244 1253 75 1434 
Q 438 1691 750 1953 
L 231 1953 
L 231 2353 
L 1200 2353 
Q 1494 2616 1769 2897 
L 150 2897 
L 150 3309 
L 1381 3309 
L 1381 3947 
L 400 3947 
L 400 4359 
L 1381 4359 
L 1381 5209 
L 1831 5209 
L 1831 4359 
L 2600 4359 
L 2600 3947 
L 1831 3947 
L 1831 3309 
L 2138 3309 
Q 2700 3941 3163 4678 
z
M 3981 3272 
Q 4106 2134 4550 1303 
Q 5119 2291 5156 3634 
L 4119 3634 
Q 4056 3453 3981 3272 
z
" transform="scale(0.015625)"/>
      <path id="MicrosoftYaHei-5b66" d="M 144 1359 
L 3069 1359 
L 3069 1709 
L 4263 2384 
L 1325 2384 
L 1325 2841 
L 4994 2841 
L 4994 2316 
L 3575 1497 
L 3575 1359 
L 6263 1359 
L 6263 903 
L 3575 903 
L 3575 -41 
Q 3575 -778 2831 -778 
Q 2419 -778 1863 -766 
Q 1844 -553 1788 -234 
Q 2288 -284 2744 -291 
Q 3069 -297 3069 53 
L 3069 903 
L 144 903 
L 144 1359 
z
M 356 3909 
L 6056 3909 
L 6056 2647 
L 5563 2647 
L 5563 3453 
L 850 3453 
L 850 2647 
L 356 2647 
L 356 3909 
z
M 4313 4272 
Q 4731 4722 5100 5241 
L 5550 4909 
Q 5144 4447 4681 3941 
L 4313 4272 
z
M 2538 5116 
L 2944 5353 
Q 3325 4853 3650 4334 
L 3200 4078 
Q 2925 4566 2538 5116 
z
M 850 4928 
L 1219 5197 
Q 1600 4778 1969 4291 
L 1544 3991 
Q 1194 4522 850 4928 
z
" transform="scale(0.015625)"/>
      <path id="MicrosoftYaHei-5b89" d="M 325 -322 
Q 1894 -81 2888 478 
Q 2072 859 1163 1266 
Q 1459 1709 1747 2191 
L 106 2191 
L 106 2653 
L 2019 2653 
Q 2334 3206 2644 3803 
L 3138 3597 
Q 2863 3113 2597 2653 
L 6306 2653 
L 6306 2191 
L 4966 2191 
Q 4653 1244 3888 572 
Q 4872 128 5850 -328 
L 5544 -828 
Q 4591 -328 3434 219 
Q 2347 -513 588 -834 
Q 475 -597 325 -322 
z
M 413 4397 
L 3228 4397 
Q 2991 4741 2681 5103 
L 3100 5384 
Q 3481 4972 3744 4591 
L 3456 4397 
L 6013 4397 
L 6013 3209 
L 5506 3209 
L 5506 3934 
L 913 3934 
L 913 3209 
L 413 3209 
L 413 4397 
z
M 1881 1453 
Q 2631 1131 3375 800 
Q 4122 1369 4422 2191 
L 2325 2191 
Q 2100 1813 1881 1453 
z
" transform="scale(0.015625)"/>
      <path id="MicrosoftYaHei-6392" d="M 4375 5309 
L 4863 5309 
L 4863 4159 
L 6188 4159 
L 6188 3684 
L 4863 3684 
L 4863 2609 
L 6038 2609 
L 6038 2134 
L 4863 2134 
L 4863 1047 
L 6294 1047 
L 6294 572 
L 4863 572 
L 4863 -841 
L 4375 -841 
L 4375 5309 
z
M 1844 1047 
L 3138 1047 
L 3138 2134 
L 2150 2134 
L 2150 2609 
L 3138 2609 
L 3138 3684 
L 2163 3684 
L 2163 4159 
L 3138 4159 
L 3138 5309 
L 3625 5309 
L 3625 -841 
L 3138 -841 
L 3138 572 
L 1844 572 
L 1844 1047 
z
M 131 4166 
L 875 4166 
L 875 5316 
L 1350 5316 
L 1350 4166 
L 1969 4166 
L 1969 3728 
L 1350 3728 
L 1350 2563 
Q 1650 2716 1938 2872 
Q 1956 2603 1988 2372 
Q 1681 2216 1350 2044 
L 1350 -134 
Q 1350 -772 669 -778 
Q 481 -784 156 -778 
Q 131 -528 75 -259 
Q 419 -284 613 -284 
Q 875 -284 875 3 
L 875 1797 
Q 525 1616 150 1416 
L 88 1966 
Q 491 2144 875 2328 
L 875 3728 
L 131 3728 
L 131 4166 
z
" transform="scale(0.015625)"/>
      <path id="MicrosoftYaHei-ff1b" d="M 1606 3531 
Q 1772 3531 1890 3415 
Q 2009 3300 2009 3138 
Q 2009 2975 1893 2858 
Q 1778 2741 1606 2741 
Q 1434 2741 1318 2858 
Q 1203 2975 1203 3138 
Q 1203 3300 1322 3415 
Q 1441 3531 1606 3531 
z
M 1931 775 
L 1403 -891 
L 966 -891 
L 1350 775 
L 1931 775 
z
" transform="scale(0.015625)"/>
      <path id="MicrosoftYaHei-4e0d" d="M 225 4772 
L 6181 4772 
L 6181 4284 
L 3881 4284 
Q 3581 3766 3081 3053 
L 3444 3053 
L 3444 -866 
L 2906 -866 
L 2906 2859 
Q 1838 1541 388 609 
Q 231 834 38 1059 
Q 2006 2291 3213 4284 
L 225 4284 
L 225 4772 
z
M 4069 2859 
Q 5238 2147 6325 1409 
L 5969 916 
Q 4681 1872 3763 2434 
L 4069 2859 
z
" transform="scale(0.015625)"/>
      <path id="MicrosoftYaHei-662f" d="M 1088 5078 
L 5338 5078 
L 5338 2472 
L 4863 2472 
L 4863 2722 
L 1563 2722 
L 1563 2472 
L 1088 2472 
L 1088 5078 
z
M 1400 1553 
L 1875 1409 
Q 1775 1081 1647 788 
Q 2122 19 3063 -134 
L 3063 1747 
L 213 1747 
L 213 2184 
L 6225 2184 
L 6225 1747 
L 3563 1747 
L 3563 1122 
L 5788 1122 
L 5788 697 
L 3563 697 
L 3563 -172 
Q 4763 -197 6344 -147 
Q 6244 -416 6169 -641 
Q 4331 -647 3344 -622 
Q 2022 -606 1434 359 
Q 1006 -413 350 -891 
Q 225 -703 44 -484 
Q 1050 191 1400 1553 
z
M 1563 3147 
L 4863 3147 
L 4863 3697 
L 1563 3697 
L 1563 3147 
z
M 4863 4653 
L 1563 4653 
L 1563 4109 
L 4863 4109 
L 4863 4653 
z
" transform="scale(0.015625)"/>
      <path id="MicrosoftYaHei-5b9e" d="M 113 -397 
Q 2419 34 3081 972 
L 213 972 
L 213 1434 
L 3313 1434 
Q 3525 2084 3506 3703 
L 4031 3703 
Q 4031 2097 3856 1434 
L 6225 1434 
L 6225 972 
L 3681 972 
Q 3631 872 3563 759 
Q 4900 197 6181 -403 
L 5906 -878 
Q 4569 -197 3263 391 
Q 2413 -441 413 -891 
Q 269 -616 113 -397 
z
M 331 4422 
L 3194 4422 
Q 3038 4703 2775 5078 
L 3231 5334 
Q 3438 5059 3731 4609 
L 3388 4422 
L 6063 4422 
L 6063 3303 
L 5563 3303 
L 5563 3959 
L 831 3959 
L 831 3303 
L 331 3303 
L 331 4422 
z
M 1100 2734 
Q 1819 2409 2450 2053 
L 2181 1622 
Q 1556 2003 863 2334 
L 1100 2734 
z
M 1663 3691 
Q 2388 3341 2981 2984 
L 2700 2559 
Q 2119 2934 1419 3322 
L 1663 3691 
z
" transform="scale(0.015625)"/>
      <path id="MicrosoftYaHei-9645" d="M 2256 1678 
Q 2419 503 1656 334 
Q 1413 284 1025 328 
Q 975 584 888 834 
Q 1219 753 1469 784 
Q 1906 834 1763 1678 
Q 1675 2166 1169 2828 
Q 1425 3591 1681 4491 
L 850 4491 
L 850 -841 
L 375 -841 
L 375 4953 
L 2200 4953 
L 2200 4503 
Q 1913 3572 1694 2884 
Q 2194 2203 2256 1678 
z
M 2150 3228 
L 6225 3228 
L 6225 2766 
L 4425 2766 
L 4425 16 
Q 4425 -747 3688 -747 
Q 3394 -747 2938 -741 
Q 2881 -403 2838 -209 
Q 3313 -259 3575 -259 
Q 3938 -259 3938 122 
L 3938 2766 
L 2150 2766 
L 2150 3228 
z
M 2488 4803 
L 5888 4803 
L 5888 4341 
L 2488 4341 
L 2488 4803 
z
M 2969 2097 
L 3431 1928 
Q 2988 747 2481 -222 
Q 2206 -72 2038 -3 
Q 2594 1003 2969 2097 
z
M 4900 1872 
L 5331 2084 
Q 5844 1041 6300 53 
L 5844 -166 
Q 5494 641 4900 1872 
z
" transform="scale(0.015625)"/>
      <path id="MicrosoftYaHei-8fd0" d="M 4319 2197 
L 4713 2447 
Q 5419 1522 5963 666 
L 5513 359 
Q 5372 597 5225 834 
Q 3450 722 2681 622 
Q 2469 591 2238 516 
L 2006 966 
Q 2250 1134 2413 1366 
Q 2838 2009 3250 2859 
L 1919 2859 
L 1919 3334 
L 6200 3334 
L 6200 2859 
L 3844 2859 
Q 3303 1866 2800 1116 
Q 3750 1172 4959 1253 
Q 4650 1731 4319 2197 
z
M 2756 -141 
L 4588 -178 
L 6313 -109 
Q 6206 -366 6113 -609 
L 4250 -622 
L 2650 -603 
Q 1656 -578 1156 122 
Q 769 -209 369 -697 
L 100 -166 
Q 116 -147 931 547 
L 931 2678 
L 131 2678 
L 131 3141 
L 1431 3141 
L 1431 459 
Q 1903 -125 2756 -141 
z
M 2338 4947 
L 5838 4947 
L 5838 4472 
L 2338 4472 
L 2338 4947 
z
M 794 5278 
Q 1275 4697 1744 4078 
L 1300 3778 
Q 881 4403 413 5003 
L 794 5278 
z
" transform="scale(0.015625)"/>
      <path id="MicrosoftYaHei-884c" d="M 2363 2978 
L 6319 2978 
L 6319 2509 
L 5106 2509 
L 5106 66 
Q 5106 -709 4325 -709 
Q 3800 -709 3256 -703 
Q 3219 -453 3163 -141 
Q 3650 -191 4144 -191 
Q 4575 -191 4575 234 
L 4575 2509 
L 2363 2509 
L 2363 2978 
z
M 100 1578 
Q 1069 2372 1863 3809 
L 2300 3541 
Q 1978 2984 1619 2500 
L 1619 -809 
L 1100 -809 
L 1100 1856 
Q 725 1431 319 1072 
Q 219 1334 100 1578 
z
M 2725 4866 
L 5969 4866 
L 5969 4397 
L 2725 4397 
L 2725 4866 
z
M 131 3559 
Q 1125 4328 1731 5347 
L 2181 5072 
Q 1456 3959 381 3078 
Q 269 3316 131 3559 
z
" transform="scale(0.015625)"/>
      <path id="MicrosoftYaHei-65e5" d="M 975 4909 
L 5431 4909 
L 5431 -766 
L 4900 -766 
L 4900 -322 
L 1506 -322 
L 1506 -766 
L 975 -766 
L 975 4909 
z
M 1506 2103 
L 1506 134 
L 4900 134 
L 4900 2103 
L 1506 2103 
z
M 1506 4441 
L 1506 2572 
L 4900 2572 
L 4900 4441 
L 1506 4441 
z
" transform="scale(0.015625)"/>
      <path id="MicrosoftYaHei-5fd7" d="M 663 2703 
L 2944 2703 
L 2944 3903 
L 200 3903 
L 200 4341 
L 2944 4341 
L 2944 5341 
L 3456 5341 
L 3456 4341 
L 6213 4341 
L 6213 3903 
L 3456 3903 
L 3456 2703 
L 5738 2703 
L 5738 2266 
L 663 2266 
L 663 2703 
z
M 1625 1572 
L 2113 1572 
L 2113 153 
Q 2113 -222 2488 -222 
L 3806 -222 
Q 4256 -222 4338 109 
Q 4413 403 4469 866 
Q 4700 772 4963 684 
Q 4881 222 4800 -78 
Q 4656 -678 3950 -678 
L 2394 -678 
Q 1625 -678 1625 128 
L 1625 1572 
z
M 725 1684 
L 1194 1547 
Q 938 603 675 -91 
Q 469 -9 194 59 
Q 506 816 725 1684 
z
M 4981 1459 
L 5375 1709 
Q 5838 1091 6288 366 
L 5850 72 
Q 5394 859 4981 1459 
z
M 2600 1859 
L 2988 2116 
Q 3450 1547 3881 934 
L 3463 647 
Q 3006 1341 2600 1859 
z
" transform="scale(0.015625)"/>
      <path id="MicrosoftYaHei-3002" d="M 1219 863 
Q 1525 863 1750 625 
Q 1975 388 1975 72 
Q 1975 -284 1747 -507 
Q 1519 -731 1197 -731 
Q 875 -731 642 -503 
Q 409 -275 409 66 
Q 409 413 656 638 
Q 903 863 1219 863 
z
M 1209 -275 
Q 1328 -275 1431 -184 
Q 1534 -94 1534 50 
Q 1534 209 1434 304 
Q 1334 400 1191 400 
Q 1056 400 959 304 
Q 863 209 863 53 
Q 863 -100 977 -187 
Q 1091 -275 1209 -275 
z
" transform="scale(0.015625)"/>
     </defs>
     <use xlink:href="#MicrosoftYaHei-4f5c"/>
     <use xlink:href="#MicrosoftYaHei-8005" transform="translate(100 0)"/>
     <use xlink:href="#MicrosoftYaHei-7ed9" transform="translate(200 0)"/>
     <use xlink:href="#MicrosoftYaHei-5b9a" transform="translate(300 0)"/>
     <use xlink:href="#MicrosoftYaHei-7684" transform="translate(400 0)"/>
     <use xlink:href="#MicrosoftYaHei-6559" transform="translate(500 0)"/>
     <use xlink:href="#MicrosoftYaHei-5b66" transform="translate(600 0)"/>
     <use xlink:href="#MicrosoftYaHei-65f6" transform="translate(700 0)"/>
     <use xlink:href="#MicrosoftYaHei-95f4" transform="translate(800 0)"/>
     <use xlink:href="#MicrosoftYaHei-5b89" transform="translate(900 0)"/>
     <use xlink:href="#MicrosoftYaHei-6392" transform="translate(1000 0)"/>
     <use xlink:href="#MicrosoftYaHei-ff1b" transform="translate(1100 0)"/>
     <use xlink:href="#MicrosoftYaHei-4e0d" transform="translate(1200 0)"/>
     <use xlink:href="#MicrosoftYaHei-662f" transform="translate(1300 0)"/>
     <use xlink:href="#MicrosoftYaHei-5b9e" transform="translate(1400 0)"/>
     <use xlink:href="#MicrosoftYaHei-9645" transform="translate(1500 0)"/>
     <use xlink:href="#MicrosoftYaHei-8fd0" transform="translate(1600 0)"/>
     <use xlink:href="#MicrosoftYaHei-884c" transform="translate(1700 0)"/>
     <use xlink:href="#MicrosoftYaHei-65e5" transform="translate(1800 0)"/>
     <use xlink:href="#MicrosoftYaHei-5fd7" transform="translate(1900 0)"/>
     <use xlink:href="#MicrosoftYaHei-3002" transform="translate(2000 0)"/>
    </g>
   </g>
   <g id="text_3">
    <!-- 0分 -->
    <g style="fill: #617386" transform="translate(226.353562 126.037688) scale(0.12 -0.12)">
     <use xlink:href="#MicrosoftYaHei-30"/>
     <use xlink:href="#MicrosoftYaHei-5206" transform="translate(58.642578 0)"/>
    </g>
   </g>
   <g id="text_4">
    <!-- 4分 -->
    <g style="fill: #617386" transform="translate(364.247962 126.037688) scale(0.12 -0.12)">
     <defs>
      <path id="MicrosoftYaHei-34" d="M 2906 4841 
L 2906 1644 
L 3631 1644 
L 3631 1138 
L 2906 1138 
L 2906 0 
L 2313 0 
L 2313 1138 
L 53 1138 
L 53 1616 
Q 656 2294 1265 3178 
Q 1875 4063 2272 4841 
L 2906 4841 
z
M 741 1644 
L 2313 1644 
L 2313 3950 
Q 1988 3366 1616 2817 
Q 1244 2269 741 1644 
z
" transform="scale(0.015625)"/>
     </defs>
     <use xlink:href="#MicrosoftYaHei-34"/>
     <use xlink:href="#MicrosoftYaHei-5206" transform="translate(58.642578 0)"/>
    </g>
   </g>
   <g id="text_5">
    <!-- 8分 -->
    <g style="fill: #617386" transform="translate(502.142362 126.037688) scale(0.12 -0.12)">
     <defs>
      <path id="MicrosoftYaHei-38" d="M 306 1350 
Q 306 1769 556 2122 
Q 806 2475 1200 2625 
Q 884 2803 700 3081 
Q 516 3359 516 3684 
Q 516 4028 692 4312 
Q 869 4597 1183 4759 
Q 1497 4922 1875 4922 
Q 2256 4922 2572 4761 
Q 2888 4600 3063 4315 
Q 3238 4031 3238 3684 
Q 3238 3366 3058 3086 
Q 2878 2806 2559 2625 
Q 2953 2472 3200 2119 
Q 3447 1766 3447 1350 
Q 3447 938 3250 611 
Q 3053 284 2690 103 
Q 2328 -78 1875 -78 
Q 1425 -78 1065 103 
Q 706 284 506 612 
Q 306 941 306 1350 
z
M 906 1378 
Q 906 947 1172 687 
Q 1438 428 1878 428 
Q 2309 428 2582 692 
Q 2856 956 2856 1378 
Q 2856 1778 2579 2051 
Q 2303 2325 1878 2325 
Q 1456 2325 1181 2058 
Q 906 1791 906 1378 
z
M 1081 3634 
Q 1081 3309 1312 3076 
Q 1544 2844 1878 2844 
Q 2206 2844 2445 3078 
Q 2684 3313 2684 3634 
Q 2684 3963 2454 4191 
Q 2225 4419 1878 4419 
Q 1534 4419 1307 4195 
Q 1081 3972 1081 3634 
z
" transform="scale(0.015625)"/>
     </defs>
     <use xlink:href="#MicrosoftYaHei-38"/>
     <use xlink:href="#MicrosoftYaHei-5206" transform="translate(58.642578 0)"/>
    </g>
   </g>
   <g id="text_6">
    <!-- 14分 -->
    <g style="fill: #617386" transform="translate(705.465525 126.037688) scale(0.12 -0.12)">
     <defs>
      <path id="MicrosoftYaHei-31" d="M 1781 0 
L 1781 4141 
Q 1638 3997 1295 3819 
Q 953 3641 663 3569 
L 663 4169 
Q 1047 4275 1484 4508 
Q 1922 4741 2156 4947 
L 2388 4947 
L 2388 0 
L 1781 0 
z
" transform="scale(0.015625)"/>
     </defs>
     <use xlink:href="#MicrosoftYaHei-31"/>
     <use xlink:href="#MicrosoftYaHei-34" transform="translate(58.642578 0)"/>
     <use xlink:href="#MicrosoftYaHei-5206" transform="translate(117.285156 0)"/>
    </g>
   </g>
   <g id="text_7">
    <!-- 20分 -->
    <g style="fill: #617386" transform="translate(912.307125 126.037688) scale(0.12 -0.12)">
     <use xlink:href="#MicrosoftYaHei-32"/>
     <use xlink:href="#MicrosoftYaHei-30" transform="translate(58.642578 0)"/>
     <use xlink:href="#MicrosoftYaHei-5206" transform="translate(117.285156 0)"/>
    </g>
   </g>
   <g id="text_8">
    <!-- 讲解安排 -->
    <g style="fill: #20344b" transform="translate(155.144 172.996078) scale(0.13 -0.13)">
     <defs>
      <path id="MicrosoftYaHei-8bb2" d="M 4694 5253 
L 5169 5253 
L 5169 4003 
L 6081 4003 
L 6081 3553 
L 5169 3553 
L 5169 1916 
L 6263 1916 
L 6263 1466 
L 5169 1466 
L 5169 -759 
L 4694 -759 
L 4694 1466 
L 3256 1466 
Q 3163 141 2088 -841 
Q 1931 -647 1731 -447 
Q 2663 366 2772 1466 
L 1775 1466 
L 1775 1916 
L 2819 1916 
Q 2850 2350 2850 3553 
L 2019 3553 
L 2019 4003 
L 2850 4003 
L 2850 5241 
L 3325 5241 
L 3325 4003 
L 4694 4003 
L 4694 5253 
z
M 1956 878 
Q 1963 616 2000 334 
Q 1381 -78 869 -478 
L 581 -66 
Q 794 122 794 497 
L 794 2697 
L 88 2697 
L 88 3147 
L 1263 3147 
L 1263 384 
Q 1563 591 1956 878 
z
M 3297 1916 
L 4694 1916 
L 4694 3553 
L 3325 3553 
Q 3325 2878 3297 1916 
z
M 806 5184 
Q 1306 4684 1763 4147 
L 1344 3803 
Q 931 4334 431 4866 
L 806 5184 
z
" transform="scale(0.015625)"/>
      <path id="MicrosoftYaHei-89e3" d="M 75 3559 
Q 756 4316 1188 5322 
L 1625 5203 
Q 1497 4941 1366 4697 
L 2544 4697 
L 2544 4309 
L 2084 3641 
L 2881 3641 
L 2881 -128 
Q 2881 -753 2263 -759 
Q 1994 -766 1706 -747 
Q 1688 -591 1638 -328 
Q 1938 -359 2175 -359 
Q 2475 -359 2475 -66 
L 2475 953 
L 1913 953 
L 1913 -203 
L 1506 -203 
L 1506 953 
L 950 953 
Q 897 -225 438 -847 
Q 294 -684 88 -528 
Q 550 153 550 1303 
L 550 3428 
Q 463 3319 375 3216 
Q 269 3359 75 3559 
z
M 3075 897 
L 4550 897 
L 4550 1797 
L 3794 1797 
Q 3659 1438 3513 1122 
Q 3331 1228 3106 1309 
Q 3456 2059 3663 2828 
L 4094 2709 
Q 4019 2456 3941 2222 
L 4550 2222 
L 4550 2897 
L 5013 2897 
L 5013 2222 
L 6131 2222 
L 6131 1797 
L 5013 1797 
L 5013 897 
L 6281 897 
L 6281 472 
L 5013 472 
L 5013 -841 
L 4550 -841 
L 4550 472 
L 3075 472 
L 3075 897 
z
M 3138 4997 
L 5950 4997 
Q 5931 4384 5888 3847 
Q 5844 3084 5081 3084 
Q 4819 3084 4438 3103 
Q 4400 3366 4350 3603 
Q 4800 3547 5056 3547 
Q 5394 3547 5425 3909 
Q 5456 4191 5469 4572 
L 4284 4572 
Q 4263 3950 4063 3584 
Q 3844 3159 3219 2759 
Q 3119 2916 2919 3159 
Q 3438 3441 3638 3778 
Q 3806 4050 3828 4572 
L 3138 4572 
L 3138 4997 
z
M 709 3641 
L 1581 3641 
L 2038 4316 
L 1150 4316 
Q 934 3950 709 3641 
z
M 1913 1322 
L 2475 1322 
L 2475 2116 
L 1913 2116 
L 1913 1322 
z
M 2475 3272 
L 1913 3272 
L 1913 2484 
L 2475 2484 
L 2475 3272 
z
M 956 1322 
L 1506 1322 
L 1506 2116 
L 956 2116 
L 956 1322 
z
M 956 2484 
L 1506 2484 
L 1506 3272 
L 956 3272 
L 956 2484 
z
" transform="scale(0.015625)"/>
     </defs>
     <use xlink:href="#MicrosoftYaHei-8bb2"/>
     <use xlink:href="#MicrosoftYaHei-89e3" transform="translate(100 0)"/>
     <use xlink:href="#MicrosoftYaHei-5b89" transform="translate(200 0)"/>
     <use xlink:href="#MicrosoftYaHei-6392" transform="translate(300 0)"/>
    </g>
   </g>
   <g id="text_9">
    <!-- 问题 -->
    <g style="fill: #20344b" transform="translate(292.8192 202.508888) scale(0.12 -0.12)">
     <defs>
      <path id="MicrosoftYaHei-95ee" d="M 1863 3353 
L 4513 3353 
L 4513 853 
L 2313 853 
L 2313 497 
L 1863 497 
L 1863 3353 
z
M 2388 4453 
L 2388 4922 
L 5963 4922 
L 5963 91 
Q 5963 -816 5144 -816 
Q 4613 -816 4119 -803 
Q 4094 -616 4019 -297 
Q 4538 -334 5019 -334 
Q 5475 -334 5475 153 
L 5475 4453 
L 2388 4453 
z
M 4063 2891 
L 2313 2891 
L 2313 1316 
L 4063 1316 
L 4063 2891 
z
M 431 4084 
L 919 4084 
L 919 -816 
L 431 -816 
L 431 4084 
z
M 744 5003 
L 1100 5322 
Q 1444 4997 2006 4409 
L 1600 4053 
Q 1063 4678 744 5003 
z
" transform="scale(0.015625)"/>
      <path id="MicrosoftYaHei-9898" d="M 88 -291 
Q 544 328 581 1622 
L 1013 1622 
Q 994 1234 950 884 
Q 1181 466 1538 209 
L 1538 1916 
L 138 1916 
L 138 2322 
L 3025 2322 
L 3025 1916 
L 1950 1916 
L 1950 1253 
L 2956 1253 
L 2956 847 
L 1950 847 
L 1950 -16 
Q 2369 -184 2906 -197 
Q 4006 -266 6300 -166 
Q 6231 -372 6125 -659 
Q 3888 -716 2906 -634 
Q 1513 -597 850 347 
Q 688 -359 363 -878 
Q 238 -584 88 -291 
z
M 525 5041 
L 2725 5041 
L 2725 2634 
L 2313 2634 
L 2313 2828 
L 938 2828 
L 938 2634 
L 525 2634 
L 525 5041 
z
M 3263 3878 
L 4169 3878 
Q 4231 4247 4275 4591 
L 3031 4591 
L 3031 4997 
L 6169 4997 
L 6169 4591 
L 4738 4591 
Q 4681 4222 4613 3878 
L 5838 3878 
L 5838 1228 
L 5425 1228 
L 5425 3472 
L 3675 3472 
L 3675 1228 
L 3263 1228 
L 3263 3878 
z
M 4344 3203 
L 4756 3203 
L 4756 2422 
Q 4756 1809 4631 1372 
Q 5594 678 6050 284 
L 5713 -47 
Q 5213 422 4481 972 
Q 4444 903 4406 841 
Q 4031 241 3131 -109 
Q 2988 72 2794 259 
Q 3669 547 4006 1028 
Q 4344 1503 4344 2441 
L 4344 3203 
z
M 938 3203 
L 2313 3203 
L 2313 3753 
L 938 3753 
L 938 3203 
z
M 2313 4666 
L 938 4666 
L 938 4122 
L 2313 4122 
L 2313 4666 
z
" transform="scale(0.015625)"/>
     </defs>
     <use xlink:href="#MicrosoftYaHei-95ee"/>
     <use xlink:href="#MicrosoftYaHei-9898" transform="translate(100 0)"/>
    </g>
   </g>
   <g id="text_10">
    <!-- 唯一差异 -->
    <g style="fill: #20344b" transform="translate(418.7136 202.508888) scale(0.12 -0.12)">
     <defs>
      <path id="MicrosoftYaHei-552f" d="M 450 4616 
L 1988 4616 
L 1988 2888 
Q 2659 3928 3219 5328 
L 3700 5172 
Q 3466 4631 3222 4134 
L 6175 4134 
L 6175 3709 
L 4769 3709 
L 4769 2759 
L 6125 2759 
L 6125 2334 
L 4769 2334 
L 4769 1384 
L 6125 1384 
L 6125 959 
L 4769 959 
L 4769 3 
L 6250 3 
L 6250 -409 
L 3119 -409 
L 3119 -822 
L 2650 -822 
L 2650 3050 
Q 2481 2759 2313 2484 
Q 2153 2653 1988 2788 
L 1988 159 
L 1538 159 
L 1538 659 
L 900 659 
L 900 97 
L 450 97 
L 450 4616 
z
M 1538 4172 
L 900 4172 
L 900 1103 
L 1538 1103 
L 1538 4172 
z
M 3119 3 
L 4300 3 
L 4300 959 
L 3119 959 
L 3119 3 
z
M 3119 2759 
L 4300 2759 
L 4300 3709 
L 3119 3709 
L 3119 2759 
z
M 3119 1384 
L 4300 1384 
L 4300 2334 
L 3119 2334 
L 3119 1384 
z
M 4063 5078 
L 4463 5322 
Q 4725 4984 5088 4428 
L 4656 4172 
Q 4363 4672 4063 5078 
z
" transform="scale(0.015625)"/>
      <path id="MicrosoftYaHei-4e00" d="M 100 2703 
L 6313 2703 
L 6313 2153 
L 100 2153 
L 100 2703 
z
" transform="scale(0.015625)"/>
      <path id="MicrosoftYaHei-5dee" d="M 1094 -172 
L 3419 -172 
L 3419 891 
L 1813 891 
L 1813 1088 
Q 1200 394 331 -197 
Q 206 3 31 247 
Q 1213 1028 1859 1984 
L 200 1984 
L 200 2409 
L 2119 2409 
Q 2275 2694 2409 3028 
L 638 3028 
L 638 3447 
L 2569 3447 
Q 2666 3728 2750 4041 
L 488 4041 
L 488 4466 
L 2075 4466 
Q 1813 4797 1513 5122 
L 1869 5397 
Q 2231 5047 2563 4672 
L 2278 4466 
L 4219 4466 
L 3975 4684 
Q 4344 5047 4631 5403 
L 5056 5122 
Q 4738 4772 4413 4466 
L 6050 4466 
L 6050 4041 
L 3291 4041 
Q 3206 3731 3109 3447 
L 5813 3447 
L 5813 3028 
L 2963 3028 
Q 2838 2700 2697 2409 
L 6294 2409 
L 6294 1984 
L 2469 1984 
Q 2259 1634 1997 1309 
L 5613 1309 
L 5613 891 
L 3925 891 
L 3925 -172 
L 6213 -172 
L 6213 -597 
L 1094 -597 
L 1094 -172 
z
" transform="scale(0.015625)"/>
      <path id="MicrosoftYaHei-5f02" d="M 1731 2547 
L 5050 2547 
Q 5531 2547 5619 2878 
Q 5694 3141 5756 3572 
Q 5988 3472 6250 3378 
Q 6131 2866 6075 2684 
Q 5913 2109 5163 2109 
L 1619 2109 
Q 819 2109 819 2922 
L 819 5016 
L 5338 5016 
L 5338 3116 
L 4856 3116 
L 4856 3328 
L 1300 3328 
L 1300 2972 
Q 1300 2547 1731 2547 
z
M 4256 1922 
L 4750 1922 
L 4750 1178 
L 6250 1178 
L 6250 741 
L 4750 741 
L 4750 -841 
L 4256 -841 
L 4256 741 
L 2125 741 
Q 2050 -322 663 -866 
Q 513 -672 319 -441 
Q 1538 -22 1622 741 
L 144 741 
L 144 1178 
L 1678 1178 
Q 1703 1500 1700 1928 
L 2194 1928 
Q 2194 1509 2172 1178 
L 4256 1178 
L 4256 1922 
z
M 1300 4584 
L 1300 3759 
L 4856 3759 
L 4856 4584 
L 1300 4584 
z
" transform="scale(0.015625)"/>
     </defs>
     <use xlink:href="#MicrosoftYaHei-552f"/>
     <use xlink:href="#MicrosoftYaHei-4e00" transform="translate(100 0)"/>
     <use xlink:href="#MicrosoftYaHei-5dee" transform="translate(200 0)"/>
     <use xlink:href="#MicrosoftYaHei-5f02" transform="translate(300 0)"/>
    </g>
   </g>
   <g id="text_11">
    <!-- 证据 -->
    <g style="fill: #20344b" transform="translate(603.0816 202.508888) scale(0.12 -0.12)">
     <use xlink:href="#MicrosoftYaHei-8bc1"/>
     <use xlink:href="#MicrosoftYaHei-636e" transform="translate(100 0)"/>
    </g>
   </g>
   <g id="text_12">
    <!-- 解释与讨论 -->
    <g style="fill: #20344b" transform="translate(791.9232 202.508888) scale(0.12 -0.12)">
     <defs>
      <path id="MicrosoftYaHei-91ca" d="M 2806 4559 
L 2806 4984 
L 5944 4984 
L 5944 4572 
Q 5575 3828 4863 3284 
Q 5475 2984 6319 2884 
Q 6244 2741 6081 2391 
Q 5119 2597 4444 3003 
Q 3756 2584 2825 2316 
Q 2769 2453 2594 2766 
Q 3419 2978 4031 3284 
Q 3394 3803 3100 4559 
L 2806 4559 
z
M 88 534 
Q 744 1403 1113 2472 
L 144 2472 
L 144 2878 
L 1213 2878 
L 1213 4516 
Q 719 4478 244 4447 
Q 213 4659 156 4878 
Q 1513 4953 2431 5084 
L 2613 4634 
Q 2125 4591 1656 4553 
L 1656 2878 
L 2544 2878 
L 2544 2472 
L 1656 2472 
L 1656 1922 
L 1925 2116 
Q 2388 1659 2638 1366 
L 2288 1053 
Q 2050 1366 1656 1797 
L 1656 -828 
L 1213 -828 
L 1213 1753 
Q 838 791 281 34 
Q 200 291 88 534 
z
M 2556 697 
L 4200 697 
L 4200 1434 
L 2844 1434 
L 2844 1872 
L 4200 1872 
L 4200 2597 
L 4669 2597 
L 4669 1872 
L 6050 1872 
L 6050 1434 
L 4669 1434 
L 4669 697 
L 6319 697 
L 6319 259 
L 4669 259 
L 4669 -809 
L 4200 -809 
L 4200 259 
L 2556 259 
L 2556 697 
z
M 5450 4559 
L 3550 4559 
Q 3863 3922 4444 3522 
Q 5119 3966 5450 4559 
z
M 1800 3197 
Q 2113 3759 2294 4228 
L 2700 4059 
Q 2450 3503 2156 3016 
L 1800 3197 
z
M 188 4072 
L 550 4234 
Q 875 3609 1013 3247 
L 600 3047 
Q 394 3634 188 4072 
z
" transform="scale(0.015625)"/>
      <path id="MicrosoftYaHei-4e0e" d="M 1163 2384 
L 1163 2859 
L 1413 5328 
L 1931 5328 
L 1834 4334 
L 6269 4334 
L 6269 3859 
L 1791 3859 
L 1694 2859 
L 5813 2859 
Q 5738 1547 5644 416 
Q 5556 -247 5263 -478 
Q 4981 -703 4322 -703 
Q 3706 -697 2900 -678 
Q 2863 -466 2794 -134 
Q 3744 -203 4213 -209 
Q 5050 -266 5125 447 
Q 5206 1278 5263 2384 
L 1163 2384 
z
M 106 1409 
L 4738 1409 
L 4738 934 
L 106 934 
L 106 1409 
z
" transform="scale(0.015625)"/>
     </defs>
     <use xlink:href="#MicrosoftYaHei-89e3"/>
     <use xlink:href="#MicrosoftYaHei-91ca" transform="translate(100 0)"/>
     <use xlink:href="#MicrosoftYaHei-4e0e" transform="translate(200 0)"/>
     <use xlink:href="#MicrosoftYaHei-8ba8" transform="translate(300 0)"/>
     <use xlink:href="#MicrosoftYaHei-8bba" transform="translate(400 0)"/>
    </g>
   </g>
   <g id="text_13">
    <!-- 这是教学展示安排，不是系统时长或运行性能承诺。 -->
    <g style="fill: #c97624" transform="translate(343 413.355469) scale(0.14 -0.14)">
     <defs>
      <path id="MicrosoftYaHei-8fd9" d="M 2631 -191 
L 4263 -228 
L 6300 -166 
Q 6231 -372 6125 -659 
L 4106 -659 
L 2575 -634 
Q 1525 -616 1081 91 
Q 825 -147 331 -747 
L 75 -228 
Q 628 306 875 538 
L 875 2641 
L 131 2641 
L 131 3103 
L 1356 3103 
L 1356 438 
Q 1741 -175 2631 -191 
z
M 2275 3109 
L 2575 3434 
Q 3197 2938 4084 2194 
Q 4684 2900 5044 3816 
L 5519 3591 
Q 5091 2619 4463 1878 
Q 5138 1309 5950 616 
L 5563 197 
Q 4759 928 4119 1500 
Q 3269 653 2106 159 
Q 1988 341 1800 578 
Q 2950 1056 3747 1834 
Q 2828 2650 2275 3109 
z
M 1925 4341 
L 6150 4341 
L 6150 3903 
L 1925 3903 
L 1925 4341 
z
M 856 5203 
Q 1175 4816 1731 4022 
L 1288 3709 
Q 781 4503 456 4934 
L 856 5203 
z
M 3438 5147 
L 3869 5359 
Q 4063 5066 4325 4591 
L 3875 4359 
Q 3638 4822 3438 5147 
z
" transform="scale(0.015625)"/>
      <path id="MicrosoftYaHei-5c55" d="M 1463 2897 
L 2488 2897 
L 2488 3441 
L 2950 3441 
L 2950 2897 
L 4244 2897 
L 4244 3441 
L 4706 3441 
L 4706 2897 
L 5875 2897 
L 5875 2484 
L 4706 2484 
L 4706 1797 
L 6169 1797 
L 6169 1384 
L 3534 1384 
Q 3819 922 4228 588 
Q 4716 822 5494 1247 
L 5756 791 
Q 5097 516 4622 316 
Q 5322 -94 6300 -216 
Q 6106 -466 5950 -691 
Q 3900 -266 3047 1384 
L 2381 1384 
L 2381 -184 
Q 2463 -159 3625 209 
Q 3613 -28 3625 -291 
Q 3056 -453 2494 -653 
Q 2350 -709 2044 -859 
L 1769 -478 
Q 1919 -378 1919 -47 
L 1919 1384 
L 1178 1384 
Q 1125 103 456 -847 
Q 300 -634 100 -403 
Q 750 441 750 2341 
L 750 5028 
L 5850 5028 
L 5850 3384 
L 5375 3384 
L 5375 3597 
L 1225 3597 
L 1225 2766 
Q 1225 2234 1203 1797 
L 2488 1797 
L 2488 2484 
L 1463 2484 
L 1463 2897 
z
M 5375 4616 
L 1225 4616 
L 1225 4009 
L 5375 4009 
L 5375 4616 
z
M 2950 1797 
L 4244 1797 
L 4244 2484 
L 2950 2484 
L 2950 1797 
z
" transform="scale(0.015625)"/>
      <path id="MicrosoftYaHei-793a" d="M 100 3072 
L 6300 3072 
L 6300 2603 
L 3619 2603 
L 3619 78 
Q 3619 -703 2800 -709 
Q 2366 -709 1825 -703 
Q 1788 -447 1731 -128 
Q 2225 -178 2663 -178 
Q 3088 -178 3088 241 
L 3088 2603 
L 100 2603 
L 100 3072 
z
M 675 4916 
L 5744 4916 
L 5744 4447 
L 675 4447 
L 675 4916 
z
M 4413 1847 
L 4831 2128 
Q 5600 1184 6319 159 
L 5863 -141 
Q 5088 991 4413 1847 
z
M 1481 2141 
L 1938 1884 
Q 1281 747 538 -278 
Q 344 -134 125 16 
Q 825 922 1481 2141 
z
" transform="scale(0.015625)"/>
      <path id="MicrosoftYaHei-ff0c" d="M 1931 775 
L 1403 -891 
L 966 -891 
L 1350 775 
L 1931 775 
z
" transform="scale(0.015625)"/>
      <path id="MicrosoftYaHei-7cfb" d="M 4494 2747 
Q 5294 2103 6131 1334 
Q 5925 1134 5750 953 
Q 5491 1209 5225 1459 
Q 4391 1425 3519 1378 
L 3519 -28 
Q 3519 -741 2769 -741 
Q 2463 -741 1963 -728 
Q 1931 -497 1881 -216 
Q 2406 -272 2688 -272 
Q 3031 -272 3031 66 
L 3031 1353 
Q 2272 1313 1488 1266 
Q 1131 1247 781 1184 
L 575 1722 
Q 988 1797 1356 1966 
Q 2313 2434 3131 2909 
Q 2044 2825 1306 2759 
Q 981 2728 813 2691 
L 613 3216 
Q 913 3291 1175 3434 
Q 1959 3872 2747 4469 
Q 1675 4403 575 4353 
Q 531 4572 463 4791 
Q 3444 4903 5756 5134 
L 5850 4691 
Q 4494 4578 3097 4488 
L 3350 4309 
Q 2369 3653 1538 3203 
Q 2938 3281 3856 3353 
Q 4481 3753 5013 4159 
L 5419 3828 
Q 3850 2709 1775 1734 
Q 3019 1778 4791 1866 
Q 4478 2153 4163 2428 
L 4494 2747 
z
M 4125 697 
L 4444 1034 
Q 5231 509 6175 -222 
L 5806 -628 
Q 4931 97 4125 697 
z
M 1681 1028 
L 2088 709 
Q 1288 -9 406 -678 
Q 256 -497 63 -297 
Q 875 259 1681 1028 
z
" transform="scale(0.015625)"/>
      <path id="MicrosoftYaHei-7edf" d="M 5100 3641 
Q 5625 2934 6175 2047 
Q 5956 1922 5713 1766 
Q 5556 2031 5413 2275 
Q 5122 2256 4813 2241 
L 4813 122 
Q 4813 -259 5094 -259 
L 5400 -259 
Q 5706 -259 5750 53 
Q 5800 428 5813 866 
Q 6019 778 6313 684 
Q 6263 141 6206 -159 
Q 6119 -703 5550 -703 
L 5013 -703 
Q 4331 -703 4331 78 
L 4331 2213 
Q 3981 2194 3606 2169 
Q 3556 809 3256 272 
Q 2900 -416 1925 -866 
Q 1788 -672 1606 -447 
Q 2513 -78 2819 522 
Q 3100 1000 3122 2138 
Q 2994 2128 2863 2122 
Q 2594 2097 2363 2041 
L 2150 2528 
Q 2419 2641 2581 2828 
Q 3050 3388 3463 4047 
L 2100 4047 
L 2100 4491 
L 4094 4491 
Q 3859 4850 3650 5128 
L 4063 5384 
Q 4300 5091 4594 4684 
L 4297 4491 
L 6200 4491 
L 6200 4047 
L 3663 4047 
L 4006 3897 
Q 3488 3197 2988 2609 
Q 4166 2650 5153 2694 
Q 4916 3075 4700 3391 
L 5100 3641 
z
M 894 1534 
Q 1394 1603 2175 1722 
Q 2138 1472 2113 1259 
Q 1331 1153 325 991 
L 225 1441 
Q 616 1841 1153 2744 
Q 503 2700 219 2678 
L 100 3103 
Q 650 3828 1288 5316 
L 1763 5128 
Q 1156 3941 656 3141 
Q 1066 3147 1394 3159 
Q 1581 3494 1788 3884 
L 2256 3678 
Q 1544 2434 894 1534 
z
M 81 222 
Q 1119 422 2225 672 
Q 2200 347 2200 222 
Q 1069 -28 225 -253 
L 81 222 
z
" transform="scale(0.015625)"/>
      <path id="MicrosoftYaHei-957f" d="M 169 2766 
L 1269 2766 
L 1269 5316 
L 1781 5316 
L 1781 2766 
L 6194 2766 
L 6194 2278 
L 3456 2278 
Q 4238 566 6325 -78 
Q 6113 -359 5944 -591 
Q 3697 266 2925 2278 
L 1781 2278 
L 1781 16 
Q 2494 303 3294 678 
Q 3294 384 3319 116 
Q 2575 -191 1894 -528 
Q 1644 -666 1431 -834 
L 1056 -353 
Q 1269 -184 1269 103 
L 1269 2278 
L 169 2278 
L 169 2766 
z
M 2156 3528 
Q 3706 4047 5138 5109 
L 5463 4703 
Q 4000 3634 2400 3066 
Q 2300 3278 2156 3528 
z
" transform="scale(0.015625)"/>
      <path id="MicrosoftYaHei-6216" d="M 2675 -484 
Q 3456 50 4044 741 
Q 3644 1847 3569 3741 
L 200 3741 
L 200 4203 
L 3550 4203 
Q 3525 4725 3506 5291 
L 4019 5291 
Q 4022 4725 4038 4203 
L 6250 4203 
L 6250 3741 
L 4047 3741 
Q 4088 2188 4397 1197 
Q 5000 2044 5350 3097 
L 5844 2891 
Q 5334 1619 4603 659 
Q 4884 59 5275 -191 
Q 5650 -434 5738 16 
Q 5831 484 5881 978 
Q 6138 866 6363 797 
Q 6244 78 6138 -291 
Q 6006 -778 5569 -791 
Q 5206 -791 4863 -528 
Q 4513 -234 4259 244 
Q 3706 -384 3038 -853 
Q 2894 -691 2675 -484 
z
M 644 3134 
L 2894 3134 
L 2894 947 
L 2444 947 
L 2444 1234 
L 1094 1234 
L 1094 797 
L 644 797 
L 644 3134 
z
M 106 91 
Q 1300 247 3219 578 
Q 3225 309 3238 103 
Q 1831 -109 231 -409 
L 106 91 
z
M 2444 2697 
L 1094 2697 
L 1094 1672 
L 2444 1672 
L 2444 2697 
z
M 4494 4991 
L 4756 5316 
Q 5263 5022 5781 4659 
L 5481 4284 
Q 5013 4647 4494 4991 
z
" transform="scale(0.015625)"/>
      <path id="MicrosoftYaHei-6027" d="M 1963 -153 
L 3988 -153 
L 3988 1522 
L 2375 1522 
L 2375 1959 
L 3988 1959 
L 3988 3472 
L 2975 3472 
Q 2744 2878 2438 2291 
Q 2169 2509 2019 2578 
Q 2644 3709 2894 4891 
L 3388 4759 
Q 3281 4328 3138 3909 
L 3988 3909 
L 3988 5284 
L 4481 5284 
L 4481 3909 
L 6125 3909 
L 6125 3472 
L 4481 3472 
L 4481 1959 
L 6000 1959 
L 6000 1522 
L 4481 1522 
L 4481 -153 
L 6319 -153 
L 6319 -591 
L 1963 -591 
L 1963 -153 
z
M 988 5291 
L 1469 5291 
L 1469 4091 
L 1738 4241 
Q 2063 3734 2294 3291 
L 1906 3041 
Q 1688 3503 1469 3859 
L 1469 -872 
L 988 -872 
L 988 5291 
z
M 406 3878 
L 819 3784 
Q 706 3028 506 2178 
Q 338 2241 75 2297 
Q 263 2978 406 3878 
z
" transform="scale(0.015625)"/>
      <path id="MicrosoftYaHei-80fd" d="M 950 -759 
L 463 -759 
L 463 2928 
L 3000 2928 
L 3000 -28 
Q 3000 -703 2375 -703 
Q 2100 -709 1669 -709 
Q 1638 -516 1575 -234 
Q 1969 -266 2206 -266 
Q 2513 -266 2513 53 
L 2513 572 
L 950 572 
L 950 -759 
z
M 3606 2253 
L 4094 2253 
L 4094 1222 
Q 4981 1553 5950 2091 
L 6231 1659 
Q 5209 1122 4094 706 
L 4094 166 
Q 4094 -228 4400 -228 
L 5319 -228 
Q 5638 -228 5688 78 
Q 5731 353 5763 897 
Q 6000 803 6250 722 
Q 6200 172 6144 -109 
Q 6063 -659 5363 -659 
L 4319 -659 
Q 3606 -659 3606 72 
L 3606 2253 
z
M 3619 5303 
L 4106 5303 
L 4106 4231 
Q 4966 4572 5813 5053 
L 6094 4622 
Q 5119 4128 4106 3719 
L 4106 3359 
Q 4106 2941 4438 2941 
L 5231 2941 
Q 5625 2941 5675 3266 
Q 5719 3534 5750 4047 
Q 5988 3953 6238 3866 
Q 6188 3366 6131 3053 
Q 6038 2509 5288 2509 
L 4375 2509 
Q 3619 2509 3619 3259 
L 3619 5303 
z
M 2463 4772 
Q 3031 4034 3450 3353 
Q 3213 3191 3019 3066 
Q 2897 3281 2759 3506 
Q 1231 3394 313 3303 
L 113 3828 
Q 388 3978 719 4391 
Q 1063 4841 1394 5397 
L 1888 5216 
Q 1369 4466 794 3797 
Q 1731 3856 2497 3919 
Q 2300 4216 2075 4528 
L 2463 4772 
z
M 950 947 
L 2513 947 
L 2513 1553 
L 950 1553 
L 950 947 
z
M 2513 2528 
L 950 2528 
L 950 1928 
L 2513 1928 
L 2513 2528 
z
" transform="scale(0.015625)"/>
      <path id="MicrosoftYaHei-627f" d="M 1863 1122 
L 3000 1122 
L 3000 1722 
L 2125 1722 
L 2125 2159 
L 3000 2159 
L 3000 2734 
L 2188 2734 
L 2188 3172 
L 3000 3172 
L 3000 3816 
L 4275 4497 
L 875 4497 
L 875 4934 
L 5294 4934 
L 5294 4491 
L 3463 3541 
L 3463 3172 
L 4275 3172 
L 4275 2734 
L 3463 2734 
L 3463 2159 
L 4319 2159 
L 4319 1722 
L 3463 1722 
L 3463 1122 
L 4588 1122 
L 4588 684 
L 3463 684 
L 3463 122 
Q 3463 -741 2638 -741 
Q 2188 -741 1669 -728 
Q 1613 -478 1544 -216 
Q 2050 -266 2581 -266 
Q 3000 -266 3000 172 
L 3000 684 
L 1863 684 
L 1863 1122 
z
M 4500 3591 
L 4869 3634 
Q 4884 3206 4950 2816 
Q 5450 3209 5931 3634 
L 6263 3253 
Q 5694 2791 5056 2297 
Q 5397 966 6325 59 
Q 6113 -84 5875 -278 
Q 4494 1303 4500 3591 
z
M 300 3547 
L 1888 3547 
L 1888 3116 
Q 1800 1247 444 -172 
Q 338 -41 81 203 
Q 1331 1503 1419 3109 
L 300 3109 
L 300 3547 
z
" transform="scale(0.015625)"/>
      <path id="MicrosoftYaHei-8bfa" d="M 1650 2959 
L 3284 2959 
Q 3503 3334 3669 3759 
L 4119 3603 
Q 3984 3272 3819 2959 
L 6238 2959 
L 6238 2522 
L 3559 2522 
Q 3291 2100 2950 1722 
L 5700 1722 
L 5700 -797 
L 5231 -797 
L 5231 -416 
L 3081 -416 
L 3081 -797 
L 2613 -797 
L 2613 1372 
Q 2284 1059 1906 778 
Q 1763 984 1569 1178 
Q 2425 1731 3000 2522 
L 1650 2522 
L 1650 2959 
z
M 4744 5259 
L 5206 5259 
L 5206 4416 
L 6231 4416 
L 6231 3978 
L 5206 3978 
L 5206 3222 
L 4744 3222 
L 4744 3978 
L 3288 3978 
L 3288 3228 
L 2825 3228 
L 2825 3978 
L 1825 3978 
L 1825 4416 
L 2825 4416 
L 2825 5259 
L 3288 5259 
L 3288 4416 
L 4744 4416 
L 4744 5259 
z
M 5231 1297 
L 3081 1297 
L 3081 9 
L 5231 9 
L 5231 1297 
z
M 1956 647 
Q 1963 384 2000 103 
Q 1344 -322 869 -709 
L 581 -297 
Q 794 -109 794 266 
L 794 2697 
L 88 2697 
L 88 3147 
L 1263 3147 
L 1263 153 
Q 1575 366 1956 647 
z
M 769 5191 
Q 1244 4659 1675 4116 
L 1225 3778 
Q 800 4416 375 4897 
L 769 5191 
z
" transform="scale(0.015625)"/>
     </defs>
     <use xlink:href="#MicrosoftYaHei-8fd9"/>
     <use xlink:href="#MicrosoftYaHei-662f" transform="translate(100 0)"/>
     <use xlink:href="#MicrosoftYaHei-6559" transform="translate(200 0)"/>
     <use xlink:href="#MicrosoftYaHei-5b66" transform="translate(300 0)"/>
     <use xlink:href="#MicrosoftYaHei-5c55" transform="translate(400 0)"/>
     <use xlink:href="#MicrosoftYaHei-793a" transform="translate(500 0)"/>
     <use xlink:href="#MicrosoftYaHei-5b89" transform="translate(600 0)"/>
     <use xlink:href="#MicrosoftYaHei-6392" transform="translate(700 0)"/>
     <use xlink:href="#MicrosoftYaHei-ff0c" transform="translate(800 0)"/>
     <use xlink:href="#MicrosoftYaHei-4e0d" transform="translate(900 0)"/>
     <use xlink:href="#MicrosoftYaHei-662f" transform="translate(1000 0)"/>
     <use xlink:href="#MicrosoftYaHei-7cfb" transform="translate(1100 0)"/>
     <use xlink:href="#MicrosoftYaHei-7edf" transform="translate(1200 0)"/>
     <use xlink:href="#MicrosoftYaHei-65f6" transform="translate(1300 0)"/>
     <use xlink:href="#MicrosoftYaHei-957f" transform="translate(1400 0)"/>
     <use xlink:href="#MicrosoftYaHei-6216" transform="translate(1500 0)"/>
     <use xlink:href="#MicrosoftYaHei-8fd0" transform="translate(1600 0)"/>
     <use xlink:href="#MicrosoftYaHei-884c" transform="translate(1700 0)"/>
     <use xlink:href="#MicrosoftYaHei-6027" transform="translate(1800 0)"/>
     <use xlink:href="#MicrosoftYaHei-80fd" transform="translate(1900 0)"/>
     <use xlink:href="#MicrosoftYaHei-627f" transform="translate(2000 0)"/>
     <use xlink:href="#MicrosoftYaHei-8bfa" transform="translate(2100 0)"/>
     <use xlink:href="#MicrosoftYaHei-3002" transform="translate(2200 0)"/>
    </g>
   </g>
  </g>
 </g>
 <defs>
  <clipPath id="peceaa3cea4">
   <rect x="25.2" y="9.36" width="957.6" height="444.6"/>
  </clipPath>
 </defs>
</svg>
