<?xml version="1.0" encoding="utf-8" standalone="no"?>
<!DOCTYPE svg PUBLIC "-//W3C//DTD SVG 1.1//EN"
  "http://www.w3.org/Graphics/SVG/1.1/DTD/svg11.dtd">
<svg xmlns:xlink="http://www.w3.org/1999/xlink" width="1008pt" height="468pt" viewBox="0 0 1008 468" xmlns="http://www.w3.org/2000/svg" version="1.1">
 <metadata>
  <rdf:RDF xmlns:dc="http://purl.org/dc/elements/1.1/" xmlns:cc="http://creativecommons.org/ns#" xmlns:rdf="http://www.w3.org/1999/02/22-rdf-syntax-ns#">
   <cc:Work>
    <dc:type rdf:resource="http://purl.org/dc/dcmitype/StillImage"/>
    <dc:date>2026-09-26T12:24:13.282794</dc:date>
    <dc:format>image/svg+xml</dc:format>
    <dc:creator>
     <cc:Agent>
      <dc:title>Matplotlib v3.10.6, https://matplotlib.org/</dc:title>
     </cc:Agent>
    </dc:creator>
   </cc:Work>
  </rdf:RDF>
 </metadata>
 <defs>
  <style type="text/css">*{stroke-linejoin: round; stroke-linecap: butt}</style>
 </defs>
 <g id="figure_1">
  <g id="patch_1">
   <path d="M 0 468 
L 1008 468 
L 1008 0 
L 0 0 
z
" style="fill: #ffffff"/>
  </g>
  <g id="axes_1">
   <g id="patch_2">
    <path d="M 465.696 180.531 
L 580.608 180.531 
L 580.608 157.4118 
L 465.696 157.4118 
z
" clip-path="url(#p2574fe2723)" style="fill: #c97624; opacity: 0.82"/>
   </g>
   <g id="patch_3">
    <path d="M 465.696 249.444 
L 580.608 249.444 
L 580.608 226.3248 
L 465.696 226.3248 
z
" clip-path="url(#p2574fe2723)" style="fill: #276fbf; opacity: 0.82"/>
   </g>
   <g id="patch_4">
    <path d="M 580.608 318.357 
L 695.52 318.357 
L 695.52 295.2378 
L 580.608 295.2378 
z
" clip-path="url(#p2574fe2723)" style="fill: #26816b; opacity: 0.82"/>
   </g>
   <g id="line2d_1">
    <path d="M 235.872 342.81 
L 235.872 140.517 
" clip-path="url(#p2574fe2723)" style="fill: none; stroke-dasharray: 2.96,1.28; stroke-dashoffset: 0; stroke: #cbd6df; stroke-width: 0.8"/>
   </g>
   <g id="line2d_2">
    <path d="M 465.696 342.81 
L 465.696 140.517 
" clip-path="url(#p2574fe2723)" style="fill: none; stroke-dasharray: 2.96,1.28; stroke-dashoffset: 0; stroke: #cbd6df; stroke-width: 0.8"/>
   </g>
   <g id="line2d_3">
    <path d="M 580.608 342.81 
L 580.608 140.517 
" clip-path="url(#p2574fe2723)" style="fill: none; stroke-dasharray: 2.96,1.28; stroke-dashoffset: 0; stroke: #cbd6df; stroke-width: 0.8"/>
   </g>
   <g id="line2d_4">
    <path d="M 695.52 342.81 
L 695.52 140.517 
" clip-path="url(#p2574fe2723)" style="fill: none; stroke-dasharray: 2.96,1.28; stroke-dashoffset: 0; stroke: #cbd6df; stroke-width: 0.8"/>
   </g>
   <g id="line2d_5">
    <path d="M 925.344 342.81 
L 925.344 140.517 
" clip-path="url(#p2574fe2723)" style="fill: none; stroke-dasharray: 2.96,1.28; stroke-dashoffset: 0; stroke: #cbd6df; stroke-width: 0.8"/>
   </g>
   <g id="text_1">
    <!-- 同一份候选，沿时间轴查冲突 -->
    <g style="fill: #20344b" transform="translate(354.5 41.480784) scale(0.23 -0.23)">
     <defs>
      <path id="MicrosoftYaHei-540c" d="M 1013 -772 
L 531 -772 
L 531 4959 
L 5856 4959 
L 5856 -47 
Q 5856 -741 5125 -741 
Q 4669 -741 4088 -716 
Q 4056 -497 4000 -216 
Q 4619 -272 5025 -272 
Q 5375 -272 5375 78 
L 5375 4497 
L 1013 4497 
L 1013 -772 
z
M 1875 2566 
L 4506 2566 
L 4506 597 
L 2338 597 
L 2338 272 
L 1875 272 
L 1875 2566 
z
M 4044 2116 
L 2338 2116 
L 2338 1047 
L 4044 1047 
L 4044 2116 
z
M 1363 3734 
L 5025 3734 
L 5025 3284 
L 1363 3284 
L 1363 3734 
z
" transform="scale(0.015625)"/>
      <path id="MicrosoftYaHei-4e00" d="M 100 2703 
L 6313 2703 
L 6313 2153 
L 100 2153 
L 100 2703 
z
" transform="scale(0.015625)"/>
      <path id="MicrosoftYaHei-4efd" d="M 2269 2653 
L 5394 2653 
Q 5388 2566 5300 366 
Q 5275 -709 4319 -722 
Q 3806 -722 3425 -703 
Q 3394 -416 3331 -184 
Q 3763 -241 4200 -253 
Q 4806 -297 4813 422 
Q 4863 1259 4888 2216 
L 3481 2216 
Q 3463 1222 3181 572 
Q 2844 -172 2019 -822 
Q 1856 -622 1656 -416 
Q 2450 203 2713 772 
Q 2969 1275 2997 2216 
L 2269 2216 
L 2269 2653 
z
M 75 2353 
Q 969 3534 1525 5284 
L 2013 5116 
Q 1709 4284 1350 3559 
L 1350 -809 
L 875 -809 
L 875 2691 
Q 588 2216 275 1797 
Q 181 2066 75 2353 
z
M 4006 5116 
L 4419 5291 
Q 5038 3703 6325 2972 
Q 6088 2697 5969 2516 
Q 4575 3472 4006 5116 
z
M 1588 2741 
Q 2563 3597 3163 5034 
L 3606 4866 
Q 3025 3409 1963 2397 
Q 1738 2628 1588 2741 
z
" transform="scale(0.015625)"/>
      <path id="MicrosoftYaHei-5019" d="M 2456 1453 
L 4088 1453 
Q 4122 1781 4125 2284 
L 3322 2284 
Q 3131 1878 2919 1553 
Q 2725 1678 2500 1809 
Q 2981 2472 3219 3316 
L 3688 3216 
Q 3600 2956 3509 2722 
L 5988 2722 
L 5988 2284 
L 4606 2284 
Q 4600 1797 4572 1453 
L 6300 1453 
L 6300 1016 
L 4628 1016 
Q 5200 -122 6388 -316 
Q 6213 -578 6044 -822 
Q 4925 -500 4356 647 
Q 3972 -313 2344 -884 
Q 2206 -666 2025 -422 
Q 3678 16 4006 1016 
L 2456 1016 
L 2456 1453 
z
M 38 2334 
Q 875 3759 1169 5316 
L 1638 5228 
Q 1475 4528 1256 3903 
L 1256 -847 
L 806 -847 
L 806 2806 
Q 553 2281 250 1816 
Q 156 2059 38 2334 
z
M 2469 3803 
L 4978 3803 
L 5075 4609 
L 2831 4609 
L 2831 5034 
L 5606 5034 
L 5459 3803 
L 6250 3803 
L 6250 3366 
L 2469 3366 
L 2469 3803 
z
M 1763 4422 
L 2225 4422 
L 2225 509 
L 1763 509 
L 1763 4422 
z
" transform="scale(0.015625)"/>
      <path id="MicrosoftYaHei-9009" d="M 1756 2753 
L 3825 2753 
L 3825 3797 
L 2772 3797 
Q 2584 3322 2381 2947 
Q 2219 3053 1944 3172 
Q 2431 4028 2669 5072 
L 3156 4966 
Q 3047 4575 2928 4228 
L 3825 4228 
L 3825 5316 
L 4313 5316 
L 4313 4228 
L 5944 4228 
L 5944 3797 
L 4313 3797 
L 4313 2753 
L 6244 2753 
L 6244 2322 
L 4769 2322 
L 4769 984 
Q 4769 653 5044 653 
L 5344 653 
Q 5631 653 5675 953 
Q 5713 1197 5744 1691 
Q 5938 1603 6219 1509 
Q 6169 1078 6113 784 
Q 6013 228 5400 228 
L 4938 228 
Q 4288 228 4288 934 
L 4288 2322 
L 3447 2322 
Q 3444 2038 3431 1816 
Q 3394 647 2119 84 
Q 1994 266 1806 503 
Q 2906 959 2950 1816 
Q 2963 2003 2972 2322 
L 1756 2322 
L 1756 2753 
z
M 2694 -197 
L 4000 -209 
L 6300 -166 
Q 6231 -372 6125 -659 
L 3947 -684 
L 2638 -666 
Q 1513 -628 1081 91 
Q 825 -147 331 -747 
L 75 -228 
Q 628 306 875 538 
L 875 2641 
L 131 2641 
L 131 3103 
L 1356 3103 
L 1356 431 
Q 1741 -184 2694 -197 
z
M 856 5203 
Q 1175 4816 1731 4022 
L 1288 3709 
Q 781 4503 456 4934 
L 856 5203 
z
" transform="scale(0.015625)"/>
      <path id="MicrosoftYaHei-ff0c" d="M 1931 775 
L 1403 -891 
L 966 -891 
L 1350 775 
L 1931 775 
z
" transform="scale(0.015625)"/>
      <path id="MicrosoftYaHei-6cbf" d="M 2306 2134 
L 5644 2134 
L 5644 -822 
L 5169 -822 
L 5169 -403 
L 2781 -403 
L 2781 -828 
L 2306 -828 
L 2306 2134 
z
M 5169 1703 
L 2781 1703 
L 2781 28 
L 5169 28 
L 5169 1703 
z
M 5625 3128 
Q 5913 3128 6319 3134 
L 6231 2666 
L 5544 2666 
Q 4813 2666 4813 3409 
L 4813 4559 
L 3119 4559 
L 3119 4153 
Q 3119 3441 2900 3072 
Q 2681 2666 2125 2328 
Q 1956 2522 1781 2722 
Q 2294 3009 2481 3328 
Q 2638 3609 2638 4184 
L 2638 5022 
L 5294 5022 
L 5294 3453 
Q 5294 3128 5625 3128 
z
M 1075 1797 
Q 1375 1666 1581 1603 
Q 1338 672 900 -803 
L 356 -609 
Q 769 484 1075 1797 
z
M 694 5159 
Q 1263 4772 1894 4259 
Q 1694 4034 1538 3866 
Q 956 4372 394 4803 
L 694 5159 
z
M 400 3516 
Q 975 3097 1488 2666 
Q 1294 2459 1138 2272 
Q 463 2878 88 3159 
L 400 3516 
z
" transform="scale(0.015625)"/>
      <path id="MicrosoftYaHei-65f6" d="M 344 4728 
L 2500 4728 
L 2500 -366 
L 2006 -366 
L 2006 153 
L 838 153 
L 838 -441 
L 344 -441 
L 344 4728 
z
M 2706 3941 
L 4925 3941 
L 4925 5322 
L 5425 5322 
L 5425 3941 
L 6313 3941 
L 6313 3478 
L 5425 3478 
L 5425 116 
Q 5425 -722 4625 -722 
Q 4263 -722 3563 -703 
Q 3531 -478 3463 -178 
Q 4119 -228 4488 -228 
Q 4925 -228 4925 216 
L 4925 3478 
L 2706 3478 
L 2706 3941 
z
M 838 616 
L 2006 616 
L 2006 2234 
L 838 2234 
L 838 616 
z
M 2006 4266 
L 838 4266 
L 838 2684 
L 2006 2684 
L 2006 4266 
z
M 3406 2878 
Q 3906 1966 4163 1422 
Q 4000 1347 3663 1172 
Q 3419 1766 2963 2653 
L 3406 2878 
z
" transform="scale(0.015625)"/>
      <path id="MicrosoftYaHei-95f4" d="M 1863 3647 
L 4513 3647 
L 4513 553 
L 2313 553 
L 2313 166 
L 1863 166 
L 1863 3647 
z
M 2388 4453 
L 2388 4922 
L 6013 4922 
L 6013 -28 
Q 6013 -816 5119 -816 
Q 4756 -816 4169 -803 
Q 4144 -616 4069 -297 
Q 4588 -334 5056 -334 
Q 5525 -334 5525 122 
L 5525 4453 
L 2388 4453 
z
M 419 4084 
L 906 4084 
L 906 -816 
L 419 -816 
L 419 4084 
z
M 2313 997 
L 4063 997 
L 4063 1884 
L 2313 1884 
L 2313 997 
z
M 4063 3203 
L 2313 3203 
L 2313 2328 
L 4063 2328 
L 4063 3203 
z
M 744 5003 
L 1100 5322 
Q 1575 4872 1981 4447 
L 1575 4091 
Q 1194 4541 744 5003 
z
" transform="scale(0.015625)"/>
      <path id="MicrosoftYaHei-8f74" d="M 2775 4078 
L 4163 4078 
L 4163 5253 
L 4613 5253 
L 4613 4078 
L 6000 4078 
L 6000 -784 
L 5538 -784 
L 5538 -384 
L 3238 -384 
L 3238 -784 
L 2775 -784 
L 2775 4078 
z
M 706 2516 
L 1369 2516 
L 1369 3622 
L 1819 3622 
L 1819 2516 
L 2400 2516 
L 2400 2091 
L 1819 2091 
L 1819 1000 
Q 2144 1044 2488 1091 
Q 2456 847 2444 647 
Q 2141 613 1819 569 
L 1819 -841 
L 1369 -841 
L 1369 509 
Q 784 431 131 334 
L 81 803 
Q 691 863 1369 944 
L 1369 2091 
L 244 2091 
L 244 2516 
Q 538 3275 769 3941 
L 156 3941 
L 156 4366 
L 913 4366 
Q 1084 4888 1213 5347 
L 1688 5247 
Q 1547 4809 1391 4366 
L 2488 4366 
L 2488 3941 
L 1244 3941 
Q 991 3234 706 2516 
z
M 4613 53 
L 5538 53 
L 5538 1653 
L 4613 1653 
L 4613 53 
z
M 3238 53 
L 4163 53 
L 4163 1653 
L 3238 1653 
L 3238 53 
z
M 5538 3641 
L 4613 3641 
L 4613 2078 
L 5538 2078 
L 5538 3641 
z
M 3238 2078 
L 4163 2078 
L 4163 3641 
L 3238 3641 
L 3238 2078 
z
" transform="scale(0.015625)"/>
      <path id="MicrosoftYaHei-67e5" d="M 306 4659 
L 2975 4659 
L 2975 5328 
L 3419 5328 
L 3419 4659 
L 6125 4659 
L 6125 4241 
L 3809 4241 
Q 4797 3488 6306 3103 
Q 6144 2859 6019 2659 
Q 5681 2775 5369 2909 
L 5369 197 
L 4894 197 
L 4894 478 
L 1525 478 
L 1525 191 
L 1050 191 
L 1050 2878 
Q 731 2731 381 2597 
Q 250 2791 88 2997 
Q 1700 3506 2559 4241 
L 306 4241 
L 306 4659 
z
M 156 -141 
L 6244 -141 
L 6244 -591 
L 156 -591 
L 156 -141 
z
M 2975 3066 
L 2975 4138 
Q 2256 3444 1119 2909 
L 5366 2909 
Q 4213 3400 3419 4125 
L 3419 3066 
L 2975 3066 
z
M 1525 909 
L 4894 909 
L 4894 1484 
L 1525 1484 
L 1525 909 
z
M 4894 2478 
L 1525 2478 
L 1525 1909 
L 4894 1909 
L 4894 2478 
z
" transform="scale(0.015625)"/>
      <path id="MicrosoftYaHei-51b2" d="M 2138 4084 
L 3781 4084 
L 3781 5309 
L 4281 5309 
L 4281 4084 
L 5925 4084 
L 5925 984 
L 5438 984 
L 5438 1284 
L 4281 1284 
L 4281 -828 
L 3781 -828 
L 3781 1284 
L 2625 1284 
L 2625 984 
L 2138 984 
L 2138 4084 
z
M 5438 3634 
L 4281 3634 
L 4281 1734 
L 5438 1734 
L 5438 3634 
z
M 2625 1734 
L 3781 1734 
L 3781 3634 
L 2625 3634 
L 2625 1734 
z
M 1125 2434 
Q 1388 2259 1631 2153 
Q 1181 928 681 -603 
L 163 -328 
Q 663 803 1125 2434 
z
M 644 5034 
Q 1200 4291 1619 3653 
L 1144 3341 
Q 675 4134 219 4747 
L 644 5034 
z
" transform="scale(0.015625)"/>
      <path id="MicrosoftYaHei-7a81" d="M 119 -378 
Q 2309 91 2763 1453 
L 275 1453 
L 275 1903 
L 2856 1903 
Q 2888 2272 2894 3022 
L 3406 3022 
Q 3406 2316 3363 1903 
L 6150 1903 
L 6150 1453 
L 3528 1453 
Q 4397 94 6313 -253 
Q 6100 -541 5956 -772 
Q 4059 -309 3181 1147 
Q 2600 -347 444 -853 
Q 325 -659 119 -378 
z
M 369 4472 
L 3147 4472 
Q 2972 4809 2756 5141 
L 3238 5359 
Q 3475 5003 3669 4641 
L 3322 4472 
L 6038 4472 
L 6038 3422 
L 5531 3422 
L 5531 4022 
L 869 4022 
L 869 3397 
L 369 3397 
L 369 4472 
z
M 3944 3778 
Q 5163 3278 6238 2722 
L 5988 2259 
Q 4788 2934 3706 3416 
L 3944 3778 
z
M 2413 3784 
L 2713 3422 
Q 1613 2778 450 2303 
Q 331 2491 156 2709 
Q 1163 3066 2413 3784 
z
M 3725 2678 
L 4025 2978 
Q 4550 2597 4838 2347 
L 4488 2016 
Q 4188 2309 3725 2678 
z
" transform="scale(0.015625)"/>
     </defs>
     <use xlink:href="#MicrosoftYaHei-540c"/>
     <use xlink:href="#MicrosoftYaHei-4e00" transform="translate(100 0)"/>
     <use xlink:href="#MicrosoftYaHei-4efd" transform="translate(200 0)"/>
     <use xlink:href="#MicrosoftYaHei-5019" transform="translate(300 0)"/>
     <use xlink:href="#MicrosoftYaHei-9009" transform="translate(400 0)"/>
     <use xlink:href="#MicrosoftYaHei-ff0c" transform="translate(500 0)"/>
     <use xlink:href="#MicrosoftYaHei-6cbf" transform="translate(600 0)"/>
     <use xlink:href="#MicrosoftYaHei-65f6" transform="translate(700 0)"/>
     <use xlink:href="#MicrosoftYaHei-95f4" transform="translate(800 0)"/>
     <use xlink:href="#MicrosoftYaHei-8f74" transform="translate(900 0)"/>
     <use xlink:href="#MicrosoftYaHei-67e5" transform="translate(1000 0)"/>
     <use xlink:href="#MicrosoftYaHei-51b2" transform="translate(1100 0)"/>
     <use xlink:href="#MicrosoftYaHei-7a81" transform="translate(1200 0)"/>
    </g>
   </g>
   <g id="text_2">
    <!-- 作者给定的教学时间安排；不是实际运行日志。 -->
    <g style="fill: #617386" transform="translate(378 72.685688) scale(0.12 -0.12)">
     <defs>
      <path id="MicrosoftYaHei-4f5c" d="M 1806 2784 
Q 2638 3922 3031 5322 
L 3544 5228 
Q 3397 4747 3213 4297 
L 6294 4297 
L 6294 3859 
L 4019 3859 
L 4019 2766 
L 6044 2766 
L 6044 2328 
L 4019 2328 
L 4019 1191 
L 6125 1191 
L 6125 753 
L 4019 753 
L 4019 -822 
L 3531 -822 
L 3531 3859 
L 3022 3859 
Q 2669 3097 2200 2428 
Q 2025 2597 1806 2784 
z
M 69 2209 
Q 950 3516 1463 5303 
L 1975 5153 
Q 1734 4416 1463 3769 
L 1463 -822 
L 975 -822 
L 975 2750 
Q 659 2159 306 1672 
Q 213 1909 69 2209 
z
" transform="scale(0.015625)"/>
      <path id="MicrosoftYaHei-8005" d="M 194 3303 
L 2569 3303 
L 2569 4091 
L 813 4091 
L 813 4516 
L 2569 4516 
L 2569 5309 
L 3069 5309 
L 3069 4516 
L 4600 4516 
L 4600 4091 
L 3069 4091 
L 3069 3303 
L 3681 3303 
Q 4706 4028 5363 4891 
L 5806 4591 
Q 5241 3913 4466 3303 
L 6256 3303 
L 6256 2878 
L 3888 2878 
Q 3372 2522 2778 2191 
L 5256 2191 
L 5256 -822 
L 4769 -822 
L 4769 -453 
L 1875 -453 
L 1875 -822 
L 1388 -822 
L 1388 1497 
Q 875 1269 319 1053 
Q 213 1247 38 1509 
Q 1766 2109 3031 2878 
L 194 2878 
L 194 3303 
z
M 1875 -41 
L 4769 -41 
L 4769 678 
L 1875 678 
L 1875 -41 
z
M 1875 1722 
L 1875 1066 
L 4769 1066 
L 4769 1778 
L 1988 1778 
Q 1931 1750 1875 1722 
z
" transform="scale(0.015625)"/>
      <path id="MicrosoftYaHei-7ed9" d="M 2538 1791 
L 5700 1791 
L 5700 -853 
L 5225 -853 
L 5225 -434 
L 3013 -434 
L 3013 -859 
L 2538 -859 
L 2538 1791 
z
M 856 1572 
Q 881 1572 2150 1672 
Q 2119 1478 2094 1266 
Q 1050 1172 313 1091 
L 213 1491 
Q 588 1847 1156 2803 
Q 763 2778 213 2734 
L 81 3128 
Q 619 3741 1256 5278 
L 1750 5103 
Q 1138 3922 625 3166 
Q 1000 3172 1369 3178 
Q 1594 3566 1838 4034 
L 2306 3834 
Q 1431 2384 856 1572 
z
M 5225 1359 
L 3013 1359 
L 3013 -3 
L 5225 -3 
L 5225 1359 
z
M 4475 5278 
L 4344 5066 
Q 5075 3872 6350 3091 
Q 6169 2903 5988 2684 
Q 4763 3553 4081 4641 
Q 3400 3491 2313 2603 
Q 2194 2741 1950 2953 
Q 3213 3916 3919 5278 
L 4475 5278 
z
M 2750 2959 
L 5488 2959 
L 5488 2528 
L 2750 2528 
L 2750 2959 
z
M 106 122 
Q 1269 341 2194 553 
Q 2188 322 2200 109 
Q 925 -159 269 -341 
L 106 122 
z
" transform="scale(0.015625)"/>
      <path id="MicrosoftYaHei-5b9a" d="M 81 -384 
Q 1119 509 1281 2241 
L 1806 2159 
Q 1731 1581 1578 1081 
Q 2063 50 3081 -103 
L 3081 2647 
L 225 2647 
L 225 3116 
L 6163 3116 
L 6163 2647 
L 3600 2647 
L 3600 1634 
L 5775 1634 
L 5775 1172 
L 3600 1172 
L 3600 -138 
Q 4844 -169 6306 -116 
Q 6200 -359 6125 -634 
Q 4594 -653 3450 -616 
Q 2041 -616 1378 528 
Q 1022 -300 413 -872 
Q 269 -628 81 -384 
z
M 450 4566 
L 3116 4566 
Q 2931 4834 2725 5091 
L 3200 5347 
Q 3444 5066 3731 4716 
L 3450 4566 
L 5981 4566 
L 5981 3378 
L 5488 3378 
L 5488 4097 
L 944 4097 
L 944 3384 
L 450 3384 
L 450 4566 
z
" transform="scale(0.015625)"/>
      <path id="MicrosoftYaHei-7684" d="M 356 4284 
L 988 4284 
Q 1219 4853 1369 5322 
L 1894 5172 
Q 1697 4694 1513 4284 
L 2763 4284 
L 2763 -691 
L 2263 -691 
L 2263 -203 
L 856 -203 
L 856 -734 
L 356 -734 
L 356 4284 
z
M 2856 3003 
Q 3444 3934 3850 5322 
L 4375 5191 
Q 4216 4719 4050 4303 
L 6063 4303 
Q 5988 1091 5938 259 
Q 5894 -722 4906 -722 
Q 4338 -722 3750 -684 
Q 3713 -372 3650 -128 
L 3669 -128 
Q 4294 -216 4813 -216 
Q 5381 -216 5425 384 
Q 5494 1316 5525 3834 
L 3850 3834 
Q 3578 3231 3288 2772 
Q 3119 2891 2856 3003 
z
M 856 266 
L 2263 266 
L 2263 1847 
L 856 1847 
L 856 266 
z
M 2263 3816 
L 856 3816 
L 856 2297 
L 2263 2297 
L 2263 3816 
z
M 3406 2578 
L 3788 2859 
Q 4481 2041 4894 1441 
L 4431 1116 
Q 3988 1841 3406 2578 
z
" transform="scale(0.015625)"/>
      <path id="MicrosoftYaHei-6559" d="M 2975 2153 
Q 3681 3453 4106 5216 
L 4563 5103 
Q 4438 4591 4275 4084 
L 6225 4084 
L 6225 3634 
L 5613 3634 
Q 5569 2022 4825 859 
Q 5394 78 6319 -359 
Q 6144 -616 6025 -822 
Q 5113 -297 4538 459 
Q 3906 -328 2900 -884 
Q 2788 -722 2594 -472 
Q 3638 59 4263 872 
Q 3825 1603 3669 2522 
Q 3525 2216 3375 1916 
Q 3175 2047 2975 2153 
z
M 3163 4678 
L 3538 4434 
Q 3156 3866 2688 3309 
L 3150 3309 
L 3150 2897 
L 2331 2897 
Q 2081 2616 1819 2353 
L 2844 2353 
L 2844 1978 
L 2038 1184 
L 2038 1072 
Q 2544 1159 3156 1272 
Q 3138 1034 3131 841 
Q 2619 753 2038 647 
L 2038 -34 
Q 2081 -809 1313 -778 
Q 1044 -778 619 -766 
Q 594 -566 556 -297 
Q 850 -328 1225 -334 
Q 1619 -372 1588 16 
L 1588 566 
Q 981 453 313 322 
L 238 778 
Q 756 853 1588 991 
L 1588 1303 
L 2244 1953 
L 1406 1953 
Q 888 1478 369 1078 
Q 244 1253 75 1434 
Q 438 1691 750 1953 
L 231 1953 
L 231 2353 
L 1200 2353 
Q 1494 2616 1769 2897 
L 150 2897 
L 150 3309 
L 1381 3309 
L 1381 3947 
L 400 3947 
L 400 4359 
L 1381 4359 
L 1381 5209 
L 1831 5209 
L 1831 4359 
L 2600 4359 
L 2600 3947 
L 1831 3947 
L 1831 3309 
L 2138 3309 
Q 2700 3941 3163 4678 
z
M 3981 3272 
Q 4106 2134 4550 1303 
Q 5119 2291 5156 3634 
L 4119 3634 
Q 4056 3453 3981 3272 
z
" transform="scale(0.015625)"/>
      <path id="MicrosoftYaHei-5b66" d="M 144 1359 
L 3069 1359 
L 3069 1709 
L 4263 2384 
L 1325 2384 
L 1325 2841 
L 4994 2841 
L 4994 2316 
L 3575 1497 
L 3575 1359 
L 6263 1359 
L 6263 903 
L 3575 903 
L 3575 -41 
Q 3575 -778 2831 -778 
Q 2419 -778 1863 -766 
Q 1844 -553 1788 -234 
Q 2288 -284 2744 -291 
Q 3069 -297 3069 53 
L 3069 903 
L 144 903 
L 144 1359 
z
M 356 3909 
L 6056 3909 
L 6056 2647 
L 5563 2647 
L 5563 3453 
L 850 3453 
L 850 2647 
L 356 2647 
L 356 3909 
z
M 4313 4272 
Q 4731 4722 5100 5241 
L 5550 4909 
Q 5144 4447 4681 3941 
L 4313 4272 
z
M 2538 5116 
L 2944 5353 
Q 3325 4853 3650 4334 
L 3200 4078 
Q 2925 4566 2538 5116 
z
M 850 4928 
L 1219 5197 
Q 1600 4778 1969 4291 
L 1544 3991 
Q 1194 4522 850 4928 
z
" transform="scale(0.015625)"/>
      <path id="MicrosoftYaHei-5b89" d="M 325 -322 
Q 1894 -81 2888 478 
Q 2072 859 1163 1266 
Q 1459 1709 1747 2191 
L 106 2191 
L 106 2653 
L 2019 2653 
Q 2334 3206 2644 3803 
L 3138 3597 
Q 2863 3113 2597 2653 
L 6306 2653 
L 6306 2191 
L 4966 2191 
Q 4653 1244 3888 572 
Q 4872 128 5850 -328 
L 5544 -828 
Q 4591 -328 3434 219 
Q 2347 -513 588 -834 
Q 475 -597 325 -322 
z
M 413 4397 
L 3228 4397 
Q 2991 4741 2681 5103 
L 3100 5384 
Q 3481 4972 3744 4591 
L 3456 4397 
L 6013 4397 
L 6013 3209 
L 5506 3209 
L 5506 3934 
L 913 3934 
L 913 3209 
L 413 3209 
L 413 4397 
z
M 1881 1453 
Q 2631 1131 3375 800 
Q 4122 1369 4422 2191 
L 2325 2191 
Q 2100 1813 1881 1453 
z
" transform="scale(0.015625)"/>
      <path id="MicrosoftYaHei-6392" d="M 4375 5309 
L 4863 5309 
L 4863 4159 
L 6188 4159 
L 6188 3684 
L 4863 3684 
L 4863 2609 
L 6038 2609 
L 6038 2134 
L 4863 2134 
L 4863 1047 
L 6294 1047 
L 6294 572 
L 4863 572 
L 4863 -841 
L 4375 -841 
L 4375 5309 
z
M 1844 1047 
L 3138 1047 
L 3138 2134 
L 2150 2134 
L 2150 2609 
L 3138 2609 
L 3138 3684 
L 2163 3684 
L 2163 4159 
L 3138 4159 
L 3138 5309 
L 3625 5309 
L 3625 -841 
L 3138 -841 
L 3138 572 
L 1844 572 
L 1844 1047 
z
M 131 4166 
L 875 4166 
L 875 5316 
L 1350 5316 
L 1350 4166 
L 1969 4166 
L 1969 3728 
L 1350 3728 
L 1350 2563 
Q 1650 2716 1938 2872 
Q 1956 2603 1988 2372 
Q 1681 2216 1350 2044 
L 1350 -134 
Q 1350 -772 669 -778 
Q 481 -784 156 -778 
Q 131 -528 75 -259 
Q 419 -284 613 -284 
Q 875 -284 875 3 
L 875 1797 
Q 525 1616 150 1416 
L 88 1966 
Q 491 2144 875 2328 
L 875 3728 
L 131 3728 
L 131 4166 
z
" transform="scale(0.015625)"/>
      <path id="MicrosoftYaHei-ff1b" d="M 1606 3531 
Q 1772 3531 1890 3415 
Q 2009 3300 2009 3138 
Q 2009 2975 1893 2858 
Q 1778 2741 1606 2741 
Q 1434 2741 1318 2858 
Q 1203 2975 1203 3138 
Q 1203 3300 1322 3415 
Q 1441 3531 1606 3531 
z
M 1931 775 
L 1403 -891 
L 966 -891 
L 1350 775 
L 1931 775 
z
" transform="scale(0.015625)"/>
      <path id="MicrosoftYaHei-4e0d" d="M 225 4772 
L 6181 4772 
L 6181 4284 
L 3881 4284 
Q 3581 3766 3081 3053 
L 3444 3053 
L 3444 -866 
L 2906 -866 
L 2906 2859 
Q 1838 1541 388 609 
Q 231 834 38 1059 
Q 2006 2291 3213 4284 
L 225 4284 
L 225 4772 
z
M 4069 2859 
Q 5238 2147 6325 1409 
L 5969 916 
Q 4681 1872 3763 2434 
L 4069 2859 
z
" transform="scale(0.015625)"/>
      <path id="MicrosoftYaHei-662f" d="M 1088 5078 
L 5338 5078 
L 5338 2472 
L 4863 2472 
L 4863 2722 
L 1563 2722 
L 1563 2472 
L 1088 2472 
L 1088 5078 
z
M 1400 1553 
L 1875 1409 
Q 1775 1081 1647 788 
Q 2122 19 3063 -134 
L 3063 1747 
L 213 1747 
L 213 2184 
L 6225 2184 
L 6225 1747 
L 3563 1747 
L 3563 1122 
L 5788 1122 
L 5788 697 
L 3563 697 
L 3563 -172 
Q 4763 -197 6344 -147 
Q 6244 -416 6169 -641 
Q 4331 -647 3344 -622 
Q 2022 -606 1434 359 
Q 1006 -413 350 -891 
Q 225 -703 44 -484 
Q 1050 191 1400 1553 
z
M 1563 3147 
L 4863 3147 
L 4863 3697 
L 1563 3697 
L 1563 3147 
z
M 4863 4653 
L 1563 4653 
L 1563 4109 
L 4863 4109 
L 4863 4653 
z
" transform="scale(0.015625)"/>
      <path id="MicrosoftYaHei-5b9e" d="M 113 -397 
Q 2419 34 3081 972 
L 213 972 
L 213 1434 
L 3313 1434 
Q 3525 2084 3506 3703 
L 4031 3703 
Q 4031 2097 3856 1434 
L 6225 1434 
L 6225 972 
L 3681 972 
Q 3631 872 3563 759 
Q 4900 197 6181 -403 
L 5906 -878 
Q 4569 -197 3263 391 
Q 2413 -441 413 -891 
Q 269 -616 113 -397 
z
M 331 4422 
L 3194 4422 
Q 3038 4703 2775 5078 
L 3231 5334 
Q 3438 5059 3731 4609 
L 3388 4422 
L 6063 4422 
L 6063 3303 
L 5563 3303 
L 5563 3959 
L 831 3959 
L 831 3303 
L 331 3303 
L 331 4422 
z
M 1100 2734 
Q 1819 2409 2450 2053 
L 2181 1622 
Q 1556 2003 863 2334 
L 1100 2734 
z
M 1663 3691 
Q 2388 3341 2981 2984 
L 2700 2559 
Q 2119 2934 1419 3322 
L 1663 3691 
z
" transform="scale(0.015625)"/>
      <path id="MicrosoftYaHei-9645" d="M 2256 1678 
Q 2419 503 1656 334 
Q 1413 284 1025 328 
Q 975 584 888 834 
Q 1219 753 1469 784 
Q 1906 834 1763 1678 
Q 1675 2166 1169 2828 
Q 1425 3591 1681 4491 
L 850 4491 
L 850 -841 
L 375 -841 
L 375 4953 
L 2200 4953 
L 2200 4503 
Q 1913 3572 1694 2884 
Q 2194 2203 2256 1678 
z
M 2150 3228 
L 6225 3228 
L 6225 2766 
L 4425 2766 
L 4425 16 
Q 4425 -747 3688 -747 
Q 3394 -747 2938 -741 
Q 2881 -403 2838 -209 
Q 3313 -259 3575 -259 
Q 3938 -259 3938 122 
L 3938 2766 
L 2150 2766 
L 2150 3228 
z
M 2488 4803 
L 5888 4803 
L 5888 4341 
L 2488 4341 
L 2488 4803 
z
M 2969 2097 
L 3431 1928 
Q 2988 747 2481 -222 
Q 2206 -72 2038 -3 
Q 2594 1003 2969 2097 
z
M 4900 1872 
L 5331 2084 
Q 5844 1041 6300 53 
L 5844 -166 
Q 5494 641 4900 1872 
z
" transform="scale(0.015625)"/>
      <path id="MicrosoftYaHei-8fd0" d="M 4319 2197 
L 4713 2447 
Q 5419 1522 5963 666 
L 5513 359 
Q 5372 597 5225 834 
Q 3450 722 2681 622 
Q 2469 591 2238 516 
L 2006 966 
Q 2250 1134 2413 1366 
Q 2838 2009 3250 2859 
L 1919 2859 
L 1919 3334 
L 6200 3334 
L 6200 2859 
L 3844 2859 
Q 3303 1866 2800 1116 
Q 3750 1172 4959 1253 
Q 4650 1731 4319 2197 
z
M 2756 -141 
L 4588 -178 
L 6313 -109 
Q 6206 -366 6113 -609 
L 4250 -622 
L 2650 -603 
Q 1656 -578 1156 122 
Q 769 -209 369 -697 
L 100 -166 
Q 116 -147 931 547 
L 931 2678 
L 131 2678 
L 131 3141 
L 1431 3141 
L 1431 459 
Q 1903 -125 2756 -141 
z
M 2338 4947 
L 5838 4947 
L 5838 4472 
L 2338 4472 
L 2338 4947 
z
M 794 5278 
Q 1275 4697 1744 4078 
L 1300 3778 
Q 881 4403 413 5003 
L 794 5278 
z
" transform="scale(0.015625)"/>
      <path id="MicrosoftYaHei-884c" d="M 2363 2978 
L 6319 2978 
L 6319 2509 
L 5106 2509 
L 5106 66 
Q 5106 -709 4325 -709 
Q 3800 -709 3256 -703 
Q 3219 -453 3163 -141 
Q 3650 -191 4144 -191 
Q 4575 -191 4575 234 
L 4575 2509 
L 2363 2509 
L 2363 2978 
z
M 100 1578 
Q 1069 2372 1863 3809 
L 2300 3541 
Q 1978 2984 1619 2500 
L 1619 -809 
L 1100 -809 
L 1100 1856 
Q 725 1431 319 1072 
Q 219 1334 100 1578 
z
M 2725 4866 
L 5969 4866 
L 5969 4397 
L 2725 4397 
L 2725 4866 
z
M 131 3559 
Q 1125 4328 1731 5347 
L 2181 5072 
Q 1456 3959 381 3078 
Q 269 3316 131 3559 
z
" transform="scale(0.015625)"/>
      <path id="MicrosoftYaHei-65e5" d="M 975 4909 
L 5431 4909 
L 5431 -766 
L 4900 -766 
L 4900 -322 
L 1506 -322 
L 1506 -766 
L 975 -766 
L 975 4909 
z
M 1506 2103 
L 1506 134 
L 4900 134 
L 4900 2103 
L 1506 2103 
z
M 1506 4441 
L 1506 2572 
L 4900 2572 
L 4900 4441 
L 1506 4441 
z
" transform="scale(0.015625)"/>
      <path id="MicrosoftYaHei-5fd7" d="M 663 2703 
L 2944 2703 
L 2944 3903 
L 200 3903 
L 200 4341 
L 2944 4341 
L 2944 5341 
L 3456 5341 
L 3456 4341 
L 6213 4341 
L 6213 3903 
L 3456 3903 
L 3456 2703 
L 5738 2703 
L 5738 2266 
L 663 2266 
L 663 2703 
z
M 1625 1572 
L 2113 1572 
L 2113 153 
Q 2113 -222 2488 -222 
L 3806 -222 
Q 4256 -222 4338 109 
Q 4413 403 4469 866 
Q 4700 772 4963 684 
Q 4881 222 4800 -78 
Q 4656 -678 3950 -678 
L 2394 -678 
Q 1625 -678 1625 128 
L 1625 1572 
z
M 725 1684 
L 1194 1547 
Q 938 603 675 -91 
Q 469 -9 194 59 
Q 506 816 725 1684 
z
M 4981 1459 
L 5375 1709 
Q 5838 1091 6288 366 
L 5850 72 
Q 5394 859 4981 1459 
z
M 2600 1859 
L 2988 2116 
Q 3450 1547 3881 934 
L 3463 647 
Q 3006 1341 2600 1859 
z
" transform="scale(0.015625)"/>
      <path id="MicrosoftYaHei-3002" d="M 1219 863 
Q 1525 863 1750 625 
Q 1975 388 1975 72 
Q 1975 -284 1747 -507 
Q 1519 -731 1197 -731 
Q 875 -731 642 -503 
Q 409 -275 409 66 
Q 409 413 656 638 
Q 903 863 1219 863 
z
M 1209 -275 
Q 1328 -275 1431 -184 
Q 1534 -94 1534 50 
Q 1534 209 1434 304 
Q 1334 400 1191 400 
Q 1056 400 959 304 
Q 863 209 863 53 
Q 863 -100 977 -187 
Q 1091 -275 1209 -275 
z
" transform="scale(0.015625)"/>
     </defs>
     <use xlink:href="#MicrosoftYaHei-4f5c"/>
     <use xlink:href="#MicrosoftYaHei-8005" transform="translate(100 0)"/>
     <use xlink:href="#MicrosoftYaHei-7ed9" transform="translate(200 0)"/>
     <use xlink:href="#MicrosoftYaHei-5b9a" transform="translate(300 0)"/>
     <use xlink:href="#MicrosoftYaHei-7684" transform="translate(400 0)"/>
     <use xlink:href="#MicrosoftYaHei-6559" transform="translate(500 0)"/>
     <use xlink:href="#MicrosoftYaHei-5b66" transform="translate(600 0)"/>
     <use xlink:href="#MicrosoftYaHei-65f6" transform="translate(700 0)"/>
     <use xlink:href="#MicrosoftYaHei-95f4" transform="translate(800 0)"/>
     <use xlink:href="#MicrosoftYaHei-5b89" transform="translate(900 0)"/>
     <use xlink:href="#MicrosoftYaHei-6392" transform="translate(1000 0)"/>
     <use xlink:href="#MicrosoftYaHei-ff1b" transform="translate(1100 0)"/>
     <use xlink:href="#MicrosoftYaHei-4e0d" transform="translate(1200 0)"/>
     <use xlink:href="#MicrosoftYaHei-662f" transform="translate(1300 0)"/>
     <use xlink:href="#MicrosoftYaHei-5b9e" transform="translate(1400 0)"/>
     <use xlink:href="#MicrosoftYaHei-9645" transform="translate(1500 0)"/>
     <use xlink:href="#MicrosoftYaHei-8fd0" transform="translate(1600 0)"/>
     <use xlink:href="#MicrosoftYaHei-884c" transform="translate(1700 0)"/>
     <use xlink:href="#MicrosoftYaHei-65e5" transform="translate(1800 0)"/>
     <use xlink:href="#MicrosoftYaHei-5fd7" transform="translate(1900 0)"/>
     <use xlink:href="#MicrosoftYaHei-3002" transform="translate(2000 0)"/>
    </g>
   </g>
   <g id="text_3">
    <!-- 09:00 -->
    <g style="fill: #617386" transform="translate(220.353562 126.037688) scale(0.12 -0.12)">
     <defs>
      <path id="MicrosoftYaHei-30" d="M 284 2325 
Q 284 3606 709 4264 
Q 1134 4922 1941 4922 
Q 3478 4922 3478 2441 
Q 3478 1216 3045 567 
Q 2613 -81 1831 -81 
Q 1094 -81 689 534 
Q 284 1150 284 2325 
z
M 909 2353 
Q 909 425 1888 425 
Q 2850 425 2850 2384 
Q 2850 4413 1906 4413 
Q 909 4413 909 2353 
z
" transform="scale(0.015625)"/>
      <path id="MicrosoftYaHei-39" d="M 578 656 
Q 978 425 1441 425 
Q 2091 425 2448 937 
Q 2806 1450 2806 2394 
Q 2800 2388 2794 2394 
Q 2475 1788 1722 1788 
Q 1113 1788 713 2206 
Q 313 2625 313 3294 
Q 313 4006 750 4464 
Q 1188 4922 1884 4922 
Q 2606 4922 3012 4355 
Q 3419 3788 3419 2703 
Q 3419 1363 2894 641 
Q 2369 -81 1441 -81 
Q 931 -81 578 84 
L 578 656 
z
M 931 3372 
Q 931 2884 1181 2598 
Q 1431 2313 1872 2313 
Q 2253 2313 2512 2573 
Q 2772 2834 2772 3206 
Q 2772 3728 2514 4070 
Q 2256 4413 1834 4413 
Q 1444 4413 1187 4116 
Q 931 3819 931 3372 
z
" transform="scale(0.015625)"/>
      <path id="MicrosoftYaHei-3a" d="M 372 3134 
Q 372 3303 490 3415 
Q 609 3528 775 3528 
Q 944 3528 1062 3414 
Q 1181 3300 1181 3134 
Q 1181 2969 1065 2853 
Q 950 2738 772 2738 
Q 603 2738 487 2853 
Q 372 2969 372 3134 
z
M 372 322 
Q 372 491 487 606 
Q 603 722 775 722 
Q 950 722 1065 605 
Q 1181 488 1181 322 
Q 1181 159 1065 42 
Q 950 -75 772 -75 
Q 600 -75 486 42 
Q 372 159 372 322 
z
" transform="scale(0.015625)"/>
     </defs>
     <use xlink:href="#MicrosoftYaHei-30"/>
     <use xlink:href="#MicrosoftYaHei-39" transform="translate(58.642578 0)"/>
     <use xlink:href="#MicrosoftYaHei-3a" transform="translate(117.285156 0)"/>
     <use xlink:href="#MicrosoftYaHei-30" transform="translate(141.357422 0)"/>
     <use xlink:href="#MicrosoftYaHei-30" transform="translate(200 0)"/>
    </g>
   </g>
   <g id="text_4">
    <!-- 10:00 -->
    <g style="fill: #617386" transform="translate(450.177562 126.037688) scale(0.12 -0.12)">
     <defs>
      <path id="MicrosoftYaHei-31" d="M 1781 0 
L 1781 4141 
Q 1638 3997 1295 3819 
Q 953 3641 663 3569 
L 663 4169 
Q 1047 4275 1484 4508 
Q 1922 4741 2156 4947 
L 2388 4947 
L 2388 0 
L 1781 0 
z
" transform="scale(0.015625)"/>
     </defs>
     <use xlink:href="#MicrosoftYaHei-31"/>
     <use xlink:href="#MicrosoftYaHei-30" transform="translate(58.642578 0)"/>
     <use xlink:href="#MicrosoftYaHei-3a" transform="translate(117.285156 0)"/>
     <use xlink:href="#MicrosoftYaHei-30" transform="translate(141.357422 0)"/>
     <use xlink:href="#MicrosoftYaHei-30" transform="translate(200 0)"/>
    </g>
   </g>
   <g id="text_5">
    <!-- 10:30 -->
    <g style="fill: #617386" transform="translate(565.089562 126.037688) scale(0.12 -0.12)">
     <defs>
      <path id="MicrosoftYaHei-33" d="M 447 809 
Q 944 425 1569 425 
Q 2069 425 2361 670 
Q 2653 916 2653 1328 
Q 2653 2247 1338 2247 
L 934 2247 
L 934 2753 
L 1319 2753 
Q 2484 2753 2484 3616 
Q 2484 4413 1594 4413 
Q 1084 4413 634 4069 
L 634 4647 
Q 1109 4922 1744 4922 
Q 2363 4922 2738 4598 
Q 3113 4275 3113 3759 
Q 3113 2809 2144 2538 
L 2144 2525 
Q 2669 2469 2973 2155 
Q 3278 1841 3278 1372 
Q 3278 719 2808 319 
Q 2338 -81 1556 -81 
Q 869 -81 447 175 
L 447 809 
z
" transform="scale(0.015625)"/>
     </defs>
     <use xlink:href="#MicrosoftYaHei-31"/>
     <use xlink:href="#MicrosoftYaHei-30" transform="translate(58.642578 0)"/>
     <use xlink:href="#MicrosoftYaHei-3a" transform="translate(117.285156 0)"/>
     <use xlink:href="#MicrosoftYaHei-33" transform="translate(141.357422 0)"/>
     <use xlink:href="#MicrosoftYaHei-30" transform="translate(200 0)"/>
    </g>
   </g>
   <g id="text_6">
    <!-- 11:00 -->
    <g style="fill: #617386" transform="translate(680.001562 126.037688) scale(0.12 -0.12)">
     <use xlink:href="#MicrosoftYaHei-31"/>
     <use xlink:href="#MicrosoftYaHei-31" transform="translate(58.642578 0)"/>
     <use xlink:href="#MicrosoftYaHei-3a" transform="translate(117.285156 0)"/>
     <use xlink:href="#MicrosoftYaHei-30" transform="translate(141.357422 0)"/>
     <use xlink:href="#MicrosoftYaHei-30" transform="translate(200 0)"/>
    </g>
   </g>
   <g id="text_7">
    <!-- 12:00 -->
    <g style="fill: #617386" transform="translate(909.825562 126.037688) scale(0.12 -0.12)">
     <defs>
      <path id="MicrosoftYaHei-32" d="M 2666 3572 
Q 2666 3963 2419 4186 
Q 2172 4409 1747 4409 
Q 1447 4409 1140 4256 
Q 834 4103 569 3819 
L 569 4413 
Q 806 4659 1107 4790 
Q 1409 4922 1816 4922 
Q 2472 4922 2872 4570 
Q 3272 4219 3272 3619 
Q 3272 3084 3026 2693 
Q 2781 2303 2188 1894 
Q 1581 1475 1376 1294 
Q 1172 1113 1090 947 
Q 1009 781 1009 544 
L 3416 544 
L 3416 0 
L 372 0 
L 372 241 
Q 372 659 486 951 
Q 600 1244 862 1520 
Q 1125 1797 1681 2184 
Q 2250 2584 2458 2886 
Q 2666 3188 2666 3572 
z
" transform="scale(0.015625)"/>
     </defs>
     <use xlink:href="#MicrosoftYaHei-31"/>
     <use xlink:href="#MicrosoftYaHei-32" transform="translate(58.642578 0)"/>
     <use xlink:href="#MicrosoftYaHei-3a" transform="translate(117.285156 0)"/>
     <use xlink:href="#MicrosoftYaHei-30" transform="translate(141.357422 0)"/>
     <use xlink:href="#MicrosoftYaHei-30" transform="translate(200 0)"/>
    </g>
   </g>
   <g id="text_8">
    <!-- 已有预约 -->
    <g style="fill: #20344b" transform="translate(155.144 172.996078) scale(0.13 -0.13)">
     <defs>
      <path id="MicrosoftYaHei-5df2" d="M 738 3684 
L 1275 3684 
L 1275 2828 
L 5013 2828 
L 5013 4434 
L 506 4434 
L 506 4897 
L 5538 4897 
L 5538 1984 
L 5013 1984 
L 5013 2366 
L 1275 2366 
L 1275 547 
Q 1275 -28 1819 -28 
L 4900 -28 
Q 5438 -28 5550 359 
Q 5663 741 5719 1378 
Q 5963 1272 6256 1191 
Q 6169 541 6069 153 
Q 5881 -553 5019 -553 
L 1694 -553 
Q 738 -553 738 434 
L 738 3684 
z
" transform="scale(0.015625)"/>
      <path id="MicrosoftYaHei-6709" d="M 1856 -816 
L 1363 -816 
L 1363 2419 
Q 909 1891 363 1403 
Q 231 1622 63 1859 
Q 1269 2869 1947 4097 
L 238 4097 
L 238 4559 
L 2181 4559 
Q 2359 4950 2488 5359 
L 3006 5241 
Q 2881 4894 2731 4559 
L 6263 4559 
L 6263 4097 
L 2506 4097 
Q 2313 3728 2081 3378 
L 5506 3378 
L 5506 41 
Q 5506 -734 4750 -734 
Q 4419 -741 3744 -741 
Q 3713 -528 3650 -228 
Q 4225 -272 4575 -272 
Q 5006 -272 5006 153 
L 5006 597 
L 1856 597 
L 1856 -816 
z
M 1856 1022 
L 5006 1022 
L 5006 1772 
L 1856 1772 
L 1856 1022 
z
M 5006 2941 
L 1856 2941 
L 1856 2197 
L 5006 2197 
L 5006 2941 
z
" transform="scale(0.015625)"/>
      <path id="MicrosoftYaHei-9884" d="M 531 3872 
L 844 4147 
Q 1069 3947 1275 3747 
L 1938 4553 
L 175 4553 
L 175 4991 
L 2513 4991 
L 2513 4553 
L 1588 3434 
Q 1694 3322 1794 3216 
L 1544 2997 
L 2681 2997 
L 2681 2578 
Q 2581 2097 2369 1466 
Q 2175 1534 1938 1609 
Q 2094 2003 2213 2559 
L 1588 2559 
L 1588 -72 
Q 1588 -784 888 -784 
L 225 -784 
Q 194 -559 138 -278 
Q 450 -316 769 -316 
Q 1119 -316 1119 84 
L 1119 2559 
L 113 2559 
L 113 2997 
L 1344 2997 
Q 938 3484 531 3872 
z
M 2969 3716 
L 4025 3716 
L 4181 4572 
L 2744 4572 
L 2744 5009 
L 6294 5009 
L 6294 4572 
L 4688 4572 
L 4506 3716 
L 6006 3716 
L 6006 641 
L 5550 641 
L 5550 3284 
L 3425 3284 
L 3425 641 
L 2969 641 
L 2969 3716 
z
M 4244 3028 
L 4706 3028 
L 4706 2097 
Q 4706 1366 4519 841 
Q 5500 184 6306 -441 
L 5963 -847 
Q 5200 -197 4325 428 
Q 4263 334 4200 247 
Q 3694 -397 2613 -897 
Q 2413 -641 2263 -484 
Q 3381 -22 3831 572 
Q 4244 1109 4244 2128 
L 4244 3028 
z
" transform="scale(0.015625)"/>
      <path id="MicrosoftYaHei-7ea6" d="M 2269 2884 
Q 3056 4047 3463 5341 
L 3981 5197 
Q 3794 4731 3613 4322 
L 6056 4322 
Q 5969 1472 5913 316 
Q 5856 -678 4850 -678 
Q 4263 -678 3600 -641 
Q 3556 -397 3488 -78 
Q 4200 -166 4794 -166 
Q 5369 -166 5394 441 
Q 5463 1322 5519 3853 
L 3394 3853 
Q 3053 3153 2719 2641 
Q 2519 2759 2269 2884 
z
M 981 1534 
Q 1938 1666 2556 1766 
Q 2513 1516 2500 1291 
Q 1481 1153 413 978 
L 300 1441 
Q 772 1922 1309 2766 
Q 597 2722 244 2691 
L 125 3116 
Q 813 4028 1394 5347 
L 1869 5159 
Q 1275 4016 688 3153 
Q 1150 3163 1566 3178 
Q 1813 3591 2075 4078 
L 2538 3847 
Q 1731 2509 981 1534 
z
M 113 97 
Q 1488 278 2669 484 
Q 2644 234 2631 -3 
Q 1619 -128 225 -391 
L 113 97 
z
M 3144 2584 
L 3544 2847 
Q 4144 2078 4600 1403 
L 4131 1103 
Q 3713 1791 3144 2584 
z
" transform="scale(0.015625)"/>
     </defs>
     <use xlink:href="#MicrosoftYaHei-5df2"/>
     <use xlink:href="#MicrosoftYaHei-6709" transform="translate(100 0)"/>
     <use xlink:href="#MicrosoftYaHei-9884" transform="translate(200 0)"/>
     <use xlink:href="#MicrosoftYaHei-7ea6" transform="translate(300 0)"/>
    </g>
   </g>
   <g id="text_9">
    <!-- 10:00—10:30 -->
    <g style="fill: #20344b" transform="translate(485.634187 202.508888) scale(0.12 -0.12)">
     <defs>
      <path id="MicrosoftYaHei-2014" d="M 6913 1681 
L 0 1681 
L 0 2153 
L 6913 2153 
L 6913 1681 
z
" transform="scale(0.015625)"/>
     </defs>
     <use xlink:href="#MicrosoftYaHei-31"/>
     <use xlink:href="#MicrosoftYaHei-30" transform="translate(58.642578 0)"/>
     <use xlink:href="#MicrosoftYaHei-3a" transform="translate(117.285156 0)"/>
     <use xlink:href="#MicrosoftYaHei-30" transform="translate(141.357422 0)"/>
     <use xlink:href="#MicrosoftYaHei-30" transform="translate(200 0)"/>
     <use xlink:href="#MicrosoftYaHei-2014" transform="translate(258.642578 0)"/>
     <use xlink:href="#MicrosoftYaHei-31" transform="translate(366.650391 0)"/>
     <use xlink:href="#MicrosoftYaHei-30" transform="translate(425.292969 0)"/>
     <use xlink:href="#MicrosoftYaHei-3a" transform="translate(483.935547 0)"/>
     <use xlink:href="#MicrosoftYaHei-33" transform="translate(508.007812 0)"/>
     <use xlink:href="#MicrosoftYaHei-30" transform="translate(566.650391 0)"/>
    </g>
   </g>
   <g id="text_10">
    <!-- 冲突候选 -->
    <g style="fill: #20344b" transform="translate(155.144 241.909078) scale(0.13 -0.13)">
     <use xlink:href="#MicrosoftYaHei-51b2"/>
     <use xlink:href="#MicrosoftYaHei-7a81" transform="translate(100 0)"/>
     <use xlink:href="#MicrosoftYaHei-5019" transform="translate(200 0)"/>
     <use xlink:href="#MicrosoftYaHei-9009" transform="translate(300 0)"/>
    </g>
   </g>
   <g id="text_11">
    <!-- 同一时段被占用 -->
    <g style="fill: #20344b" transform="translate(481.152 271.421888) scale(0.12 -0.12)">
     <defs>
      <path id="MicrosoftYaHei-6bb5" d="M 2844 1978 
L 2844 2422 
L 5763 2422 
L 5763 1953 
Q 5397 1069 4731 416 
Q 5378 -63 6338 -266 
Q 6144 -516 6019 -747 
Q 5031 -456 4359 88 
Q 3638 -488 2631 -853 
Q 2450 -559 2331 -422 
Q 3313 -75 3997 428 
Q 3400 1069 3138 1978 
L 2844 1978 
z
M 88 722 
Q 325 744 569 769 
L 569 4897 
Q 1931 4972 2719 5116 
L 2888 4653 
Q 2175 4559 1031 4484 
L 1031 3616 
L 2613 3616 
L 2613 3203 
L 1031 3203 
L 1031 2259 
L 2594 2259 
L 2594 1847 
L 1031 1847 
L 1031 819 
Q 1891 916 2838 1041 
Q 2831 916 2831 591 
Q 1894 484 1031 366 
L 1031 -816 
L 569 -816 
L 569 303 
Q 381 275 200 247 
L 88 722 
z
M 5738 3209 
Q 5981 3209 6306 3228 
L 6219 2759 
Q 5906 2747 5625 2747 
Q 4988 2747 4988 3459 
L 4988 4553 
L 3831 4553 
L 3831 4216 
Q 3831 3053 2938 2522 
Q 2781 2709 2600 2909 
Q 3363 3272 3363 4241 
L 3363 4997 
L 5456 4997 
L 5456 3497 
Q 5456 3209 5738 3209 
z
M 5256 1978 
L 3613 1978 
Q 3863 1241 4363 731 
Q 4956 1275 5256 1978 
z
" transform="scale(0.015625)"/>
      <path id="MicrosoftYaHei-88ab" d="M 2606 4391 
L 4225 4391 
L 4225 5303 
L 4675 5303 
L 4675 4391 
L 6163 4391 
L 6163 3997 
Q 6038 3566 5844 3159 
Q 5656 3247 5419 3322 
Q 5581 3647 5681 3978 
L 4675 3978 
L 4675 2753 
L 5794 2753 
L 5794 2378 
Q 5491 1194 4844 434 
Q 5363 -25 6313 -347 
Q 6125 -572 5956 -816 
Q 5056 -419 4509 103 
Q 3884 -459 3000 -834 
Q 2863 -622 2688 -422 
Q 3634 -59 4203 431 
Q 3575 1141 3356 2341 
L 3044 2341 
L 3044 2009 
Q 3044 197 2081 -834 
Q 1925 -616 1763 -447 
Q 2606 516 2606 2009 
L 2606 4391 
z
M 125 3641 
L 125 4097 
L 2175 4097 
L 2175 3628 
Q 1841 3038 1413 2484 
L 1413 2338 
Q 1538 2213 1650 2097 
Q 1947 2431 2138 2684 
L 2469 2409 
Q 2250 2147 1919 1816 
Q 2163 1556 2344 1347 
L 2031 1022 
Q 1772 1366 1413 1769 
L 1413 -797 
L 975 -797 
L 975 1963 
Q 641 1594 263 1241 
Q 194 1484 88 1784 
Q 1106 2634 1625 3641 
L 125 3641 
z
M 3044 2753 
L 4225 2753 
L 4225 3978 
L 3044 3978 
L 3044 2753 
z
M 5306 2341 
L 3788 2341 
Q 3988 1406 4528 766 
Q 5034 1391 5306 2341 
z
M 738 5141 
L 1163 5353 
Q 1444 4922 1656 4484 
L 1206 4259 
Q 1025 4653 738 5141 
z
" transform="scale(0.015625)"/>
      <path id="MicrosoftYaHei-5360" d="M 863 2434 
L 2775 2434 
L 2775 5259 
L 3288 5259 
L 3288 4209 
L 6150 4209 
L 6150 3747 
L 3288 3747 
L 3288 2434 
L 5525 2434 
L 5525 -841 
L 5025 -841 
L 5025 -453 
L 1363 -453 
L 1363 -853 
L 863 -853 
L 863 2434 
z
M 5025 1984 
L 1363 1984 
L 1363 -9 
L 5025 -9 
L 5025 1984 
z
" transform="scale(0.015625)"/>
      <path id="MicrosoftYaHei-7528" d="M 3088 -734 
L 3088 1253 
L 1269 1253 
Q 1163 -47 513 -903 
Q 350 -697 144 -472 
Q 550 103 694 803 
Q 831 1478 831 2716 
L 831 4947 
L 5925 4947 
L 5925 -22 
Q 5925 -766 5219 -766 
Q 4788 -766 4250 -747 
Q 4219 -541 4156 -228 
Q 4700 -266 5038 -266 
Q 5425 -266 5425 103 
L 5425 1253 
L 3588 1253 
L 3588 -734 
L 3088 -734 
z
M 3588 1703 
L 5425 1703 
L 5425 2872 
L 3588 2872 
L 3588 1703 
z
M 5425 4484 
L 3588 4484 
L 3588 3322 
L 5425 3322 
L 5425 4484 
z
M 1303 1703 
L 3088 1703 
L 3088 2872 
L 1331 2872 
Q 1350 2266 1303 1703 
z
M 1331 4484 
L 1331 3322 
L 3088 3322 
L 3088 4484 
L 1331 4484 
z
" transform="scale(0.015625)"/>
     </defs>
     <use xlink:href="#MicrosoftYaHei-540c"/>
     <use xlink:href="#MicrosoftYaHei-4e00" transform="translate(100 0)"/>
     <use xlink:href="#MicrosoftYaHei-65f6" transform="translate(200 0)"/>
     <use xlink:href="#MicrosoftYaHei-6bb5" transform="translate(300 0)"/>
     <use xlink:href="#MicrosoftYaHei-88ab" transform="translate(400 0)"/>
     <use xlink:href="#MicrosoftYaHei-5360" transform="translate(500 0)"/>
     <use xlink:href="#MicrosoftYaHei-7528" transform="translate(600 0)"/>
    </g>
   </g>
   <g id="text_12">
    <!-- 可行候选 -->
    <g style="fill: #20344b" transform="translate(155.144 310.822078) scale(0.13 -0.13)">
     <defs>
      <path id="MicrosoftYaHei-53ef" d="M 813 3409 
L 3569 3409 
L 3569 941 
L 1306 941 
L 1306 497 
L 813 497 
L 813 3409 
z
M 119 4809 
L 6294 4809 
L 6294 4334 
L 5256 4334 
L 5256 103 
Q 5256 -741 4438 -747 
Q 3850 -747 3294 -741 
Q 3263 -453 3194 -172 
Q 3900 -222 4269 -222 
Q 4731 -222 4731 278 
L 4731 4334 
L 119 4334 
L 119 4809 
z
M 3075 2966 
L 1306 2966 
L 1306 1384 
L 3075 1384 
L 3075 2966 
z
" transform="scale(0.015625)"/>
     </defs>
     <use xlink:href="#MicrosoftYaHei-53ef"/>
     <use xlink:href="#MicrosoftYaHei-884c" transform="translate(100 0)"/>
     <use xlink:href="#MicrosoftYaHei-5019" transform="translate(200 0)"/>
     <use xlink:href="#MicrosoftYaHei-9009" transform="translate(300 0)"/>
    </g>
   </g>
   <g id="text_13">
    <!-- 10:30—11:00 -->
    <g style="fill: #20344b" transform="translate(600.546187 340.334887) scale(0.12 -0.12)">
     <use xlink:href="#MicrosoftYaHei-31"/>
     <use xlink:href="#MicrosoftYaHei-30" transform="translate(58.642578 0)"/>
     <use xlink:href="#MicrosoftYaHei-3a" transform="translate(117.285156 0)"/>
     <use xlink:href="#MicrosoftYaHei-33" transform="translate(141.357422 0)"/>
     <use xlink:href="#MicrosoftYaHei-30" transform="translate(200 0)"/>
     <use xlink:href="#MicrosoftYaHei-2014" transform="translate(258.642578 0)"/>
     <use xlink:href="#MicrosoftYaHei-31" transform="translate(366.650391 0)"/>
     <use xlink:href="#MicrosoftYaHei-31" transform="translate(425.292969 0)"/>
     <use xlink:href="#MicrosoftYaHei-3a" transform="translate(483.935547 0)"/>
     <use xlink:href="#MicrosoftYaHei-30" transform="translate(508.007812 0)"/>
     <use xlink:href="#MicrosoftYaHei-30" transform="translate(566.650391 0)"/>
    </g>
   </g>
   <g id="text_14">
    <!-- 10人 ≤ 容量12人；活动30分钟；区间首尾相接不算重叠。 -->
    <g style="fill: #c97624" transform="translate(323.035781 413.355469) scale(0.14 -0.14)">
     <defs>
      <path id="MicrosoftYaHei-4eba" d="M 100 -303 
Q 2825 1272 2981 5222 
L 3531 5222 
Q 3497 4553 3400 3947 
Q 4175 822 6313 -166 
Q 6050 -453 5850 -709 
Q 3994 341 3203 3006 
Q 2519 431 494 -778 
Q 325 -547 100 -303 
z
" transform="scale(0.015625)"/>
      <path id="MicrosoftYaHei-20" transform="scale(0.015625)"/>
      <path id="MicrosoftYaHei-2264" d="M 3844 853 
L 909 2306 
L 909 2547 
L 3844 4144 
L 3844 3606 
L 1663 2447 
L 1663 2434 
L 3844 1400 
L 3844 853 
z
M 3969 0 
L 784 0 
L 784 475 
L 3969 475 
L 3969 0 
z
" transform="scale(0.015625)"/>
      <path id="MicrosoftYaHei-5bb9" d="M 3550 3147 
Q 3500 3091 3444 3022 
Q 4644 1872 6313 1447 
Q 6106 1134 6006 916 
Q 5594 1066 5225 1247 
L 5225 -859 
L 4725 -859 
L 4725 -578 
L 1669 -578 
L 1669 -859 
L 1169 -859 
L 1169 1191 
Q 763 972 338 797 
Q 225 1028 63 1241 
Q 2000 2059 3025 3228 
L 3550 3147 
z
M 363 4572 
L 3038 4572 
Q 2900 4822 2725 5109 
L 3206 5328 
Q 3438 4972 3644 4572 
L 6031 4572 
L 6031 3522 
L 5525 3522 
L 5525 4122 
L 863 4122 
L 863 3497 
L 363 3497 
L 363 4572 
z
M 4725 934 
L 1669 934 
L 1669 -128 
L 4725 -128 
L 4725 934 
z
M 3163 2684 
Q 2394 1928 1494 1384 
L 4950 1384 
Q 3869 1953 3163 2684 
z
M 2338 3847 
L 2638 3441 
Q 1488 2734 706 2359 
Q 594 2566 419 2791 
Q 1494 3259 2338 3847 
z
M 4006 3841 
Q 4944 3409 5938 2859 
L 5650 2416 
Q 4875 2891 3744 3453 
L 4006 3841 
z
" transform="scale(0.015625)"/>
      <path id="MicrosoftYaHei-91cf" d="M 113 -278 
L 2981 -278 
L 2981 78 
L 475 78 
L 475 403 
L 2981 403 
L 2981 759 
L 1494 759 
L 1494 597 
L 1069 597 
L 1069 2516 
L 5350 2516 
L 5350 597 
L 4925 597 
L 4925 759 
L 3419 759 
L 3419 403 
L 5931 403 
L 5931 78 
L 3419 78 
L 3419 -278 
L 6288 -278 
L 6288 -616 
L 113 -616 
L 113 -278 
z
M 1119 5072 
L 5306 5072 
L 5306 3284 
L 4881 3284 
L 4881 3453 
L 1544 3453 
L 1544 3284 
L 1119 3284 
L 1119 5072 
z
M 163 3153 
L 6263 3153 
L 6263 2816 
L 163 2816 
L 163 3153 
z
M 1544 3778 
L 4881 3778 
L 4881 4116 
L 1544 4116 
L 1544 3778 
z
M 4881 4747 
L 1544 4747 
L 1544 4416 
L 4881 4416 
L 4881 4747 
z
M 3419 1084 
L 4925 1084 
L 4925 1491 
L 3419 1491 
L 3419 1084 
z
M 1494 1084 
L 2981 1084 
L 2981 1491 
L 1494 1491 
L 1494 1084 
z
M 4925 2191 
L 3419 2191 
L 3419 1791 
L 4925 1791 
L 4925 2191 
z
M 1494 1791 
L 2981 1791 
L 2981 2191 
L 1494 2191 
L 1494 1791 
z
" transform="scale(0.015625)"/>
      <path id="MicrosoftYaHei-6d3b" d="M 2219 1841 
L 3769 1841 
L 3769 2891 
L 1800 2891 
L 1800 3366 
L 3769 3366 
L 3769 4413 
Q 3003 4375 2100 4341 
Q 2056 4566 2006 4816 
Q 4156 4872 6013 5072 
L 6113 4578 
Q 5356 4503 4275 4441 
L 4275 3366 
L 6313 3366 
L 6313 2891 
L 4275 2891 
L 4275 1841 
L 5825 1841 
L 5825 -847 
L 5338 -847 
L 5338 -472 
L 2706 -472 
L 2706 -847 
L 2219 -847 
L 2219 1841 
z
M 5338 1391 
L 2706 1391 
L 2706 -22 
L 5338 -22 
L 5338 1391 
z
M 1019 1766 
Q 1338 1597 1550 1516 
Q 1181 341 831 -772 
L 275 -516 
Q 706 522 1019 1766 
z
M 344 3616 
Q 988 3228 1538 2816 
Q 1350 2566 1194 2366 
Q 500 2922 44 3216 
L 344 3616 
z
M 644 5241 
Q 1244 4828 1769 4403 
Q 1600 4191 1425 3978 
Q 844 4484 331 4872 
L 644 5241 
z
" transform="scale(0.015625)"/>
      <path id="MicrosoftYaHei-52a8" d="M 2975 4022 
L 3906 4022 
Q 3916 4650 3913 5309 
L 4425 5309 
Q 4422 4656 4409 4022 
L 6094 4022 
Q 6050 1659 5969 216 
Q 5900 -666 5150 -678 
Q 4763 -678 4306 -659 
Q 4263 -397 4206 -109 
Q 4638 -166 4994 -172 
Q 5456 -172 5475 347 
Q 5569 1897 5588 3547 
L 4400 3547 
Q 4394 3278 4388 3016 
Q 4356 553 2900 -872 
Q 2725 -659 2525 -447 
Q 3831 716 3888 3028 
Q 3894 3284 3900 3547 
L 2975 3547 
L 2975 4022 
z
M 2338 1866 
Q 2731 1016 3063 178 
Q 2788 59 2594 -28 
Q 2550 91 2506 209 
Q 1316 97 338 -16 
L 119 491 
Q 394 647 563 997 
Q 869 1613 1200 2559 
L 144 2559 
L 144 3022 
L 3163 3022 
L 3163 2559 
L 1725 2559 
Q 1191 1228 800 491 
Q 1519 544 2347 631 
Q 2138 1163 1906 1672 
L 2338 1866 
z
M 406 4778 
L 2913 4778 
L 2913 4316 
L 406 4316 
L 406 4778 
z
" transform="scale(0.015625)"/>
      <path id="MicrosoftYaHei-5206" d="M 900 2559 
L 5056 2559 
Q 5025 1497 4963 484 
Q 4888 -684 3856 -678 
Q 3350 -684 2788 -647 
Q 2750 -384 2700 -116 
Q 3181 -184 3775 -191 
Q 4400 -203 4463 541 
Q 4513 1216 4538 2097 
L 2616 2097 
Q 2541 1053 2181 416 
Q 1706 -422 588 -878 
Q 425 -666 231 -459 
Q 1269 -72 1725 666 
Q 2053 1225 2103 2097 
L 900 2097 
L 900 2559 
z
M 3488 5159 
L 3938 5353 
Q 4625 3678 6350 2847 
Q 6069 2553 5944 2372 
Q 4225 3366 3488 5159 
z
M 50 2766 
Q 1338 3678 2250 5253 
L 2694 5009 
Q 1744 3347 413 2341 
Q 281 2534 50 2766 
z
" transform="scale(0.015625)"/>
      <path id="MicrosoftYaHei-949f" d="M 2663 4091 
L 4094 4091 
L 4094 5303 
L 4569 5303 
L 4569 4091 
L 6000 4091 
L 6000 1091 
L 5538 1091 
L 5538 1384 
L 4569 1384 
L 4569 -822 
L 4094 -822 
L 4094 1384 
L 3125 1384 
L 3125 1091 
L 2663 1091 
L 2663 4091 
z
M 2294 566 
Q 2294 291 2325 47 
Q 1925 -147 1394 -466 
Q 1281 -528 1131 -678 
L 800 -247 
Q 1000 -53 1000 222 
L 1000 1584 
L 144 1584 
L 144 2016 
L 1000 2016 
L 1000 2859 
L 563 2859 
L 563 3281 
Q 444 3094 319 2903 
Q 200 3128 56 3328 
Q 700 4278 1056 5341 
L 1525 5184 
Q 1363 4781 1166 4378 
L 2388 4378 
L 2388 3947 
L 944 3947 
Q 769 3619 566 3291 
L 2238 3291 
L 2238 2859 
L 1456 2859 
L 1456 2016 
L 2388 2016 
L 2388 1584 
L 1456 1584 
L 1456 97 
Q 1913 341 2294 566 
z
M 5538 3653 
L 4569 3653 
L 4569 1822 
L 5538 1822 
L 5538 3653 
z
M 3125 1822 
L 4094 1822 
L 4094 3653 
L 3125 3653 
L 3125 1822 
z
" transform="scale(0.015625)"/>
      <path id="MicrosoftYaHei-533a" d="M 600 4872 
L 5975 4872 
L 5975 4384 
L 1131 4384 
L 1131 22 
L 6075 22 
L 6075 -453 
L 600 -453 
L 600 4872 
z
M 1613 3697 
L 1963 4028 
Q 2744 3384 3597 2616 
Q 4250 3322 4850 4153 
L 5306 3847 
Q 4650 2997 3975 2272 
Q 4753 1563 5588 753 
L 5156 316 
Q 4400 1106 3600 1878 
Q 2697 963 1763 266 
Q 1613 459 1363 672 
Q 2344 1341 3228 2231 
Q 2444 2972 1613 3697 
z
" transform="scale(0.015625)"/>
      <path id="MicrosoftYaHei-9996" d="M 906 3303 
L 2706 3303 
Q 2775 3659 2819 3978 
L 175 3978 
L 175 4416 
L 2081 4416 
Q 1825 4816 1581 5109 
L 1963 5366 
Q 2369 4928 2581 4622 
L 2297 4416 
L 3772 4416 
Q 4053 4828 4369 5359 
L 4856 5091 
Q 4600 4753 4325 4416 
L 6250 4416 
L 6250 3978 
L 3344 3978 
Q 3269 3656 3181 3303 
L 5538 3303 
L 5538 -834 
L 5063 -834 
L 5063 -459 
L 1381 -459 
L 1381 -834 
L 906 -834 
L 906 3303 
z
M 1381 -34 
L 5063 -34 
L 5063 666 
L 1381 666 
L 1381 -34 
z
M 5063 2878 
L 1381 2878 
L 1381 2184 
L 5063 2184 
L 5063 2878 
z
M 1381 1078 
L 5063 1078 
L 5063 1772 
L 1381 1772 
L 1381 1078 
z
" transform="scale(0.015625)"/>
      <path id="MicrosoftYaHei-5c3e" d="M 1225 2328 
Q 1225 209 406 -872 
Q 256 -666 50 -447 
Q 725 459 725 2316 
L 725 4997 
L 5769 4997 
L 5769 3284 
L 5281 3284 
L 5281 3434 
L 1225 3434 
L 1225 2328 
z
M 1275 784 
L 3094 922 
L 3094 1491 
L 1488 1372 
L 1419 1797 
L 3094 1919 
L 3094 2484 
Q 2322 2422 1550 2372 
Q 1500 2559 1413 2797 
Q 3606 2916 5444 3147 
L 5588 2734 
Q 4584 2619 3581 2528 
L 3581 1956 
L 5744 2116 
L 5800 1697 
L 3581 1528 
L 3581 959 
L 6144 1153 
L 6200 734 
L 3581 531 
L 3581 359 
Q 3581 -191 4075 -191 
L 5244 -191 
Q 5650 -191 5719 141 
Q 5769 359 5800 616 
Q 5963 553 6281 453 
Q 6231 166 6169 -53 
Q 6044 -647 5375 -647 
L 3956 -647 
Q 3094 -647 3094 284 
L 3094 494 
L 1344 359 
L 1275 784 
z
M 5281 4559 
L 1225 4559 
L 1225 3872 
L 5281 3872 
L 5281 4559 
z
" transform="scale(0.015625)"/>
      <path id="MicrosoftYaHei-76f8" d="M 2738 4891 
L 6025 4891 
L 6025 -822 
L 5550 -822 
L 5550 -397 
L 3213 -397 
L 3213 -822 
L 2738 -822 
L 2738 4891 
z
M 94 1409 
Q 784 2372 1128 3622 
L 169 3622 
L 169 4041 
L 1138 4041 
L 1138 5284 
L 1594 5284 
L 1594 4041 
L 2506 4041 
L 2506 3622 
L 1594 3622 
L 1594 2534 
L 1844 2791 
Q 2275 2372 2638 1984 
L 2300 1653 
Q 1956 2059 1594 2444 
L 1594 -809 
L 1138 -809 
L 1138 2444 
Q 800 1516 319 866 
Q 225 1134 94 1409 
z
M 3213 28 
L 5550 28 
L 5550 1241 
L 3213 1241 
L 3213 28 
z
M 5550 4466 
L 3213 4466 
L 3213 3266 
L 5550 3266 
L 5550 4466 
z
M 3213 1653 
L 5550 1653 
L 5550 2853 
L 3213 2853 
L 3213 1653 
z
" transform="scale(0.015625)"/>
      <path id="MicrosoftYaHei-63a5" d="M 1800 -366 
Q 3019 -188 3784 222 
Q 3200 484 2531 772 
Q 2800 1119 3028 1466 
L 2000 1466 
L 2000 1884 
L 3291 1884 
Q 3491 2222 3656 2559 
L 4119 2366 
Q 3969 2116 3822 1884 
L 6225 1884 
L 6225 1466 
L 5403 1466 
Q 5156 778 4672 306 
Q 5469 -25 6219 -353 
L 5944 -816 
Q 5241 -444 4288 -3 
Q 3450 -572 2038 -841 
Q 1950 -634 1800 -366 
z
M 100 1966 
Q 544 2088 963 2213 
L 963 3641 
L 175 3641 
L 175 4091 
L 963 4091 
L 963 5259 
L 1425 5259 
L 1425 4091 
L 2144 4091 
L 2144 3641 
L 1425 3641 
L 1425 2356 
Q 1722 2450 2006 2547 
Q 2013 2266 2044 2059 
Q 1722 1956 1425 1856 
L 1425 -72 
Q 1425 -747 819 -753 
Q 588 -759 231 -747 
Q 206 -491 156 -228 
Q 531 -266 688 -266 
Q 963 -266 963 66 
L 963 1703 
Q 534 1559 163 1428 
L 100 1966 
z
M 2019 3072 
L 4453 3072 
Q 4850 3622 5156 4103 
L 5625 3847 
Q 5300 3456 4966 3072 
L 6269 3072 
L 6269 2653 
L 2019 2653 
L 2019 3072 
z
M 2263 4591 
L 4028 4591 
Q 3881 4875 3719 5153 
L 4138 5347 
Q 4338 5009 4519 4666 
L 4359 4591 
L 6119 4591 
L 6119 4172 
L 2263 4172 
L 2263 4591 
z
M 3181 909 
Q 3703 703 4203 497 
Q 4694 894 4900 1466 
L 3553 1466 
Q 3363 1175 3181 909 
z
M 2825 3853 
L 3188 4097 
Q 3481 3753 3756 3372 
L 3356 3103 
Q 3119 3491 2825 3853 
z
" transform="scale(0.015625)"/>
      <path id="MicrosoftYaHei-7b97" d="M 969 3728 
L 2006 3728 
Q 1775 4016 1544 4266 
L 1769 4428 
L 1244 4428 
Q 875 3963 400 3566 
Q 263 3722 88 3884 
Q 856 4484 1300 5347 
L 1831 5347 
Q 1684 5059 1506 4791 
L 3325 4791 
L 3325 4428 
L 1919 4428 
Q 2144 4200 2369 3953 
L 2072 3728 
L 4953 3728 
Q 4716 4003 4425 4266 
L 4641 4428 
L 4019 4428 
Q 3772 4050 3506 3753 
Q 3344 3897 3125 4047 
Q 3656 4603 4000 5347 
L 4538 5347 
Q 4394 5053 4244 4791 
L 6225 4791 
L 6225 4428 
L 4800 4428 
Q 5069 4206 5294 3972 
L 4991 3728 
L 5475 3728 
L 5475 916 
L 5038 916 
L 5038 1122 
L 1406 1122 
L 1406 916 
L 969 916 
L 969 3728 
z
M 150 609 
L 1850 609 
Q 1875 788 1875 1003 
L 2331 1003 
Q 2331 794 2309 609 
L 4356 609 
L 4356 997 
L 4819 997 
L 4819 609 
L 6300 609 
L 6300 222 
L 4819 222 
L 4819 -828 
L 4356 -828 
L 4356 222 
L 2244 222 
Q 2019 -619 763 -884 
Q 644 -691 488 -472 
Q 1525 -297 1756 222 
L 150 222 
L 150 609 
z
M 5038 3378 
L 1406 3378 
L 1406 2959 
L 5038 2959 
L 5038 3378 
z
M 1406 1472 
L 5038 1472 
L 5038 1891 
L 1406 1891 
L 1406 1472 
z
M 1406 2216 
L 5038 2216 
L 5038 2634 
L 1406 2634 
L 1406 2216 
z
" transform="scale(0.015625)"/>
      <path id="MicrosoftYaHei-91cd" d="M 113 -203 
L 2975 -203 
L 2975 259 
L 600 259 
L 600 628 
L 2975 628 
L 2975 1153 
L 1288 1153 
L 1288 928 
L 850 928 
L 850 3278 
L 2975 3278 
L 2975 3728 
L 163 3728 
L 163 4116 
L 2975 4116 
L 2975 4606 
Q 1841 4572 625 4547 
Q 588 4747 538 4972 
Q 3706 5009 5669 5141 
L 5744 4716 
Q 4631 4663 3425 4619 
L 3425 4116 
L 6263 4116 
L 6263 3728 
L 3425 3728 
L 3425 3278 
L 5569 3278 
L 5569 934 
L 5131 934 
L 5131 1153 
L 3425 1153 
L 3425 628 
L 5806 628 
L 5806 259 
L 3425 259 
L 3425 -203 
L 6263 -203 
L 6263 -591 
L 113 -591 
L 113 -203 
z
M 3425 1516 
L 5131 1516 
L 5131 2053 
L 3425 2053 
L 3425 1516 
z
M 1288 1516 
L 2975 1516 
L 2975 2053 
L 1288 2053 
L 1288 1516 
z
M 5131 2916 
L 3425 2916 
L 3425 2384 
L 5131 2384 
L 5131 2916 
z
M 1288 2384 
L 2975 2384 
L 2975 2916 
L 1288 2916 
L 1288 2384 
z
" transform="scale(0.015625)"/>
      <path id="MicrosoftYaHei-53e0" d="M 131 -309 
L 1188 -309 
L 1188 1534 
L 5206 1534 
L 5206 -309 
L 6263 -309 
L 6263 -622 
L 131 -622 
L 131 -309 
z
M 969 4416 
L 1094 4691 
Q 2100 4581 3375 4397 
Q 3972 4563 4538 4791 
L 869 4791 
L 869 5103 
L 5294 5103 
L 5294 4753 
Q 4709 4491 4063 4288 
Q 4819 4159 5638 3997 
L 5513 3653 
Q 4453 3919 3406 4100 
Q 2166 3784 713 3672 
Q 644 3841 550 3984 
Q 1634 4016 2638 4219 
Q 1828 4334 969 4416 
z
M 3288 2934 
L 3413 3209 
Q 4078 3072 4681 2916 
Q 5097 3078 5425 3297 
L 3350 3297 
L 3350 3584 
L 5956 3584 
L 5956 3284 
Q 5591 3006 5144 2794 
Q 5675 2644 6188 2484 
L 6025 2184 
Q 5372 2422 4719 2609 
Q 4094 2372 3338 2241 
Q 3256 2391 3150 2547 
Q 3703 2619 4172 2747 
Q 3766 2841 3288 2934 
z
M 375 2172 
L 6025 2172 
L 6025 1334 
L 5588 1334 
L 5588 1859 
L 813 1859 
L 813 1334 
L 375 1334 
L 375 2172 
z
M 363 2966 
L 494 3234 
Q 1094 3091 1775 2913 
Q 2166 3075 2506 3297 
L 338 3297 
L 338 3584 
L 2988 3584 
L 2988 3284 
Q 2625 3003 2209 2791 
Q 2597 2675 2975 2559 
L 2850 2247 
Q 2341 2438 1791 2600 
Q 1134 2331 356 2209 
Q 281 2359 175 2509 
Q 772 2581 1288 2741 
Q 809 2863 363 2966 
z
M 1600 297 
L 4794 297 
L 4794 622 
L 1600 622 
L 1600 297 
z
M 4794 1234 
L 1600 1234 
L 1600 909 
L 4794 909 
L 4794 1234 
z
M 1600 -309 
L 4794 -309 
L 4794 9 
L 1600 9 
L 1600 -309 
z
" transform="scale(0.015625)"/>
     </defs>
     <use xlink:href="#MicrosoftYaHei-31"/>
     <use xlink:href="#MicrosoftYaHei-30" transform="translate(58.642578 0)"/>
     <use xlink:href="#MicrosoftYaHei-4eba" transform="translate(117.285156 0)"/>
     <use xlink:href="#MicrosoftYaHei-20" transform="translate(217.285156 0)"/>
     <use xlink:href="#MicrosoftYaHei-2264" transform="translate(246.875 0)"/>
     <use xlink:href="#MicrosoftYaHei-20" transform="translate(321.044922 0)"/>
     <use xlink:href="#MicrosoftYaHei-5bb9" transform="translate(350.634766 0)"/>
     <use xlink:href="#MicrosoftYaHei-91cf" transform="translate(450.634766 0)"/>
     <use xlink:href="#MicrosoftYaHei-31" transform="translate(550.634766 0)"/>
     <use xlink:href="#MicrosoftYaHei-32" transform="translate(609.277344 0)"/>
     <use xlink:href="#MicrosoftYaHei-4eba" transform="translate(667.919922 0)"/>
     <use xlink:href="#MicrosoftYaHei-ff1b" transform="translate(767.919922 0)"/>
     <use xlink:href="#MicrosoftYaHei-6d3b" transform="translate(867.919922 0)"/>
     <use xlink:href="#MicrosoftYaHei-52a8" transform="translate(967.919922 0)"/>
     <use xlink:href="#MicrosoftYaHei-33" transform="translate(1067.919922 0)"/>
     <use xlink:href="#MicrosoftYaHei-30" transform="translate(1126.5625 0)"/>
     <use xlink:href="#MicrosoftYaHei-5206" transform="translate(1185.205078 0)"/>
     <use xlink:href="#MicrosoftYaHei-949f" transform="translate(1285.205078 0)"/>
     <use xlink:href="#MicrosoftYaHei-ff1b" transform="translate(1385.205078 0)"/>
     <use xlink:href="#MicrosoftYaHei-533a" transform="translate(1485.205078 0)"/>
     <use xlink:href="#MicrosoftYaHei-95f4" transform="translate(1585.205078 0)"/>
     <use xlink:href="#MicrosoftYaHei-9996" transform="translate(1685.205078 0)"/>
     <use xlink:href="#MicrosoftYaHei-5c3e" transform="translate(1785.205078 0)"/>
     <use xlink:href="#MicrosoftYaHei-76f8" transform="translate(1885.205078 0)"/>
     <use xlink:href="#MicrosoftYaHei-63a5" transform="translate(1985.205078 0)"/>
     <use xlink:href="#MicrosoftYaHei-4e0d" transform="translate(2085.205078 0)"/>
     <use xlink:href="#MicrosoftYaHei-7b97" transform="translate(2185.205078 0)"/>
     <use xlink:href="#MicrosoftYaHei-91cd" transform="translate(2285.205078 0)"/>
     <use xlink:href="#MicrosoftYaHei-53e0" transform="translate(2385.205078 0)"/>
     <use xlink:href="#MicrosoftYaHei-3002" transform="translate(2485.205078 0)"/>
    </g>
   </g>
  </g>
 </g>
 <defs>
  <clipPath id="p2574fe2723">
   <rect x="25.2" y="9.36" width="957.6" height="444.6"/>
  </clipPath>
 </defs>
</svg>
